<?xml version="1.0" standalone="no"?>
<!DOCTYPE svg PUBLIC "-//W3C//DTD SVG 1.1//EN" "http://www.w3.org/Graphics/SVG/1.1/DTD/svg11.dtd" >
<svg xmlns="http://www.w3.org/2000/svg" xmlns:xlink="http://www.w3.org/1999/xlink" version="1.1">
<metadata>
Created by FontForge 20170812 at Wed Feb 23 15:43:09 2022
 By www-data
Copyright (c) 2022 I.R.E Type Foundry / SportieTootie Fonts., All rights reserved. This font is for Tokcel Restaurant only. And it's made by I.R.E
</metadata>
<defs>
<font id="tokcelwebfont-bold" horiz-adv-x="0" >
  <font-face 
    font-family="Tokcel Webfont"
    font-weight="700"
    font-stretch="normal"
    units-per-em="1000"
    panose-1="2 0 5 3 0 0 0 0 0 0"
    ascent="800"
    descent="-200"
    x-height="542"
    cap-height="744"
    bbox="-99 -411 2010 1076"
    underline-thickness="50"
    underline-position="-150"
    unicode-range="U+0020-FEFC"
  />
<missing-glyph horiz-adv-x="608" 
d="M473 683h-350v-590h350v590zM73 733h450v-690h-450v690z" />
    <glyph glyph-name="fj" unicode="fj" horiz-adv-x="458" 
d="M276 789q55 0 83 -9l11 -3v-82l-19 6q-28 8 -74 8q-16 0 -34 -1q-11 -1 -31.5 -8t-36.5 -20q-37 -29 -37 -82v-40h268v-580q0 -87 -53 -141q-28 -27 -64 -40q-30 -9 -54 -9h-19v80h19q7 0 21 4q23 7 39 22q31 30 31 84v500h-188v-495h-81v495h-43v80h43v40q0 86 53 139
q52 46 125 51q21 1 41 1z" />
    <glyph glyph-name="uniFB01" unicode="fi" horiz-adv-x="458" 
d="M250 773q21 1 41 1q54 0 82 -9l11 -3l1 -82l-19 6q-28 8 -73 8q-17 0 -35 -1q-11 -1 -31.5 -8t-36.5 -20q-37 -29 -37 -82v-40h267v-545h-80v465h-187v-465h-81v465h-43v80h43v40q0 86 53 139q52 46 125 51z" />
    <glyph glyph-name="uniFB02" unicode="fl" horiz-adv-x="466" 
d="M347 -2v750h80v-750h-80zM258 773q19 1 35 1q53 0 81 -9l11 -3v-82l-19 6q-28 8 -72 8q-13 0 -28 -1q-11 -1 -33.5 -8t-39.5 -20q-40 -29 -40 -82v-40h202v-80h-202v-465h-81v465h-43v80h43v40q0 86 53 139q54 46 133 51z" />
    <glyph glyph-name="uniFDF2" unicode="&#xfedf;&#xfee0;&#xfeea;" horiz-adv-x="1223" arabic-form="isolated" 
d="M872 808h-33v-69q0 -21 -14 -21q-28 0 -28 37v53h-33v-53q0 -37 -28 -37q-12 0 -14 21v69h-33v-78q0 -47 46 -47q35 0 47 43q13 -43 46 -43q44 0 44 47v78zM1190 181v464h-111v-426q0 -64 -15.5 -84.5t-59.5 -20.5h-180q25 28 25 116v405h-111v-411q0 -62 -18 -86
t-61 -24h-61q-112 0 -112 120v317h-247q-96 0 -151.5 -65t-55.5 -178q0 -105 56 -170t151 -65q75 0 128 75q17 -67 66.5 -107.5t114.5 -40.5h474q168 0 168 181zM370 319q0 -66 -32 -109.5t-85 -43.5q-49 0 -79.5 41.5t-30.5 101.5q0 70 34 112.5t92 42.5h101v-145z" />
    <glyph glyph-name="uniFEF5" unicode="&#xfedf;&#xfe82;" horiz-adv-x="580" arabic-form="isolated" 
d="M546 645h-109v-413q0 -68 -28 -96q-22 -22 -68 -22l-125 460h-118l126 -460h-153v-114h299q81 0 128.5 43t47.5 114v488zM265 662l-9 35q-22 -28 -46 -28q-16 0 -53 25t-54 25q-27 0 -51 -42l9 -34q19 27 42 27q24 0 58 -25t50 -25q27 0 54 42z" />
    <glyph glyph-name="uniFEF6" unicode="&#xfee0;&#xfe82;" horiz-adv-x="678" arabic-form="final" 
d="M697 0v114h-155q4 19 4 43v488h-109v-413q0 -68 -28 -96q-22 -22 -68 -22l-125 460h-118l126 -460h-153v-114h626zM265 662l-9 35q-22 -28 -46 -28q-16 0 -53 25t-54 25q-27 0 -51 -42l9 -34q19 27 42 27q24 0 58 -25t50 -25q27 0 54 42z" />
    <glyph glyph-name="uniFEF7" unicode="&#xfedf;&#xfe84;" horiz-adv-x="580" arabic-form="isolated" 
d="M546 645h-109v-413q0 -68 -28 -96q-22 -22 -68 -22l-125 460h-118l126 -460h-153v-114h299q81 0 128.5 43t47.5 114v488zM244 622v46h-81q-18 10 -18 37q0 15 9.5 26.5t24.5 11.5q24 0 28 -22l36 19q-21 44 -63 44q-33 0 -55.5 -23t-22.5 -58q0 -7 9 -35h-40v-46h173z
" />
    <glyph glyph-name="uniFEF8" unicode="&#xfee0;&#xfe84;" horiz-adv-x="678" arabic-form="final" 
d="M697 0v114h-155q4 19 4 43v488h-109v-413q0 -68 -28 -96q-22 -22 -68 -22l-125 460h-118l126 -460h-153v-114h626zM244 622v46h-81q-18 10 -18 37q0 15 9.5 26.5t24.5 11.5q24 0 28 -22l36 19q-21 44 -63 44q-33 0 -55.5 -23t-22.5 -58q0 -7 9 -35h-40v-46h173z" />
    <glyph glyph-name="uniFEF9" unicode="&#xfedf;&#xfe88;" horiz-adv-x="580" arabic-form="isolated" 
d="M546 645h-109v-413q0 -68 -28 -96q-22 -22 -68 -22l-125 460h-118l126 -460h-153v-114h299q81 0 128.5 43t47.5 114v488zM250 -205v46h-81q-18 11 -18 38q0 16 9.5 27.5t24.5 11.5q24 0 28 -22l36 17q-21 46 -63 46q-32 0 -55 -24t-23 -59q0 -6 9 -35h-40v-46h173z" />
    <glyph glyph-name="uniFEFA" unicode="&#xfee0;&#xfe88;" horiz-adv-x="678" arabic-form="final" 
d="M697 0v114h-155q4 19 4 43v488h-109v-413q0 -68 -28 -96q-22 -22 -68 -22l-125 460h-118l126 -460h-153v-114h626zM250 -205v46h-81q-18 11 -18 38q0 16 9.5 27.5t24.5 11.5q24 0 28 -22l36 17q-21 46 -63 46q-32 0 -55 -24t-23 -59q0 -6 9 -35h-40v-46h173z" />
    <glyph glyph-name="uniFEFB" unicode="&#xfedf;&#xfe8e;" horiz-adv-x="580" arabic-form="isolated" 
d="M546 645h-109v-413q0 -68 -28 -96q-22 -22 -68 -22l-125 460h-118l126 -460h-153v-114h299q81 0 128.5 43t47.5 114v488z" />
    <glyph glyph-name="uniFEFC" unicode="&#xfee0;&#xfe8e;" horiz-adv-x="678" arabic-form="final" 
d="M698 0v114h-156q4 19 4 43v488h-109v-413q0 -68 -28 -96q-22 -22 -68 -22l-125 460h-118l126 -460h-153v-114h627z" />
    <glyph glyph-name="uniFB50" unicode="&#x671;" horiz-adv-x="214" arabic-form="isolated" 
d="M182 0v646h-111v-646h111zM234 701q0 121 -72 130h-7q-19 0 -42 -14q-36 -23 -62 -81v59l-24 1v-64h-28v-31h235zM199 730l-129 1q43 67 86 67q43 -1 43 -64v-4z" />
    <glyph glyph-name="uniFB51" unicode="&#x671;" horiz-adv-x="346" arabic-form="final" 
d="M366 0v114h-66q-63 0 -86 17q-32 23 -32 96v418h-111v-463q0 -83 40 -130q43 -52 124 -52h131zM234 701q0 121 -72 130h-7q-19 0 -42 -14q-36 -23 -62 -81v59l-24 1v-64h-28v-31h235zM199 730l-129 1q43 67 86 67q43 -1 43 -64v-4z" />
    <glyph glyph-name="uniFB56" unicode="&#x67e;" horiz-adv-x="901" arabic-form="isolated" 
d="M868 454h-110v-217q0 -77 -42 -104q-28 -19 -105 -19h-274q-91 0 -137 32q-57 39 -57 137v171h-111v-171q0 -283 318 -283h363q74 0 114.5 42.5t40.5 117.5v294zM620 -178v112h-110v-112h110zM431 -178v112h-110v-112h110zM527 -336v112h-109v-112h109z" />
    <glyph glyph-name="uniFB57" unicode="&#x67e;" horiz-adv-x="1020" arabic-form="final" 
d="M1032 0v114h-189q25 28 25 116v224h-112v-230q0 -54 -12 -76q-16 -34 -67 -34h-340q-91 0 -137 32q-57 39 -57 137v171h-111v-171q0 -283 318 -283h682zM636 -178v112h-110v-112h110zM446 -178v112h-109v-112h109zM543 -336v112h-110v-112h110z" />
    <glyph glyph-name="uniFB58" unicode="&#x67e;" horiz-adv-x="301" arabic-form="initial" 
d="M268 181v273h-112v-235q0 -54 -8 -72q-16 -33 -71 -33h-85v-114h108q168 0 168 181zM264 -178v112h-110v-112h110zM74 -178v112h-110v-112h110zM171 -336v112h-110v-112h110z" />
    <glyph glyph-name="uniFB59" unicode="&#x67e;" horiz-adv-x="431" arabic-form="medial" 
d="M278 -178v112h-109v-112h109zM89 -178v112h-110v-112h110zM185 -336v112h-109v-112h109zM446 0v114h-192q24 28 24 116v224h-111v-230q0 -54 -12 -76q-18 -34 -67 -34h-104v-114h462z" />
    <glyph glyph-name="uniFB6A" unicode="&#x6a4;" horiz-adv-x="951" arabic-form="isolated" 
d="M751 703v112h-109v-112h109zM845 546v111h-110v-111h110zM656 546v111h-110v-111h110zM918 230q0 100 -63 167t-161 67q-99 0 -162.5 -65t-63.5 -166q0 -57 28 -120v1h-159q-102 0 -148 39.5t-46 129.5v151h-111v-151q0 -283 307 -283h355q100 0 162 65t62 165zM803 230
q0 -56 -28.5 -91.5t-78.5 -35.5q-49 0 -80.5 37.5t-31.5 93.5q0 58 29 93t78 35t80.5 -37.5t31.5 -94.5z" />
    <glyph glyph-name="uniFB6B" unicode="&#x6a4;" horiz-adv-x="1072" arabic-form="final" 
d="M810 781v111h-109v-111h109zM904 622v112h-110v-112h110zM714 622v112h-110v-112h110zM1093 0v114h-106q-76 0 -93 11q46 36 73 94q24 51 24 106q0 38 -13 65q-32 72 -86 111q-58 43 -134 43q-75 0 -133.5 -41t-86.5 -113q-12 -30 -12 -69q0 -55 24 -104q26 -56 72 -92
q-17 -11 -93 -11h-192q-91 0 -137 32q-57 39 -57 137v151h-111v-151q0 -283 318 -283h186q143 0 222 55q76 -55 223 -55h112zM820 203q-23 -17 -62 -37q-29 14 -61 37q-66 48 -66 128q0 53 31 87q35 38 96 38t96 -38q32 -35 32 -87q0 -81 -66 -128z" />
    <glyph glyph-name="uniFB6C" unicode="&#x6a4;" horiz-adv-x="599" arabic-form="initial" 
d="M400 703v112h-110v-112h110zM493 546v111h-109v-111h109zM304 546v111h-109v-111h109zM567 230q0 100 -63 167t-161 67q-100 0 -163 -64.5t-63 -166.5q0 -64 29 -119h-159v-114h356q100 0 162 65t62 165zM452 230q0 -56 -29.5 -91.5t-77.5 -35.5q-49 0 -81 38t-32 93
q0 58 29.5 93t77.5 35q50 0 81.5 -37.5t31.5 -94.5z" />
    <glyph glyph-name="uniFB6D" unicode="&#x6a4;" horiz-adv-x="642" arabic-form="medial" 
d="M286 622v112h-110v-112h110zM475 622v112h-110v-112h110zM382 781v111h-110v-111h110zM661 0v114h-104q-76 0 -93 11q48 37 73 94q24 51 24 106q0 101 -70.5 160t-162.5 59q-75 0 -133.5 -41t-86.5 -113q-12 -30 -12 -69q0 -53 23 -104q26 -56 74 -92q-19 -11 -93 -11
h-117v-114h123q144 0 221 55q79 -55 223 -55h111zM389 203q-21 -16 -61 -37q-32 15 -62 37q-66 48 -66 128q0 52 32 87q35 38 96 38t96 -38q31 -34 31 -87q0 -81 -66 -128z" />
    <glyph glyph-name="uniFB7A" unicode="&#x686;" horiz-adv-x="543" arabic-form="isolated" 
d="M407 91v80h-79v-80h79zM272 91v80h-78v-80h78zM340 -21v79h-78v-79h78zM511 305q0 99 -61 179q-75 99 -227 99q-46 0 -86 -17v-96q28 16 78 16q75 0 118 -37.5t57 -119.5h-123q-105 0 -166 -58q-69 -65 -69 -189t83 -190q73 -57 198 -57h80v117h-121q-53 0 -91 35
q-37 34 -37 90q0 63 35.5 100t92.5 37h239v91z" />
    <glyph glyph-name="uniFB7B" unicode="&#x686;" horiz-adv-x="689" arabic-form="final" 
d="M407 91v80h-79v-80h79zM272 91v80h-78v-80h78zM340 -21v79h-78v-79h78zM706 0v114h-26q-54 0 -95 34q-60 47 -74 157q-17 143 -88.5 210.5t-199.5 67.5q-46 0 -86 -17v-96q28 16 78 16q75 0 118 -37.5t57 -119.5h-123q-105 0 -166 -58q-69 -65 -69 -189t83 -190
q73 -57 198 -57h80v117h-121q-53 0 -91 35q-37 34 -37 90q0 63 35.5 100t92.5 37h135q14 -74 77 -136q81 -78 196 -78h26z" />
    <glyph glyph-name="uniFB7C" unicode="&#x686;" horiz-adv-x="715" arabic-form="initial" 
d="M498 -178v112h-110v-112h110zM309 -178v112h-110v-112h110zM405 -336v112h-110v-112h110zM683 70q0 235 -142 329q-80 55 -192 55q-67 0 -132 -28q-59 -26 -107 -71q39 -59 54 -88q36 41 90 63q45 19 84 19q111 0 172 -76q52 -65 52 -159h-583v-114h704v70z" />
    <glyph glyph-name="uniFB7D" unicode="&#x686;" horiz-adv-x="774" arabic-form="medial" 
d="M515 -178v112h-109v-112h109zM325 -178v112h-109v-112h109zM422 -336v112h-109v-112h109zM787 0v114h-106q-13 208 -150 292q-78 48 -182 48q-67 0 -132 -28q-59 -26 -107 -71q39 -59 54 -88q36 41 90 63q45 19 84 19q111 0 172 -76q52 -65 52 -159h-578v-114h803z" />
    <glyph glyph-name="uniFB8A" unicode="&#x698;" horiz-adv-x="325" arabic-form="isolated" 
d="M293 454h-112v-382q0 -142 -139 -142v-96q130 0 190.5 60.5t60.5 194.5v365zM103 546v112h-110v-112h110zM292 546v112h-110v-112h110zM199 705v111h-110v-111h110z" />
    <glyph glyph-name="uniFB8B" unicode="&#x698;" horiz-adv-x="443" arabic-form="final" 
d="M465 0v114h-172v340h-112v-382q0 -142 -139 -142v-96q103 0 167 43t77 123h179zM103 546v112h-110v-112h110zM292 546v112h-110v-112h110zM199 705v111h-110v-111h110z" />
    <glyph glyph-name="uniFBFE" unicode="&#x6cc;" horiz-adv-x="308" arabic-form="initial" 
d="M276 181v273h-112v-235q0 -53 -8 -72q-16 -33 -71 -33h-94v-114h118q167 0 167 181zM84 -219v112h-110v-112h110zM273 -219v112h-110v-112h110z" />
    <glyph glyph-name="uniFBFF" unicode="&#x6cc;" horiz-adv-x="432" arabic-form="medial" 
d="M276 -219v112h-110v-112h110zM87 -219v112h-110v-112h110zM446 0v114h-192q24 28 24 116v224h-111v-230q0 -54 -12 -76q-18 -34 -67 -34h-104v-114h462z" />
    <glyph glyph-name="uniFC5E" unicode="&#xfc5e;" arabic-form="isolated" 
d="M173 925q0 21 -13.5 38.5t-38.5 17.5q-21 0 -33.5 -15t-12.5 -35q0 -30 27 -54q-10 -9 -32 -16.5t-38 -7.5q18 19 18 45q0 44 -38 44q-31 0 -41 -31q14 11 27 11q28 0 28 -29q0 -31 -21 -45q4 -8 13 -23q73 0 114 33t41 67zM207 752l-17 78l-32 -8l14 -67q1 -4 1 -9
q0 -15 -13 -15q-26 0 -32 30l-11 53l-32 -8l11 -52q1 -4 1 -12q0 -14 -8 -22t-16 -8q-11 0 -15 18l-15 68l-31 -6l16 -78q8 -38 42 -38q46 0 48 54q20 -33 44 -33q22 0 34 10t12 26q0 12 -1 19zM124 957q10 0 18 -8t8 -18q0 -22 -30 -40q-21 13 -21 40q0 26 25 26z" />
    <glyph glyph-name="uniFC5F" unicode="&#xfc5f;" arabic-form="isolated" 
d="M204 880l-16 78l-32 -7l15 -68v-9q0 -15 -13 -15q-26 0 -32 31l-11 52l-33 -7l12 -53q1 -3 1 -12q0 -13 -8 -21t-16 -8q-10 0 -15 17l-15 69l-31 -7l16 -77q8 -38 42 -38q46 0 48 53q20 -33 44 -33q22 0 34.5 10.5t12.5 25.5q0 9 -3 19zM231 809l-154 -36
q-30 -10 -39 -38q138 29 145 30q45 10 48 44zM219 746l-154 -36q-30 -11 -39 -38q38 8 74.5 16t52.5 11.5t19 3.5q44 11 47 43z" />
    <glyph glyph-name="uniFC60" unicode="&#xfc60;" arabic-form="isolated" 
d="M223 885l-154 -37q-29 -11 -39 -37q139 29 146 30q42 10 47 44zM235 741l-16 76l-32 -6l15 -68q1 -3 1 -9q0 -14 -14 -14q-25 0 -31 30l-11 53l-34 -8l11 -52q2 -10 2 -12q0 -14 -7.5 -22t-16.5 -8q-11 0 -14 18l-15 68l-32 -7l16 -77q8 -38 43 -38q22 0 34.5 14.5
t13.5 39.5q19 -34 44 -34q22 0 34 11t12 26q0 7 -3 19z" />
    <glyph glyph-name="uniFC61" unicode="&#xfc61;" arabic-form="isolated" 
d="M185 916q0 21 -14 38.5t-38 17.5q-22 0 -34.5 -15t-12.5 -35q0 -30 27 -53q-11 -11 -42 -20.5t-55 -9.5l14 -23q71 0 113 33t42 67zM226 747l-16 76l-32 -7l15 -67q1 -4 1 -9q0 -15 -14 -15q-26 0 -32 30l-11 53l-32 -8l11 -51q1 -5 1 -12q0 -14 -8 -22t-16 -8
q-10 0 -15 17l-14 68l-32 -6l16 -77q8 -38 42 -38q46 0 48 54q19 -34 45 -34q22 0 34 10t12 26q0 8 -3 20zM135 948q11 0 18.5 -8t7.5 -18q0 -22 -30 -40q-21 14 -21 40t25 26z" />
    <glyph glyph-name="uniFC62" unicode="&#xfc62;" arabic-form="isolated" 
d="M230 806l-16 77l-32 -7l14 -68q1 -3 1 -8q0 -15 -13 -15q-26 0 -32 30l-11 53l-32 -7l11 -53q1 -4 1 -12q0 -14 -8 -21.5t-16 -7.5q-10 0 -15 17l-15 68l-31 -7l16 -77q7 -37 42 -37q46 0 48 53q20 -33 44 -33q22 0 34 10t12 26q0 3 -2 19zM258 742l-154 -37
q-30 -11 -39 -38q38 8 74.5 16t52.5 11.5t19 3.5q42 10 47 44z" />
    <glyph glyph-name="uniFD3C" unicode="&#xfd3c;" horiz-adv-x="346" arabic-form="final" 
d="M248 817l-155 -36q-30 -10 -39 -38l10 2q34 7 69 14.5t49.5 10.5t17.5 4q43 10 48 43zM236 755l-155 -36q-30 -10 -39 -38q139 29 146 30q43 10 48 44zM366 0v114h-66q-63 0 -86 17q-32 23 -32 96v418h-111v-463q0 -83 40 -130q43 -52 124 -52h131z" />
    <glyph glyph-name="uniFD3D" unicode="&#xfd3d;" horiz-adv-x="214" arabic-form="isolated" 
d="M182 0v646h-111v-646h111zM238 817l-155 -36q-30 -10 -39 -38q139 29 146 31q43 10 48 43zM226 755l-155 -36q-30 -10 -39 -38q139 29 146 30q43 10 48 44z" />
    <glyph glyph-name="uniFE70" unicode="&#xfe70;" arabic-form="isolated" 
d="M218 804l-155 -36q-30 -10 -39 -38l10 2q34 7 69 14.5t49.5 10.5t17.5 4q43 10 48 43zM206 742l-155 -36q-30 -10 -39 -38q139 29 146 30q43 10 48 44z" />
    <glyph glyph-name="uniFE72" unicode="&#xfe72;" arabic-form="isolated" 
d="M214 767q0 22 -14 39.5t-39 17.5q-21 0 -33.5 -15.5t-12.5 -34.5q0 -32 28 -54q-10 -9 -32 -17t-38 -8q17 20 17 46q0 44 -37 44q-31 0 -41 -31q14 11 28 11q26 0 26 -29q0 -32 -21 -46q2 -4 13 -22q73 0 114.5 32.5t41.5 66.5zM164 800q10 0 18.5 -8t8.5 -19
q0 -21 -31 -40q-21 13 -21 41q0 26 25 26z" />
    <glyph glyph-name="uniFE74" unicode="&#xfe74;" arabic-form="isolated" 
d="M214 -275l-155 -36q-28 -10 -39 -38l10 2q34 7 69 14.5t49.5 10.5t17.5 4q43 10 48 43zM202 -337l-155 -36q-28 -10 -39 -38q139 29 146 30q43 10 48 44z" />
    <glyph glyph-name="uniFE76" unicode="&#xfe76;" arabic-form="isolated" 
d="M214 739l-155 -36q-29 -11 -39 -37q139 29 146 30q43 10 48 43z" />
    <glyph glyph-name="uniFE78" unicode="&#xfe78;" arabic-form="isolated" 
d="M192 768q0 21 -14 38.5t-39 17.5q-21 0 -31 -12q-16 -16 -16 -37q0 -32 28 -54q-10 -9 -41 -19q-29 -10 -57 -10q12 -20 14 -24q26 0 64 11q45 13 68.5 38t23.5 51zM142 800q10 0 18.5 -7.5t8.5 -17.5q0 -24 -31 -40q-21 13 -21 40q0 25 25 25z" />
    <glyph glyph-name="uniFE7A" unicode="&#xfe7a;" arabic-form="isolated" 
d="M203 -273l-154 -36q-30 -11 -39 -38q38 8 74.5 16t52.5 11.5t19 3.5q42 10 47 43z" />
    <glyph glyph-name="uniFE7C" unicode="&#xfe7c;" arabic-form="isolated" 
d="M219 741l-15 77l-33 -6l14 -69q1 -3 1 -8q0 -15 -13 -15q-25 0 -31 31l-11 52l-33 -7l11 -53q2 -8 2 -12q0 -10 -7.5 -19.5t-16.5 -9.5q-10 0 -15 17l-15 69l-32 -8l16 -76q8 -38 43 -38q45 0 48 53q20 -33 44 -33q22 0 34 10.5t12 25.5q0 7 -3 19z" />
    <glyph glyph-name="uniFE7E" unicode="&#xfe7e;" arabic-form="isolated" 
d="M157 752q-12 56 -65 56q-34 0 -52 -18t-18 -47q0 -37 19 -57t47 -20q34 0 52.5 18.5t18.5 48.5q0 5 -2 19zM89 783q17 0 27.5 -16.5t10.5 -36.5q0 -38 -34 -38q-19 0 -29.5 16t-10.5 38q0 37 36 37z" />
    <glyph glyph-name="uniFE80" unicode="&#x621;" horiz-adv-x="519" arabic-form="isolated" 
d="M486 0v114h-214q-25 28 -25 76q0 40 18 66q21 31 59 31q54 0 71 -54l80 55q-21 48 -62.5 75t-93.5 27q-79 0 -132 -56q-51 -56 -51 -136q0 -44 17 -84h-91v-114h424z" />
    <glyph glyph-name="uniFE81" unicode="&#x622;" horiz-adv-x="214" arabic-form="isolated" 
d="M182 0v646h-111v-646h111zM226 731l-9 35q-22 -28 -46 -28q-16 0 -53 25t-54 25q-27 0 -51 -42l9 -34q20 27 42 27q24 0 58 -25t50 -25q27 0 54 42z" />
    <glyph glyph-name="uniFE82" unicode="&#x622;" horiz-adv-x="346" arabic-form="final" 
d="M226 731l-9 35q-22 -28 -46 -28q-16 0 -53 25t-54 25q-27 0 -51 -42l9 -34q20 27 42 27q24 0 58 -25t50 -25q27 0 54 42zM366 0v114h-66q-63 0 -86 17q-32 23 -32 96v418h-111v-463q0 -83 40 -130q43 -52 124 -52h131z" />
    <glyph glyph-name="uniFE83" unicode="&#x623;" horiz-adv-x="214" arabic-form="isolated" 
d="M182 0v646h-111v-646h111zM210 697v46h-81q-18 11 -18 37q0 15 9.5 26.5t24.5 11.5q24 0 28 -22l36 19q-21 44 -63 44q-33 0 -55.5 -23t-22.5 -58q0 -6 9 -35h-40v-46h173z" />
    <glyph glyph-name="uniFE84" unicode="&#x623;" horiz-adv-x="346" arabic-form="final" 
d="M210 697v46h-81q-18 11 -18 37q0 15 9.5 26.5t24.5 11.5q24 0 28 -22l36 19q-21 44 -63 44q-33 0 -55.5 -23t-22.5 -58q0 -6 9 -35h-40v-46h173zM366 0v114h-66q-63 0 -86 17q-32 23 -32 96v418h-111v-463q0 -83 40 -130q43 -52 124 -52h131z" />
    <glyph glyph-name="uniFE85" unicode="&#x624;" horiz-adv-x="525" arabic-form="isolated" 
d="M493 14v211q0 101 -59 165.5t-157 64.5q-95 0 -155 -63t-60 -164q0 -100 59.5 -164t155.5 -64q77 0 106 51q-3 -124 -107 -127v-89q217 0 217 179zM378 223q0 -51 -28.5 -86.5t-72.5 -35.5q-45 0 -74 37t-29 90q0 52 27.5 88.5t70.5 36.5q48 0 77 -35.5t29 -94.5z
M376 511v63h-96q-18 8 -18 35q0 38 29 38q19 0 28 -26l56 26q-26 59 -84 59q-40 0 -67 -28.5t-27 -70.5q0 -13 5 -33h-48v-63h222z" />
    <glyph glyph-name="uniFE86" unicode="&#x624;" horiz-adv-x="621" arabic-form="final" 
d="M376 511v63h-96q-18 8 -18 35q0 38 29 38q19 0 28 -26l56 26q-26 59 -84 59q-40 0 -67 -28.5t-27 -70.5q0 -13 5 -33h-48v-63h222zM631 0v114h-137v116q0 98 -58.5 161.5t-149.5 63.5q-96 0 -160 -62t-64 -160t64 -165.5t155 -67.5h107q-23 -77 -111 -77v-88
q195 0 218 165h136zM382 114h-99q-45 0 -76 36.5t-31 88.5q0 51 29.5 82t78.5 31q42 0 67.5 -27.5t30.5 -73.5v-137z" />
    <glyph glyph-name="uniFE87" unicode="&#x625;" horiz-adv-x="214" arabic-form="isolated" 
d="M182 0v646h-111v-646h111zM214 -205v46h-81q-18 11 -18 38q0 16 9.5 27.5t24.5 11.5q24 0 28 -22l36 17q-21 46 -63 46q-32 0 -55 -24t-23 -59q0 -6 9 -35h-40v-46h173z" />
    <glyph glyph-name="uniFE88" unicode="&#x625;" horiz-adv-x="346" arabic-form="final" 
d="M250 -205v46h-81q-18 11 -18 38q0 16 9.5 27.5t24.5 11.5q24 0 28 -22l36 17q-21 46 -63 46q-32 0 -55 -24t-23 -59q0 -6 9 -35h-40v-46h173zM366 0v114h-66q-63 0 -86 17q-32 23 -32 96v418h-111v-463q0 -83 40 -130q43 -52 124 -52h131z" />
    <glyph glyph-name="uniFE89" unicode="&#x626;" horiz-adv-x="759" arabic-form="isolated" 
d="M727 176v107h-247q29 68 82 94q44 21 126 21v104q-162 0 -249.5 -85t-87.5 -243h264q-18 -233 -235 -233q-115 0 -176 70q-60 66 -60 177v99h-112v-111q0 -146 99 -244q100 -98 245 -98h7q144 0 244 98q100 97 100 244zM282 357v67h-126q-14 17 -14 44q0 58 45 58
q31 0 42 -32l47 32q-26 59 -93 59q-46 0 -76 -32t-30 -80q0 -28 10 -49h-54v-67h249z" />
    <glyph glyph-name="uniFE8A" unicode="&#x626;" horiz-adv-x="896" arabic-form="final" 
d="M281 357v67h-126q-14 17 -14 44q0 58 45 58q31 0 42 -32l47 32q-26 59 -92 59q-47 0 -76.5 -32t-29.5 -80q0 -27 9 -49h-53v-67h248zM909 114h-42q-43 0 -74.5 24t-62.5 80q-66 119 -198 119h-44v-102q6 1 18 1q47 0 74 -29.5t27 -76.5q0 -77 -66 -132.5t-162 -55.5
q-109 0 -172 68t-63 184v99h-112v-112q0 -147 99.5 -247t244.5 -100q124 0 214.5 69t114.5 185q35 -53 74.5 -70.5t129.5 -17.5v114z" />
    <glyph glyph-name="uniFE8B" unicode="&#x626;" horiz-adv-x="302" arabic-form="initial" 
d="M268 455v67h-126q-14 17 -14 44q0 57 45 57q32 0 42 -31l47 31q-25 61 -91 61q-47 0 -77.5 -32t-30.5 -80q0 -29 10 -50h-54v-67h249zM268 181v216h-112v-178q0 -53 -8 -72q-16 -33 -71 -33h-85v-114h108q168 0 168 181z" />
    <glyph glyph-name="uniFE8C" unicode="&#x626;" horiz-adv-x="431" arabic-form="medial" 
d="M278 455l1 67h-126q-15 16 -15 44q0 56 45 56q33 0 43 -30l47 31q-25 60 -92 60q-47 0 -77 -32t-30 -80q0 -27 9 -49h-53v-67h248zM446 0v114h-192q24 28 24 116v167h-111v-173q0 -54 -12 -76q-18 -34 -67 -34h-104v-114h462z" />
    <glyph glyph-name="uniFE8D" unicode="&#x627;" horiz-adv-x="214" arabic-form="isolated" 
d="M182 0v646h-111v-646h111z" />
    <glyph glyph-name="uniFE8E" unicode="&#x627;" horiz-adv-x="346" arabic-form="final" 
d="M366 0v114h-66q-63 0 -86 17q-32 23 -32 96v418h-111v-463q0 -83 40 -130q43 -52 124 -52h131z" />
    <glyph glyph-name="uniFE8F" unicode="&#x628;" horiz-adv-x="901" arabic-form="isolated" 
d="M868 454h-110v-217q0 -77 -42 -104q-28 -19 -105 -19h-274q-91 0 -137 32q-57 39 -57 137v171h-111v-171q0 -283 318 -283h363q74 0 114.5 42.5t40.5 117.5v294zM542 -219v112h-110v-112h110z" />
    <glyph glyph-name="uniFE90" unicode="&#x628;" horiz-adv-x="1020" arabic-form="final" 
d="M1032 0v114h-189q25 28 25 116v224h-112v-230q0 -54 -12 -76q-16 -34 -67 -34h-340q-91 0 -137 32q-57 39 -57 137v171h-111v-171q0 -283 318 -283h682zM542 -219v112h-110v-112h110z" />
    <glyph glyph-name="uniFE91" unicode="&#x628;" horiz-adv-x="301" arabic-form="initial" 
d="M267 181v273h-111v-235q0 -53 -8 -72q-16 -33 -71 -33h-85v-114h108q167 0 167 181zM266 -219v112h-109v-112h109z" />
    <glyph glyph-name="uniFE92" unicode="&#x628;" horiz-adv-x="431" arabic-form="medial" 
d="M277 -220v112h-110v-112h110zM446 0v114h-192q24 28 24 116v224h-111v-230q0 -54 -12 -76q-18 -34 -67 -34h-104v-114h462z" />
    <glyph glyph-name="uniFE93" unicode="&#x629;" horiz-adv-x="531" arabic-form="isolated" 
d="M506 242q0 108 -66.5 177.5t-169.5 69.5t-170.5 -68t-67.5 -175q0 -106 67 -176t171 -70q105 0 170.5 69t65.5 173zM391 242q0 -62 -32.5 -101.5t-85.5 -39.5q-54 0 -89.5 42t-35.5 104t32 102t86 40q56 0 90.5 -41.5t34.5 -105.5zM228 581v111h-110v-111h110zM418 581
v111h-110v-111h110z" />
    <glyph glyph-name="uniFE94" unicode="&#x629;" horiz-adv-x="656" arabic-form="final" 
d="M669 0v114h-71q-112 0 -112 120v317h-247q-96 0 -151.5 -65t-55.5 -178q0 -105 56 -170t151 -65q75 0 128 75q17 -67 66.5 -107.5t114.5 -40.5h121zM370 319q0 -66 -32 -109.5t-85 -43.5q-49 0 -79.5 41.5t-30.5 101.5q0 70 34 112.5t92 42.5h101v-145zM288 632v112h-110
v-112h110zM477 632v112h-110v-112h110z" />
    <glyph glyph-name="uniFE95" unicode="&#x62a;" horiz-adv-x="901" arabic-form="isolated" 
d="M868 454h-110v-217q0 -77 -42 -104q-28 -19 -105 -19h-274q-91 0 -137 32q-57 39 -57 137v171h-111v-171q0 -283 318 -283h363q74 0 114.5 42.5t40.5 117.5v294zM598 455v111h-109v-111h109zM408 455v111h-109v-111h109z" />
    <glyph glyph-name="uniFE96" unicode="&#x62a;" horiz-adv-x="1020" arabic-form="final" 
d="M1032 0v114h-189q25 28 25 116v224h-112v-230q0 -54 -12 -76q-16 -34 -67 -34h-340q-91 0 -137 32q-57 39 -57 137v171h-111v-171q0 -283 318 -283h682zM412 455v111h-110v-111h110zM602 455v111h-110v-111h110z" />
    <glyph glyph-name="uniFE97" unicode="&#x62a;" horiz-adv-x="308" arabic-form="initial" 
d="M276 181v273h-112v-235q0 -53 -8 -72q-16 -33 -71 -33h-94v-114h118q167 0 167 181zM84 546v111h-110v-111h110zM273 546v111h-110v-111h110z" />
    <glyph glyph-name="uniFE98" unicode="&#x62a;" horiz-adv-x="431" arabic-form="medial" 
d="M88 547v111h-110v-111h110zM278 547v111h-110v-111h110zM446 0v114h-192q24 28 24 116v224h-111v-230q0 -54 -12 -76q-18 -34 -67 -34h-104v-114h462z" />
    <glyph glyph-name="uniFE99" unicode="&#x62b;" horiz-adv-x="901" arabic-form="isolated" 
d="M868 454h-110v-217q0 -77 -42 -104q-28 -19 -105 -19h-274q-91 0 -137 32q-57 39 -57 137v171h-111v-171q0 -283 318 -283h363q74 0 114.5 42.5t40.5 117.5v294zM505 612v112h-109v-112h109zM598 455v111h-109v-111h109zM408 455v111h-109v-111h109z" />
    <glyph glyph-name="uniFE9A" unicode="&#x62b;" horiz-adv-x="1020" arabic-form="final" 
d="M1034 0v114h-191q25 28 25 116v224h-112v-230q0 -54 -12 -76q-16 -34 -67 -34h-340q-91 0 -137 32q-57 39 -57 137v171h-111v-171q0 -283 318 -283h684zM505 612v112h-109v-112h109zM598 455v111h-109v-111h109zM408 455v111h-109v-111h109z" />
    <glyph glyph-name="uniFE9B" unicode="&#x62b;" horiz-adv-x="308" arabic-form="initial" 
d="M276 181v273h-112v-235q0 -54 -8 -72q-16 -33 -71 -33h-98v-114h122q167 0 167 181zM185 690v99h-108v-99h108zM273 546v99h-108v-99h108zM100 546v99h-108v-99h108z" />
    <glyph glyph-name="uniFE9C" unicode="&#x62b;" horiz-adv-x="431" arabic-form="medial" 
d="M446 0v114h-192q24 28 24 116v224h-111v-230q0 -54 -12 -76q-18 -34 -67 -34h-104v-114h462zM183 703v112h-109v-112h109zM277 546v111h-110v-111h110zM87 546v111h-110v-111h110z" />
    <glyph glyph-name="uniFE9D" unicode="&#x62c;" horiz-adv-x="543" arabic-form="isolated" 
d="M376 27v111h-110v-111h110zM511 305q0 99 -61 179q-75 99 -227 99q-46 0 -86 -17v-96q28 16 78 16q75 0 118 -37.5t57 -119.5h-123q-105 0 -166 -58q-69 -65 -69 -189t83 -190q73 -57 198 -57h80v117h-121q-53 0 -91 35q-37 34 -37 90q0 63 35.5 100t92.5 37h239v91z" />
    <glyph glyph-name="uniFE9E" unicode="&#x62c;" horiz-adv-x="689" arabic-form="final" 
d="M364 27v111h-110v-111h110zM706 0v114h-26q-54 0 -95 34q-60 47 -74 157q-17 143 -88.5 210.5t-199.5 67.5q-46 0 -86 -17v-96q28 16 78 16q75 0 118 -37.5t57 -119.5h-123q-105 0 -166 -58q-69 -65 -69 -189t83 -190q73 -57 198 -57h80v117h-121q-53 0 -91 35
q-37 34 -37 90q0 63 35.5 100t92.5 37h135q14 -74 77 -136q81 -78 196 -78h26z" />
    <glyph glyph-name="uniFE9F" unicode="&#x62c;" horiz-adv-x="715" arabic-form="initial" 
d="M402 -220v112h-110v-112h110zM683 70q0 235 -142 329q-80 55 -192 55q-67 0 -132 -28q-59 -26 -107 -71q39 -59 54 -88q36 41 90 63q45 19 84 19q111 0 172 -76q52 -65 52 -159h-583v-114h704v70z" />
    <glyph glyph-name="uniFEA0" unicode="&#x62c;" horiz-adv-x="774" arabic-form="medial" 
d="M402 -219v112h-110v-112h110zM787 0v114h-106q-13 208 -150 292q-78 48 -182 48q-67 0 -132 -28q-59 -26 -107 -71q39 -59 54 -88q36 41 90 63q45 19 84 19q111 0 172 -76q52 -65 52 -159h-578v-114h803z" />
    <glyph glyph-name="uniFEA1" unicode="&#x62d;" horiz-adv-x="543" arabic-form="isolated" 
d="M511 305q0 99 -61 179q-75 99 -227 99q-46 0 -86 -17v-96q28 16 78 16q75 0 118 -37.5t57 -119.5h-123q-105 0 -166 -58q-69 -65 -69 -189t83 -190q73 -57 198 -57h80v117h-121q-53 0 -91 35q-37 34 -37 90q0 63 35.5 100t92.5 37h239v91z" />
    <glyph glyph-name="uniFEA2" unicode="&#x62d;" horiz-adv-x="689" arabic-form="final" 
d="M706 0v114h-26q-54 0 -95 34q-60 47 -74 157q-17 143 -88.5 210.5t-199.5 67.5q-46 0 -86 -17v-96q28 16 78 16q75 0 118 -37.5t57 -119.5h-123q-105 0 -166 -58q-69 -65 -69 -189t83 -190q73 -57 198 -57h80v117h-121q-53 0 -91 35q-37 34 -37 90q0 63 35.5 100t92.5 37
h135q14 -74 77 -136q81 -78 196 -78h26z" />
    <glyph glyph-name="uniFEA3" unicode="&#x62d;" horiz-adv-x="715" arabic-form="initial" 
d="M683 70q0 235 -142 329q-80 55 -192 55q-67 0 -132 -28q-59 -26 -107 -71q39 -59 54 -88q36 41 90 63q45 19 84 19q111 0 172 -76q52 -65 52 -159h-583v-114h704v70z" />
    <glyph glyph-name="uniFEA4" unicode="&#x62d;" horiz-adv-x="774" arabic-form="medial" 
d="M787 0v114h-106q-13 208 -150 292q-78 48 -182 48q-67 0 -132 -28q-59 -26 -107 -71q39 -59 54 -88q36 41 90 63q45 19 84 19q111 0 172 -76q52 -65 52 -159h-578v-114h803z" />
    <glyph glyph-name="uniFEA5" unicode="&#x62e;" horiz-adv-x="543" arabic-form="isolated" 
d="M349 645v112h-110v-112h110zM511 305q0 99 -61 179q-75 99 -227 99q-46 0 -86 -17v-96q28 16 78 16q75 0 118 -37.5t57 -119.5h-123q-105 0 -166 -58q-69 -65 -69 -189t83 -190q73 -57 198 -57h80v117h-121q-53 0 -91 35q-37 34 -37 90q0 63 35.5 100t92.5 37h239v91z
" />
    <glyph glyph-name="uniFEA6" unicode="&#x62e;" horiz-adv-x="689" arabic-form="final" 
d="M706 0v114h-26q-54 0 -95 34q-60 47 -74 157q-17 143 -88.5 210.5t-199.5 67.5q-46 0 -86 -17v-96q28 16 78 16q75 0 118 -37.5t57 -119.5h-123q-105 0 -166 -58q-69 -65 -69 -189t83 -190q73 -57 198 -57h80v117h-121q-53 0 -91 35q-37 34 -37 90q0 63 35.5 100t92.5 37
h135q14 -74 77 -136q81 -78 196 -78h26zM304 645v112h-109v-112h109z" />
    <glyph glyph-name="uniFEA7" unicode="&#x62e;" horiz-adv-x="715" arabic-form="initial" 
d="M683 70q0 235 -142 329q-80 55 -192 55q-67 0 -132 -28q-59 -26 -107 -71q39 -59 54 -88q36 41 90 63q45 19 84 19q111 0 172 -76q52 -65 52 -159h-583v-114h704v70zM402 548v111h-110v-111h110z" />
    <glyph glyph-name="uniFEA8" unicode="&#x62e;" horiz-adv-x="774" arabic-form="medial" 
d="M787 0v114h-106q-13 208 -150 292q-78 48 -182 48q-67 0 -132 -28q-59 -26 -107 -71q39 -59 54 -88q36 41 90 63q45 19 84 19q111 0 172 -76q52 -65 52 -159h-578v-114h803zM402 548v111h-110v-111h110z" />
    <glyph glyph-name="uniFEA9" unicode="&#x62f;" horiz-adv-x="569" arabic-form="isolated" 
d="M537 0v114q-2 257 -202 324q-35 12 -60 14q-28 2 -104 2v-102q61 0 101 -9q152 -33 152 -229h-362v-114h475z" />
    <glyph glyph-name="uniFEAA" unicode="&#x62f;" horiz-adv-x="679" arabic-form="final" 
d="M711 0v114h-174q-2 257 -202 324q-35 12 -60 14q-28 2 -104 2v-102q61 0 101 -9q152 -33 152 -229h-362v-114h649z" />
    <glyph glyph-name="uniFEAB" unicode="&#x630;" horiz-adv-x="569" arabic-form="isolated" 
d="M332 548v111h-109v-111h109zM537 0v114q-2 257 -202 324q-35 12 -60 14q-28 2 -104 2v-102q61 0 101 -9q152 -33 152 -229h-362v-114h475z" />
    <glyph glyph-name="uniFEAC" unicode="&#x630;" horiz-adv-x="679" arabic-form="final" 
d="M332 548v111h-109v-111h109zM711 0v114h-174q-2 257 -202 324q-35 12 -60 14q-28 2 -104 2v-102q61 0 101 -9q152 -33 152 -229h-362v-114h649z" />
    <glyph glyph-name="uniFEAD" unicode="&#x631;" horiz-adv-x="325" arabic-form="isolated" 
d="M293 454h-112v-382q0 -142 -139 -142v-96q130 0 190.5 60.5t60.5 194.5v365z" />
    <glyph glyph-name="uniFEAE" unicode="&#x631;" horiz-adv-x="443" arabic-form="final" 
d="M465 0v114h-172v340h-112v-382q0 -142 -139 -142v-96q103 0 167 43t77 123h179z" />
    <glyph glyph-name="uniFEAF" unicode="&#x632;" horiz-adv-x="325" arabic-form="isolated" 
d="M292 546v111h-110v-111h110zM293 454h-112v-382q0 -142 -139 -142v-96q130 0 190.5 60.5t60.5 194.5v365z" />
    <glyph glyph-name="uniFEB0" unicode="&#x632;" horiz-adv-x="443" arabic-form="final" 
d="M465 0v114h-172v340h-112v-382q0 -142 -139 -142v-96q103 0 167 43t77 123h179zM292 546v111h-110v-111h110z" />
    <glyph glyph-name="uniFEB1" unicode="&#x633;" horiz-adv-x="1273" arabic-form="isolated" 
d="M1231 238v216h-113v-230q0 -110 -85 -110h-109q23 25 23 122v218h-113v-229q0 -111 -85 -111h-90q5 33 5 62v278h-113v-265q0 -98 -49 -168q-59 -80 -153 -80q-95 0 -154 80q-50 71 -50 168v265h-113v-278q0 -144 95 -244q92 -98 222 -98q131 0 223 102q27 28 47 64h418
q76 0 129 53q65 65 65 185z" />
    <glyph glyph-name="uniFEB2" unicode="&#x633;" horiz-adv-x="1371" arabic-form="final" 
d="M1378 0v114h-171q25 53 25 124v216h-113v-230q0 -110 -85 -110h-109q23 25 23 122v218h-113v-229q0 -111 -85 -111h-91q5 33 5 62v278h-113v-265q0 -98 -49 -168q-59 -80 -153 -80q-95 0 -154 80q-50 71 -50 168v265h-113v-278q0 -144 95 -244q92 -98 222 -98
q131 0 223 102q27 28 47 64h759z" />
    <glyph glyph-name="uniFEB3" unicode="&#x633;" horiz-adv-x="873" arabic-form="initial" 
d="M-13 114v-114h654q86 0 140 65.5t54 172.5v216h-113v-230q0 -110 -85 -110h-109q23 25 23 122v218h-113v-229q0 -111 -85 -111h-104v6q18 28 18 116v218h-113v-222q0 -118 -85 -118h-82z" />
    <glyph glyph-name="uniFEB4" unicode="&#x633;" horiz-adv-x="976" arabic-form="medial" 
d="M-22 0h1014v114h-171q25 53 25 124v216h-113v-230q0 -110 -85 -110h-109q23 25 23 122v218h-113v-229q0 -111 -85 -111h-104v6q18 28 18 116v218h-113v-222q0 -118 -85 -118h-102v-114z" />
    <glyph glyph-name="uniFEB5" unicode="&#x634;" horiz-adv-x="1273" arabic-form="isolated" 
d="M1231 238v216h-113v-230q0 -110 -85 -110h-109q23 25 23 122v218h-113v-229q0 -111 -85 -111h-90q5 33 5 62v278h-113v-265q0 -98 -49 -168q-59 -80 -153 -80q-95 0 -154 80q-50 71 -50 168v265h-113v-278q0 -144 95 -244q92 -98 222 -98q131 0 223 102q27 28 47 64h418
q76 0 129 53q65 65 65 185zM945 703v112h-110v-112h110zM1038 546v111h-109v-111h109zM849 546v111h-109v-111h109z" />
    <glyph glyph-name="uniFEB6" unicode="&#x634;" horiz-adv-x="1371" arabic-form="final" 
d="M1378 0v114h-171q25 53 25 124v216h-113v-230q0 -110 -85 -110h-109q23 25 23 122v218h-113v-229q0 -111 -85 -111h-91q5 33 5 62v278h-113v-265q0 -98 -49 -168q-59 -80 -153 -80q-95 0 -154 80q-50 71 -50 168v265h-113v-278q0 -144 95 -244q92 -98 222 -98
q131 0 223 102q27 28 47 64h759zM946 703v112h-110v-112h110zM1039 546v111h-109v-111h109zM850 546v111h-109v-111h109z" />
    <glyph glyph-name="uniFEB7" unicode="&#x634;" horiz-adv-x="873" arabic-form="initial" 
d="M-13 114v-114h654q86 0 140 65.5t54 172.5v216h-113v-230q0 -110 -85 -110h-109q23 25 23 122v218h-113v-229q0 -111 -85 -111h-104v6q18 28 18 116v218h-113v-222q0 -118 -85 -118h-82zM439 703h110v112h-110v-112zM533 546h109v111h-109v-111zM344 546h109v111h-109
v-111z" />
    <glyph glyph-name="uniFEB8" unicode="&#x634;" horiz-adv-x="976" arabic-form="medial" 
d="M-22 0h1014v114h-171q25 53 25 124v216h-113v-230q0 -110 -85 -110h-109q23 25 23 122v218h-113v-229q0 -111 -85 -111h-104v6q18 28 18 116v218h-113v-222q0 -118 -85 -118h-102v-114zM450 703h110v112h-110v-112zM544 546h109v111h-109v-111zM355 546h109v111h-109
v-111z" />
    <glyph glyph-name="uniFEB9" unicode="&#x635;" horiz-adv-x="1269" arabic-form="isolated" 
d="M1224 0q5 62 5 104q0 352 -258 352q-81 0 -160.5 -49t-146.5 -140v187h-113v-265q0 -106 -57 -177t-145 -71q-89 0 -146.5 71t-57.5 177v265h-113v-278q0 -141 93 -241.5t224 -100.5q84 0 154.5 42.5t115.5 123.5h605zM1113 114h-446q47 105 128.5 173.5t164.5 68.5
q71 0 113 -56.5t42 -153.5z" />
    <glyph glyph-name="uniFEBA" unicode="&#x635;" horiz-adv-x="1338" arabic-form="final" 
d="M1345 0v114h-118q-5 342 -258 342q-81 0 -160.5 -48.5t-144.5 -138.5v185h-113v-265q0 -106 -57 -177t-145 -71q-89 0 -146.5 71t-57.5 177v265h-113v-278q0 -141 93 -241.5t224 -100.5q84 0 154.5 42.5t115.5 123.5h726zM1111 114h-446q47 105 128.5 173.5t164.5 68.5
q76 0 114.5 -67.5t38.5 -174.5z" />
    <glyph glyph-name="uniFEBB" unicode="&#x635;" horiz-adv-x="869" arabic-form="initial" 
d="M824 0q5 62 5 104q0 352 -258 352q-81 0 -160.5 -48.5t-144.5 -138.5v137h-112v-174q0 -118 -85 -118h-82v-114h837zM713 114h-446q47 105 128.5 173.5t164.5 68.5q71 0 113 -56.5t42 -153.5z" />
    <glyph glyph-name="uniFEBC" unicode="&#x635;" horiz-adv-x="939" arabic-form="medial" 
d="M949 0v114h-118q-5 342 -258 342q-81 0 -160.5 -49t-146.5 -140v139h-112v-174q0 -118 -85 -118h-112v-114h992zM715 114h-446q47 105 128.5 173.5t164.5 68.5q71 0 113 -56.5t42 -153.5z" />
    <glyph glyph-name="uniFEBD" unicode="&#x636;" horiz-adv-x="1269" arabic-form="isolated" 
d="M1224 0q5 62 5 104q0 352 -258 352q-81 0 -160.5 -49t-146.5 -140v187h-113v-265q0 -106 -57 -177t-145 -71q-89 0 -146.5 71t-57.5 177v265h-113v-278q0 -141 93 -241.5t224 -100.5q84 0 154.5 42.5t115.5 123.5h605zM1113 114h-446q47 105 128.5 173.5t164.5 68.5
q71 0 113 -56.5t42 -153.5zM1012 546v111h-110v-111h110z" />
    <glyph glyph-name="uniFEBE" unicode="&#x636;" horiz-adv-x="1338" arabic-form="final" 
d="M1345 0v114h-118q-5 342 -258 342q-81 0 -160.5 -48.5t-144.5 -138.5v185h-113v-265q0 -106 -57 -177t-145 -71q-89 0 -146.5 71t-57.5 177v265h-113v-278q0 -141 93 -241.5t224 -100.5q84 0 154.5 42.5t115.5 123.5h726zM1111 114h-446q47 105 128.5 173.5t164.5 68.5
q76 0 114.5 -67.5t38.5 -174.5zM1010 546v111h-110v-111h110z" />
    <glyph glyph-name="uniFEBF" unicode="&#x636;" horiz-adv-x="869" arabic-form="initial" 
d="M824 0q5 62 5 104q0 352 -258 352q-81 0 -160.5 -48.5t-144.5 -138.5v137h-112v-174q0 -118 -85 -118h-82v-114h837zM713 114h-446q47 105 128.5 173.5t164.5 68.5q71 0 113 -56.5t42 -153.5zM612 546v111h-110v-111h110z" />
    <glyph glyph-name="uniFEC0" unicode="&#x636;" horiz-adv-x="939" arabic-form="medial" 
d="M949 0v114h-118q-5 342 -258 342q-81 0 -160.5 -49t-146.5 -140v139h-112v-174q0 -118 -85 -118h-112v-114h992zM715 114h-446q47 105 128.5 173.5t164.5 68.5q71 0 113 -56.5t42 -153.5zM614 546v111h-110v-111h110z" />
    <glyph glyph-name="uniFEC1" unicode="&#x637;" horiz-adv-x="811" arabic-form="isolated" 
d="M32 114v-114h742q5 62 5 104q0 352 -259 352q-160 0 -294 -173l13 362h-111v-531h-96zM217 114q47 105 128.5 173.5t164.5 68.5q72 0 113.5 -57t41.5 -153l-2 -32h-446z" />
    <glyph glyph-name="uniFEC2" unicode="&#x637;" horiz-adv-x="876" arabic-form="final" 
d="M32 114v-114h855v114h-113q-3 342 -257 342q-161 0 -295 -173l13 362h-111v-531h-92zM213 114q47 105 128.5 173.5t164.5 68.5q72 0 113.5 -57t41.5 -153l-2 -32h-446z" />
    <glyph glyph-name="uniFEC3" unicode="&#x637;" horiz-adv-x="850" arabic-form="initial" 
d="M813 0q5 62 5 104q0 352 -259 352q-159 0 -293 -173l12 362h-110v-531h-184v-114h829zM703 114h-448q52 109 131.5 175.5t162.5 66.5q72 0 113 -57t41 -153v-32z" />
    <glyph glyph-name="uniFEC4" unicode="&#x637;" horiz-adv-x="935" arabic-form="medial" 
d="M946 0v114h-113q-5 342 -259 342q-160 0 -295 -173l14 362h-110v-531h-194v-114h957zM717 114h-447q50 107 130.5 174.5t163.5 67.5q72 0 113 -56.5t41 -153.5q0 -21 -1 -32z" />
    <glyph glyph-name="uniFEC5" unicode="&#x638;" horiz-adv-x="811" arabic-form="isolated" 
d="M774 0q5 62 5 104q0 352 -259 352q-160 0 -294 -173l13 362h-111v-531h-96v-114h742zM663 114h-446q47 105 128.5 173.5t164.5 68.5q72 0 113.5 -57t41.5 -153zM552 546v111h-109v-111h109z" />
    <glyph glyph-name="uniFEC6" unicode="&#x638;" horiz-adv-x="876" arabic-form="final" 
d="M887 0v114h-113q-3 342 -257 342q-161 0 -295 -173l13 362h-111v-531h-92v-114h855zM659 114h-446q47 105 128.5 173.5t164.5 68.5q72 0 113.5 -57t41.5 -153q0 -7 -2 -29v-3zM549 546v111h-110v-111h110z" />
    <glyph glyph-name="uniFEC7" unicode="&#x638;" horiz-adv-x="850" arabic-form="initial" 
d="M813 0q5 62 5 104q0 352 -259 352q-159 0 -293 -173l12 362h-110v-531h-184v-114h829zM703 114h-448q52 109 131.5 175.5t162.5 66.5q72 0 113 -57t41 -153v-32zM591 546v111h-110v-111h110z" />
    <glyph glyph-name="uniFEC8" unicode="&#x638;" horiz-adv-x="935" arabic-form="medial" 
d="M956 0v114h-123q-5 342 -259 342q-160 0 -295 -173l14 362h-110v-531h-204v-114h977zM717 114h-447q50 107 130.5 174.5t163.5 67.5q72 0 113 -56.5t41 -153.5q0 -21 -1 -32zM611 546v111h-109v-111h109z" />
    <glyph glyph-name="uniFEC9" unicode="&#x639;" horiz-adv-x="591" arabic-form="isolated" 
d="M559 201v111h-204q-28 10 -48.5 46.5t-20.5 76.5q0 52 27.5 85t73.5 33q57 0 82 -54l84 40q-51 106 -164 106q-89 0 -147.5 -59.5t-58.5 -152.5q0 -60 37 -125q-86 -14 -137 -78t-51 -157q0 -108 75.5 -173.5t195.5 -65.5h171v111h-179q-72 0 -114 33.5t-42 91.5
q0 131 156 131h264z" />
    <glyph glyph-name="uniFECA" unicode="&#x639;" horiz-adv-x="744" arabic-form="final" 
d="M755 0v114h-27q-67 0 -112.5 52.5t-56.5 144.5h-91q-23 0 -56 0.5t-42 0.5h-15q-28 10 -48.5 46.5t-20.5 76.5q0 52 27.5 85t73.5 33q57 0 82 -54l84 40q-51 106 -164 106q-89 0 -147.5 -59.5t-58.5 -152.5q0 -73 37 -125q-86 -14 -137 -78t-51 -157q0 -112 73 -175.5
t198 -63.5h171v111h-179q-72 0 -114 33.5t-42 91.5q0 131 156 131h163q23 -84 100.5 -142.5t170.5 -58.5h26z" />
    <glyph glyph-name="uniFECB" unicode="&#x639;" horiz-adv-x="576" arabic-form="initial" 
d="M544 0v114h-282q-36 40 -36 107q0 58 27 97q30 44 85 44q79 0 105 -77l96 46q-25 60 -77.5 94.5t-118.5 34.5q-102 0 -166 -70t-64 -171q0 -57 22 -105h-145v-114h554z" />
    <glyph glyph-name="uniFECC" unicode="&#x639;" horiz-adv-x="724" arabic-form="medial" 
d="M738 0v114h-188q-34 0 -44 2q-20 4 -40 25q54 37 115 112q58 72 71 111q-121 104 -285 104q-141 0 -271 -82v-106q57 -14 118 -54q63 -40 85 -74q-35 -23 -72 -31q-27 -7 -78 -7h-166v-114h168q111 0 221 72q26 -29 64 -48q46 -24 89 -24h213zM515 331q-20 -30 -56 -66
q-42 -40 -73 -55q-75 87 -170 120q77 41 154 41q78 0 145 -40z" />
    <glyph glyph-name="uniFECD" unicode="&#x63a;" horiz-adv-x="591" arabic-form="isolated" 
d="M559 201v111h-204q-28 10 -48.5 46.5t-20.5 76.5q0 52 27.5 85t73.5 33q57 0 82 -54l84 40q-51 106 -164 106q-89 0 -147.5 -59.5t-58.5 -152.5q0 -60 37 -125q-86 -14 -137 -78t-51 -157q0 -108 75.5 -173.5t195.5 -65.5h171v111h-179q-72 0 -114 33.5t-42 91.5
q0 131 156 131h264zM443 722v111h-109v-111h109z" />
    <glyph glyph-name="uniFECE" unicode="&#x63a;" horiz-adv-x="744" arabic-form="final" 
d="M443 722v111h-109v-111h109zM755 0v114h-27q-67 0 -112.5 52.5t-56.5 144.5h-91q-23 0 -56 0.5t-42 0.5h-15q-28 10 -48.5 46.5t-20.5 76.5q0 52 27.5 85t73.5 33q57 0 82 -54l84 40q-51 106 -164 106q-89 0 -147.5 -59.5t-58.5 -152.5q0 -73 37 -125q-86 -14 -137 -78
t-51 -157q0 -112 73 -175.5t198 -63.5h171v111h-179q-72 0 -114 33.5t-42 91.5q0 131 156 131h163q23 -84 100.5 -142.5t170.5 -58.5h26z" />
    <glyph glyph-name="uniFECF" unicode="&#x63a;" horiz-adv-x="576" arabic-form="initial" 
d="M544 0v114h-282q-36 40 -36 107q0 58 27 97q30 44 85 44q79 0 105 -77l96 46q-25 60 -77.5 94.5t-118.5 34.5q-102 0 -166 -70t-64 -171q0 -57 22 -105h-145v-114h554zM395 548v111h-110v-111h110z" />
    <glyph glyph-name="uniFED0" unicode="&#x63a;" horiz-adv-x="724" arabic-form="medial" 
d="M735 0v114h-185q-34 0 -44 2q-20 4 -40 25q54 37 115 112q58 72 71 111q-121 104 -285 104q-141 0 -271 -82v-106q57 -14 118 -54q63 -40 85 -74q-35 -23 -72 -31q-27 -7 -78 -7h-166v-114h168q111 0 221 72q26 -29 64 -48q46 -24 89 -24h210zM515 331q-20 -30 -56 -66
q-42 -40 -73 -55q-75 87 -170 120q77 41 154 41q78 0 145 -40zM423 548v111h-110v-111h110z" />
    <glyph glyph-name="uniFED1" unicode="&#x641;" horiz-adv-x="951" arabic-form="isolated" 
d="M750 546v111h-110v-111h110zM918 230q0 100 -63 167t-161 67q-99 0 -162.5 -65t-63.5 -166q0 -57 28 -120v1h-159q-102 0 -148 39.5t-46 129.5v151h-111v-151q0 -283 307 -283h355q100 0 162 65t62 165zM803 230q0 -56 -28.5 -91.5t-78.5 -35.5q-49 0 -80.5 37.5
t-31.5 93.5q0 58 29 93t78 35t80.5 -37.5t31.5 -94.5z" />
    <glyph glyph-name="uniFED2" unicode="&#x641;" horiz-adv-x="1072" arabic-form="final" 
d="M1093 0v114h-106q-76 0 -93 11q46 36 73 94q24 51 24 106q0 38 -13 65q-32 72 -86 111q-58 43 -134 43q-75 0 -133.5 -41t-86.5 -113q-12 -30 -12 -69q0 -55 24 -104q26 -56 72 -92q-17 -11 -93 -11h-192q-91 0 -137 32q-57 39 -57 137v151h-111v-151q0 -283 318 -283
h186q143 0 222 55q76 -55 223 -55h112zM820 203q-23 -17 -62 -37q-29 14 -61 37q-66 48 -66 128q0 53 31 87q35 38 96 38t96 -38q32 -35 32 -87q0 -81 -66 -128zM810 622v112h-109v-112h109z" />
    <glyph glyph-name="uniFED3" unicode="&#x641;" horiz-adv-x="599" arabic-form="initial" 
d="M567 230q0 100 -63 167t-161 67q-100 0 -163 -64.5t-63 -166.5q0 -64 29 -119h-159v-114h356q100 0 162 65t62 165zM452 230q0 -56 -29.5 -91.5t-77.5 -35.5q-49 0 -81 38t-32 93q0 58 29.5 93t77.5 35q50 0 81.5 -37.5t31.5 -94.5zM397 548v111h-109v-111h109z" />
    <glyph glyph-name="uniFED4" unicode="&#x641;" horiz-adv-x="642" arabic-form="medial" 
d="M377 622v112h-110v-112h110zM661 0v114h-104q-76 0 -93 11q48 37 73 94q24 51 24 106q0 101 -70.5 160t-162.5 59q-75 0 -133.5 -41t-86.5 -113q-12 -30 -12 -69q0 -53 23 -104q26 -56 74 -92q-19 -11 -93 -11h-117v-114h123q144 0 221 55q79 -55 223 -55h111zM389 203
q-21 -16 -61 -37q-32 15 -62 37q-66 48 -66 128q0 52 32 87q35 38 96 38t96 -38q31 -34 31 -87q0 -81 -66 -128z" />
    <glyph glyph-name="uniFED5" unicode="&#x642;" horiz-adv-x="731" arabic-form="isolated" 
d="M699 162q0 108 -1 113q0 99 -57 155t-153 56q-95 0 -150 -57.5t-55 -156.5t56.5 -156.5t151.5 -57.5q55 0 96 28q-22 -67 -84 -109t-138 -42q-103 0 -165 65t-62 174v174h-106v-186q0 -139 96 -233.5t240 -94.5q139 0 235 95t96 233zM594 268q0 -55 -28 -90t-75 -35
t-75.5 36.5t-28.5 94.5q0 55 29.5 93t73.5 38q45 0 74.5 -38t29.5 -99zM449 546v111h-110v-111h110zM639 546v111h-110v-111h110z" />
    <glyph glyph-name="uniFED6" unicode="&#x642;" horiz-adv-x="809" arabic-form="final" 
d="M826 0v114h-128v161q0 211 -208 211q-101 0 -157 -63.5t-56 -168.5q0 -119 72 -186.5t200 -67.5q-67 -65 -184 -65q-103 0 -165 65t-62 174v174h-106v-186q0 -139 96 -233.5t240 -94.5q214 0 299 166h159zM594 251v-137h-45q-77 0 -117.5 35.5t-40.5 105.5t25.5 108.5
t73.5 38.5q104 0 104 -151zM450 546v111h-110v-111h110zM640 546v111h-110v-111h110z" />
    <glyph glyph-name="uniFED7" unicode="&#x642;" horiz-adv-x="599" arabic-form="initial" 
d="M492 549v111h-109v-111h109zM302 549v111h-109v-111h109zM567 230q0 100 -63 167t-161 67q-100 0 -163 -64.5t-63 -166.5q0 -64 29 -119h-159v-114h356q100 0 162 65t62 165zM452 230q0 -56 -29.5 -91.5t-77.5 -35.5q-49 0 -81 38t-32 93q0 58 29.5 93t77.5 35
q50 0 81.5 -37.5t31.5 -94.5z" />
    <glyph glyph-name="uniFED8" unicode="&#x642;" horiz-adv-x="642" arabic-form="medial" 
d="M286 622v112h-110v-112h110zM476 622v112h-110v-112h110zM661 0v114h-104q-76 0 -93 11q48 37 73 94q24 51 24 106q0 101 -70.5 160t-162.5 59q-75 0 -133.5 -41t-86.5 -113q-12 -30 -12 -69q0 -53 23 -104q26 -56 74 -92q-19 -11 -93 -11h-117v-114h123q144 0 221 55
q79 -55 223 -55h111zM389 203q-21 -16 -61 -37q-32 15 -62 37q-66 48 -66 128q0 52 32 87q35 38 96 38t96 -38q31 -34 31 -87q0 -81 -66 -128z" />
    <glyph glyph-name="uniFED9" unicode="&#x643;" horiz-adv-x="901" arabic-form="isolated" 
d="M868 645h-110v-408q0 -77 -42 -104q-28 -19 -105 -19h-274q-91 0 -137 32q-57 39 -57 137v171h-111v-171q0 -283 318 -283h363q74 0 114.5 42.5t40.5 117.5v485zM579 389v67h-126q-14 17 -14 45q0 57 45 57q31 0 42 -32l47 32q-25 60 -92 60q-47 0 -77.5 -32.5
t-30.5 -80.5q0 -25 11 -49h-54v-67h249z" />
    <glyph glyph-name="uniFEDA" unicode="&#x643;" horiz-adv-x="1020" arabic-form="final" 
d="M1042 0v114h-199q25 28 25 116v415h-112v-421q0 -54 -12 -76q-16 -34 -67 -34h-340q-91 0 -137 32q-57 39 -57 137v171h-111v-171q0 -283 318 -283h692zM579 389v67h-126q-14 17 -14 45q0 57 45 57q31 0 42 -32l47 32q-25 60 -92 60q-47 0 -77.5 -32.5t-30.5 -80.5
q0 -25 11 -49h-54v-67h249z" />
    <glyph glyph-name="uniFEDB" unicode="&#x643;" horiz-adv-x="684" arabic-form="initial" 
d="M652 70q0 235 -142 329q-80 55 -192 55h-49l135 191h-133l-197 -296h231q110 0 173 -76q54 -66 54 -159h-549v-114h669v70z" />
    <glyph glyph-name="uniFEDC" unicode="&#x643;" horiz-adv-x="757" arabic-form="medial" 
d="M771 0v114h-120q-13 208 -150 292q-79 48 -183 48h-49l135 191h-133l-197 -296h231q110 0 173 -76q54 -66 54 -159h-549v-114h788z" />
    <glyph glyph-name="uniFEDD" unicode="&#x644;" horiz-adv-x="696" arabic-form="isolated" 
d="M664 176v469h-113v-456q0 -105 -57 -176.5t-145 -71.5q-90 0 -147 71.5t-57 176.5v85h-113v-98q0 -141 93 -241.5t224 -100.5q130 0 222.5 101.5t92.5 240.5z" />
    <glyph glyph-name="uniFEDE" unicode="&#x644;" horiz-adv-x="799" arabic-form="final" 
d="M827 0v114h-169q6 32 6 62v469h-113v-456q0 -106 -57 -177t-145 -71q-90 0 -147 71.5t-57 176.5v85h-113v-98q0 -141 93 -241.5t224 -100.5q83 0 155 44t115 122h208z" />
    <glyph glyph-name="uniFEDF" unicode="&#x644;" horiz-adv-x="300" arabic-form="initial" 
d="M268 181v464h-112v-426q0 -53 -8 -72q-16 -33 -71 -33h-95v-114h118q168 0 168 181z" />
    <glyph glyph-name="uniFEE0" unicode="&#x644;" horiz-adv-x="431" arabic-form="medial" 
d="M442 0v114h-188q24 28 24 116v415h-111v-421q0 -54 -12 -76q-18 -34 -67 -34h-104v-114h458z" />
    <glyph glyph-name="uniFEE1" unicode="&#x645;" horiz-adv-x="805" arabic-form="isolated" 
d="M771 220q0 100 -62.5 167.5t-161.5 67.5h-282q-110 0 -171.5 -72t-61.5 -194v-355h112v332q0 81 33 128t90 47h82q-28 -50 -28 -118q0 -99 63.5 -166t162.5 -67q98 0 161 65.5t63 164.5zM656 220q0 -56 -29.5 -91.5t-76.5 -35.5q-50 0 -82 38t-32 93q0 56 28.5 92
t78.5 36q51 0 82 -37.5t31 -94.5z" />
    <glyph glyph-name="uniFEE2" unicode="&#x645;" horiz-adv-x="955" arabic-form="final" 
d="M978 0v114h-50q-65 0 -102 40.5t-71 156.5q-19 65 -76 104.5t-132 39.5h-280q-111 0 -173 -72t-62 -194v-355h112v332q0 81 33 128t90 47h82q-28 -50 -28 -117q0 -100 63.5 -167t162.5 -67q121 0 183 92q85 -82 199 -82h49zM656 220q0 -56 -30 -91.5t-76 -35.5
q-50 0 -82 37.5t-32 94.5q0 56 29.5 92t77.5 36q51 0 82 -38t31 -95z" />
    <glyph glyph-name="uniFEE3" unicode="&#x645;" horiz-adv-x="601" arabic-form="initial" 
d="M568 142q0 100 -63 167t-161 67q-100 0 -163 -64.5t-63 -165.5q0 -9 2 -27l1 -5h-138v-114h180q65 -89 181 -89q99 0 161.5 65.5t62.5 165.5zM453 142q0 -57 -29.5 -92t-76.5 -35q-50 0 -82 37.5t-32 94.5q0 56 30.5 92t77.5 36q49 0 80.5 -38t31.5 -95z" />
    <glyph glyph-name="uniFEE4" unicode="&#x645;" horiz-adv-x="621" arabic-form="medial" 
d="M638 0v114h-100v29q0 99 -62 167q-61 67 -162 67q-100 0 -163 -65q-62 -65 -62 -165q0 -22 1 -33h-108v-114h153q65 -87 179 -87q116 0 181 87h143zM423 144q0 -54 -26 -89q-29 -38 -80 -38t-82 38t-31 93q0 53 26 88q30 40 81 40q53 0 85 -41q27 -37 27 -91z" />
    <glyph glyph-name="uniFEE5" unicode="&#x646;" horiz-adv-x="696" arabic-form="isolated" 
d="M664 176v278h-113v-265q0 -98 -49 -168q-59 -80 -153 -80q-95 0 -154 80q-50 71 -50 168v265h-113v-278q0 -144 95 -244q92 -98 222 -98q131 0 223 102q92 101 92 240zM406 546v111h-110v-111h110z" />
    <glyph glyph-name="uniFEE6" unicode="&#x646;" horiz-adv-x="800" arabic-form="final" 
d="M821 0v114h-163q6 32 6 62v278h-113v-265q0 -98 -49 -168q-59 -80 -153 -80q-95 0 -154 80q-50 71 -50 168v265h-113v-278q0 -144 95 -244q92 -98 222 -98q85 0 158 46q70 43 112 120h202zM406 546v111h-110v-111h110z" />
    <glyph glyph-name="uniFEE7" unicode="&#x646;" horiz-adv-x="301" arabic-form="initial" 
d="M268 181v273h-112v-235q0 -53 -8 -72q-16 -33 -71 -33h-95v-114h118q168 0 168 181zM266 546v111h-109v-111h109z" />
    <glyph glyph-name="uniFEE8" unicode="&#x646;" horiz-adv-x="431" arabic-form="medial" 
d="M446 0v114h-192q24 28 24 116v224h-111v-230q0 -54 -12 -76q-18 -34 -67 -34h-104v-114h462zM278 546v111h-110v-111h110z" />
    <glyph glyph-name="uniFEE9" unicode="&#x647;" horiz-adv-x="531" arabic-form="isolated" 
d="M506 242q0 108 -66.5 177.5t-169.5 69.5t-170.5 -68t-67.5 -175q0 -106 67 -176t171 -70q105 0 170.5 69t65.5 173zM391 242q0 -62 -32.5 -101.5t-85.5 -39.5q-54 0 -89.5 42t-35.5 104t32 102t86 40q56 0 90.5 -41.5t34.5 -105.5z" />
    <glyph glyph-name="uniFEEA" unicode="&#x647;" horiz-adv-x="656" arabic-form="final" 
d="M669 0v114h-71q-112 0 -112 120v318h-127q-9 -1 -120 -1q-96 0 -151.5 -65t-55.5 -178q0 -105 56 -170t151 -65q75 0 128 75q17 -67 66.5 -107.5t114.5 -40.5h121zM370 319q0 -66 -32 -109.5t-85 -43.5q-49 0 -79.5 41.5t-30.5 101.5q0 70 34 112.5t92 42.5h101v-145z
" />
    <glyph glyph-name="uniFEEB" unicode="&#x647;" horiz-adv-x="751" arabic-form="initial" 
d="M708 0q10 57 10 119q0 188 -92.5 317.5t-252.5 161.5l-13 -107q108 -22 178 -122t70 -228q0 -18 -1 -27h-132q26 63 26 104q0 89 -54.5 141.5t-143.5 52.5q-90 0 -144 -53t-54 -141q0 -41 26 -104h-147v-114h724zM395 218q0 -46 -26 -76.5t-66 -30.5t-66 30.5t-26 76.5
t24.5 75.5t67.5 29.5t67.5 -29.5t24.5 -75.5z" />
    <glyph glyph-name="uniFEEC" unicode="&#x647;" horiz-adv-x="789" arabic-form="medial" 
d="M800 0v114h-89q0 191 -92 321t-253 163l-14 -107q108 -22 178 -120.5t70 -225.5q0 -20 -1 -31h-132q26 63 26 104q0 89 -54 141.5t-143 52.5t-143.5 -52.5t-54.5 -141.5q0 -41 26 -104h-138v-114h814zM388 218q0 -45 -26 -76t-66 -31t-66 30.5t-26 76.5t24.5 75.5
t67.5 29.5q41 0 66.5 -29t25.5 -76z" />
    <glyph glyph-name="uniFEED" unicode="&#x648;" horiz-adv-x="525" arabic-form="isolated" 
d="M493 14v211q0 101 -59 165.5t-157 64.5q-95 0 -155 -63t-60 -164q0 -100 59.5 -164t155.5 -64q77 0 106 51q-3 -124 -107 -127v-89q217 0 217 179zM378 223q0 -51 -28.5 -86.5t-72.5 -35.5q-45 0 -74 37t-29 90q0 52 27.5 88.5t70.5 36.5q48 0 77 -35.5t29 -94.5z" />
    <glyph glyph-name="uniFEEE" unicode="&#x648;" horiz-adv-x="621" arabic-form="final" 
d="M631 0v114h-137v116q0 98 -58.5 161.5t-149.5 63.5q-96 0 -160 -62t-64 -160t64 -165.5t155 -67.5h107q-23 -77 -111 -77v-88q195 0 218 165h136zM382 114h-99q-45 0 -76 36.5t-31 88.5q0 51 29.5 82t78.5 31q42 0 67.5 -27.5t30.5 -73.5v-137z" />
    <glyph glyph-name="uniFEEF" unicode="&#x649;" horiz-adv-x="759" arabic-form="isolated" 
d="M727 283h-247q27 64 72.5 89.5t135.5 25.5v104q-162 0 -249.5 -85t-87.5 -243h264q-18 -233 -236 -233q-109 0 -172 67t-63 180v99h-112v-111q0 -145 99.5 -243.5t244.5 -98.5h7q144 0 244 99t100 243v107z" />
    <glyph glyph-name="uniFEF0" unicode="&#x649;" horiz-adv-x="896" arabic-form="final" 
d="M909 114h-42q-43 0 -74.5 24t-62.5 80q-66 119 -198 119h-44v-102q6 1 18 1q47 0 74 -29.5t27 -76.5q0 -77 -66 -132.5t-162 -55.5q-109 0 -172 68t-63 184v99h-112v-112q0 -147 99.5 -247t244.5 -100q124 0 214.5 69t114.5 185q35 -53 74.5 -70.5t129.5 -17.5v114z" />
    <glyph glyph-name="uniFEF1" unicode="&#x64a;" horiz-adv-x="759" arabic-form="isolated" 
d="M727 176v107h-247q29 68 82 94q44 21 126 21v104q-162 0 -249.5 -85t-87.5 -243h264q-18 -233 -236 -233q-114 0 -175 70q-60 66 -60 177v99h-112v-111q0 -146 99 -244q100 -98 245 -98h7q144 0 244 98q100 97 100 244zM526 -387v111h-110v-111h110zM337 -387v111h-110
v-111h110z" />
    <glyph glyph-name="uniFEF2" unicode="&#x64a;" horiz-adv-x="896" arabic-form="final" 
d="M909 114h-42q-43 0 -74.5 24t-62.5 80q-66 119 -198 119h-44v-102q6 1 18 1q47 0 74 -29.5t27 -76.5q0 -77 -66 -132.5t-162 -55.5q-109 0 -172 68t-63 184v99h-112v-112q0 -147 99.5 -247t244.5 -100q124 0 214.5 69t114.5 185q35 -53 74.5 -70.5t129.5 -17.5v114z
M526 -387v111h-110v-111h110zM337 -387v111h-110v-111h110z" />
    <glyph glyph-name="uniFEF3" unicode="&#x64a;" horiz-adv-x="308" arabic-form="initial" 
d="M276 181v273h-112v-235q0 -53 -8 -72q-16 -33 -71 -33h-94v-114h118q167 0 167 181zM84 -219v112h-110v-112h110zM273 -219v112h-110v-112h110z" />
    <glyph glyph-name="uniFEF4" unicode="&#x64a;" horiz-adv-x="432" arabic-form="medial" 
d="M443 0v114h-188q25 28 25 116v224h-111v-230q0 -54 -12 -76q-18 -34 -68 -34h-107v-114h461zM276 -219v112h-110v-112h110zM87 -219v112h-110v-112h110z" />
    <glyph glyph-name=".notdef" horiz-adv-x="608" 
d="M473 683h-350v-590h350v590zM73 733h450v-690h-450v690z" />
    <glyph glyph-name=".null" 
 />
    <glyph glyph-name="nonmarkingreturn" horiz-adv-x="333" 
 />
    <glyph glyph-name="space" unicode=" " horiz-adv-x="288" 
 />
    <glyph glyph-name="exclam" unicode="!" horiz-adv-x="167" 
d="M24 103h80v-118h-80v118zM104 187h-80v545h80v-545z" />
    <glyph glyph-name="quotedbl" unicode="&#x22;" horiz-adv-x="295" 
d="M104 547h-80v185h80v-185zM234 547h-80v185h80v-185z" />
    <glyph glyph-name="numbersign" unicode="#" horiz-adv-x="647" 
d="M603 560v-80h-77l-32 -180h79v-80h-94l-44 -235h-88l44 235h-217l-45 -235h-81l41 235h-84v80h97l33 180h-70v80h85l33 176l89 1l-34 -177h218l32 176h82l-31 -176h64zM406 300l35 180h-217l-35 -180h217z" />
    <glyph glyph-name="dollar" unicode="$" horiz-adv-x="608" 
d="M265 761v123h88v-121q90 -3 164 -23l11 -3l-1 -80l-19 5q-76 19 -155 23v-234q66 -11 103 -23q57 -19 88 -48q42 -41 42 -107q0 -87 -63 -149q-61 -58 -170 -74v-158h-88v154q-35 1 -72 6t-60 11t-46 15.5t-29 12.5l-17 10v89l23 -14q10 -6 27.5 -14.5t68.5 -21.5
q56 -14 105 -16v262q-64 10 -101 21q-57 19 -88 48q-41 41 -41 103q0 14 3 30q10 65 54 108q57 55 173 65zM117 582q-2 -12 -2 -21q0 -28 19 -46q27 -27 131 -48v225q-58 -7 -94 -27q-46 -28 -54 -83zM467 173q39 39 39 96q0 36 -19 54q-28 27 -134 48v-249q71 13 114 51z
" />
    <glyph glyph-name="percent" unicode="%" horiz-adv-x="1124" 
d="M395 -15h-93l430 784l92 -1zM863 360q-11 0 -25 -2q-22 -2 -44 -24q-42 -42 -42 -129q0 -80 38 -118q23 -22 48 -25q13 -2 27 -2h5q13 0 26 2q25 3 48 25q39 38 39 118q0 87 -43 129q-22 21 -44 24q-12 2 -24 2h-9zM261 688q-11 0 -25 -2q-21 -2 -43 -24
q-42 -42 -42 -125.5t38 -121.5q22 -22 47 -25q14 -2 27 -2h5q13 0 27 2q25 3 47 25q39 38 39 121.5t-43 126.5q-21 20 -44 23q-12 2 -24 2h-9zM865 -20q-20 0 -37 2q-54 7 -96 48q-63 62 -63 175q0 120 68 186q41 41 91 47q17 2 35 2h9q17 0 34 -2q49 -6 92 -47
q67 -66 67 -186q0 -113 -63 -175q-42 -41 -95 -48h-1q-18 -2 -36 -2h-5zM263 308q-18 0 -37 2v0q-53 7 -94 48q-61 62 -61 176q0 119 65 185q42 41 90 47q17 2 35 2h9q17 0 35 -2q49 -6 92 -47q66 -66 66 -182.5t-63 -178.5q-42 -41 -95 -48q-18 -2 -37 -2h-5z" />
    <glyph glyph-name="ampersand" unicode="&#x26;" horiz-adv-x="731" 
d="M379 629q0 20 -16 37q-31 31 -91 31h-10q-54 -4 -87 -38q-14 -13 -23 -30q-9 -30 -10 -42q0 -21 12 -42t32 -39q33 -28 66 -45q52 22 81 51q41 40 46 113v4zM501 230q38 86 38 167q0 13 -5 51l81 -1q4 -31 4 -52q0 -75 -28 -156q-12 -35 -28 -67l193 -187h-115l-123 118
q-97 -122 -249 -122q-103 0 -170 66q-71 72 -71 181v12v1q4 90 60 147q28 27 65 41q-60 46 -81 103q-10 26 -10 54q0 41 20 79q14 29 36 52q54 54 138 60h1h16q91 0 147 -55q39 -40 39 -93v-8v-1q-6 -103 -69 -165q-29 -28 -69 -50zM268 61q118 0 192 98l-219 212
q-25 -8 -52 -15q-25 -6 -43 -25q-38 -37 -38 -103q0 -78 48 -124q43 -43 112 -43z" />
    <glyph glyph-name="quotesingle" unicode="'" horiz-adv-x="167" 
d="M104 547h-80v185h80v-185z" />
    <glyph glyph-name="parenleft" unicode="(" horiz-adv-x="228" 
d="M215 884q-62 -111 -98.5 -234t-36.5 -236t34.5 -245t97.5 -260l10 -22l-88 -1l-5 9q-129 269 -129 520.5t131 481.5l4 8l93 1z" />
    <glyph glyph-name="parenright" unicode=")" horiz-adv-x="228" 
d="M13 884q62 -111 98.5 -234t36.5 -236t-34.5 -245t-97.5 -260l-10 -22l88 -1l4 9q130 269 130 520.5t-131 481.5l-4 8l-93 1z" />
    <glyph glyph-name="asterisk" unicode="*" horiz-adv-x="364" 
d="M124 759h80v-64l58 27l35 -73l-38 -17l38 -18l-35 -73l-58 27v-64h-80v64l-58 -27l-35 73l38 18l-38 17l35 73l58 -27v64z" />
    <glyph glyph-name="plus" unicode="+" horiz-adv-x="449" 
d="M21 340v80h138v134h102v-134h138v-80h-138v-134h-102v134h-138z" />
    <glyph glyph-name="comma" unicode="," horiz-adv-x="164" 
d="M50 -84h-60l65 195l88 -1z" />
    <glyph glyph-name="hyphen" unicode="-" horiz-adv-x="453" 
d="M25 340v80h378v-80h-378z" />
    <glyph glyph-name="period" unicode="." horiz-adv-x="164" 
d="M30 103h80v-118h-80v118z" />
    <glyph glyph-name="slash" unicode="/" horiz-adv-x="580" 
d="M89 -15h-91l450 784h91z" />
    <glyph glyph-name="zero" unicode="0" horiz-adv-x="601" 
d="M296 716l-2 1h-11t-31.5 -3t-51.5 -29q-95 -86 -95 -296q0 -195 87 -274q33 -28 62 -32q21 -4 42 -4h8q19 0 42 4q29 4 62 32q87 79 87 274q0 210 -95 296q-30 26 -51.5 29t-40.5 3q-1 0 -4 -1h-8zM362 4q-28 -5 -58 -5h-8q-30 0 -58 5q-56 9 -107 53q-106 103 -106 332
q0 244 113 353q48 42 102 51q26 4 52 4h16q27 0 52 -4q52 -7 102 -51q113 -109 113 -353q0 -229 -107 -332q-50 -44 -106 -53z" />
    <glyph glyph-name="one" unicode="1" horiz-adv-x="272" 
d="M169 773h6h58v-775h-80v657l-105 -92l-2 103z" />
    <glyph glyph-name="two" unicode="2" horiz-adv-x="571" 
d="M157 732q58 15 114 15q19 0 33 -1q117 -9 176 -66q56 -54 56 -141q0 -46 -23 -89q-52 -96 -244 -265q-62 -53 -128 -105h391v-80h-511v76l13 12q78 65 170 148q123 104 190 178q33 40 49 67q10 21 12 33.5t2 22.5q0 53 -35 85q-42 38 -125 44q-13 1 -26 1q-93 0 -195 -51
l-24 -12l-1 83q19 12 36 21t70 24z" />
    <glyph glyph-name="three" unicode="3" horiz-adv-x="542" 
d="M52 705q69 42 184 42q18 0 33 -1q134 -10 185 -59q41 -41 41 -105q0 -28 -7 -58q-10 -43 -43 -75q-20 -18 -46 -32q34 -15 58 -39q29 -27 41.5 -63.5t12.5 -75.5q0 -100 -70 -167q-72 -65 -187 -65q-61 0 -117 10q-50 10 -75 20l-33 14v87l22 -11q9 -4 25 -10.5t65 -17.5
q53 -11 106 -12h7q78 0 128 42q49 45 49 112q0 25 -9 51q-20 56 -127 74q-40 6 -81 6q-8 0 -60 -1v92q49 -2 53 -2q41 0 81 7q109 19 122 74q6 23 6 40q0 31 -20 49q-32 27 -134 35q-13 1 -26 1q-44 0 -89 -11q-39 -11 -59 -21l-43 -23v88z" />
    <glyph glyph-name="four" unicode="4" horiz-adv-x="458" 
d="M392 263v-265h-80v265h-308v54v5l319 481h8h61v-460h60v-80h-60zM312 343v296l-197 -296h197z" />
    <glyph glyph-name="five" unicode="5" horiz-adv-x="524" 
d="M252 87h6q80 0 134 44q41 64 46 105q0 28 -11 53q-8 17 -22 30q-67 58 -252 58q-48 0 -81 -5l-45 -6v377h445v-80h-365v-212q69 3 130 -3q158 -13 225 -77q26 -24 39 -54q17 -40 17 -83q0 -93 -70 -160q-72 -67 -191 -67q-60 0 -115 10q-50 11 -69 17q-29 11 -32 13
q-7 5 -7 13l-1 78l22 -11q9 -4 25 -10.5t65 -17.5q54 -11 107 -12z" />
    <glyph glyph-name="six" unicode="6" horiz-adv-x="592" 
d="M140 450q97 40 186 40q112 0 177 -61q59 -58 70 -158q1 -17 1 -32q0 -99 -63 -161q-40 -38 -95 -55q-57 -16 -104 -17q-2 -15 -3 0q-109 0 -188 70q-65 62 -87 170q-11 58 -11 114q0 103 36.5 190t104.5 140q85 63 229 63q61 0 104 -10l11 -3v-83l-19 4q-45 12 -96 12
q-14 0 -28 -1q-91 -5 -144 -42q-48 -35 -79 -90q-24 -48 -33 -106q14 8 31 16zM446 372q-44 38 -120 38q-70 0 -148 -32q-48 -20 -75 -34q2 -37 11 -81q16 -84 68 -129l1 -1q53 -47 126 -47q33 0 74.5 12t70.5 36q41 39 41 104q0 88 -49 134z" />
    <glyph glyph-name="seven" unicode="7" horiz-adv-x="563" 
d="M455 693h-391v80h495v-50v-4l-430 -719h-91z" />
    <glyph glyph-name="eight" unicode="8" horiz-adv-x="556" 
d="M290 372h-18q-77 0 -120 -37q-18 -17 -28.5 -45.5t-10.5 -59.5q0 -67 43 -106q44 -37 115 -37q80 0 130 41q45 42 45 108q0 26 -10 56q-9 26 -29 44q-42 36 -117 36zM99 66q-66 64 -66 163q0 44 15 86q23 67 83 102q-56 39 -73 106q-7 29 -7 55q0 68 45 112q59 56 184 56
t184 -56q45 -44 45 -112q0 -26 -7 -55q-13 -52 -51 -90q-10 -9 -21 -17q59 -35 82 -101q14 -39 14 -80q0 -98 -67 -163q-70 -65 -188 -65q-109 0 -172 59zM153 646q-22 -22 -22 -59q0 -17 5 -39q8 -33 31 -55q41 -36 110 -41h8q67 5 108 41q23 22 31 55q5 22 5 39
q0 37 -22 59q-40 35 -128.5 35t-125.5 -35z" />
    <glyph glyph-name="nine" unicode="9" horiz-adv-x="592" 
d="M457 309q-96 -40 -186 -40q-112 0 -177 62q-57 56 -69 157q-2 17 -2 32q0 100 64 161q40 38 94 55q56 16 104 17q2 15 4 0q109 0 187 -71q65 -62 87 -168q12 -59 12 -115q0 -103 -36.5 -190t-105.5 -141q-74 -54 -195 -61q-16 -1 -33 -1q-60 0 -103 9l-12 3v82l18 -4
q46 -10 97 -10q11 0 27 1q91 4 144 42q49 35 80 90q23 48 33 105zM153 387q43 -38 119 -38q70 0 148 31q48 20 74 34q-1 41 -10 82q-17 84 -69 130q-54 47 -126 47q-33 0 -75 -12t-70 -37q-41 -38 -41 -103q0 -88 50 -134z" />
    <glyph glyph-name="colon" unicode=":" horiz-adv-x="164" 
d="M30 103h80v-118h-80v118zM110 415h-80v118h80v-118z" />
    <glyph glyph-name="semicolon" unicode=";" horiz-adv-x="164" 
d="M20 -84h-60l65 195l88 -1zM110 415h-80v118h80v-118z" />
    <glyph glyph-name="less" unicode="&#x3c;" horiz-adv-x="610" 
d="M49 406v46v11l441 128l23 -77l-299 -85l299 -85l-23 -77l-441 128v11z" />
    <glyph glyph-name="equal" unicode="=" horiz-adv-x="453" 
d="M25 410v80h378v-80h-378zM25 310v80h378v-80h-378z" />
    <glyph glyph-name="greater" unicode="&#x3e;" horiz-adv-x="609" 
d="M527 452v-46v-11l-441 -128l-23 77l299 85l-299 85l23 77l441 -128v-11z" />
    <glyph glyph-name="question" unicode="?" horiz-adv-x="529" 
d="M152 103h96v-118h-96v118zM248 187h-96v168l27 12q75 29 135 80q54 50 58 96v1q1 8 1 16q0 48 -31 79q-43 38 -128 38q-16 0 -39 -3q-42 -5 -70.5 -14t-37.5 -15l-34 -21v86q10 8 14 11q10 7 24 12q33 11 52 14q22 5 43 7q23 3 48 3q123 0 186 -62q53 -54 53 -136
q0 -11 -1 -22q-8 -77 -79 -148q-49 -46 -125 -83v-119z" />
    <glyph glyph-name="at" unicode="@" horiz-adv-x="985" 
d="M490 17q44 0 86 7q42 8 59 13l43 12v0v-18v-62l-10 -4q-69 -28 -178 -28q-170 0 -319 96q-28 18 -52 41q-114 115 -114 301q0 99 34 189q34 95 92 150q16 15 33 27q68 47 154 76q87 28 177 28q190 0 330 -130q11 -10 20 -21q94 -104 94 -260q0 -29 -4 -59
q-6 -55 -24 -113q-17 -58 -26 -78q-11 -25 -26 -53h-256v52q-53 -41 -130 -52q-15 -2 -29 -2q-84 0 -141 54q-76 74 -73 206q0 26 2 50q10 97 69 153q28 26 66 42q38 17 53 18q15 2 26 3h240v-444h123q37 84 47 173q3 26 3 50q0 125 -75 207q-115 124 -290 124
q-76 0 -149 -24q-74 -23 -132 -65q-63 -45 -99 -141q-29 -77 -29 -160q0 -158 94 -244q19 -18 41 -33q122 -81 270 -81zM603 575h-154q-14 -1 -34 -8q-32 -11 -54 -32q-39 -37 -46 -104q-2 -22 -2 -42q0 -102 50 -149q32 -31 80 -31q9 0 19 2q60 6 103 48q25 23 38 48v268z
M449 590z" />
    <glyph glyph-name="A" unicode="A" horiz-adv-x="634" 
d="M20 0l266 793h58h12l267 -793h-85l-108 313h-218l-109 -313h-83zM321 641l-82 -248h164z" />
    <glyph glyph-name="B" unicode="B" horiz-adv-x="525" 
d="M213 86q121 13 173 57q34 32 34 83t-32 81q-53 45 -170 50q-22 1 -47 1h-5q-33 -5 -65 -7v-272h12q47 0 100 7zM57 2l-36 3v783l35 5q21 2 55 2t75 -5q121 -14 186 -69q58 -55 58 -142q0 -102 -88 -162q65 -18 103 -55q55 -53 55 -136t-57 -139q-66 -63 -217 -81
q-56 -7 -103 -7q-43 0 -66 3zM158 423q100 16 147 59q41 34 41 90t-39 89q-43 38 -134 50q-32 4 -70 4h-2v-294q28 2 57 2z" />
    <glyph glyph-name="C" unicode="C" horiz-adv-x="578" 
d="M528 19q-53 -18 -136 -18q-33 0 -65 3q-115 11 -203 86q-115 111 -115 326q0 183 109 287q48 43 105.5 65t106.5 24q22 1 44 1q98 0 155 -16l11 -3l-1 -82l-19 6q-56 15 -145 15q-20 0 -46 -1.5t-69 -17.5t-80 -47q-91 -82 -91 -231q0 -181 99 -270q65 -55 149 -62v0
q28 -3 61 -3q31 0 61 4.5t45 7.5l34 12v-83z" />
    <glyph glyph-name="D" unicode="D" horiz-adv-x="579" 
d="M375 144q90 84 90 251.5t-90 251.5q-93 82 -248 83v-669q155 1 248 83zM82 793q17 2 42 2q48 0 101 -9q130 -22 212 -93q108 -104 108 -297.5t-108 -296.5q-82 -72 -213 -94q-52 -9 -100 -9q-26 0 -42 2l-35 5v785z" />
    <glyph glyph-name="E" unicode="E" horiz-adv-x="467" 
d="M29 793h396v-80h-316v-247h171v-80h-171v-305h316v-80h-396v792z" />
    <glyph glyph-name="F" unicode="F" horiz-adv-x="467" 
d="M29 793h396v-80h-316v-247h171v-80h-171v-386h-80v793z" />
    <glyph glyph-name="G" unicode="G" horiz-adv-x="578" 
d="M328 792q21 1 44 1q100 0 157 -16l11 -3l-1 -82l-19 6q-56 15 -147 15q-21 0 -46 -1.5t-68 -17.5t-80 -47q-90 -82 -90 -231q0 -181 98 -270q64 -55 148 -62v0q28 -3 55 -3q56 0 101 9v285h-147v80h227v-425l-27 -9q-63 -20 -155 -20q-33 0 -64 3q-114 11 -201 86
q-115 111 -115 326q0 183 109 287q48 43 105 65t105 24z" />
    <glyph glyph-name="H" unicode="H" horiz-adv-x="479" 
d="M29 0v783h80v-317h261v317h80v-783h-80v386h-261v-386h-80z" />
    <glyph glyph-name="I" unicode="I" horiz-adv-x="225" 
d="M26 793h168v-80h-43v-633h43v-80h-168v80h45v633h-45v80z" />
    <glyph glyph-name="J" unicode="J" horiz-adv-x="227" 
d="M31 795h165v-616q0 -84 -53 -135q-28 -26 -64 -39q-24 -9 -44 -9h-15v80h15q5 0 17 4q19 6 33 20q31 30 31 81v534h-85v80z" />
    <glyph glyph-name="K" unicode="K" horiz-adv-x="509" 
d="M28 1v797h80v-374l309 371l94 -2l-278 -353l284 -440h-94l-247 371l-68 -79v-291h-80z" />
    <glyph glyph-name="L" unicode="L" horiz-adv-x="467" 
d="M109 81h316v-80h-396v797h80v-717z" />
    <glyph glyph-name="M" unicode="M" horiz-adv-x="694" 
d="M373 214h-10h-35h-10l-208 402v-616h-81v793h68l249 -479l248 479h68v-793h-81v616z" />
    <glyph glyph-name="N" unicode="N" horiz-adv-x="590" 
d="M29 0v793h57h8l375 -549v525h80v-769h-80v98l-360 546v-644h-80z" />
    <glyph glyph-name="O" unicode="O" horiz-adv-x="845" 
d="M497 712q-48 3 -64 3h-22q-32 0 -64 -3q-26 -2 -65.5 -19t-75.5 -49q-97 -90 -97 -256q0 -155 88 -237q37 -33 80 -49q41 -16 73 -19.5t66 -3.5h12q32 0 64.5 3t75 19.5t79.5 49.5q88 82 88 237q0 166 -97 256q-36 32 -75.5 49t-65.5 19zM428 -1h-12q-42 0 -81 4.5
t-94 25.5t-103 66q-109 105 -109 293q0 200 117 313q47 42 99.5 64.5t93.5 25.5q36 4 72 4h22q36 0 72 -4q41 -3 93.5 -25.5t99.5 -64.5q117 -113 117 -313q0 -188 -109 -293q-48 -45 -103 -66q-56 -21 -96 -25.5t-79 -4.5z" />
    <glyph glyph-name="P" unicode="P" horiz-adv-x="525" 
d="M103 715h-2v-299q56 4 117 19.5t96 46.5q36 34 36 90t-34 89q-44 38 -141 50q-34 4 -72 4zM21 788l35 5q18 2 53 2q36 0 80 -5q127 -14 184 -69t57 -140.5t-58 -142.5q-82 -76 -271 -86v-352h-80v788z" />
    <glyph glyph-name="Q" unicode="Q" horiz-adv-x="845" 
d="M497 712q-48 3 -64 3h-22q-32 0 -64 -3q-26 -2 -65.5 -19t-75.5 -49q-97 -90 -97 -256q0 -155 88 -237q37 -33 80 -49q41 -16 73 -19.5t66 -3.5h12q32 0 64.5 3t75 19.5t79.5 49.5q88 82 88 237q0 166 -97 256q-36 32 -75.5 49t-65.5 19zM745 -106q-19 -10 -52 -14
q-22 -2 -25.5 -2h-3.5q-54 0 -92 27q-9 6 -16 12q-35 33 -44 85v2q-35 -5 -84 -5h-12q-42 0 -81 4.5t-94 25.5t-103 66q-109 105 -109 293q0 200 117 313q47 42 99.5 64.5t93.5 25.5q36 4 72 4h22q36 0 72 -4q41 -3 93.5 -25.5t99.5 -64.5q117 -113 117 -313
q0 -189 -109 -294q-48 -45 -111 -69q3 -39 27 -56q17 -11 42 -11q21 0 39 5q16 5 22 8l28 12v-85z" />
    <glyph glyph-name="R" unicode="R" horiz-adv-x="477" 
d="M21 788l35 5q18 2 54 2q39 0 80 -5q119 -14 183 -69q57 -55 57 -140.5t-59 -142.5q-31 -27 -74 -45q34 -14 58 -35q36 -33 46 -78l58 -280h-83q-39 193 -59 274q-7 23 -26 42q-37 32 -121 44q-33 5 -69 6v-366h-80v788zM173 425q90 17 134 57q40 34 40 90t-38 89
q-42 38 -132 50q-31 4 -74 4h-2v-299q37 2 72 9z" />
    <glyph glyph-name="S" unicode="S" horiz-adv-x="608" 
d="M539 370q47 -45 47 -120q0 -114 -82 -181q-87 -68 -219 -68q-44 0 -88.5 7.5t-73.5 17.5q-28 10 -54 22.5t-34 17.5t-20 13v92q28 -16 36.5 -21.5t35.5 -18.5t54 -23q29 -11 68.5 -19t75.5 -8q108 0 172 55q49 46 49 116q0 44 -24 66q-18 18 -57 31t-127 28
q-91 16 -129 28q-56 20 -88 49q-46 44 -46 114q0 18 2 33q12 78 61 125q74 68 223 68h15h1q99 -3 181 -28l11 -3v-82l-35 9q-72 21 -159 24h-14q-112 0 -163 -45q-34 -30 -41 -82q-2 -12 -2 -23q0 -37 23 -59q20 -17 62 -31q36 -11 124 -27t128 -29q55 -19 87 -48z" />
    <glyph glyph-name="T" unicode="T" horiz-adv-x="387" 
d="M10 793h367v-80h-141v-713h-80v713h-146v80z" />
    <glyph glyph-name="U" unicode="U" horiz-adv-x="637" 
d="M454 21q-65 -21 -138.5 -21t-138.5 21q-60 21 -98 58q-46 47 -46 104v615h80v-615q0 -25 24 -48q24 -24 72 -39.5t106 -15.5t106.5 15.5t72.5 40.5q24 22 24 47v615h80v-615q0 -57 -46 -104q-38 -37 -98 -58z" />
    <glyph glyph-name="V" unicode="V" horiz-adv-x="777" 
d="M395 2h19h-42l-350 775l86 1l296 -651l296 651l86 -1l-349 -775h-42z" />
    <glyph glyph-name="W" unicode="W" horiz-adv-x="1131" 
d="M424 3h-43h-41l-344 774l86 1l290 -650l157 356l-134 293l89 1l89 -196l89 196h91l-135 -294l157 -356l289 650l87 -1l-344 -774h-41h18h-41l-170 377l-169 -377h20z" />
    <glyph glyph-name="X" unicode="X" horiz-adv-x="727" 
d="M434 384l303 -384h-99l-256 332l-257 -332h-98l302 384l-314 399h99l268 -347l267 347h99z" />
    <glyph glyph-name="Y" unicode="Y" horiz-adv-x="763" 
d="M423 418v-418h-80v418l-359 367h109l290 -307l290 307h110z" />
    <glyph glyph-name="Z" unicode="Z" horiz-adv-x="590" 
d="M476 713h-445v80h553v-59l-474 -652h445v-80h-553v55v4z" />
    <glyph glyph-name="bracketleft" unicode="[" horiz-adv-x="184" 
d="M167 -49v-80h-152v1020h152v-80h-72v-860h72z" />
    <glyph glyph-name="backslash" unicode="\" horiz-adv-x="580" 
d="M448 -15h91l-450 784h-91z" />
    <glyph glyph-name="bracketright" unicode="]" horiz-adv-x="184" 
d="M40 -129v80h72v860h-72v80h152v-1020h-152z" />
    <glyph glyph-name="asciicircum" unicode="^" horiz-adv-x="264" 
d="M113 756h19l106 -58l-40 -70l-77 43l-78 -43l-38 70l104 58h4z" />
    <glyph glyph-name="underscore" unicode="_" horiz-adv-x="554" 
d="M543 -20v-80h-572v80h572z" />
    <glyph glyph-name="grave" unicode="`" horiz-adv-x="355" 
d="M11 766h124l129 -168h-30h-45z" />
    <glyph glyph-name="a" unicode="a" horiz-adv-x="528" 
d="M429 420q-7 16 -32 24q-54 16 -117 16t-161 -24l-19 -6v84l11 3q89 23 168.5 23t147.5 -25q28 -10 48 -29q35 -33 35 -76v-410h-80v39q-99 -36 -188 -36q-117 0 -179 59q-55 54 -55 135t52 132q36 33 94 51q50 14 110 17h18q55 0 148 -10v27q0 2 -1 6zM430 306
q-100 11 -150 11h-13q-47 -2 -85 -12q-41 -12 -65 -33q-29 -27 -29 -75t32 -79q41 -35 124.5 -35t185.5 40v183z" />
    <glyph glyph-name="b" unicode="b" horiz-adv-x="557" 
d="M27 0v750h80v-214q49 9 108 9q32 0 63 -3q38 -3 89 -22q51 -18 89 -54q76 -73 76 -185q0 -138 -80 -215q-70 -64 -189 -64q-75 0 -156 29v-31h-80zM107 114q84 -32 156 -32q81 0 130 40q59 53 59 158q0 80 -54 130q-31 24 -68.5 37.5t-58.5 14.5h-1q-28 3 -56 3
q-60 0 -107 -10v-341z" />
    <glyph glyph-name="c" unicode="c" horiz-adv-x="532" 
d="M274.5 83.5q27.5 -2.5 56.5 -2.5q78 0 127 17l20 7l1 -83l-10 -3q-53 -18 -139 -18q-33 0 -65 3q-40 3 -92 20q-50 16 -89 53q-75 72 -75 190q0 126 80 202q37 35 87 52q50 18 89 21h1q29 2 60 2q89 0 142 -17l11 -3l-1 -83l-20 7q-49 16 -131 16q-27 0 -52.5 -1.5
t-61 -14t-65.5 -36.5q-59 -53 -59 -145q0 -86 53 -133q31 -24 69 -37q36 -11 63.5 -13.5z" />
    <glyph glyph-name="d" unicode="d" horiz-adv-x="559" 
d="M445 536v214h80v-750h-80v31q-81 -29 -156 -29q-119 0 -189 64q-80 75 -80 215q0 112 76 185q38 36 89 54q51 19 89 22q31 3 63 3q59 0 108 -9zM445 455q-47 10 -107 10q-25 0 -51.5 -2t-64 -15.5t-68.5 -37.5q-54 -50 -54 -130q0 -105 59 -158q49 -40 130 -40
q72 0 156 32v341z" />
    <glyph glyph-name="e" unicode="e" horiz-adv-x="591" 
d="M95 468q80 72 217 72q110 0 174 -59q50 -47 68 -127q8 -39 8 -78q0 -10 -3 -51h-457q8 -58 50 -95q30 -23 66 -35q35 -11 61.5 -13.5t59 -2.5t66.5 4.5t49 7.5l34 12v-83l-10 -3q-54 -18 -145 -18q-32 0 -63 3q-38 3 -88 20q-49 16 -88 53q-75 72 -75 190q0 130 76 203z
M430 424q-42 36 -118 36q-100 0 -158 -48q-44 -39 -53 -107h380q-2 18 -6 35q-13 55 -45 84z" />
    <glyph glyph-name="f" unicode="f" horiz-adv-x="372" 
d="M258 773q19 1 35 1q53 0 81 -9l11 -3v-82l-19 6q-28 8 -72 8q-13 0 -28 -1q-11 -1 -33.5 -8t-39.5 -20q-40 -29 -40 -82v-40h202v-80h-202v-465h-81v465h-43v80h43v40q0 86 53 139q54 46 133 51z" />
    <glyph glyph-name="g" unicode="g" horiz-adv-x="558" 
d="M451 534v14h80v-535q0 -91 -57 -148q-36 -35 -94 -54q-47 -15 -103 -18v0q-22 -1 -45 -1q-85 0 -143 14l-11 3v82l19 -4q61 -15 135 -15q19 0 38 1q43 3 83 14.5t64 34.5q34 33 34 91v16q-81 -29 -156 -29q-119 0 -189 64q-80 75 -80 215q0 112 76 185q38 36 89 54
q51 19 89 22q31 3 63 3q58 0 108 -9zM451 454q-47 9 -107 9q-25 0 -51.5 -2t-64 -15.5t-68.5 -37.5q-54 -50 -54 -130q0 -105 59 -158q49 -40 130 -40q72 0 156 32v342z" />
    <glyph glyph-name="h" unicode="h" horiz-adv-x="562" 
d="M24 -2v750h80v-214q49 9 108 9q32 0 63 -3q38 -3 89 -22q51 -18 89 -54q76 -73 76 -186v-280h-80v278q0 81 -54 131q-31 24 -68.5 38t-58.5 15h-1q-28 3 -56 3q-60 0 -107 -10v-455h-80z" />
    <glyph glyph-name="i" unicode="i" horiz-adv-x="180" 
d="M50 -2v550h80v-550h-80zM130 719v-114h-80v114h80z" />
    <glyph glyph-name="j" unicode="j" horiz-adv-x="239" 
d="M186 719v-114h-80v114h80zM106 -7v470h-59v80h139v-550q0 -87 -53 -141q-28 -27 -64 -40q-24 -9 -44 -9h-15v80h15q5 0 17 4q19 7 33 22q31 30 31 84z" />
    <glyph glyph-name="k" unicode="k" horiz-adv-x="470" 
d="M27 -2v750h80v-379l224 141h126l-218 -152l215 -358h-91l-202 324l-54 -39v-287h-80z" />
    <glyph glyph-name="l" unicode="l" horiz-adv-x="154" 
d="M35 -2v750h80v-750h-80z" />
    <glyph glyph-name="m" unicode="m" horiz-adv-x="962" 
d="M46 -2v550h80v-14q49 9 103 9q30 0 61.5 -3t73.5 -19.5t76 -44.5q84 66 197 66q22 0 41 -2q35 -4 82 -22t85 -54q76 -73 76 -186v-280h-80v278q0 81 -53 130q-29 25 -63.5 38.5t-56.5 15.5q-16 2 -31 2q-82 0 -142 -44q44 -61 44 -142v-278h-84v278q0 81 -56 131
q-28 24 -63 38t-55 15v0q-27 3 -53 3q-55 0 -102 -10v-455h-80z" />
    <glyph glyph-name="n" unicode="n" horiz-adv-x="550" 
d="M24 -2v550h80v-14q49 9 108 9q32 0 63 -3q38 -3 89 -22q51 -18 89 -54q76 -73 76 -186v-280h-80v278q0 81 -54 131q-31 24 -68.5 38t-58.5 15h-1q-28 3 -56 3q-60 0 -107 -10v-455h-80z" />
    <glyph glyph-name="o" unicode="o" horiz-adv-x="692" 
d="M355 462h-16q-27 0 -52.5 -1.5t-62 -14t-67.5 -36.5q-59 -53 -59 -145q0 -86 53 -133q32 -24 70 -36.5t65 -14.5t55 -2h12q28 0 55 2t65 14.5t70 36.5q53 47 53 133q0 92 -59 145q-31 24 -67.5 36.5t-62 14t-52.5 1.5zM418 2q-33 -3 -65 -3h-12q-32 0 -65 3q-41 3 -93 20
q-51 16 -90 53q-75 72 -75 190q0 126 80 202q37 35 88 52q51 18 91 21h1q30 2 61 2h16q31 0 61 -2h1q40 -3 91 -21q51 -17 88 -52q80 -76 80 -202q0 -118 -75 -190q-39 -37 -90 -53q-52 -17 -93 -20z" />
    <glyph glyph-name="p" unicode="p" horiz-adv-x="556" 
d="M106 -172h-80v730h80v-14q49 9 108 9q32 0 63 -3q38 -3 89 -23q51 -18 89 -54q76 -72 76 -185q0 -137 -80 -214q-70 -64 -189 -64q-75 0 -156 29v-211zM106 122q84 -32 156 -32q81 0 130 40q59 53 59 158q0 80 -54 130q-31 24 -68.5 37.5t-58.5 14.5h-1q-28 3 -56 3
q-60 0 -107 -10v-341z" />
    <glyph glyph-name="q" unicode="q" horiz-adv-x="538" 
d="M515 558v-730h-80v211q-120 -29 -153 -29h-3q-119 0 -189 64q-80 75 -80 214q0 113 76 185q38 36 89 54q51 20 89 23q31 3 63 3q59 0 108 -9v14h80zM435 463q-47 10 -107 10q-25 0 -51.5 -2t-64 -15.5t-68.5 -37.5q-54 -50 -54 -130q0 -105 59 -158q49 -40 130 -40
q72 0 156 32v341z" />
    <glyph glyph-name="r" unicode="r" horiz-adv-x="468" 
d="M22 -2v550h80v-14q50 9 111 9q34 0 67 -3q85 -8 141 -63q19 -17 27 -30l4 -7l-31 -75l-16 18q-22 25 -38 37q-26 22 -44 30q-19 8 -50 10h-1q-42 3 -60 3q-62 0 -110 -10v-455h-80z" />
    <glyph glyph-name="s" unicode="s" horiz-adv-x="482" 
d="M405 439q-76 19 -148 19q-96 0 -132 -31q-22 -20 -22 -53q0 -13 11 -23.5t41 -18.5q32 -9 97.5 -17.5t115.5 -21.5q45 -13 72 -38q33 -31 33 -82q0 -65 -48 -112q-66 -60 -198 -60q-57 0 -112 13q-50 14 -67.5 22t-35.5 19v88l22 -12q11 -6 28.5 -14t65.5 -22
q55 -14 99 -14q95 0 140 39q26 24 26 58q0 19 -10 29q-11 10 -41 19q-32 9 -97 17.5t-116 20.5q-46 13 -73 39q-32 31 -32 78q0 17 1 23q9 49 43 81q57 53 189 53h6q84 -1 151 -19l11 -3l-1 -81z" />
    <glyph glyph-name="t" unicode="t" horiz-adv-x="423" 
d="M375 11q-28 -9 -81 -9q-20 0 -35 1q-80 5 -133 48q-53 49 -53 130v282h-43v80h43v205h81v-205h202v-80h-202v-281q0 -50 40 -77q17 -13 39.5 -19.5t33.5 -6.5q14 -1 27 -1l92 10v-74z" />
    <glyph glyph-name="u" unicode="u" horiz-adv-x="533" 
d="M440 93v455h80v-550h-80v14q-49 -9 -108 -9q-32 0 -63 3q-38 3 -89 22q-51 18 -89 54q-76 73 -76 186v280h80v-278q0 -81 54 -131q31 -24 68.5 -38t58.5 -15h1q28 -3 56 -3q60 0 107 10z" />
    <glyph glyph-name="v" unicode="v" horiz-adv-x="584" 
d="M330 0h-10h-40h-11l-280 558h88l222 -457l224 457l86 -1z" />
    <glyph glyph-name="w" unicode="w" horiz-adv-x="895" 
d="M644 0h-10h-39h-10l-133 279l-132 -279h-10h-39h-10l-274 558h88l215 -457l117 244l-102 214l93 -1l54 -117l56 117h92l-101 -213l116 -244l216 457h88z" />
    <glyph glyph-name="x" unicode="x" horiz-adv-x="525" 
d="M223 273l-239 290h100l193 -238l193 238l97 -1l-236 -289l227 -273h-102l-179 221l-180 -221h-100z" />
    <glyph glyph-name="y" unicode="y" horiz-adv-x="601" 
d="M262 13l-261 545h88l220 -474l216 474l86 -1l-340 -729l-94 1z" />
    <glyph glyph-name="z" unicode="z" horiz-adv-x="502" 
d="M392 493h-368v80h483v-56v-5l-397 -432h368v-80h-483v56v5z" />
    <glyph glyph-name="braceleft" unicode="{" horiz-adv-x="241" 
d="M97 394q40 -62 40 -251l-1 -91q0 -3 2 -5l1 -1q6 -6 21 -10l41 -6l-4 -78h-14q-20 0 -42 7q-38 8 -60 31q-25 26 -25 62l1 91q0 173 -29 211h-13v80h13q29 38 29 211l-1 91q0 37 25 63q22 22 60 30q22 7 42 7h14l4 -80h-16q-10 0 -25 -3.5t-22 -11.5q-2 -2 -2 -5l1 -91
q0 -189 -40 -251zM27 355z" />
    <glyph glyph-name="bar" unicode="|" horiz-adv-x="216" 
d="M52 881h80v-972h-80v972z" />
    <glyph glyph-name="braceright" unicode="}" horiz-adv-x="241" 
d="M186 354q-29 -38 -29 -211l1 -91q0 -37 -25 -63q-22 -22 -60 -31q-33 -6 -42 -6v0h-14l-4 80h16q10 0 25 3.5t22 11.5q2 2 2 5l-1 91q0 189 40 251q-40 62 -40 251l1 91q0 3 -2 5l-1 1q-6 6 -21 10l-41 6l4 78h14q20 0 42 -7q38 -8 60 -31q25 -26 25 -62l-1 -91
q0 -173 29 -211h13v-80h-13zM187 433z" />
    <glyph glyph-name="asciitilde" unicode="~" horiz-adv-x="534" 
d="M252 524q17 -17 26 -28q11 -15 22 -32q21 -32 34 -43t27 -11q33 0 52 63q8 28 8 41v1l3 22l79 -6l-1 -15q-2 -31 -13 -65q-16 -57 -48 -89t-80 -32q-55 0 -92 35q-17 17 -25 28t-26.5 37.5t-29.5 37.5q-13 11 -30.5 11t-29.5 -13q-16 -14 -26 -45q-6 -23 -8 -35v-4v-16
l-81 6l1 15q2 27 13 58q15 49 44 79q36 35 88 35q55 0 93 -35z" />
    <glyph glyph-name="uni00A0" unicode="&#xa0;" horiz-adv-x="318" 
 />
    <glyph glyph-name="exclamdown" unicode="&#xa1;" horiz-adv-x="167" 
d="M24 732h80v-118h-80v118zM24 530h80v-545h-80v545z" />
    <glyph glyph-name="cent" unicode="&#xa2;" horiz-adv-x="532" 
d="M307 -123h-91v117q-89 16 -147 72q-75 76 -75 201q0 132 80 213q58 55 142 72v95h91v-88h1q97 0 160 -20l15 -4l-25 -77l-15 5q-49 16 -133 16h-3v-413h7q80 0 129 17l14 5l26 -76l-14 -5q-63 -21 -156 -21h-6v-109zM74 267q0 -93 53 -144q36 -32 89 -47v393
q-47 -14 -83 -46q-59 -57 -59 -156z" />
    <glyph glyph-name="sterling" unicode="&#xa3;" horiz-adv-x="648" 
d="M245 561v-149h232v-80h-232v-72q-2 -46 -16.5 -101.5t-42.5 -93.5h401v-80h-567v85l38 2q25 2 43 20q28 28 44 88q10 43 12 80v72h-84v80h84v149q0 36 11 76q19 67 64 108q30 27 70 40q88 20 114 20h3q85 0 122 -26l7 -4v-93l-24 17q-19 14 -60 22q-33 4 -45 4
q-44 0 -86 -14q-23 -8 -39 -23q-28 -26 -41 -71q-8 -30 -8 -56z" />
    <glyph glyph-name="currency" unicode="&#xa4;" horiz-adv-x="637" 
d="M436 -14q-33 0 -65 3q-113 12 -200 89q-90 87 -112 237h-46v80h39v20h-39v80h45q19 135 106 219q49 46 105.5 68.5t104.5 24.5q22 1 44 1q96 0 153 -16l11 -3v-82l-19 6q-56 15 -144 15q-20 0 -45.5 -1.5t-68.5 -18.5t-79 -50q-68 -62 -87 -163h176l-35 -80h-148v-20h106
l-36 -80h-11h-51q22 -115 94 -180q64 -59 147 -66v0q28 -3 56 -3q75 0 124 17l20 7l1 -83l-10 -3q-53 -18 -136 -18z" />
    <glyph glyph-name="yen" unicode="&#xa5;" horiz-adv-x="606" 
d="M354 475h69v-140h-99v-350h-87v350h-97v140h69l-241 267l61 51l252 -273l266 274l58 -54z" />
    <glyph glyph-name="brokenbar" unicode="&#xa6;" horiz-adv-x="130" 
d="M6 371h80v-420h-80v420zM6 845h80v-424h-80v424z" />
    <glyph glyph-name="section" unicode="&#xa7;" horiz-adv-x="438" 
d="M305 142q0 36 -21 71q-30 41 -108 98q-31 22 -43 32q-37 33 -45 63q-4 13 -4 27q0 24 12 49q-35 36 -56 71q-33 55 -33 113q0 79 56 139q57 59 150 65q13 1 27 1q94 0 141 -48q12 -11 18 -22l7 -13l-69 -38l-7 12q-2 1 -5 4q-24 25 -83 25q-10 0 -21 -1h-1
q-54 -4 -95 -40q-38 -36 -38 -84q0 -36 21 -71q30 -41 108 -98q31 -22 43 -32q37 -33 45 -63q4 -13 4 -27q0 -24 -12 -49q35 -36 56 -71q33 -55 33 -113q0 -79 -56 -139q-57 -59 -150 -65q-13 -1 -27 -1q-94 0 -141 48q-12 11 -18 22l-7 13l69 38l7 -12q2 -1 5 -4
q24 -25 83 -25q10 0 21 1h1q54 4 95 40q38 36 38 84z" />
    <glyph glyph-name="dieresis" unicode="&#xa8;" horiz-adv-x="295" 
d="M285 754v-92h-86v92h86zM131 754v-92h-86v92h86z" />
    <glyph glyph-name="copyright" unicode="&#xa9;" horiz-adv-x="845" 
d="M418 730h-22q-32 0 -64 -3q-26 -3 -65.5 -20.5t-75.5 -51.5q-97 -93 -97 -267q0 -163 88 -248q37 -35 80 -52q41 -17 73 -20.5t66 -3.5h12q32 0 64.5 3.5t75 20.5t79.5 52q88 85 88 248q0 174 -97 267q-36 34 -75.5 51.5t-65.5 20.5q-48 3 -64 3zM551 221v-79l-12 -3
q-41 -11 -110 -11q-24 0 -48 2q-102 8 -173 74q-81 79 -81 214q0 114 76 187q39 38 88.5 56.5t91.5 20.5h34q70 0 121 -10l13 -3l1 -81l-19 4q-46 10 -116 10h-31q-26 -1 -61 -14.5t-62 -39.5q-52 -49 -52 -130q0 -103 58 -157q48 -45 119 -52q20 -1 41 -1zM401 -16
q-42 0 -81 4.5t-94 26t-103 68.5q-109 110 -109 305q0 207 117 325q47 43 99.5 66.5t93.5 26.5q36 4 72 4h22q36 0 72 -4q41 -3 93.5 -26.5t99.5 -66.5q117 -118 117 -325q0 -195 -109 -304q-48 -48 -103 -69q-56 -22 -96 -26.5t-79 -4.5h-12z" />
    <glyph glyph-name="ordfeminine" unicode="&#xaa;" horiz-adv-x="459" 
d="M424 277h-65l-20 47q-14 -10 -26.5 -19.5t-34.5 -18.5q-22 -10 -42 -15t-57 -5q-64 0 -108 42t-43 108q0 53 23 87t61 52q40 18 99.5 26t127.5 11v8q0 27 -9 43t-26 25q-16 10 -38 12.5t-46 1.5q-30 0 -85 -12l-41 -11l-26 77q39 11 68 16q46 8 84 8q109 0 156.5 -42.5
t47.5 -121.5v-319zM339 398v122q-35 -1 -80.5 -5.5t-72.5 -11.5q-32 -9 -51.5 -28t-19.5 -53q0 -38 23 -57.5t70 -18.5q40 0 73 16.5t58 35.5z" />
    <glyph glyph-name="guillemotleft" unicode="&#xab;" horiz-adv-x="349" 
d="M5 430v6v13l165 112l28 -42l-128 -86l128 -86l-28 -42l-165 112v13zM135 430v6v13l165 112l28 -42l-128 -86l128 -86l-28 -42l-165 112v13z" />
    <glyph glyph-name="logicalnot" unicode="&#xac;" horiz-adv-x="532" 
d="M406 424h-389v80h469v-157h-80v77z" />
    <glyph glyph-name="uni00AD" unicode="&#xad;" horiz-adv-x="453" 
d="M25 340v80h378v-80h-378z" />
    <glyph glyph-name="registered" unicode="&#xae;" horiz-adv-x="845" 
d="M401 -16q-42 0 -81 4.5t-94 26t-103 68.5q-109 110 -109 305q0 207 117 325q47 43 99.5 66.5t93.5 26.5q36 4 72 4h22q36 0 72 -4q41 -3 93.5 -26.5t99.5 -66.5q117 -118 117 -325q0 -195 -109 -304q-48 -48 -103 -69q-56 -22 -96 -26.5t-79 -4.5h-12zM418 730h-22
q-32 0 -64 -3q-26 -3 -65.5 -20.5t-75.5 -51.5q-97 -93 -97 -267q0 -163 88 -248q37 -35 80 -52q41 -17 73 -20.5t66 -3.5h12q32 0 64.5 3.5t75 20.5t79.5 52q88 85 88 248q0 174 -97 267q-36 34 -75.5 51.5t-65.5 20.5q-48 3 -64 3zM486 533q0 25 -16 40q-35 34 -130 35
v-158q93 7 129 42q17 16 17 41zM571 533q0 -79 -76 -123q41 -26 53 -68q23 -85 48 -193l-88 -1q-27 123 -41 174q-3 8 -10 16q-21 19 -78 27q-19 3 -39 4v-221h-84v536l38 3q16 1 44 1q32 0 59 -3q87 -12 133 -54q41 -40 41 -98z" />
    <glyph glyph-name="macron" unicode="&#xaf;" horiz-adv-x="234" 
d="M199 796v-80h-193v80h193z" />
    <glyph glyph-name="degree" unicode="&#xb0;" horiz-adv-x="266" 
d="M122 734q-12 0 -21 -10.5t-9 -25.5t9 -25.5t21 -10.5t21 10.5t9 25.5t-9 25.5t-21 10.5zM122 582q-47 0 -78.5 34.5t-31.5 81.5t31.5 81.5t78.5 34.5t78.5 -34.5t31.5 -81.5t-31.5 -81.5t-78.5 -34.5z" />
    <glyph glyph-name="plusminus" unicode="&#xb1;" horiz-adv-x="449" 
d="M21 340v80h138v134h102v-134h138v-80h-138v-134h-102v134h-138zM21 80v80h378v-80h-378z" />
    <glyph glyph-name="uni00B2" unicode="&#xb2;" horiz-adv-x="242" 
d="M231 507v-76h-244v58l13 13q19 16 43 41q51 51 79 91.5t28 61.5q0 25 -8 32t-26 7q-35 0 -51 -15l-9 -9l-58 48l6 11q2 5 7 8q38 37 105 37q51 0 82.5 -31.5t31.5 -87.5q0 -47 -42 -106q-24 -37 -64 -79h110l-5 -4h2z" />
    <glyph glyph-name="uni00B3" unicode="&#xb3;" horiz-adv-x="220" 
d="M92 815q56 0 85 -29t29 -77.5t-34 -79.5q34 -30 34 -79q0 -55 -31.5 -86.5t-82.5 -31.5q-67 0 -105 37q-3 1 -5 3l-11 12l60 52l10 -9q16 -15 51 -15q18 0 25 7q9 9 9 32q0 11 -6 18q-12 11 -42 16q-18 4 -31 4h-29v80h29q15 1 31 4q30 5 42 16q6 7 6 21t-5 18
q-6 7 -29 7q-35 0 -51 -15l-9 -9l-58 48l6 11q2 5 7 8q38 37 105 37z" />
    <glyph glyph-name="acute" unicode="&#xb4;" horiz-adv-x="355" 
d="M264 766h-124l-129 -168h31h45z" />
    <glyph glyph-name="mu" unicode="&#xb5;" horiz-adv-x="556" 
d="M425 563h80v-580h-80v14q-49 -9 -108 -9q-32 0 -63 3q-38 3 -88 22q-49 19 -86 55v-255h-80v750h80v-296q0 -86 54 -139q31 -26 68.5 -40.5t58.5 -16.5h1q28 -3 56 -3q60 0 107 11v484z" />
    <glyph glyph-name="paragraph" unicode="&#xb6;" horiz-adv-x="342" 
d="M309 -38h-50v769h-30v-769h-50v457q-49 10 -91 52q-55 55 -55 131q0 40 14.5 74t36.5 56t52 34t42.5 13.5t19.5 1.5h111v-819z" />
    <glyph glyph-name="periodcentered" unicode="&#xb7;" horiz-adv-x="260" 
d="M65 515h96v-112h-96v112z" />
    <glyph glyph-name="cedilla" unicode="&#xb8;" horiz-adv-x="368" 
d="M37 -202v90q29 -10 47 -15.5t43 -5.5q51 0 74.5 18.5t23.5 60.5q0 19 -6 67h85q3 -39 3 -57q0 -84 -47 -127q-46 -44 -120 -44q-45 0 -91 10z" />
    <glyph glyph-name="uni00B9" unicode="&#xb9;" horiz-adv-x="180" 
d="M81 816h49v-360h-80v283l-46 -20l1 69z" />
    <glyph glyph-name="ordmasculine" unicode="&#xba;" horiz-adv-x="567" 
d="M498 512q0 -117 -61 -182t-157 -64q-101 0 -160.5 66t-59.5 180q0 115 59.5 181.5t160.5 66.5q96 0 157 -65t61 -183zM407 512q0 86 -33.5 129.5t-93.5 42.5q-62 0 -95 -43t-33 -129q0 -85 33 -128t95 -43q60 0 93.5 42.5t33.5 128.5z" />
    <glyph glyph-name="guillemotright" unicode="&#xbb;" horiz-adv-x="349" 
d="M339 436v-6v-13l-165 -112l-28 42l128 86l-128 86l28 42l165 -112v-13zM209 436v-6v-13l-165 -112l-28 42l128 86l-128 86l28 42l165 -112v-13z" />
    <glyph glyph-name="onequarter" unicode="&#xbc;" horiz-adv-x="758" 
d="M132 0l438 731h72l-439 -731h-71zM168 293v283q0 18 0.5 34t1.5 31t2 29q-11 -9 -24 -20q-8 -6 -28 -20l-58 -42l-1 70l105 73h69v-438h-67zM614 0v102h-202v50l203 290h69v-282h64v-58h-64v-102h-70zM480 160h134v103v49.5t2 51.5q-6 -12 -21 -35.5t-27 -40.5z" />
    <glyph glyph-name="onehalf" unicode="&#xbd;" horiz-adv-x="786" 
d="M158 293v283v34t1 31t2 29q-11 -9 -23 -20q-9 -6 -28 -20l-58 -42l-2 70l106 73h68v-438h-66zM104 0l440 731h71l-439 -731h-72zM456 0v52l118 116q41 40 63 65.5t30.5 46t8.5 44.5q0 32 -20 50t-52 18t-57 -12q-12 -5 -41 -23.5t-43 -29.5l-1 65q30 26 65 41t77 15
q65 0 102.5 -32.5t37.5 -88.5q0 -34 -14 -62.5t-41 -57.5t-65 -65l-85 -82h205v-60h-288z" />
    <glyph glyph-name="threequarters" unicode="&#xbe;" horiz-adv-x="797" 
d="M178 0l440 731h71l-439 -731h-72zM150 285q-37 0 -70 6.5t-64 22.5v60q35 -17 69.5 -25.5t65.5 -8.5q54 0 80 21.5t25 59.5q0 38 -30 55.5t-84 17.5h-19v52h19q53 0 77 21t24 54t-21.5 49t-53.5 16q-31 0 -59 -11q-46 -18 -89 -47v62q31 23 66 36.5t82 13.5
q71 0 107.5 -31.5t36.5 -80.5q0 -42 -22 -68.5t-53 -35.5v-4q40 -7 64 -33t24 -68q0 -60 -43 -97t-132 -37zM653 0v102h-201v50l202 290h70v-282h64v-58h-64v-102h-71zM520 160h133v103q0 22 0.5 49.5t2.5 51.5q-6 -12 -21 -35.5t-27 -40.5z" />
    <glyph glyph-name="questiondown" unicode="&#xbf;" horiz-adv-x="543" 
d="M214 732h94v-118h-94v118zM214 530h94v-168l-26 -12q-74 -29 -133 -80q-53 -50 -57 -97v-1q-1 -8 -1 -15q0 -49 31 -78q42 -39 125 -39q19 0 39 2q45 6 75 13q29 6 39 10l24 9l32 -71l-14 -7q-44 -21 -145 -33q-38 -3 -44 -3h-6q-121 0 -183 62q-53 54 -53 135q0 12 1 24
q8 75 78 146q49 47 124 84v119z" />
    <glyph glyph-name="Agrave" unicode="&#xc0;" horiz-adv-x="634" 
d="M20 0l266 793h58h12l267 -793h-85l-108 313h-218l-109 -313h-83zM321 641l-82 -248h164zM143 983h124l129 -168h-30h-45z" />
    <glyph glyph-name="Aacute" unicode="&#xc1;" horiz-adv-x="634" 
d="M20 0l266 793h58h12l267 -793h-85l-108 313h-218l-109 -313h-83zM321 641l-82 -248h164zM546 991h-124l-129 -168h31h45z" />
    <glyph glyph-name="Acircumflex" unicode="&#xc2;" horiz-adv-x="634" 
d="M20 0l266 793h58h12l267 -793h-85l-108 313h-218l-109 -313h-83zM321 641l-82 -248h164zM343 963h38h8l161 -158h-110l-74 61l-75 -61l-113 -2z" />
    <glyph glyph-name="Atilde" unicode="&#xc3;" horiz-adv-x="634" 
d="M20 0l266 793h58h12l267 -793h-85l-108 313h-218l-109 -313h-83zM321 641l-82 -248h164zM281 1022q51 0 86 -30q22 -19 46 -65q14 -27 22 -36q3 -3 8 -3q25 0 40 14q17 17 26 61q2 8 2 11v21l81 -4l-1 -15q-1 -24 -10 -54q-13 -48 -41 -77q-38 -37 -96 -37q-44 0 -75 26
q-19 17 -38.5 55t-27.5 45.5t-22 7.5q-22 0 -37 -14q-14 -14 -24 -44q-6 -21 -7 -37l-1 -15l-80 6l1 15q2 26 12 55q15 49 43 78q37 36 93 36z" />
    <glyph glyph-name="Adieresis" unicode="&#xc4;" horiz-adv-x="634" 
d="M20 0l266 793h58h12l267 -793h-85l-108 313h-218l-109 -313h-83zM321 641l-82 -248h164zM465 917v-92h-86v92h86zM311 917v-92h-86v92h86z" />
    <glyph glyph-name="Aring" unicode="&#xc5;" horiz-adv-x="634" 
d="M20 0l266 793h58h12l267 -793h-85l-108 313h-218l-109 -313h-83zM321 641l-82 -248h164zM349 934q-20 0 -33.5 -10.5t-13.5 -25.5t13.5 -25.5t33.5 -10.5t33.5 10.5t13.5 25.5t-13.5 25.5t-33.5 10.5zM349 782q-51 0 -89 33t-38 83t38 83t89 33t89 -33t38 -83t-38 -83
t-89 -33z" />
    <glyph glyph-name="AE" unicode="&#xc6;" horiz-adv-x="922" 
d="M8 0l513 774v19h378v-80h-294v-247h153v-80h-153v-305h294v-80h-378v385h-161l-258 -386h-94zM412 466h109v169z" />
    <glyph glyph-name="Ccedilla" unicode="&#xc7;" horiz-adv-x="578" 
d="M528 19q-53 -18 -136 -18q-33 0 -65 3q-115 11 -203 86q-115 111 -115 326q0 183 109 287q48 43 105.5 65t106.5 24q22 1 44 1q98 0 155 -16l11 -3l-1 -82l-19 6q-56 15 -145 15q-20 0 -46 -1.5t-69 -17.5t-80 -47q-91 -82 -91 -231q0 -181 99 -270q65 -55 149 -62v0
q28 -3 61 -3q31 0 61 4.5t45 7.5l34 12v-83zM156 -164v90q29 -10 47 -15.5t43 -5.5q51 0 74.5 18.5t23.5 60.5q0 19 -6 67h85q3 -39 3 -57q0 -84 -47 -127q-46 -44 -120 -44q-45 0 -91 10z" />
    <glyph glyph-name="Egrave" unicode="&#xc8;" horiz-adv-x="467" 
d="M29 793h396v-80h-316v-247h171v-80h-171v-305h316v-80h-396v792zM74 981h124l129 -168h-30h-45z" />
    <glyph glyph-name="Eacute" unicode="&#xc9;" horiz-adv-x="467" 
d="M29 793h396v-80h-316v-247h171v-80h-171v-305h316v-80h-396v792zM427 983h-124l-129 -168h31h45z" />
    <glyph glyph-name="Ecircumflex" unicode="&#xca;" horiz-adv-x="467" 
d="M29 793h396v-80h-316v-247h171v-80h-171v-305h316v-80h-396v792zM242 967h38h8l161 -158h-110l-74 61l-75 -61l-113 -2z" />
    <glyph glyph-name="Edieresis" unicode="&#xcb;" horiz-adv-x="467" 
d="M29 793h396v-80h-316v-247h171v-80h-171v-305h316v-80h-396v792zM381 905v-92h-86v92h86zM227 905v-92h-86v92h86z" />
    <glyph glyph-name="Igrave" unicode="&#xcc;" horiz-adv-x="225" 
d="M26 793h168v-80h-43v-633h43v-80h-168v80h45v633h-45v80zM-81 989h124l129 -168h-30h-45z" />
    <glyph glyph-name="Iacute" unicode="&#xcd;" horiz-adv-x="225" 
d="M26 793h168v-80h-43v-633h43v-80h-168v80h45v633h-45v80zM312 983h-124l-129 -168h31h45z" />
    <glyph glyph-name="Icircumflex" unicode="&#xce;" horiz-adv-x="225" 
d="M26 793h168v-80h-43v-633h43v-80h-168v80h45v633h-45v80zM115 981h38h8l161 -158h-110l-74 61l-75 -61l-113 -2z" />
    <glyph glyph-name="Idieresis" unicode="&#xcf;" horiz-adv-x="225" 
d="M26 793h168v-80h-43v-633h43v-80h-168v80h45v633h-45v80zM243 919v-92h-86v92h86zM89 919v-92h-86v92h86z" />
    <glyph glyph-name="Ntilde" unicode="&#xd1;" horiz-adv-x="590" 
d="M29 0v793h57h8l375 -549v525h80v-769h-80v98l-360 546v-644h-80zM251 1010q51 0 86 -30q22 -19 46 -65q14 -27 22 -36q3 -3 8 -3q25 0 40 14q17 17 26 61q2 8 2 11v21l81 -4l-1 -15q-1 -24 -10 -54q-13 -48 -41 -77q-38 -37 -96 -37q-44 0 -75 26q-19 17 -38.5 55
t-27.5 45.5t-22 7.5q-22 0 -37 -14q-14 -14 -24 -44q-6 -21 -7 -37l-1 -15l-80 6l1 15q2 26 12 55q15 49 43 78q37 36 93 36z" />
    <glyph glyph-name="Ograve" unicode="&#xd2;" horiz-adv-x="845" 
d="M497 712q-48 3 -64 3h-22q-32 0 -64 -3q-26 -2 -65.5 -19t-75.5 -49q-97 -90 -97 -256q0 -155 88 -237q37 -33 80 -49q41 -16 73 -19.5t66 -3.5h12q32 0 64.5 3t75 19.5t79.5 49.5q88 82 88 237q0 166 -97 256q-36 32 -75.5 49t-65.5 19zM428 -1h-12q-42 0 -81 4.5
t-94 25.5t-103 66q-109 105 -109 293q0 200 117 313q47 42 99.5 64.5t93.5 25.5q36 4 72 4h22q36 0 72 -4q41 -3 93.5 -25.5t99.5 -64.5q117 -113 117 -313q0 -188 -109 -293q-48 -45 -103 -66q-56 -21 -96 -25.5t-79 -4.5zM239 989h124l129 -168h-30h-45z" />
    <glyph glyph-name="Oacute" unicode="&#xd3;" horiz-adv-x="845" 
d="M497 712q-48 3 -64 3h-22q-32 0 -64 -3q-26 -2 -65.5 -19t-75.5 -49q-97 -90 -97 -256q0 -155 88 -237q37 -33 80 -49q41 -16 73 -19.5t66 -3.5h12q32 0 64.5 3t75 19.5t79.5 49.5q88 82 88 237q0 166 -97 256q-36 32 -75.5 49t-65.5 19zM428 -1h-12q-42 0 -81 4.5
t-94 25.5t-103 66q-109 105 -109 293q0 200 117 313q47 42 99.5 64.5t93.5 25.5q36 4 72 4h22q36 0 72 -4q41 -3 93.5 -25.5t99.5 -64.5q117 -113 117 -313q0 -188 -109 -293q-48 -45 -103 -66q-56 -21 -96 -25.5t-79 -4.5zM637 985h-124l-129 -168h31h45z" />
    <glyph glyph-name="Ocircumflex" unicode="&#xd4;" horiz-adv-x="845" 
d="M497 712q-48 3 -64 3h-22q-32 0 -64 -3q-26 -2 -65.5 -19t-75.5 -49q-97 -90 -97 -256q0 -155 88 -237q37 -33 80 -49q41 -16 73 -19.5t66 -3.5h12q32 0 64.5 3t75 19.5t79.5 49.5q88 82 88 237q0 166 -97 256q-36 32 -75.5 49t-65.5 19zM428 -1h-12q-42 0 -81 4.5
t-94 25.5t-103 66q-109 105 -109 293q0 200 117 313q47 42 99.5 64.5t93.5 25.5q36 4 72 4h22q36 0 72 -4q41 -3 93.5 -25.5t99.5 -64.5q117 -113 117 -313q0 -188 -109 -293q-48 -45 -103 -66q-56 -21 -96 -25.5t-79 -4.5zM446 971h38h8l161 -158h-110l-74 61l-75 -61
l-113 -2z" />
    <glyph glyph-name="Otilde" unicode="&#xd5;" horiz-adv-x="845" 
d="M497 712q-48 3 -64 3h-22q-32 0 -64 -3q-26 -2 -65.5 -19t-75.5 -49q-97 -90 -97 -256q0 -155 88 -237q37 -33 80 -49q41 -16 73 -19.5t66 -3.5h12q32 0 64.5 3t75 19.5t79.5 49.5q88 82 88 237q0 166 -97 256q-36 32 -75.5 49t-65.5 19zM428 -1h-12q-42 0 -81 4.5
t-94 25.5t-103 66q-109 105 -109 293q0 200 117 313q47 42 99.5 64.5t93.5 25.5q36 4 72 4h22q36 0 72 -4q41 -3 93.5 -25.5t99.5 -64.5q117 -113 117 -313q0 -188 -109 -293q-48 -45 -103 -66q-56 -21 -96 -25.5t-79 -4.5zM378 1034q51 0 86 -30q22 -19 46 -65
q14 -27 22 -36q3 -3 8 -3q25 0 40 14q17 17 26 61q2 8 2 11v21l81 -4l-1 -15q-1 -24 -10 -54q-13 -48 -41 -77q-38 -37 -96 -37q-44 0 -75 26q-19 17 -38.5 55t-27.5 45.5t-22 7.5q-22 0 -37 -14q-14 -14 -24 -44q-6 -21 -7 -37l-1 -15l-80 6l1 15q2 26 12 55q15 49 43 78
q37 36 93 36z" />
    <glyph glyph-name="Odieresis" unicode="&#xd6;" horiz-adv-x="845" 
d="M497 712q-48 3 -64 3h-22q-32 0 -64 -3q-26 -2 -65.5 -19t-75.5 -49q-97 -90 -97 -256q0 -155 88 -237q37 -33 80 -49q41 -16 73 -19.5t66 -3.5h12q32 0 64.5 3t75 19.5t79.5 49.5q88 82 88 237q0 166 -97 256q-36 32 -75.5 49t-65.5 19zM428 -1h-12q-42 0 -81 4.5
t-94 25.5t-103 66q-109 105 -109 293q0 200 117 313q47 42 99.5 64.5t93.5 25.5q36 4 72 4h22q36 0 72 -4q41 -3 93.5 -25.5t99.5 -64.5q117 -113 117 -313q0 -188 -109 -293q-48 -45 -103 -66q-56 -21 -96 -25.5t-79 -4.5zM561 923v-92h-86v92h86zM407 923v-92h-86v92h86z
" />
    <glyph glyph-name="multiply" unicode="&#xd7;" horiz-adv-x="419" 
d="M94 255l-56 57l95 95l-95 94l56 57l95 -95l95 95l56 -57l-94 -94l94 -95l-56 -57l-95 95z" />
    <glyph glyph-name="Ugrave" unicode="&#xd9;" horiz-adv-x="637" 
d="M454 21q-65 -21 -138.5 -21t-138.5 21q-60 21 -98 58q-46 47 -46 104v615h80v-615q0 -25 24 -48q24 -24 72 -39.5t106 -15.5t106.5 15.5t72.5 40.5q24 22 24 47v615h80v-615q0 -57 -46 -104q-38 -37 -98 -58zM148 939h124l129 -168h-30h-45z" />
    <glyph glyph-name="Uacute" unicode="&#xda;" horiz-adv-x="637" 
d="M454 21q-65 -21 -138.5 -21t-138.5 21q-60 21 -98 58q-46 47 -46 104v615h80v-615q0 -25 24 -48q24 -24 72 -39.5t106 -15.5t106.5 15.5t72.5 40.5q24 22 24 47v615h80v-615q0 -57 -46 -104q-38 -37 -98 -58zM517 927h-124l-129 -168h31h45z" />
    <glyph glyph-name="Ucircumflex" unicode="&#xdb;" horiz-adv-x="637" 
d="M454 21q-65 -21 -138.5 -21t-138.5 21q-60 21 -98 58q-46 47 -46 104v615h80v-615q0 -25 24 -48q24 -24 72 -39.5t106 -15.5t106.5 15.5t72.5 40.5q24 22 24 47v615h80v-615q0 -57 -46 -104q-38 -37 -98 -58zM328 915h38h8l161 -158h-110l-74 61l-75 -61l-113 -2z" />
    <glyph glyph-name="Udieresis" unicode="&#xdc;" horiz-adv-x="637" 
d="M454 21q-65 -21 -138.5 -21t-138.5 21q-60 21 -98 58q-46 47 -46 104v615h80v-615q0 -25 24 -48q24 -24 72 -39.5t106 -15.5t106.5 15.5t72.5 40.5q24 22 24 47v615h80v-615q0 -57 -46 -104q-38 -37 -98 -58zM455 863v-92h-86v92h86zM301 863v-92h-86v92h86z" />
    <glyph glyph-name="Yacute" unicode="&#xdd;" horiz-adv-x="763" 
d="M423 418v-418h-80v418l-359 367h109l290 -307l290 307h110zM707 937h-124l-129 -168h31h45z" />
    <glyph glyph-name="germandbls" unicode="&#xdf;" horiz-adv-x="524" 
d="M72 463h-43v80h43v40q0 86 53 139q49 46 116 51q19 1 37 1q64 0 110 -13l47 -14l-127 -219q80 -15 129 -61q30 -30 49 -69q34 -73 34 -152q0 -28 -4 -53q-17 -104 -89 -152q-62 -40 -162 -40q-58 0 -106 12l-7 1v-14h-80v463zM186 665q-34 -29 -34 -82v-487l17 -4
q49 -11 96 -11q84 0 126 36q49 45 49 135q0 63 -28 122q-27 55 -90 77q-32 12 -48.5 13.5t-26 1.5t-54.5 -1v48v3l112 177q-12 1 -26.5 1t-30.5 -1q-10 -1 -28.5 -8t-33.5 -20z" />
    <glyph glyph-name="agrave" unicode="&#xe0;" horiz-adv-x="528" 
d="M429 420q-7 16 -32 24q-54 16 -117 16t-161 -24l-19 -6v84l11 3q89 23 168.5 23t147.5 -25q28 -10 48 -29q35 -33 35 -76v-410h-80v39q-99 -36 -188 -36q-117 0 -179 59q-55 54 -55 135t52 132q36 33 94 51q50 14 110 17h18q55 0 148 -10v27q0 2 -1 6zM430 306
q-100 11 -150 11h-13q-47 -2 -85 -12q-41 -12 -65 -33q-29 -27 -29 -75t32 -79q41 -35 124.5 -35t185.5 40v183zM102 738h124l129 -168h-30h-45z" />
    <glyph glyph-name="aacute" unicode="&#xe1;" horiz-adv-x="528" 
d="M429 420q-7 16 -32 24q-54 16 -117 16t-161 -24l-19 -6v84l11 3q89 23 168.5 23t147.5 -25q28 -10 48 -29q35 -33 35 -76v-410h-80v39q-99 -36 -188 -36q-117 0 -179 59q-55 54 -55 135t52 132q36 33 94 51q50 14 110 17h18q55 0 148 -10v27q0 2 -1 6zM430 306
q-100 11 -150 11h-13q-47 -2 -85 -12q-41 -12 -65 -33q-29 -27 -29 -75t32 -79q41 -35 124.5 -35t185.5 40v183zM500 730h-124l-129 -168h31h45z" />
    <glyph glyph-name="acircumflex" unicode="&#xe2;" horiz-adv-x="528" 
d="M429 420q-7 16 -32 24q-54 16 -117 16t-161 -24l-19 -6v84l11 3q89 23 168.5 23t147.5 -25q28 -10 48 -29q35 -33 35 -76v-410h-80v39q-99 -36 -188 -36q-117 0 -179 59q-55 54 -55 135t52 132q36 33 94 51q50 14 110 17h18q55 0 148 -10v27q0 2 -1 6zM430 306
q-100 11 -150 11h-13q-47 -2 -85 -12q-41 -12 -65 -33q-29 -27 -29 -75t32 -79q41 -35 124.5 -35t185.5 40v183zM304 720h38h8l161 -158h-110l-74 61l-75 -61l-113 -2z" />
    <glyph glyph-name="atilde" unicode="&#xe3;" horiz-adv-x="528" 
d="M429 420q-7 16 -32 24q-54 16 -117 16t-161 -24l-19 -6v84l11 3q89 23 168.5 23t147.5 -25q28 -10 48 -29q35 -33 35 -76v-410h-80v39q-99 -36 -188 -36q-117 0 -179 59q-55 54 -55 135t52 132q36 33 94 51q50 14 110 17h18q55 0 148 -10v27q0 2 -1 6zM430 306
q-100 11 -150 11h-13q-47 -2 -85 -12q-41 -12 -65 -33q-29 -27 -29 -75t32 -79q41 -35 124.5 -35t185.5 40v183zM250 763q51 0 86 -30q22 -19 46 -65q14 -27 22 -36q3 -3 8 -3q25 0 40 14q17 17 26 61q2 8 2 11v21l81 -4l-1 -15q-1 -24 -10 -54q-13 -48 -41 -77
q-38 -37 -96 -37q-44 0 -75 26q-19 17 -38.5 55t-27.5 45.5t-22 7.5q-22 0 -37 -14q-14 -14 -24 -44q-6 -21 -7 -37l-1 -15l-80 6l1 15q2 26 12 55q15 49 43 78q37 36 93 36z" />
    <glyph glyph-name="adieresis" unicode="&#xe4;" horiz-adv-x="528" 
d="M429 420q-7 16 -32 24q-54 16 -117 16t-161 -24l-19 -6v84l11 3q89 23 168.5 23t147.5 -25q28 -10 48 -29q35 -33 35 -76v-410h-80v39q-99 -36 -188 -36q-117 0 -179 59q-55 54 -55 135t52 132q36 33 94 51q50 14 110 17h18q55 0 148 -10v27q0 2 -1 6zM430 306
q-100 11 -150 11h-13q-47 -2 -85 -12q-41 -12 -65 -33q-29 -27 -29 -75t32 -79q41 -35 124.5 -35t185.5 40v183zM413 674v-92h-86v92h86zM259 674v-92h-86v92h86z" />
    <glyph glyph-name="aring" unicode="&#xe5;" horiz-adv-x="528" 
d="M429 420q-7 16 -32 24q-54 16 -117 16t-161 -24l-19 -6v84l11 3q89 23 168.5 23t147.5 -25q28 -10 48 -29q35 -33 35 -76v-410h-80v39q-99 -36 -188 -36q-117 0 -179 59q-55 54 -55 135t52 132q36 33 94 51q50 14 110 17h18q55 0 148 -10v27q0 2 -1 6zM430 306
q-100 11 -150 11h-13q-47 -2 -85 -12q-41 -12 -65 -33q-29 -27 -29 -75t32 -79q41 -35 124.5 -35t185.5 40v183zM308 709q-20 0 -33.5 -10.5t-13.5 -25.5t13.5 -25.5t33.5 -10.5t33.5 10.5t13.5 25.5t-13.5 25.5t-33.5 10.5zM308 557q-51 0 -89 33t-38 83t38 83t89 33
t89 -33t38 -83t-38 -83t-89 -33z" />
    <glyph glyph-name="ae" unicode="&#xe6;" horiz-adv-x="897" 
d="M768 424q-38 36 -106 36q-90 0 -142 -48q-43 -39 -52 -107h350q-2 18 -6 35q-13 55 -44 84zM385 387v27q0 2 -1 6q-7 16 -32 24q-63 21 -106 21q-77 2 -82 2l-79 -5v60l11 2q81 16 151 16q67 0 135 -26q28 -11 48 -31q14 -14 22 -30q6 6 11 12q76 75 199 75q99 0 161 -59
q50 -47 68 -127q8 -39 8 -78q0 -10 -3 -51h-427q8 -60 49 -98q26 -24 59 -36q31 -12 56 -15q24 -2 53 -2t60 4q36 5 45 8l34 10v-78l-10 -3q-50 -16 -134 -16q-29 0 -57 3q-35 3 -78 20q-44 17 -81 54v-76h-80v39q-92 -36 -171 -36q-104 0 -166 59q-55 54 -55 135t52 132
q36 34 91 51q44 14 98 17h15q49 0 136 -10zM385 306q-93 11 -137 11h-12q-41 -2 -75 -12q-36 -12 -59 -33q-29 -27 -29 -75t32 -79q37 -35 111 -35t169 40v183z" />
    <glyph glyph-name="ccedilla" unicode="&#xe7;" horiz-adv-x="532" 
d="M274.5 83.5q27.5 -2.5 56.5 -2.5q78 0 127 17l20 7l1 -83l-10 -3q-53 -18 -139 -18q-33 0 -65 3q-40 3 -92 20q-50 16 -89 53q-75 72 -75 190q0 126 80 202q37 35 87 52q50 18 89 21h1q29 2 60 2q89 0 142 -17l11 -3l-1 -83l-20 7q-49 16 -131 16q-27 0 -52.5 -1.5
t-61 -14t-65.5 -36.5q-59 -53 -59 -145q0 -86 53 -133q31 -24 69 -37q36 -11 63.5 -13.5zM116 -158v90q29 -10 47 -15.5t43 -5.5q51 0 74.5 18.5t23.5 60.5q0 19 -6 67h85q3 -39 3 -57q0 -84 -47 -127q-46 -44 -120 -44q-45 0 -91 10z" />
    <glyph glyph-name="egrave" unicode="&#xe8;" horiz-adv-x="591" 
d="M95 468q80 72 217 72q110 0 174 -59q50 -47 68 -127q8 -39 8 -78q0 -10 -3 -51h-457q8 -58 50 -95q30 -23 66 -35q35 -11 61.5 -13.5t59 -2.5t66.5 4.5t49 7.5l34 12v-83l-10 -3q-54 -18 -145 -18q-32 0 -63 3q-38 3 -88 20q-49 16 -88 53q-75 72 -75 190q0 130 76 203z
M430 424q-42 36 -118 36q-100 0 -158 -48q-44 -39 -53 -107h380q-2 18 -6 35q-13 55 -45 84zM125 730h124l129 -168h-30h-45z" />
    <glyph glyph-name="eacute" unicode="&#xe9;" horiz-adv-x="591" 
d="M95 468q80 72 217 72q110 0 174 -59q50 -47 68 -127q8 -39 8 -78q0 -10 -3 -51h-457q8 -58 50 -95q30 -23 66 -35q35 -11 61.5 -13.5t59 -2.5t66.5 4.5t49 7.5l34 12v-83l-10 -3q-54 -18 -145 -18q-32 0 -63 3q-38 3 -88 20q-49 16 -88 53q-75 72 -75 190q0 130 76 203z
M430 424q-42 36 -118 36q-100 0 -158 -48q-44 -39 -53 -107h380q-2 18 -6 35q-13 55 -45 84zM526 732h-124l-129 -168h31h45z" />
    <glyph glyph-name="ecircumflex" unicode="&#xea;" horiz-adv-x="591" 
d="M95 468q80 72 217 72q110 0 174 -59q50 -47 68 -127q8 -39 8 -78q0 -10 -3 -51h-457q8 -58 50 -95q30 -23 66 -35q35 -11 61.5 -13.5t59 -2.5t66.5 4.5t49 7.5l34 12v-83l-10 -3q-54 -18 -145 -18q-32 0 -63 3q-38 3 -88 20q-49 16 -88 53q-75 72 -75 190q0 130 76 203z
M430 424q-42 36 -118 36q-100 0 -158 -48q-44 -39 -53 -107h380q-2 18 -6 35q-13 55 -45 84zM319 712h38h8l161 -158h-110l-74 61l-75 -61l-113 -2z" />
    <glyph glyph-name="edieresis" unicode="&#xeb;" horiz-adv-x="591" 
d="M95 468q80 72 217 72q110 0 174 -59q50 -47 68 -127q8 -39 8 -78q0 -10 -3 -51h-457q8 -58 50 -95q30 -23 66 -35q35 -11 61.5 -13.5t59 -2.5t66.5 4.5t49 7.5l34 12v-83l-10 -3q-54 -18 -145 -18q-32 0 -63 3q-38 3 -88 20q-49 16 -88 53q-75 72 -75 190q0 130 76 203z
M430 424q-42 36 -118 36q-100 0 -158 -48q-44 -39 -53 -107h380q-2 18 -6 35q-13 55 -45 84zM448 672v-92h-86v92h86zM294 672v-92h-86v92h86z" />
    <glyph glyph-name="igrave" unicode="&#xec;" horiz-adv-x="180" 
d="M50 518h80v-520h-80v520zM-99 722h124l129 -168h-30h-45z" />
    <glyph glyph-name="iacute" unicode="&#xed;" horiz-adv-x="180" 
d="M50 518h80v-520h-80v520zM291 714h-124l-129 -168h31h45z" />
    <glyph glyph-name="icircumflex" unicode="&#xee;" horiz-adv-x="180" 
d="M50 518h80v-520h-80v520zM88 702h38h8l161 -158h-110l-74 61l-75 -61l-113 -2z" />
    <glyph glyph-name="idieresis" unicode="&#xef;" horiz-adv-x="180" 
d="M50 518h80v-520h-80v520zM215 656v-92h-86v92h86zM61 656v-92h-86v92h86z" />
    <glyph glyph-name="ntilde" unicode="&#xf1;" horiz-adv-x="550" 
d="M24 -2v550h80v-14q49 9 108 9q32 0 63 -3q38 -3 89 -22q51 -18 89 -54q76 -73 76 -186v-280h-80v278q0 81 -54 131q-31 24 -68.5 38t-58.5 15h-1q-28 3 -56 3q-60 0 -107 -10v-455h-80zM215 767q51 0 86 -30q22 -19 46 -65q14 -27 22 -36q3 -3 8 -3q25 0 40 14
q17 17 26 61q2 8 2 11v21l81 -4l-1 -15q-1 -24 -10 -54q-13 -48 -41 -77q-38 -37 -96 -37q-44 0 -75 26q-19 17 -38.5 55t-27.5 45.5t-22 7.5q-22 0 -37 -14q-14 -14 -24 -44q-6 -21 -7 -37l-1 -15l-80 6l1 15q2 26 12 55q15 49 43 78q37 36 93 36z" />
    <glyph glyph-name="ograve" unicode="&#xf2;" horiz-adv-x="692" 
d="M355 462h-16q-27 0 -52.5 -1.5t-62 -14t-67.5 -36.5q-59 -53 -59 -145q0 -86 53 -133q32 -24 70 -36.5t65 -14.5t55 -2h12q28 0 55 2t65 14.5t70 36.5q53 47 53 133q0 92 -59 145q-31 24 -67.5 36.5t-62 14t-52.5 1.5zM418 2q-33 -3 -65 -3h-12q-32 0 -65 3q-41 3 -93 20
q-51 16 -90 53q-75 72 -75 190q0 126 80 202q37 35 88 52q51 18 91 21h1q30 2 61 2h16q31 0 61 -2h1q40 -3 91 -21q51 -17 88 -52q80 -76 80 -202q0 -118 -75 -190q-39 -37 -90 -53q-52 -17 -93 -20zM167 732h124l129 -168h-30h-45z" />
    <glyph glyph-name="oacute" unicode="&#xf3;" horiz-adv-x="692" 
d="M355 462h-16q-27 0 -52.5 -1.5t-62 -14t-67.5 -36.5q-59 -53 -59 -145q0 -86 53 -133q32 -24 70 -36.5t65 -14.5t55 -2h12q28 0 55 2t65 14.5t70 36.5q53 47 53 133q0 92 -59 145q-31 24 -67.5 36.5t-62 14t-52.5 1.5zM418 2q-33 -3 -65 -3h-12q-32 0 -65 3q-41 3 -93 20
q-51 16 -90 53q-75 72 -75 190q0 126 80 202q37 35 88 52q51 18 91 21h1q30 2 61 2h16q31 0 61 -2h1q40 -3 91 -21q51 -17 88 -52q80 -76 80 -202q0 -118 -75 -190q-39 -37 -90 -53q-52 -17 -93 -20zM560 736h-124l-129 -168h31h45z" />
    <glyph glyph-name="ocircumflex" unicode="&#xf4;" horiz-adv-x="692" 
d="M355 462h-16q-27 0 -52.5 -1.5t-62 -14t-67.5 -36.5q-59 -53 -59 -145q0 -86 53 -133q32 -24 70 -36.5t65 -14.5t55 -2h12q28 0 55 2t65 14.5t70 36.5q53 47 53 133q0 92 -59 145q-31 24 -67.5 36.5t-62 14t-52.5 1.5zM418 2q-33 -3 -65 -3h-12q-32 0 -65 3q-41 3 -93 20
q-51 16 -90 53q-75 72 -75 190q0 126 80 202q37 35 88 52q51 18 91 21h1q30 2 61 2h16q31 0 61 -2h1q40 -3 91 -21q51 -17 88 -52q80 -76 80 -202q0 -118 -75 -190q-39 -37 -90 -53q-52 -17 -93 -20zM367 714h38h8l161 -158h-110l-74 61l-75 -61l-113 -2z" />
    <glyph glyph-name="otilde" unicode="&#xf5;" horiz-adv-x="692" 
d="M355 462h-16q-27 0 -52.5 -1.5t-62 -14t-67.5 -36.5q-59 -53 -59 -145q0 -86 53 -133q32 -24 70 -36.5t65 -14.5t55 -2h12q28 0 55 2t65 14.5t70 36.5q53 47 53 133q0 92 -59 145q-31 24 -67.5 36.5t-62 14t-52.5 1.5zM418 2q-33 -3 -65 -3h-12q-32 0 -65 3q-41 3 -93 20
q-51 16 -90 53q-75 72 -75 190q0 126 80 202q37 35 88 52q51 18 91 21h1q30 2 61 2h16q31 0 61 -2h1q40 -3 91 -21q51 -17 88 -52q80 -76 80 -202q0 -118 -75 -190q-39 -37 -90 -53q-52 -17 -93 -20zM295 775q51 0 86 -30q22 -19 46 -65q14 -27 22 -36q3 -3 8 -3q25 0 40 14
q17 17 26 61q2 8 2 11v21l81 -4l-1 -15q-1 -24 -10 -54q-13 -48 -41 -77q-38 -37 -96 -37q-44 0 -75 26q-19 17 -38.5 55t-27.5 45.5t-22 7.5q-22 0 -37 -14q-14 -14 -24 -44q-6 -21 -7 -37l-1 -15l-80 6l1 15q2 26 12 55q15 49 43 78q37 36 93 36z" />
    <glyph glyph-name="odieresis" unicode="&#xf6;" horiz-adv-x="692" 
d="M355 462h-16q-27 0 -52.5 -1.5t-62 -14t-67.5 -36.5q-59 -53 -59 -145q0 -86 53 -133q32 -24 70 -36.5t65 -14.5t55 -2h12q28 0 55 2t65 14.5t70 36.5q53 47 53 133q0 92 -59 145q-31 24 -67.5 36.5t-62 14t-52.5 1.5zM418 2q-33 -3 -65 -3h-12q-32 0 -65 3q-41 3 -93 20
q-51 16 -90 53q-75 72 -75 190q0 126 80 202q37 35 88 52q51 18 91 21h1q30 2 61 2h16q31 0 61 -2h1q40 -3 91 -21q51 -17 88 -52q80 -76 80 -202q0 -118 -75 -190q-39 -37 -90 -53q-52 -17 -93 -20zM490 684v-92h-86v92h86zM336 684v-92h-86v92h86z" />
    <glyph glyph-name="divide" unicode="&#xf7;" horiz-adv-x="450" 
d="M25 340v80h378v-80h-378zM266 91h-102v118h102v-118zM266 521h-102v118h102v-118z" />
    <glyph glyph-name="ugrave" unicode="&#xf9;" horiz-adv-x="533" 
d="M440 93v455h80v-550h-80v14q-49 -9 -108 -9q-32 0 -63 3q-38 3 -89 22q-51 18 -89 54q-76 73 -76 186v280h80v-278q0 -81 54 -131q31 -24 68.5 -38t58.5 -15h1q28 -3 56 -3q60 0 107 10zM106 712h124l129 -168h-30h-45z" />
    <glyph glyph-name="uacute" unicode="&#xfa;" horiz-adv-x="533" 
d="M440 93v455h80v-550h-80v14q-49 -9 -108 -9q-32 0 -63 3q-38 3 -89 22q-51 18 -89 54q-76 73 -76 186v280h80v-278q0 -81 54 -131q31 -24 68.5 -38t58.5 -15h1q28 -3 56 -3q60 0 107 10zM456 694h-124l-129 -168h31h45z" />
    <glyph glyph-name="ucircumflex" unicode="&#xfb;" horiz-adv-x="533" 
d="M440 93v455h80v-550h-80v14q-49 -9 -108 -9q-32 0 -63 3q-38 3 -89 22q-51 18 -89 54q-76 73 -76 186v280h80v-278q0 -81 54 -131q31 -24 68.5 -38t58.5 -15h1q28 -3 56 -3q60 0 107 10zM251 722h38h8l161 -158h-110l-74 61l-75 -61l-113 -2z" />
    <glyph glyph-name="udieresis" unicode="&#xfc;" horiz-adv-x="533" 
d="M440 93v455h80v-550h-80v14q-49 -9 -108 -9q-32 0 -63 3q-38 3 -89 22q-51 18 -89 54q-76 73 -76 186v280h80v-278q0 -81 54 -131q31 -24 68.5 -38t58.5 -15h1q28 -3 56 -3q60 0 107 10zM404 646v-92h-86v92h86zM250 646v-92h-86v92h86z" />
    <glyph glyph-name="yacute" unicode="&#xfd;" horiz-adv-x="601" 
d="M262 13l-261 545h88l220 -474l216 474l86 -1l-340 -729l-94 1zM502 704h-124l-129 -168h31h45z" />
    <glyph glyph-name="ydieresis" unicode="&#xff;" horiz-adv-x="601" 
d="M262 13l-261 545h88l220 -474l216 474l86 -1l-340 -729l-94 1zM453 646v-92h-86v92h86zM299 646v-92h-86v92h86z" />
    <glyph glyph-name="Amacron" unicode="&#x100;" horiz-adv-x="700" 
d="M536 849h-372v77h372v-77zM687 0h-105l-74 208h-322l-72 -208h-101l271 744h132zM478 292l-130 366l-132 -366h262z" />
    <glyph glyph-name="amacron" unicode="&#x101;" horiz-adv-x="615" 
d="M492 668h-372v76h372v-76zM526 0h-93v60q-4 -3 -16 -11.5t-18 -12.5q-20 -14 -41 -24q-26 -13 -54 -20q-32 -8 -72 -8q-75 0 -128 50q-52 49 -52 128q0 64 27 103q27 38 78 61q54 24 123 31q74 8 153 12v15q0 33 -11 52q-13 23 -32 34q-16 10 -48 15q-25 4 -59 4
q-33 0 -83 -10q-41 -8 -94 -28h-4v95q33 9 79 17q53 9 103 9q54 0 102 -10q45 -9 76 -33q31 -22 48 -59q16 -35 16 -91v-379zM433 138v155q-97 -7 -101 -7q-49 -4 -92 -15q-40 -12 -66 -36q-25 -24 -25 -67q0 -48 29 -72q28 -24 88 -24q52 0 91 19q41 20 76 47z" />
    <glyph glyph-name="Abreve" unicode="&#x102;" horiz-adv-x="700" 
d="M538 1024q-4 -82 -55 -137q-49 -53 -133 -53q-85 0 -134 53q-50 54 -54 137h83q6 -66 33 -96t72 -30q44 0 71 30q26 29 34 96h83zM687 0h-105l-74 208h-322l-72 -208h-101l271 744h132zM478 292l-130 366l-132 -366h262z" />
    <glyph glyph-name="abreve" unicode="&#x103;" horiz-adv-x="615" 
d="M492 838q-4 -84 -54 -138q-49 -53 -134 -53t-134 53q-50 54 -54 138h84q6 -67 32 -96q27 -30 72 -30t72 30q26 29 34 96h82zM526 0h-93v60q-4 -3 -16 -11.5t-18 -12.5q-20 -14 -41 -24q-26 -13 -54 -20q-32 -8 -72 -8q-75 0 -128 50q-52 49 -52 128q0 64 27 103
q27 38 78 61q54 24 123 31q74 8 153 12v15q0 33 -11 52q-13 23 -32 34q-16 10 -48 15q-25 4 -59 4q-33 0 -83 -10q-41 -8 -94 -28h-4v95q33 9 79 17q53 9 103 9q54 0 102 -10q45 -9 76 -33q31 -22 48 -59q16 -35 16 -91v-379zM433 138v155q-97 -7 -101 -7q-49 -4 -92 -15
q-40 -12 -66 -36q-25 -24 -25 -67q0 -48 29 -72q28 -24 88 -24q52 0 91 19q41 20 76 47z" />
    <glyph glyph-name="Aogonek" unicode="&#x104;" horiz-adv-x="634" 
d="M20 0l266 793h58h12l267 -793h-85l-108 313h-218l-109 -313h-83zM321 641l-82 -248h164zM597 4q-5 -16 -5 -38.5t10 -31.5q7 -8 28 -8h4q28 1 31 16l4 12l77 -6l-1 -15q-2 -31 -27 -56q-32 -31 -86.5 -31t-86.5 31q-33 33 -33 91q0 31 9 59l4 15l77 -23z" />
    <glyph glyph-name="aogonek" unicode="&#x105;" horiz-adv-x="528" 
d="M429 420q-7 16 -32 24q-54 16 -117 16t-161 -24l-19 -6v84l11 3q89 23 168.5 23t147.5 -25q28 -10 48 -29q35 -33 35 -76v-410h-80v39q-99 -36 -188 -36q-117 0 -179 59q-55 54 -55 135t52 132q36 33 94 51q50 14 110 17h18q55 0 148 -10v27q0 2 -1 6zM430 306
q-100 11 -150 11h-13q-47 -2 -85 -12q-41 -12 -65 -33q-29 -27 -29 -75t32 -79q41 -35 124.5 -35t185.5 40v183zM494 13q-5 -16 -5 -38.5t10 -31.5q7 -8 28 -8h4q28 1 31 16l4 12l77 -6l-1 -15q-2 -31 -27 -56q-32 -31 -86.5 -31t-86.5 31q-33 33 -33 91q0 31 9 59l4 15
l77 -23z" />
    <glyph glyph-name="Cacute" unicode="&#x106;" horiz-adv-x="578" 
d="M528 19q-53 -18 -136 -18q-33 0 -65 3q-115 11 -203 86q-115 111 -115 326q0 183 109 287q48 43 105.5 65t106.5 24q22 1 44 1q98 0 155 -16l11 -3l-1 -82l-19 6q-56 15 -145 15q-20 0 -46 -1.5t-69 -17.5t-80 -47q-91 -82 -91 -231q0 -181 99 -270q65 -55 149 -62v0
q28 -3 61 -3q31 0 61 4.5t45 7.5l34 12v-83zM561 990h-124l-129 -168h31h45z" />
    <glyph glyph-name="cacute" unicode="&#x107;" horiz-adv-x="532" 
d="M274.5 83.5q27.5 -2.5 56.5 -2.5q78 0 127 17l20 7l1 -83l-10 -3q-53 -18 -139 -18q-33 0 -65 3q-40 3 -92 20q-50 16 -89 53q-75 72 -75 190q0 126 80 202q37 35 87 52q50 18 89 21h1q29 2 60 2q89 0 142 -17l11 -3l-1 -83l-20 7q-49 16 -131 16q-27 0 -52.5 -1.5
t-61 -14t-65.5 -36.5q-59 -53 -59 -145q0 -86 53 -133q31 -24 69 -37q36 -11 63.5 -13.5zM518 738h-124l-129 -168h31h45z" />
    <glyph glyph-name="Ccircumflex" unicode="&#x108;" horiz-adv-x="715" 
d="M581 835h-79l-93 128l-92 -128h-77l114 189h113zM675 54q-6 -3 -23.5 -10.5t-26.5 -11.5q-20 -9 -58 -22q-45 -14 -66 -17q-42 -7 -79 -7q-80 0 -147 23q-64 22 -115 71q-50 50 -76 121t-26 171q0 91 26 164q26 74 74 122q49 49 115 74q69 26 149 26q64 0 120 -14
q55 -14 133 -52v-117h-7q-61 51 -122 75q-60 24 -130 24q-54 0 -102 -19q-43 -17 -80 -57q-35 -38 -54 -94q-20 -58 -20 -132q0 -76 22 -136q20 -55 54 -92q32 -35 82 -54q46 -18 99 -18q71 0 134 24q62 24 117 74h7v-116z" />
    <glyph glyph-name="ccircumflex" unicode="&#x109;" horiz-adv-x="533" 
d="M490 648h-79l-93 128l-92 -128h-77l114 190h113zM506 35q-47 -23 -90 -35q-42 -12 -90 -12q-62 0 -110 17q-51 18 -87 54q-39 39 -57 91q-20 57 -20 128q0 137 76 216q75 78 198 78q47 0 95 -14q45 -13 85 -33v-105h-6q-47 36 -88 52q-45 18 -90 18q-80 0 -126 -54
q-46 -53 -46 -158q0 -101 45 -155t127 -54q30 0 58 7t54 20q20 10 38 22q21 14 28 20h6v-103z" />
    <glyph glyph-name="Cdotaccent" unicode="&#x10a;" horiz-adv-x="715" 
d="M578 1024l-114 -189h-113l-114 189h79l93 -128l92 128h77zM675 54q-28 -12 -50 -22t-58 -22q-30 -10 -66 -17t-79 -7q-81 0 -147.5 23t-114.5 71t-75 121t-27 171q0 92 26 164t74 122q48 48 115 74t149 26q60 0 120 -14q60 -16 133 -52v-117h-7q-62 52 -122.5 75.5
t-129.5 23.5q-56 0 -102 -18q-44 -20 -80 -58q-34 -38 -54 -95t-20 -131q0 -78 22 -135q20 -57 54 -93q35 -37 82 -54.5t99 -17.5q72 0 134.5 24.5t116.5 73.5h7v-116z" />
    <glyph glyph-name="cdotaccent" unicode="&#x10b;" horiz-adv-x="533" 
d="M490 838l-114 -190h-114l-114 190h80l92 -128l92 128h78zM506 35q-47 -22 -89.5 -34.5t-90.5 -12.5q-60 0 -110.5 17.5t-86.5 53.5t-57 91q-20 54 -20 128q0 137 76 216q74 78 198 78q48 0 94 -14q48 -14 86 -33v-105h-6q-43 34 -88.5 52t-89.5 18q-80 0 -126 -54
t-46 -158q0 -101 45 -155t127 -54q28 0 58 7.5t54 19.5q20 10 38 22t28 20h6v-103z" />
    <glyph glyph-name="Ccaron" unicode="&#x10c;" horiz-adv-x="578" 
d="M368 822h19l106 58l-40 70l-77 -43l-78 43l-38 -70l104 -58h4zM528 19q-53 -18 -136 -18q-33 0 -65 3q-115 11 -203 86q-115 111 -115 326q0 183 109 287q48 43 105.5 65t106.5 24q22 1 44 1q98 0 155 -16l11 -3l-1 -82l-19 6q-56 15 -145 15q-20 0 -46 -1.5t-69 -17.5
t-80 -47q-91 -82 -91 -231q0 -181 99 -270q65 -55 149 -62v0q28 -3 61 -3q31 0 61 4.5t45 7.5l34 12v-83z" />
    <glyph glyph-name="ccaron" unicode="&#x10d;" horiz-adv-x="532" 
d="M316 558h19l106 58l-40 70l-77 -43l-78 43l-38 -70l104 -58h4zM274.5 83.5q27.5 -2.5 56.5 -2.5q78 0 127 17l20 7l1 -83l-10 -3q-53 -18 -139 -18q-33 0 -65 3q-40 3 -92 20q-50 16 -89 53q-75 72 -75 190q0 126 80 202q37 35 87 52q50 18 89 21h1q29 2 60 2
q89 0 142 -17l11 -3l-1 -83l-20 7q-49 16 -131 16q-27 0 -52.5 -1.5t-61 -14t-65.5 -36.5q-59 -53 -59 -145q0 -86 53 -133q31 -24 69 -37q36 -11 63.5 -13.5z" />
    <glyph glyph-name="Dcaron" unicode="&#x10e;" horiz-adv-x="789" 
d="M514 1024l-114 -189h-113l-114 189h79l93 -128l92 128h77zM729 372q0 -103 -44 -184q-46 -84 -118 -128q-53 -33 -114 -46q-65 -14 -165 -14h-188v744h186q108 0 173 -15q61 -14 109 -43q76 -48 118 -127q43 -81 43 -187zM626 373q0 85 -31 147q-30 60 -91 95
q-44 26 -94 35q-55 10 -118 10h-93v-575h93q68 0 125 11q53 10 97 38q58 38 84 94q28 61 28 145z" />
    <glyph glyph-name="dcaron" unicode="&#x10f;" horiz-adv-x="663" 
d="M788 778l-126 -252h-63l76 252h113zM546 0h-94v58q-39 -34 -85 -54q-45 -20 -95 -20q-99 0 -159 78q-59 77 -59 213q0 74 20 127q21 56 55 94q36 40 79 58q46 20 94 20q44 0 78 -9q33 -8 72 -29v242h94v-778zM452 138v320q-43 19 -68 24q-30 6 -66 6q-80 0 -123 -55
q-44 -56 -44 -156q0 -101 34 -151q35 -52 109 -52q40 0 81 18q43 19 77 46z" />
    <glyph glyph-name="Dcroat" unicode="&#x110;" horiz-adv-x="794" 
d="M734 372q0 -103 -44 -184q-46 -84 -118 -128q-53 -33 -114 -46q-65 -14 -165 -14h-188v370h-98v72h98v302h186q109 0 173 -15t109 -43q78 -49 119 -127q42 -79 42 -187zM630 373q0 87 -30 147t-91 95q-45 26 -93 35q-55 10 -119 10h-94v-218h181v-72h-181v-285h94
q68 0 125 11q55 11 98 38q57 37 83 94q27 58 27 145z" />
    <glyph glyph-name="dcroat" unicode="&#x111;" horiz-adv-x="638" 
d="M638 634h-92v-634h-94v58q-37 -31 -82 -53q-44 -21 -98 -21q-98 0 -159 76q-59 74 -59 212q0 75 20 126q21 55 55 93q36 40 79 58q44 19 94 19q49 0 78 -8q34 -9 72 -29v103h-182v67h182v77h94v-77h92v-67zM452 138v316q-40 17 -69 23t-65 6q-78 0 -122 -53
q-45 -54 -45 -156q0 -96 34 -149q33 -51 109 -51q40 0 81 18q43 19 77 46z" />
    <glyph glyph-name="Emacron" unicode="&#x112;" horiz-adv-x="647" 
d="M536 849h-370v77h370v-77zM590 0h-490v744h490v-88h-391v-204h391v-88h-391v-276h391v-88z" />
    <glyph glyph-name="emacron" unicode="&#x113;" horiz-adv-x="610" 
d="M506 668h-370v76h370v-76zM560 270h-412q0 -48 16 -90q15 -39 42 -63q25 -24 62 -36q36 -12 79 -12q57 0 115 23q61 24 82 44h5v-102q-57 -23 -97 -34q-48 -13 -104 -13q-139 0 -217 75t-78 214q0 137 75 218q74 80 196 80q114 0 175 -66q61 -65 61 -188v-50zM468 342
q0 72 -37 114q-36 40 -111 40q-77 0 -121 -44q-45 -45 -51 -110h320z" />
    <glyph glyph-name="Ebreve" unicode="&#x114;" horiz-adv-x="647" 
d="M545 1024q-4 -83 -54 -137q-49 -53 -134 -53t-134 53q-48 53 -53 137h82q6 -66 33 -96t73 -30q44 0 71 30q25 28 33 96h83zM590 0h-490v744h490v-88h-391v-204h391v-88h-391v-276h391v-88z" />
    <glyph glyph-name="ebreve" unicode="&#x115;" horiz-adv-x="610" 
d="M512 838q-4 -84 -54 -138q-49 -53 -134 -53t-134 53q-50 54 -54 138h84q6 -67 32 -96q27 -30 72 -30t72 30q26 29 34 96h82zM560 270h-412q0 -48 16 -90q15 -39 42 -63q25 -24 62 -36q36 -12 79 -12q57 0 115 23q61 24 82 44h5v-102q-57 -23 -97 -34q-48 -13 -104 -13
q-139 0 -217 75t-78 214q0 137 75 218q74 80 196 80q114 0 175 -66q61 -65 61 -188v-50zM468 342q0 72 -37 114q-36 40 -111 40q-77 0 -121 -44q-45 -45 -51 -110h320z" />
    <glyph glyph-name="Edotaccent" unicode="&#x116;" horiz-adv-x="647" 
d="M418 838h-106v98h106v-98zM590 0h-490v744h490v-88h-391v-204h391v-88h-391v-276h391v-88z" />
    <glyph glyph-name="edotaccent" unicode="&#x117;" horiz-adv-x="610" 
d="M378 652h-106v98h106v-98zM560 270h-412q0 -48 16 -90q15 -39 42 -63q25 -24 62 -36q36 -12 79 -12q57 0 115 23q61 24 82 44h5v-102q-57 -23 -97 -34q-48 -13 -104 -13q-139 0 -217 75t-78 214q0 137 75 218q74 80 196 80q114 0 175 -66q61 -65 61 -188v-50zM468 342
q0 72 -37 114q-36 40 -111 40q-77 0 -121 -44q-45 -45 -51 -110h320z" />
    <glyph glyph-name="Eogonek" unicode="&#x118;" horiz-adv-x="467" 
d="M29 793h396v-80h-316v-247h171v-80h-171v-305h316v-80h-396v792zM328 16q-5 -16 -5 -38.5t10 -31.5q7 -8 28 -8h4q28 1 31 16l4 12l77 -6l-1 -15q-2 -31 -27 -56q-32 -31 -86.5 -31t-86.5 31q-33 33 -33 91q0 31 9 59l4 15l77 -23z" />
    <glyph glyph-name="eogonek" unicode="&#x119;" horiz-adv-x="591" 
d="M95 468q80 72 217 72q110 0 174 -59q50 -47 68 -127q8 -39 8 -78q0 -10 -3 -51h-457q8 -58 50 -95q30 -23 66 -35q35 -11 61.5 -13.5t59 -2.5t66.5 4.5t49 7.5l34 12v-83l-10 -3q-54 -18 -145 -18q-32 0 -63 3q-38 3 -88 20q-49 16 -88 53q-75 72 -75 190q0 130 76 203z
M430 424q-42 36 -118 36q-100 0 -158 -48q-44 -39 -53 -107h380q-2 18 -6 35q-13 55 -45 84zM353 21q-5 -16 -5 -38.5t10 -31.5q7 -8 28 -8h4q28 1 31 16l4 12l77 -6l-1 -15q-2 -31 -27 -56q-32 -31 -86.5 -31t-86.5 31q-33 33 -33 91q0 31 9 59l4 15l77 -23z" />
    <glyph glyph-name="Ecaron" unicode="&#x11a;" horiz-adv-x="647" 
d="M512 1024l-114 -189h-114l-114 189h80l92 -128l92 128h78zM590 0h-490v744h490v-88h-391v-204h391v-88h-391v-276h391v-88z" />
    <glyph glyph-name="ecaron" unicode="&#x11b;" horiz-adv-x="610" 
d="M493 838l-114 -190h-113l-114 190h79l93 -128l92 128h77zM560 270h-412q0 -48 16 -90q15 -39 42 -63q25 -24 62 -36q36 -12 79 -12q57 0 115 23q61 24 82 44h5v-102q-57 -23 -97 -34q-48 -13 -104 -13q-139 0 -217 75t-78 214q0 137 75 218q74 80 196 80q114 0 175 -66
q61 -65 61 -188v-50zM468 342q0 72 -37 114q-36 40 -111 40q-77 0 -121 -44q-45 -45 -51 -110h320z" />
    <glyph glyph-name="Gcircumflex" unicode="&#x11c;" horiz-adv-x="794" 
d="M600 835h-79l-93 128l-92 -128h-77l114 189h113zM721 55q-59 -28 -133 -49q-69 -20 -140 -20q-88 0 -160 24t-123 72q-50 47 -79 121q-28 71 -28 170q0 179 104 282t286 103q64 0 130 -15q61 -14 142 -52v-117h-8q-7 6 -46 31q-31 20 -58 33q-32 14 -78 25t-99 11
q-126 0 -198 -81q-73 -82 -73 -217q0 -145 76 -225t208 -80q47 0 95 9q44 8 84 25v183h-199v86h297v-319z" />
    <glyph glyph-name="gcircumflex" unicode="&#x11d;" horiz-adv-x="638" 
d="M494 648h-80l-92 128l-92 -128h-78l114 190h114zM546 64q0 -142 -65 -209t-199 -67q-37 0 -86 7q-51 7 -84 17v96h6q19 -7 72 -22q48 -13 100 -13q51 0 80 11q32 12 49 32q17 18 25 48q8 29 8 61v51q-41 -34 -82 -51q-40 -17 -98 -17q-100 0 -159 73t-59 203q0 75 20 125
q21 52 56 90q33 36 78 55q48 20 93 20q44 0 81 -10q29 -8 70 -30l6 24h88v-494zM452 154v304q-38 17 -70 24q-35 8 -64 8q-77 0 -122 -52t-45 -152q0 -94 33 -142t110 -48q40 0 82 15q39 14 76 43z" />
    <glyph glyph-name="Gbreve" unicode="&#x11e;" horiz-adv-x="578" 
d="M328 792q21 1 44 1q100 0 157 -16l11 -3l-1 -82l-19 6q-56 15 -147 15q-21 0 -46 -1.5t-68 -17.5t-80 -47q-90 -82 -90 -231q0 -181 98 -270q64 -55 148 -62v0q28 -3 55 -3q56 0 101 9v285h-147v80h227v-425l-27 -9q-63 -20 -155 -20q-33 0 -64 3q-114 11 -201 86
q-115 111 -115 326q0 183 109 287q48 43 105 65t105 24zM482 969h80v-15q0 -48 -37 -86q-60 -58 -178.5 -58t-177.5 58q-38 38 -38 86v15h80v-15q0 -15 15 -28q14 -16 46 -26q34 -10 74.5 -10t74.5 10q32 10 46 26q15 13 15 28v15z" />
    <glyph glyph-name="gbreve" unicode="&#x11f;" horiz-adv-x="558" 
d="M451 534v14h80v-535q0 -91 -57 -148q-36 -35 -94 -54q-47 -15 -103 -18v0q-22 -1 -45 -1q-85 0 -143 14l-11 3v82l19 -4q61 -15 135 -15q19 0 38 1q43 3 83 14.5t64 34.5q34 33 34 91v16q-81 -29 -156 -29q-119 0 -189 64q-80 75 -80 215q0 112 76 185q38 36 89 54
q51 19 89 22q31 3 63 3q58 0 108 -9zM451 454q-47 9 -107 9q-25 0 -51.5 -2t-64 -15.5t-68.5 -37.5q-54 -50 -54 -130q0 -105 59 -158q49 -40 130 -40q72 0 156 32v342zM473 727h80v-15q0 -48 -37 -86q-60 -58 -178.5 -58t-177.5 58q-38 38 -38 86v15h80v-15q0 -15 15 -28
q14 -16 46 -26q34 -10 74.5 -10t74.5 10q32 10 46 26q15 13 15 28v15z" />
    <glyph glyph-name="Gdotaccent" unicode="&#x120;" horiz-adv-x="794" 
d="M482 838h-106v98h106v-98zM721 55q-59 -28 -133 -49q-69 -20 -140 -20q-88 0 -160 24t-123 72q-50 47 -79 121q-28 71 -28 170q0 179 104 282t286 103q64 0 130 -15q61 -14 142 -52v-117h-8q-7 6 -46 31q-31 20 -58 33q-32 14 -78 25t-99 11q-126 0 -198 -81
q-73 -82 -73 -217q0 -145 76 -225t208 -80q47 0 95 9q44 8 84 25v183h-199v86h297v-319z" />
    <glyph glyph-name="gdotaccent" unicode="&#x121;" horiz-adv-x="638" 
d="M373 652h-106v98h106v-98zM546 64q0 -142 -65 -209t-199 -67q-37 0 -86 7q-51 7 -84 17v96h6q19 -7 72 -22q48 -13 100 -13q51 0 80 11q32 12 49 32q17 18 25 48q8 29 8 61v51q-41 -34 -82 -51q-40 -17 -98 -17q-100 0 -159 73t-59 203q0 75 20 125q21 52 56 90
q33 36 78 55q48 20 93 20q44 0 81 -10q29 -8 70 -30l6 24h88v-494zM452 154v304q-38 17 -70 24q-35 8 -64 8q-77 0 -122 -52t-45 -152q0 -94 33 -142t110 -48q40 0 82 15q39 14 76 43z" />
    <glyph glyph-name="uni0122" unicode="&#x122;" horiz-adv-x="794" 
d="M449 -54q0 4 -0.5 11t-0.5 11q0 8 -2 18q-86 0 -158 24t-123 72q-50 47 -79 121q-28 71 -28 170q0 179 104 282t286 103q64 0 130 -15q61 -14 142 -52v-117h-8q-7 6 -46 31q-31 20 -58 33q-32 14 -78 25t-99 11q-126 0 -198 -81q-73 -82 -73 -217q0 -145 76 -225t208 -80
q47 0 95 9q44 8 84 25v183h-199v86h297v-319q-36 -17 -98 -38q-49 -17 -100 -25q0 -2 0.5 -7.5t0.5 -8.5t0.5 -9.5t0.5 -10.5q0 -80 -46 -124t-119 -44q-9 0 -47 4q-22 2 -51 10v80h4l13 -5q13 -5 22 -7q23 -6 47 -6q53 0 76 19q25 20 25 63z" />
    <glyph glyph-name="uni0123" unicode="&#x123;" horiz-adv-x="638" 
d="M546 64q0 -142 -65 -209t-199 -67q-37 0 -86 7q-51 7 -84 17v96h6q19 -7 72 -22q48 -13 100 -13q51 0 80 11q32 12 49 32q17 18 25 48q8 29 8 61v51q-41 -34 -82 -51q-40 -17 -98 -17q-100 0 -159 73t-59 203q0 75 20 125q21 52 56 90q33 36 78 55q48 20 93 20
q44 0 81 -10q29 -8 70 -30l6 24h88v-494zM452 154v304q-38 17 -70 24q-35 8 -64 8q-77 0 -122 -52t-45 -152q0 -94 33 -142t110 -48q40 0 82 15q39 14 76 43zM443 838l-89 -187h-122l136 187h75z" />
    <glyph glyph-name="Hcircumflex" unicode="&#x124;" horiz-adv-x="769" 
d="M556 835h-80l-92 128l-92 -128h-78l114 189h114zM670 0h-100v364h-371v-364h-99v744h99v-292h371v292h100v-744z" />
    <glyph glyph-name="hcircumflex" unicode="&#x125;" horiz-adv-x="648" 
d="M514 835h-80l-92 128l-92 -128h-78l114 189h114zM560 0h-94v318q0 35 -5 72q-4 33 -17 53q-12 20 -36 31q-23 10 -60 10q-42 0 -81 -18q-44 -20 -81 -49v-417h-94v778h94v-282q44 36 92 58q44 20 96 20q90 0 138 -54t48 -158v-362z" />
    <glyph glyph-name="Hbar" unicode="&#x126;" horiz-adv-x="769" 
d="M754 554h-84v-554h-100v364h-371v-364h-99v554h-84v70h84v120h99v-120h371v120h100v-120h84v-70zM570 452v102h-371v-102h371z" />
    <glyph glyph-name="hbar" unicode="&#x127;" horiz-adv-x="648" 
d="M560 0h-94v318q0 35 -5 72q-4 33 -17 53q-12 20 -36 31q-23 10 -60 10q-42 0 -81 -18q-44 -20 -81 -49v-417h-94v634h-82v67h82v77h94v-77h161v-67h-161v-138q44 36 92 58q44 20 96 20q90 0 138 -54t48 -158v-362z" />
    <glyph glyph-name="Itilde" unicode="&#x128;" horiz-adv-x="431" 
d="M362 0h-294v76h98v592h-98v76h294v-76h-97v-592h97v-76zM410 996q-3 -76 -35 -114t-83 -38q-23 0 -46 10q-21 9 -40 28q-23 22 -38 32q-14 10 -30 10q-24 0 -36 -23q-10 -19 -12 -60h-68q1 67 33 109q31 42 83 42q25 0 46 -9q20 -9 40 -27q23 -22 38 -31q16 -10 32 -10
q23 0 35 23q13 24 13 58h68z" />
    <glyph glyph-name="itilde" unicode="&#x129;" horiz-adv-x="281" 
d="M188 0h-94v558h94v-558zM288 798q0 -65 -25 -97q-25 -33 -66 -33q-17 0 -35 7q-13 5 -29 23q-17 18 -27 26q-11 8 -23 8q-17 0 -26 -17q-8 -16 -8 -50h-56q0 63 26 97q25 32 65 32q24 0 36 -6q8 -4 28 -22q9 -9 28 -26q10 -9 22 -9q17 0 26 18q8 16 8 49h56z" />
    <glyph glyph-name="Imacron" unicode="&#x12a;" horiz-adv-x="431" 
d="M362 0h-294v76h98v592h-98v76h294v-76h-97v-592h97v-76zM384 849h-336v77h336v-77z" />
    <glyph glyph-name="imacron" unicode="&#x12b;" horiz-adv-x="281" 
d="M283 668h-285v76h285v-76zM188 0h-94v558h94v-558z" />
    <glyph glyph-name="Ibreve" unicode="&#x12c;" horiz-adv-x="431" 
d="M362 0h-294v76h98v592h-98v76h294v-76h-97v-592h97v-76zM368 1002q0 -84 -37 -136t-115 -52q-76 0 -114 52t-38 136h79q0 -69 17 -96q18 -28 56 -28q36 0 54 27t18 97h80z" />
    <glyph glyph-name="ibreve" unicode="&#x12d;" horiz-adv-x="281" 
d="M280 820q0 -76 -35 -125q-35 -48 -105 -48q-69 0 -104 47q-36 48 -36 126h74q0 -62 16 -88t50 -26t50 24q17 25 17 90h73zM188 0h-94v558h94v-558z" />
    <glyph glyph-name="Iogonek" unicode="&#x12e;" horiz-adv-x="431" 
d="M186 0h-118v76h98v592h-98v76h294v-76h-97v-592h97v-76h-96q-3 -14 -6 -24q-2 -7 -2 -30q0 -41 16 -60q17 -20 61 -20q15 0 33 5q19 5 26 10h4v-79q-24 -6 -38 -8t-38 -2q-67 0 -106 40q-38 39 -38 110q0 21 2 30q4 18 6 28z" />
    <glyph glyph-name="iogonek" unicode="&#x12f;" horiz-adv-x="281" 
d="M194 652h-106v98h106v-98zM291 -198q-24 -6 -38 -8t-37 -2q-67 0 -106 39t-39 111q0 32 9 59q8 24 14 40v517h94v-558h-30q-4 -19 -5 -26q-2 -18 -2 -28q0 -40 17 -60t60 -20q15 0 33 5q17 5 25 10h5v-79z" />
    <glyph glyph-name="Idotaccent" unicode="&#x130;" horiz-adv-x="225" 
d="M26 793h168v-80h-43v-633h43v-80h-168v80h45v633h-45v80zM69 926h109v-115h-109v115z" />
    <glyph glyph-name="dotlessi" unicode="&#x131;" horiz-adv-x="180" 
d="M50 518h80v-520h-80v520z" />
    <glyph glyph-name="IJ" unicode="&#x132;" horiz-adv-x="422" 
d="M226 795h165v-616q0 -84 -53 -135q-28 -26 -64 -39q-24 -9 -44 -9h-15v80h15q5 0 17 4q19 6 33 20q31 30 31 81v534h-85v80zM26 793h168v-80h-43v-633h43v-80h-168v80h45v633h-45v80z" />
    <glyph glyph-name="ij" unicode="&#x133;" horiz-adv-x="389" 
d="M336 719v-114h-80v114h80zM256 -7v470h-59v80h139v-550q0 -87 -53 -141q-28 -27 -64 -40q-24 -9 -44 -9h-15v80h15q5 0 17 4q19 7 33 22q31 30 31 84zM50 -2v550h80v-550h-80zM130 719v-114h-80v114h80z" />
    <glyph glyph-name="Jcircumflex" unicode="&#x134;" horiz-adv-x="465" 
d="M422 835h-79l-93 128l-92 -128h-77l114 189h113zM373 194q0 -100 -60 -152q-59 -52 -160 -52q-28 0 -64 4q-44 5 -67 10v92h6q14 -5 50 -14q32 -8 62 -8q45 0 73 11q26 10 40 30t17 49q4 38 4 67v435h-158v78h257v-550z" />
    <glyph glyph-name="jcircumflex" unicode="&#x135;" horiz-adv-x="352" 
d="M260 -14q0 -98 -50 -148t-134 -50q-23 0 -52 4q-36 5 -55 10v90h5q1 0 38 -12q26 -8 46 -8q37 0 58 10q22 10 33 30t14 49t3 69v450h-116v78h210v-572zM344 648h-80l-92 128l-92 -128h-78l114 190h114z" />
    <glyph glyph-name="uni0136" unicode="&#x136;" horiz-adv-x="709" 
d="M438 -44q0 -80 -46 -124t-119 -44q-9 0 -47 4q-24 3 -52 10v80h4l36 -12q22 -6 46 -6q54 0 77 19q25 20 25 63q0 9 -2 33q-2 21 -3 31h77q1 -3 1.5 -10.5t0.5 -11.5q2 -18 2 -32zM698 0h-128l-294 332l-74 -80v-252h-100v744h100v-388l361 388h120l-333 -350z" />
    <glyph glyph-name="uni0137" unicode="&#x137;" horiz-adv-x="606" 
d="M374 -44q0 -80 -46 -124t-118 -44q-10 0 -48 4q-24 3 -52 10v80h5l13 -5q13 -5 22 -7q22 -6 47 -6q54 0 77 19q24 19 24 63q0 9 -2 33q0 5 -0.5 16t-1.5 15h76q1 -3 1.5 -10.5t0.5 -11.5q2 -18 2 -32zM600 0h-124l-224 244l-62 -58v-186h-94v778h94v-499l272 279h118
l-259 -258z" />
    <glyph glyph-name="kgreenlandic" unicode="&#x138;" horiz-adv-x="606" 
d="M600 0h-124l-224 244l-62 -58v-186h-94v558h94v-279l272 279h118l-259 -258z" />
    <glyph glyph-name="Lacute" unicode="&#x139;" horiz-adv-x="570" 
d="M322 1024l-137 -186h-75l90 186h122zM571 0h-471v744h99v-656h372v-88z" />
    <glyph glyph-name="lacute" unicode="&#x13a;" horiz-adv-x="281" 
d="M296 1024l-136 -186h-74l89 186h121zM188 0h-94v778h94v-778z" />
    <glyph glyph-name="uni013B" unicode="&#x13b;" horiz-adv-x="570" 
d="M352 0h-252v744h99v-656h372v-88h-143q1 -3 1.5 -10t0.5 -11q2 -16 2 -23q0 -80 -46 -124t-119 -44q-9 0 -47 4q-24 3 -52 10v80h4l36 -12q22 -6 46 -6q54 0 77 19q25 20 25 63q0 11 -2 31q0 4 -0.5 12t-1.5 11z" />
    <glyph glyph-name="uni013C" unicode="&#x13c;" horiz-adv-x="281" 
d="M164 0h-70v778h94v-768h54q0 -14 1 -23t1 -31q0 -81 -43 -124q-44 -44 -110 -44q-9 0 -43 4q-32 4 -46 8v80h5q8 -4 31 -11q16 -5 40 -5q48 0 68 19t20 63v24q0 6 -2 30z" />
    <glyph glyph-name="Lcaron" unicode="&#x13d;" horiz-adv-x="570" 
d="M571 0h-471v744h99v-656h372v-88zM474 778l-126 -252h-63l76 252h113z" />
    <glyph glyph-name="lcaron" unicode="&#x13e;" horiz-adv-x="303" 
d="M426 778l-125 -252h-63l76 252h112zM188 0h-94v778h94v-778z" />
    <glyph glyph-name="Ldot" unicode="&#x13f;" horiz-adv-x="570" 
d="M571 0h-471v744h99v-656h372v-88zM493 260h-117v133h117v-133z" />
    <glyph glyph-name="ldot" unicode="&#x140;" horiz-adv-x="469" 
d="M188 0h-94v778h94v-778zM433 260h-115v132h115v-132z" />
    <glyph glyph-name="Lslash" unicode="&#x141;" horiz-adv-x="467" 
d="M117 81h314v-80h-396v362l-52 56l52 49v330h82v-256l32 25l63 -58l-95 -76v-352z" />
    <glyph glyph-name="lslash" unicode="&#x142;" horiz-adv-x="167" 
d="M41 455v293h80v-230l21 19l54 -55l-75 -67v-417h-80v353l-4 -4l-54 55z" />
    <glyph glyph-name="Nacute" unicode="&#x143;" horiz-adv-x="590" 
d="M29 0v793h57h8l375 -549v525h80v-769h-80v98l-360 546v-644h-80zM479 964h-124l-129 -168h31h45z" />
    <glyph glyph-name="nacute" unicode="&#x144;" horiz-adv-x="550" 
d="M24 -2v550h80v-14q49 9 108 9q32 0 63 -3q38 -3 89 -22q51 -18 89 -54q76 -73 76 -186v-280h-80v278q0 81 -54 131q-31 24 -68.5 38t-58.5 15h-1q-28 3 -56 3q-60 0 -107 -10v-455h-80zM444 737h-124l-129 -168h31h45z" />
    <glyph glyph-name="uni0145" unicode="&#x145;" horiz-adv-x="766" 
d="M439 -44q0 -80 -46 -124t-119 -44q-9 0 -47 4q-22 2 -51 10v80h4l13 -5q13 -5 22 -7q23 -6 47 -6q53 0 76 19q25 20 25 63q0 21 -1 33q0 5 -1 11t-2 11.5t-1 8.5h77q2 -10 3 -22q1 -9 1 -32zM668 0h-122l-354 666v-666h-92v744h154l322 -608v608h92v-744z" />
    <glyph glyph-name="uni0146" unicode="&#x146;" horiz-adv-x="648" 
d="M382 -44q0 -80 -46 -124t-119 -44q-9 0 -47 4q-24 3 -52 10v80h4l36 -12q22 -6 46 -6q54 0 77 19q25 20 25 63q0 9 -2 33q-2 21 -3 31h77q1 -3 1.5 -10.5t0.5 -11.5q2 -18 2 -32zM560 0h-94v318q0 35 -5 72q-4 33 -17 53q-12 20 -36 31q-23 10 -60 10q-42 0 -81 -18
q-44 -20 -81 -49v-417h-94v558h94v-62q44 36 92 58q44 20 96 20q90 0 138 -54t48 -158v-362z" />
    <glyph glyph-name="Ncaron" unicode="&#x147;" horiz-adv-x="766" 
d="M576 1024l-114 -189h-114l-114 189h80l92 -128l92 128h78zM668 0h-122l-354 666v-666h-92v744h154l322 -608v608h92v-744z" />
    <glyph glyph-name="ncaron" unicode="&#x148;" horiz-adv-x="648" 
d="M508 838l-114 -190h-113l-114 190h79l93 -128l92 128h77zM560 0h-94v318q0 35 -5 72q-4 33 -17 53q-12 20 -36 31q-23 10 -60 10q-42 0 -81 -18q-44 -20 -81 -49v-417h-94v558h94v-62q44 36 92 58q44 20 96 20q90 0 138 -54t48 -158v-362z" />
    <glyph glyph-name="napostrophe" unicode="&#x149;" horiz-adv-x="748" 
d="M660 0h-94v318q0 35 -5 72q-4 33 -17 53q-12 20 -36 31q-23 10 -60 10q-42 0 -81 -18q-44 -20 -81 -49v-417h-94v558h94v-62q44 36 92 58q44 20 96 20q90 0 138 -54t48 -158v-362zM204 778l-135 -280h-69l82 280h122z" />
    <glyph glyph-name="Eng" unicode="&#x14a;" horiz-adv-x="766" 
d="M576 -5l-384 671v-666h-92v744h154l322 -560v560h92v-756q0 -93 -52 -147q-51 -53 -141 -53q-12 0 -40 2q-5 0 -39 6v84h6q9 -3 26 -6q10 -2 29 -2q64 0 91 27q28 28 28 96z" />
    <glyph glyph-name="eng" unicode="&#x14b;" horiz-adv-x="648" 
d="M466 24v294q0 35 -5 72q-4 33 -17 53q-12 20 -36 31q-23 10 -60 10q-42 0 -81 -18q-44 -20 -81 -49v-417h-94v558h94v-62q44 36 92 58q44 20 96 20q90 0 138 -54t48 -158v-376q0 -94 -52 -146t-140 -52q-14 0 -40 2q-11 1 -38 5v84h6q4 -1 13.5 -2.5t12.5 -2.5
q10 -2 28 -2q38 0 62 9t36 29q11 21 14 45q4 36 4 69z" />
    <glyph glyph-name="Omacron" unicode="&#x14c;" horiz-adv-x="806" 
d="M588 854h-370v77h370v-77zM655 659q46 -50 70 -123q24 -72 24 -164q0 -90 -25 -165q-25 -74 -69 -121q-46 -51 -109 -76q-64 -26 -143 -26q-77 0 -143 26q-62 25 -109 76q-45 49 -69 122q-24 72 -24 164q0 91 24 163q25 74 70 124q44 50 109 75q67 26 142 26
q83 0 144 -26q63 -27 108 -75zM646 372q0 145 -65 224q-65 78 -177 78q-114 0 -179 -78q-65 -79 -65 -224q0 -146 66 -224t178 -78q110 0 176 78t66 224z" />
    <glyph glyph-name="omacron" unicode="&#x14d;" horiz-adv-x="621" 
d="M496 668h-370v76h370v-76zM568 279q0 -136 -70 -215q-71 -80 -187 -80q-119 0 -188 80q-70 81 -70 215q0 135 70 216q69 79 188 79q117 0 187 -79t70 -216zM472 279q0 107 -43 161q-42 53 -118 53q-77 0 -119 -53q-42 -52 -42 -161q0 -105 42 -159t119 -54t118 53
q43 55 43 160z" />
    <glyph glyph-name="Obreve" unicode="&#x14e;" horiz-adv-x="806" 
d="M591 1024q-4 -83 -54 -137q-49 -53 -134 -53t-134 53q-48 53 -53 137h82q6 -66 33 -96t73 -30q44 0 71 30q25 28 33 96h83zM655 659q46 -50 70 -123q24 -72 24 -164q0 -90 -25 -165q-25 -74 -69 -121q-46 -51 -109 -76q-64 -26 -143 -26q-77 0 -143 26q-62 25 -109 76
q-45 49 -69 122q-24 72 -24 164q0 91 24 163q25 74 70 124q44 50 109 75q67 26 142 26q83 0 144 -26q63 -27 108 -75zM646 372q0 145 -65 224q-65 78 -177 78q-114 0 -179 -78q-65 -79 -65 -224q0 -146 66 -224t178 -78q110 0 176 78t66 224z" />
    <glyph glyph-name="obreve" unicode="&#x14f;" horiz-adv-x="621" 
d="M499 838q-5 -84 -54 -138q-49 -53 -134 -53t-134 53q-48 53 -53 138h82q6 -66 33 -96t73 -30q44 0 71 30q25 28 33 96h83zM568 279q0 -136 -70 -215q-71 -80 -187 -80q-119 0 -188 80q-70 81 -70 215q0 135 70 216q69 79 188 79q117 0 187 -79t70 -216zM472 279
q0 107 -43 161q-42 53 -118 53q-77 0 -119 -53q-42 -52 -42 -161q0 -105 42 -159t119 -54t118 53q43 55 43 160z" />
    <glyph glyph-name="Ohungarumlaut" unicode="&#x150;" horiz-adv-x="806" 
d="M642 1024l-130 -186h-69l85 186h114zM440 1024l-130 -186h-69l85 186h114zM655 659q46 -50 70 -123q24 -72 24 -164q0 -90 -25 -165q-25 -74 -69 -121q-46 -51 -109 -76q-64 -26 -143 -26q-77 0 -143 26q-62 25 -109 76q-45 49 -69 122q-24 72 -24 164q0 91 24 163
q25 74 70 124q44 50 109 75q67 26 142 26q83 0 144 -26q63 -27 108 -75zM646 372q0 145 -65 224q-65 78 -177 78q-114 0 -179 -78q-65 -79 -65 -224q0 -146 66 -224t178 -78q110 0 176 78t66 224z" />
    <glyph glyph-name="ohungarumlaut" unicode="&#x151;" horiz-adv-x="621" 
d="M552 838l-130 -187h-69l85 187h114zM350 838l-130 -187h-69l85 187h114zM568 279q0 -136 -70 -215q-71 -80 -187 -80q-119 0 -188 80q-70 81 -70 215q0 135 70 216q69 79 188 79q117 0 187 -79t70 -216zM472 279q0 107 -43 161q-42 53 -118 53q-77 0 -119 -53
q-42 -52 -42 -161q0 -105 42 -159t119 -54t118 53q43 55 43 160z" />
    <glyph glyph-name="OE" unicode="&#x152;" horiz-adv-x="855" 
d="M214 647q-87 -84 -87 -251.5t87 -251.5q87 -82 237 -83v669q-150 -1 -237 -83zM495 793h336v-80h-296v-247h155v-80h-155v-308h296v-80h-337q-19 -2 -40 -2q-50 0 -100 9q-122 22 -199 94q-108 103 -108 296.5t108 297.5q77 71 199 93q50 9 99 9q24 0 42 -2z" />
    <glyph glyph-name="oe" unicode="&#x153;" horiz-adv-x="1116" 
d="M978 424q-40 36 -112 36q-94 0 -149 -48q-45 -39 -54 -107h365q-2 18 -6 35q-13 55 -44 84zM396 2q-30 -3 -60 -3h-11q-30 0 -60 3q-37 3 -86 20q-47 16 -86 53q-75 72 -75 190q0 126 80 202q37 35 88 52q51 18 91 21h1q30 2 61 2h16q28 0 55 -2v0q36 -3 81.5 -21.5
t84.5 -55.5q24 -23 41 -50q17 29 41 52q79 75 208 75q104 0 167 -59q50 -47 68 -127q8 -39 8 -78q0 -10 -3 -51h-451q10 -58 53 -95q29 -23 64 -35q33 -11 59.5 -13.5t57.5 -2.5t64 4.5t48 7.5l34 12l1 -84l-10 -3q-50 -17 -142 -17q-31 0 -61 3q-38 3 -86.5 20.5
t-89.5 56.5q-22 20 -38 45q-16 -25 -38 -45q-41 -39 -89.5 -56.5t-85.5 -20.5zM355 462h-16q-27 0 -52.5 -1.5t-62 -14t-67.5 -36.5q-59 -53 -59 -145q0 -86 52 -133q29 -24 64 -36.5t60 -14.5t51 -2h11q26 0 51 2t60 14.5t64 36.5q55 47 55 133q10 92 -49 145
q-27 24 -59.5 36.5t-55.5 14t-47 1.5z" />
    <glyph glyph-name="Racute" unicode="&#x154;" horiz-adv-x="712" 
d="M476 1024l-136 -186h-74l89 186h121zM716 0h-128l-250 296h-139v-296h-99v744h208q73 0 113 -8q44 -9 81 -32q41 -26 63 -64q23 -40 23 -98q0 -82 -40 -135t-112 -81zM484 535q0 35 -11 57q-13 27 -37 42q-19 14 -51 20q-30 6 -69 6h-117v-282h100q47 0 82 9q36 9 59 31
q24 22 34 48t10 69z" />
    <glyph glyph-name="racute" unicode="&#x155;" horiz-adv-x="437" 
d="M382 838l-137 -187h-75l90 187h122zM441 456h-5q-11 2 -41 7q-19 3 -47 3q-42 0 -84 -20q-39 -19 -78 -50v-396h-94v558h94v-82q56 46 99 64q42 18 87 18q29 0 36 -1q1 0 12.5 -2t20.5 -3v-96z" />
    <glyph glyph-name="uni0156" unicode="&#x156;" horiz-adv-x="712" 
d="M435 -44q0 -80 -46 -124t-119 -44q-9 0 -47 4q-22 2 -51 10v80h4l13 -5q13 -5 22 -7q23 -6 47 -6q53 0 76 19q25 20 25 63q0 21 -1 33q0 5 -1 11t-2 11.5t-1 8.5h77q2 -10 3 -22q1 -9 1 -32zM716 0h-128l-250 296h-139v-296h-99v744h208q73 0 113 -8q44 -9 81 -32
q41 -26 63 -64q23 -40 23 -98q0 -82 -40 -135t-112 -81zM484 535q0 35 -11 57q-13 27 -37 42q-19 14 -51 20q-30 6 -69 6h-117v-282h100q47 0 82 9q36 9 59 31q24 22 34 48t10 69z" />
    <glyph glyph-name="uni0157" unicode="&#x157;" horiz-adv-x="437" 
d="M50 -131q16 -5 39 -5q47 0 67 19q21 19 21 63v24q0 18 -1 30h-84v558h94v-82q56 46 99 64q42 18 87 18q29 0 36 -1q1 0 12.5 -2t20.5 -3v-96h-5q-11 2 -41 7q-19 3 -47 3q-42 0 -84 -20q-39 -19 -78 -50v-386h66q0 -5 2 -23t2 -31q0 -80 -44 -124t-110 -44q-10 0 -44 4
q-29 3 -44 8v80h4q6 -3 32 -11z" />
    <glyph glyph-name="Rcaron" unicode="&#x158;" horiz-adv-x="712" 
d="M500 1024l-114 -189h-114l-114 189h80l92 -128l92 128h78zM716 0h-128l-250 296h-139v-296h-99v744h208q73 0 113 -8q44 -9 81 -32q41 -26 63 -64q23 -40 23 -98q0 -82 -40 -135t-112 -81zM484 535q0 35 -11 57q-13 27 -37 42q-19 14 -51 20q-30 6 -69 6h-117v-282h100
q47 0 82 9q36 9 59 31q24 22 34 48t10 69z" />
    <glyph glyph-name="rcaron" unicode="&#x159;" horiz-adv-x="437" 
d="M414 838l-114 -190h-113l-114 190h79l93 -128l92 128h77zM441 456h-5q-11 2 -41 7q-19 3 -47 3q-42 0 -84 -20q-39 -19 -78 -50v-396h-94v558h94v-82q56 46 99 64q42 18 87 18q29 0 36 -1q1 0 12.5 -2t20.5 -3v-96z" />
    <glyph glyph-name="Sacute" unicode="&#x15a;" horiz-adv-x="608" 
d="M539 370q47 -45 47 -120q0 -114 -82 -181q-87 -68 -219 -68q-44 0 -88.5 7.5t-73.5 17.5q-28 10 -54 22.5t-34 17.5t-20 13v92q28 -16 36.5 -21.5t35.5 -18.5t54 -23q29 -11 68.5 -19t75.5 -8q108 0 172 55q49 46 49 116q0 44 -24 66q-18 18 -57 31t-127 28
q-91 16 -129 28q-56 20 -88 49q-46 44 -46 114q0 18 2 33q12 78 61 125q74 68 223 68h15h1q99 -3 181 -28l11 -3v-82l-35 9q-72 21 -159 24h-14q-112 0 -163 -45q-34 -30 -41 -82q-2 -12 -2 -23q0 -37 23 -59q20 -17 62 -31q36 -11 124 -27t128 -29q55 -19 87 -48zM544 994
h-124l-129 -168h31h45z" />
    <glyph glyph-name="sacute" unicode="&#x15b;" horiz-adv-x="482" 
d="M405 439q-76 19 -148 19q-96 0 -132 -31q-22 -20 -22 -53q0 -13 11 -23.5t41 -18.5q32 -9 97.5 -17.5t115.5 -21.5q45 -13 72 -38q33 -31 33 -82q0 -65 -48 -112q-66 -60 -198 -60q-57 0 -112 13q-50 14 -67.5 22t-35.5 19v88l22 -12q11 -6 28.5 -14t65.5 -22
q55 -14 99 -14q95 0 140 39q26 24 26 58q0 19 -10 29q-11 10 -41 19q-32 9 -97 17.5t-116 20.5q-46 13 -73 39q-32 31 -32 78q0 17 1 23q9 49 43 81q57 53 189 53h6q84 -1 151 -19l11 -3l-1 -81zM437 728h-124l-129 -168h31h45z" />
    <glyph glyph-name="Scircumflex" unicode="&#x15c;" horiz-adv-x="700" 
d="M534 835h-80l-92 128l-92 -128h-78l114 189h114zM641 212q0 -46 -20 -86q-21 -42 -57 -72q-43 -33 -93 -50q-54 -18 -129 -18t-144 16q-70 16 -131 44v124h7q57 -47 130 -72q75 -26 140 -26q93 0 143 34q51 34 51 92q0 50 -24 74q-22 22 -74 36q-34 10 -81 16
q-37 5 -93 17q-99 21 -147 72q-47 50 -47 132q0 94 78 153q80 60 201 60q78 0 144 -15t116 -37v-117h-7q-41 35 -112 60q-66 23 -142 23q-80 0 -127 -32q-49 -34 -49 -86q0 -45 24 -72t85 -41q11 -3 91 -17q74 -13 100 -20q84 -23 125 -67q42 -45 42 -125z" />
    <glyph glyph-name="scircumflex" unicode="&#x15d;" horiz-adv-x="533" 
d="M456 648h-80l-92 128l-92 -128h-78l114 190h114zM492 161q0 -75 -64 -125t-172 -50q-63 0 -114 15q-54 16 -87 33v105h5q46 -34 99 -53q55 -20 105 -20q61 0 96 20q36 20 36 63q0 33 -20 50q-21 18 -72 29q-7 2 -53 10q-25 5 -59 14q-74 20 -104 57t-30 93q0 36 14 64
q16 32 43 55q28 24 71 37q45 14 97 14q50 0 101 -12q52 -12 86 -30v-100h-6q-33 25 -87 44q-51 18 -101 18q-52 0 -87 -19t-35 -59q0 -34 21 -52q20 -17 68 -28q27 -6 58 -12q13 -2 32.5 -7t21.5 -5q65 -15 101 -51q36 -37 36 -98z" />
    <glyph glyph-name="Scedilla" unicode="&#x15e;" horiz-adv-x="608" 
d="M539 370q47 -45 47 -120q0 -114 -82 -181q-87 -68 -219 -68q-44 0 -88.5 7.5t-73.5 17.5q-28 10 -54 22.5t-34 17.5t-20 13v92q28 -16 36.5 -21.5t35.5 -18.5t54 -23q29 -11 68.5 -19t75.5 -8q108 0 172 55q49 46 49 116q0 44 -24 66q-18 18 -57 31t-127 28
q-91 16 -129 28q-56 20 -88 49q-46 44 -46 114q0 18 2 33q12 78 61 125q74 68 223 68h15h1q99 -3 181 -28l11 -3v-82l-35 9q-72 21 -159 24h-14q-112 0 -163 -45q-34 -30 -41 -82q-2 -12 -2 -23q0 -37 23 -59q20 -17 62 -31q36 -11 124 -27t128 -29q55 -19 87 -48zM119 -162
v90q29 -10 47 -15.5t43 -5.5q51 0 74.5 18.5t23.5 60.5q0 19 -6 67h85q3 -39 3 -57q0 -84 -47 -127q-46 -44 -120 -44q-45 0 -91 10z" />
    <glyph glyph-name="scedilla" unicode="&#x15f;" horiz-adv-x="482" 
d="M405 439q-76 19 -148 19q-96 0 -132 -31q-22 -20 -22 -53q0 -13 11 -23.5t41 -18.5q32 -9 97.5 -17.5t115.5 -21.5q45 -13 72 -38q33 -31 33 -82q0 -65 -48 -112q-66 -60 -198 -60q-57 0 -112 13q-50 14 -67.5 22t-35.5 19v88l22 -12q11 -6 28.5 -14t65.5 -22
q55 -14 99 -14q95 0 140 39q26 24 26 58q0 19 -10 29q-11 10 -41 19q-32 9 -97 17.5t-116 20.5q-46 13 -73 39q-32 31 -32 78q0 17 1 23q9 49 43 81q57 53 189 53h6q84 -1 151 -19l11 -3l-1 -81zM33 -158v90q29 -10 47 -15.5t43 -5.5q51 0 74.5 18.5t23.5 60.5q0 19 -6 67
h85q3 -39 3 -57q0 -84 -47 -127q-46 -44 -120 -44q-45 0 -91 10z" />
    <glyph glyph-name="Scaron" unicode="&#x160;" horiz-adv-x="608" 
d="M336 816h19l106 58l-40 70l-77 -43l-78 43l-38 -70l104 -58h4zM539 370q47 -45 47 -120q0 -114 -82 -181q-87 -68 -219 -68q-44 0 -88.5 7.5t-73.5 17.5q-28 10 -54 22.5t-34 17.5t-20 13v92q28 -16 36.5 -21.5t35.5 -18.5t54 -23q29 -11 68.5 -19t75.5 -8q108 0 172 55
q49 46 49 116q0 44 -24 66q-18 18 -57 31t-127 28q-91 16 -129 28q-56 20 -88 49q-46 44 -46 114q0 18 2 33q12 78 61 125q74 68 223 68h15h1q99 -3 181 -28l11 -3v-82l-35 9q-72 21 -159 24h-14q-112 0 -163 -45q-34 -30 -41 -82q-2 -12 -2 -23q0 -37 23 -59q20 -17 62 -31
q36 -11 124 -27t128 -29q55 -19 87 -48z" />
    <glyph glyph-name="scaron" unicode="&#x161;" horiz-adv-x="482" 
d="M263 564h19l106 58l-40 70l-77 -43l-78 43l-38 -70l104 -58h4zM405 439q-76 19 -148 19q-96 0 -132 -31q-22 -20 -22 -53q0 -13 11 -23.5t41 -18.5q32 -9 97.5 -17.5t115.5 -21.5q45 -13 72 -38q33 -31 33 -82q0 -65 -48 -112q-66 -60 -198 -60q-57 0 -112 13
q-50 14 -67.5 22t-35.5 19v88l22 -12q11 -6 28.5 -14t65.5 -22q55 -14 99 -14q95 0 140 39q26 24 26 58q0 19 -10 29q-11 10 -41 19q-32 9 -97 17.5t-116 20.5q-46 13 -73 39q-32 31 -32 78q0 17 1 23q9 49 43 81q57 53 189 53h6q84 -1 151 -19l11 -3l-1 -81z" />
    <glyph glyph-name="uni0162" unicode="&#x162;" horiz-adv-x="631" 
d="M631 656h-266v-638l4 -28q2 -12 2 -34q0 -80 -46 -124t-119 -44q-9 0 -47 4q-22 2 -51 10v80h4l13 -5q13 -5 22 -7q23 -6 47 -6q53 0 76 19q25 20 25 63q0 20 -1 29t-3 25h-25v656h-266v88h631v-88z" />
    <glyph glyph-name="uni0163" unicode="&#x163;" horiz-adv-x="403" 
d="M382 5q-3 -1 -6 -1.5t-6 -1.5q-2 -1 -8 -2t-8 -2q1 -3 1.5 -10t0.5 -10q2 -14 2 -22q0 -80 -46 -124t-119 -44q-9 0 -47 4q-24 3 -52 10v80h4l36 -12q22 -6 46 -6q54 0 77 19q25 20 25 63q0 4 -0.5 12t-0.5 12q0 10 -2 20h-10q-85 0 -130 45t-45 147v298h-63v78h63v161
h94v-161h194v-78h-194v-255q0 -37 2 -69q2 -24 14 -46q11 -20 31 -29q19 -9 59 -9q22 0 48 6q18 4 36 12h4v-85z" />
    <glyph glyph-name="Tcaron" unicode="&#x164;" horiz-adv-x="631" 
d="M486 1024l-114 -189h-114l-114 189h80l92 -128l92 128h78zM631 656h-266v-656h-99v656h-266v88h631v-88z" />
    <glyph glyph-name="tcaron" unicode="&#x165;" horiz-adv-x="403" 
d="M382 5q-21 -6 -57 -11q-35 -5 -56 -5q-85 0 -130 46q-45 47 -45 147v298h-63v78h63v161h94v-161h194v-78h-194v-255q0 -37 2 -69q2 -24 14 -46q11 -20 31 -29q19 -9 59 -9q22 0 48 6q18 4 36 12h4v-85zM445 898l-125 -247h-64l76 247h113z" />
    <glyph glyph-name="Tbar" unicode="&#x166;" horiz-adv-x="631" 
d="M266 370h-166v72h166v214h-266v88h631v-88h-266v-214h166v-72h-166v-370h-99v370z" />
    <glyph glyph-name="tbar" unicode="&#x167;" horiz-adv-x="403" 
d="M382 5q-21 -6 -57 -11q-35 -5 -56 -5q-85 0 -130 46q-45 47 -45 147v84h-63v68h63v146h-63v78h63v161h94v-161h194v-78h-194v-146h151v-68h-151v-41q0 -37 2 -69q2 -24 14 -46q11 -20 31 -29q19 -9 59 -9q22 0 48 6q18 4 36 12h4v-85z" />
    <glyph glyph-name="Utilde" unicode="&#x168;" horiz-adv-x="749" 
d="M582 996q-6 -76 -38 -114q-33 -39 -88 -39q-25 0 -50 10q-21 9 -44 28q-27 24 -40 32q-17 11 -36 11q-25 0 -38 -22q-15 -24 -16 -61h-65q5 77 39 114q36 39 88 39q21 0 48 -10q20 -8 44 -28q22 -20 42 -31q17 -10 34 -10q25 0 40 23q14 22 16 58h64zM660 299
q0 -84 -17 -141q-18 -59 -59 -100q-40 -38 -90 -56q-51 -18 -120 -18q-67 0 -122 19q-49 17 -87 55q-40 40 -58 98t-18 143v445h99v-450q0 -65 8 -96q9 -36 28 -63q22 -32 60 -49q36 -16 90 -16q56 0 92 16q38 17 60 49q17 25 27 65q9 36 9 92v452h98v-445z" />
    <glyph glyph-name="utilde" unicode="&#x169;" horiz-adv-x="648" 
d="M537 810q-6 -76 -39 -115t-88 -39q-25 0 -50 10q-21 8 -44 28q-34 30 -39 33q-17 11 -36 11q-25 0 -39 -23q-13 -22 -15 -61h-65q5 77 39 114q36 39 87 39q21 0 48 -10q22 -8 44 -27q22 -20 42 -31q19 -11 35 -11q24 0 40 24q13 20 15 58h65zM556 0h-94v62
q-50 -39 -92 -58q-45 -20 -96 -20q-86 0 -136 54q-50 55 -50 158v362h94v-318q0 -45 4 -72q5 -31 18 -52t34 -32q20 -10 63 -10q38 0 80 19q45 20 81 49v416h94v-558z" />
    <glyph glyph-name="Umacron" unicode="&#x16a;" horiz-adv-x="749" 
d="M560 854h-370v77h370v-77zM660 299q0 -84 -17 -141q-18 -59 -59 -100q-40 -38 -90 -56q-51 -18 -120 -18q-67 0 -122 19q-49 17 -87 55q-40 40 -58 98t-18 143v445h99v-450q0 -65 8 -96q9 -36 28 -63q22 -32 60 -49q36 -16 90 -16q56 0 92 16q38 17 60 49q17 25 27 65
q9 36 9 92v452h98v-445z" />
    <glyph glyph-name="umacron" unicode="&#x16b;" horiz-adv-x="648" 
d="M512 668h-372v76h372v-76zM556 0h-94v62q-50 -39 -92 -58q-45 -20 -96 -20q-86 0 -136 54q-50 55 -50 158v362h94v-318q0 -45 4 -72q5 -31 18 -52t34 -32q20 -10 63 -10q38 0 80 19q45 20 81 49v416h94v-558z" />
    <glyph glyph-name="Ubreve" unicode="&#x16c;" horiz-adv-x="749" 
d="M562 1024q-4 -83 -54 -137q-49 -53 -134 -53q-84 0 -133 53q-50 54 -54 137h83q6 -66 33 -96t72 -30q44 0 71 30q26 29 34 96h82zM660 299q0 -84 -17 -141q-18 -59 -59 -100q-40 -38 -90 -56q-51 -18 -120 -18q-67 0 -122 19q-49 17 -87 55q-40 40 -58 98t-18 143v445h99
v-450q0 -65 8 -96q9 -36 28 -63q22 -32 60 -49q36 -16 90 -16q56 0 92 16q38 17 60 49q17 25 27 65q9 36 9 92v452h98v-445z" />
    <glyph glyph-name="ubreve" unicode="&#x16d;" horiz-adv-x="648" 
d="M513 838q-5 -84 -54 -138q-49 -53 -134 -53t-134 53q-48 53 -53 138h82q6 -66 33 -96t73 -30q44 0 71 30q25 28 33 96h83zM556 0h-94v62q-50 -39 -92 -58q-45 -20 -96 -20q-86 0 -136 54q-50 55 -50 158v362h94v-318q0 -45 4 -72q5 -31 18 -52t34 -32q20 -10 63 -10
q38 0 80 19q45 20 81 49v416h94v-558z" />
    <glyph glyph-name="Uring" unicode="&#x16e;" horiz-adv-x="749" 
d="M550 855q0 -71 -51 -121q-52 -50 -124 -50q-71 0 -123 50t-52 121t51 121q49 48 124 48t124 -48q51 -50 51 -121zM478 855q0 43 -30 73t-73 30t-73 -30t-30 -73t30 -73t73 -30t73 30t30 73zM660 299q0 -84 -17 -141q-18 -59 -59 -100q-40 -38 -90 -56q-51 -18 -120 -18
q-67 0 -122 19q-49 17 -87 55q-40 40 -58 98t-18 143v445h99v-450q0 -65 8 -96q9 -36 28 -63q22 -32 60 -49q36 -16 90 -16q56 0 92 16q38 17 60 49q17 25 27 65q9 36 9 92v452h98v-445z" />
    <glyph glyph-name="uring" unicode="&#x16f;" horiz-adv-x="648" 
d="M500 815q0 -72 -50 -121q-52 -50 -124 -50t-124 50t-52 121t52 121q49 48 124 48t124 -48q50 -49 50 -121zM428 815q0 44 -29 73q-30 30 -73 30q-44 0 -74 -30q-29 -29 -29 -73t29 -73q30 -30 74 -30q43 0 73 30q29 29 29 73zM556 0h-94v62q-50 -39 -92 -58
q-45 -20 -96 -20q-86 0 -136 54q-50 55 -50 158v362h94v-318q0 -45 4 -72q5 -31 18 -52t34 -32q20 -10 63 -10q38 0 80 19q45 20 81 49v416h94v-558z" />
    <glyph glyph-name="Uhungarumlaut" unicode="&#x170;" horiz-adv-x="749" 
d="M632 1024l-130 -186h-69l85 186h114zM430 1024l-130 -186h-69l85 186h114zM660 299q0 -84 -17 -141q-18 -59 -59 -100q-40 -38 -90 -56q-51 -18 -120 -18q-67 0 -122 19q-49 17 -87 55q-40 40 -58 98t-18 143v445h99v-450q0 -65 8 -96q9 -36 28 -63q22 -32 60 -49
q36 -16 90 -16q56 0 92 16q38 17 60 49q17 25 27 65q9 36 9 92v452h98v-445z" />
    <glyph glyph-name="uhungarumlaut" unicode="&#x171;" horiz-adv-x="648" 
d="M576 838l-128 -187h-70l84 187h114zM374 838l-128 -187h-70l84 187h114zM556 0h-94v62q-50 -39 -92 -58q-45 -20 -96 -20q-86 0 -136 54q-50 55 -50 158v362h94v-318q0 -45 4 -72q5 -31 18 -52t34 -32q20 -10 63 -10q38 0 80 19q45 20 81 49v416h94v-558z" />
    <glyph glyph-name="Uogonek" unicode="&#x172;" horiz-adv-x="749" 
d="M394 -58q0 17 1 23q3 17 4 21q-1 0 -5 -0.5t-6 -0.5h-14q-70 0 -122 18q-49 17 -87 55q-40 40 -58 98t-18 143v445h99v-450q0 -65 8 -96q9 -36 28 -63q22 -32 60 -49q36 -16 90 -16q56 0 92 16q38 17 60 49q17 25 27 65q9 36 9 92v452h98v-445q0 -84 -17 -141
q-18 -59 -59 -100q-21 -21 -48 -37t-56 -23q0 -2 -1.5 -10.5t-2.5 -14.5q-1 -10 -1 -27q0 -40 21 -60q22 -20 66 -20q14 0 38 7q14 4 28 11h4v-80q-21 -6 -44 -10q-12 -2 -40 -2q-70 0 -112 39t-42 111z" />
    <glyph glyph-name="uogonek" unicode="&#x173;" horiz-adv-x="645" 
d="M462 0v62q-50 -39 -92 -58q-45 -20 -96 -20q-86 0 -136 54q-50 55 -50 158v362h94v-318q0 -45 4 -72q5 -31 18 -52t34 -32q20 -10 63 -10q38 0 80 19q45 20 81 49v416h94v-558h-16q-2 -9 -4 -27t-2 -27q0 -40 21 -60q22 -20 65 -20q14 0 39 7q16 5 29 11h4v-80
q-20 -6 -45 -10q-12 -2 -40 -2q-71 0 -112 40q-42 40 -42 110q0 19 3 31t6 27z" />
    <glyph glyph-name="Wcircumflex" unicode="&#x174;" horiz-adv-x="1012" 
d="M677 835h-79l-93 128l-92 -128h-77l114 189h113zM966 744l-193 -744h-111l-157 618l-153 -618h-109l-197 744h102l156 -618l154 618h100l156 -624l156 624h96z" />
    <glyph glyph-name="wcircumflex" unicode="&#x175;" horiz-adv-x="838" 
d="M590 648h-80l-92 128l-92 -128h-78l114 190h114zM795 558l-145 -558h-88l-143 430l-143 -430h-86l-147 558h98l103 -432l139 432h77l144 -432l96 432h95z" />
    <glyph glyph-name="Ycircumflex" unicode="&#x176;" horiz-adv-x="630" 
d="M488 835h-80l-92 128l-92 -128h-78l114 189h114zM627 744l-262 -418v-326h-99v316l-263 428h109l204 -332l206 332h105z" />
    <glyph glyph-name="ycircumflex" unicode="&#x177;" horiz-adv-x="606" 
d="M479 648h-79l-93 128l-92 -128h-77l114 190h113zM576 558l-326 -764h-101l104 233l-223 531h102l172 -414l173 414h99z" />
    <glyph glyph-name="Ydieresis" unicode="&#x178;" horiz-adv-x="763" 
d="M423 418v-418h-80v418l-359 367h109l290 -307l290 307h110zM503 879v-92h-86v92h86zM349 879v-92h-86v92h86z" />
    <glyph glyph-name="Zacute" unicode="&#x179;" horiz-adv-x="590" 
d="M476 713h-445v80h553v-59l-474 -652h445v-80h-553v55v4zM528 998h-124l-129 -168h31h45z" />
    <glyph glyph-name="zacute" unicode="&#x17a;" horiz-adv-x="502" 
d="M392 493h-368v80h483v-56v-5l-397 -432h368v-80h-483v56v5zM485 770h-124l-129 -168h31h45z" />
    <glyph glyph-name="Zdotaccent" unicode="&#x17b;" horiz-adv-x="590" 
d="M476 713h-445v80h553v-59l-474 -652h445v-80h-553v55v4zM279 948h109v-115h-109v115z" />
    <glyph glyph-name="zdotaccent" unicode="&#x17c;" horiz-adv-x="502" 
d="M392 493h-368v80h483v-56v-5l-397 -432h368v-80h-483v56v5zM241 717h109v-115h-109v115z" />
    <glyph glyph-name="Zcaron" unicode="&#x17d;" horiz-adv-x="590" 
d="M322 840h19l106 58l-40 70l-77 -43l-78 43l-38 -70l104 -58h4zM476 713h-445v80h553v-59l-474 -652h445v-80h-553v55v4z" />
    <glyph glyph-name="zcaron" unicode="&#x17e;" horiz-adv-x="502" 
d="M280 618h19l106 58l-40 70l-77 -43l-78 43l-38 -70l104 -58h4zM392 493h-368v80h483v-56v-5l-397 -432h368v-80h-483v56v5z" />
    <glyph glyph-name="longs" unicode="&#x17f;" horiz-adv-x="307" 
d="M388 687h-5q-14 4 -41 9q-28 5 -44 5q-60 0 -86 -27q-26 -28 -26 -96v-578h-94v577q0 96 49 151t144 55q31 0 57 -3q30 -3 46 -7v-86z" />
    <glyph glyph-name="circumflex" unicode="&#x2c6;" horiz-adv-x="294" 
d="M113 756h38h8l161 -158h-110l-74 61l-75 -61l-113 -2z" />
    <glyph glyph-name="caron" unicode="&#x2c7;" horiz-adv-x="294" 
d="M113 596h38h8l161 158h-110l-74 -61l-75 61l-113 2z" />
    <glyph glyph-name="uni02C9" unicode="&#x2c9;" horiz-adv-x="234" 
d="M199 796v-80h-193v80h193z" />
    <glyph glyph-name="uni02CA" unicode="&#x2ca;" horiz-adv-x="355" 
d="M264 766h-124l-129 -168h31h45z" />
    <glyph glyph-name="uni02CB" unicode="&#x2cb;" horiz-adv-x="355" 
d="M11 766h124l129 -168h-30h-45z" />
    <glyph glyph-name="breve" unicode="&#x2d8;" horiz-adv-x="475" 
d="M359 715h80v-15q0 -48 -37 -86q-60 -58 -178.5 -58t-177.5 58q-38 38 -38 86v15h80v-15q0 -15 15 -28q14 -16 46 -26q34 -10 74.5 -10t74.5 10q32 10 46 26q15 13 15 28v15z" />
    <glyph glyph-name="dotaccent" unicode="&#x2d9;" horiz-adv-x="211" 
d="M34 766h109v-115h-109v115z" />
    <glyph glyph-name="ring" unicode="&#x2da;" horiz-adv-x="303" 
d="M136 717q-20 0 -33.5 -10.5t-13.5 -25.5t13.5 -25.5t33.5 -10.5t33.5 10.5t13.5 25.5t-13.5 25.5t-33.5 10.5zM136 565q-51 0 -89 33t-38 83t38 83t89 33t89 -33t38 -83t-38 -83t-89 -33z" />
    <glyph glyph-name="ogonek" unicode="&#x2db;" horiz-adv-x="298" 
d="M100 -12q-5 -16 -5 -38.5t10 -31.5q7 -8 28 -8h4q28 1 31 16l4 12l77 -6l-1 -15q-2 -31 -27 -56q-32 -31 -86.5 -31t-86.5 31q-33 33 -33 91q0 31 9 59l4 15l77 -23z" />
    <glyph glyph-name="tilde" unicode="&#x2dc;" horiz-adv-x="475" 
d="M141 787q51 0 86 -30q22 -19 46 -65q14 -27 22 -36q3 -3 8 -3q25 0 40 14q17 17 26 61q2 8 2 11v21l81 -4l-1 -15q-1 -24 -10 -54q-13 -48 -41 -77q-38 -37 -96 -37q-44 0 -75 26q-19 17 -38.5 55t-27.5 45.5t-22 7.5q-22 0 -37 -14q-14 -14 -24 -44q-6 -21 -7 -37
l-1 -15l-80 6l1 15q2 26 12 55q15 49 43 78q37 36 93 36z" />
    <glyph glyph-name="hungarumlaut" unicode="&#x2dd;" horiz-adv-x="445" 
d="M222 628l114 108h-34l-83 -108h3zM82 628l114 108h-34l-83 -108h3z" />
    <glyph glyph-name="uni037E" unicode="&#x37e;" horiz-adv-x="465" 
d="M292 416h-119v142h119v-142zM329 142l-141 -327h-73l87 327h127z" />
    <glyph glyph-name="tonos" unicode="&#x384;" horiz-adv-x="651" 
d="M386 838l-24 -192h-72l-25 192h121z" />
    <glyph glyph-name="dieresistonos" unicode="&#x385;" horiz-adv-x="651" 
d="M382 838l-24 -192h-64l-24 192h112zM524 652h-96v98h96v-98zM224 652h-96v98h96v-98z" />
    <glyph glyph-name="Alphatonos" unicode="&#x386;" horiz-adv-x="700" 
d="M125 744l-25 -192h-72l-24 192h121zM687 0h-105l-74 208h-322l-72 -208h-101l271 744h132zM478 292l-130 366l-132 -366h262z" />
    <glyph glyph-name="anoteleia" unicode="&#x387;" horiz-adv-x="465" 
d="M292 416h-119v142h119v-142z" />
    <glyph glyph-name="Epsilontonos" unicode="&#x388;" horiz-adv-x="769" 
d="M122 744l-25 -192h-73l-24 192h122zM712 0h-490v744h490v-88h-392v-204h392v-88h-392v-276h392v-88z" />
    <glyph glyph-name="Etatonos" unicode="&#x389;" horiz-adv-x="891" 
d="M122 744l-25 -192h-73l-24 192h122zM791 0h-99v364h-372v-364h-98v744h98v-292h372v292h99v-744z" />
    <glyph glyph-name="Iotatonos" unicode="&#x38a;" horiz-adv-x="552" 
d="M122 744l-25 -192h-73l-24 192h122zM484 0h-294v76h98v592h-98v76h294v-76h-98v-592h98v-76z" />
    <glyph glyph-name="Omicrontonos" unicode="&#x38c;" horiz-adv-x="902" 
d="M122 744l-25 -192h-73l-24 192h122zM750 659q46 -50 70 -122.5t24 -164.5t-24 -165q-26 -73 -70 -121q-46 -50 -108 -76q-64 -26 -144 -26q-78 0 -142 26t-110 76q-45 50 -69 122t-24 164q0 91 24 163.5t70 123.5q44 49 109.5 75t141.5 26q80 0 144 -26.5t108 -74.5z
M742 372q0 145 -65 223.5t-178 78.5q-114 0 -178.5 -78.5t-64.5 -223.5q0 -146 66 -224t177 -78t177 78t66 224z" />
    <glyph glyph-name="Upsilontonos" unicode="&#x38e;" horiz-adv-x="771" 
d="M122 744l-25 -192h-73l-24 192h122zM768 744l-262 -418v-326h-98v316l-264 428h110l204 -332l205 332h105z" />
    <glyph glyph-name="Omegatonos" unicode="&#x38f;" horiz-adv-x="929" 
d="M122 744l-25 -192h-73l-24 192h122zM876 0h-288v194q30 19 59.5 40.5t51.5 50.5q22 30 35.5 69.5t13.5 92.5q0 103 -64 165t-174 62t-173 -62t-63 -165q0 -53 13 -93t35 -69q22 -28 52 -50.5t60 -40.5v-194h-288v87h204v62q-78 45 -129 123t-51 175q0 138 94 225.5
t246 87.5t246 -87.5t94 -225.5q0 -97 -50 -175q-52 -78 -130 -123v-62h206v-87z" />
    <glyph glyph-name="iotadieresistonos" unicode="&#x390;" horiz-adv-x="281" 
d="M188 0h-94v558h94v-558zM190 838l-28 -192h-42l-28 192h98zM308 652h-86v98h86v-98zM59 652h-85v98h85v-98z" />
    <glyph glyph-name="Alpha" unicode="&#x391;" horiz-adv-x="700" 
d="M687 0h-105l-74 208h-322l-72 -208h-101l271 744h132zM478 292l-130 366l-132 -366h262z" />
    <glyph glyph-name="Beta" unicode="&#x392;" horiz-adv-x="702" 
d="M662 229q0 -56 -21 -98.5t-57 -69.5q-42 -33 -92 -47t-128 -14h-264v744h220q82 0 122.5 -6t77.5 -24q41 -22 59.5 -56t18.5 -80q0 -53 -27 -90.5t-72 -59.5v-4q76 -16 119.5 -66.5t43.5 -128.5zM495 564q0 27 -9 45.5t-29 30.5q-24 14 -57.5 17t-82.5 3h-118v-215h128
q46 0 73.5 4.5t51.5 20.5q24 15 33.5 38.5t9.5 55.5zM558 225q0 45 -13 71q-13 28 -49 46q-24 12 -58 16t-84 4h-155v-278h131q65 0 106.5 7t67.5 25q28 20 41 44.5t13 64.5z" />
    <glyph glyph-name="Gamma" unicode="&#x393;" horiz-adv-x="580" 
d="M581 656h-382v-656h-99v744h481v-88z" />
    <glyph glyph-name="uni0394" unicode="&#x394;" horiz-adv-x="720" 
d="M707 0h-694l281 744h132zM574 84l-216 574l-216 -574h432z" />
    <glyph glyph-name="Epsilon" unicode="&#x395;" horiz-adv-x="647" 
d="M590 0h-490v744h490v-88h-391v-204h391v-88h-391v-276h391v-88z" />
    <glyph glyph-name="Zeta" unicode="&#x396;" horiz-adv-x="701" 
d="M644 0h-581v92l457 564h-440v88h553v-89l-461 -567h472v-88z" />
    <glyph glyph-name="Eta" unicode="&#x397;" horiz-adv-x="769" 
d="M670 0h-100v364h-371v-364h-99v744h99v-292h371v292h100v-744z" />
    <glyph glyph-name="Theta" unicode="&#x398;" horiz-adv-x="806" 
d="M655 659q46 -50 70 -122.5t24 -164.5t-24.5 -165t-69.5 -121q-46 -50 -108.5 -76t-143.5 -26q-78 0 -142.5 26t-109.5 76t-69 122t-24 164q0 91 24 163.5t70 123.5q44 49 109 75t142 26q80 0 144 -26.5t108 -74.5zM646 372q0 145 -65 223.5t-177 78.5q-114 0 -179 -78.5
t-65 -223.5q0 -146 66 -224t178 -78q111 0 176.5 78t65.5 224zM560 356h-314v90h314v-90z" />
    <glyph glyph-name="Iota" unicode="&#x399;" horiz-adv-x="431" 
d="M362 0h-294v76h98v592h-98v76h294v-76h-97v-592h97v-76z" />
    <glyph glyph-name="Kappa" unicode="&#x39a;" horiz-adv-x="709" 
d="M698 0h-128l-294 332l-74 -80v-252h-100v744h100v-388l361 388h120l-333 -350z" />
    <glyph glyph-name="Lambda" unicode="&#x39b;" horiz-adv-x="702" 
d="M689 0h-107l-234 642l-234 -642h-101l278 744h120z" />
    <glyph glyph-name="Mu" unicode="&#x39c;" horiz-adv-x="863" 
d="M763 0h-99v642l-207 -437h-59l-206 437v-642h-92v744h135l199 -414l192 414h137v-744z" />
    <glyph glyph-name="Nu" unicode="&#x39d;" horiz-adv-x="766" 
d="M668 0h-122l-354 666v-666h-92v744h154l322 -608v608h92v-744z" />
    <glyph glyph-name="Xi" unicode="&#x39e;" horiz-adv-x="664" 
d="M608 656h-551v88h551v-88zM582 364h-499v88h499v-88zM608 0h-551v88h551v-88z" />
    <glyph glyph-name="Omicron" unicode="&#x39f;" horiz-adv-x="806" 
d="M655 659q46 -50 70 -122.5t24 -164.5t-24.5 -165t-69.5 -121q-46 -50 -108.5 -76t-143.5 -26q-78 0 -142.5 26t-109.5 76t-69 122t-24 164q0 91 24 163.5t70 123.5q44 49 109 75t142 26q80 0 144 -26.5t108 -74.5zM646 372q0 145 -65 223.5t-177 78.5q-114 0 -179 -78.5
t-65 -223.5q0 -146 66 -224t178 -78q111 0 176.5 78t65.5 224z" />
    <glyph glyph-name="Pi" unicode="&#x3a0;" horiz-adv-x="769" 
d="M670 0h-100v656h-371v-656h-99v744h570v-744z" />
    <glyph glyph-name="Rho" unicode="&#x3a1;" horiz-adv-x="617" 
d="M587 520q0 -50 -17.5 -92t-47.5 -74q-38 -38 -91 -57t-133 -19h-99v-278h-99v744h202q67 0 113.5 -11t82.5 -35q42 -28 65.5 -70.5t23.5 -107.5zM484 517q0 38 -14 67q-12 28 -40 46q-24 16 -55 23t-78 7h-98v-298h83q60 0 98 11t61 34q24 24 33.5 50.5t9.5 59.5z" />
    <glyph glyph-name="Sigma" unicode="&#x3a3;" horiz-adv-x="688" 
d="M640 0h-581v92l310 300l-300 263v89h548v-88h-416l293 -252v-14l-315 -302h461v-88z" />
    <glyph glyph-name="Tau" unicode="&#x3a4;" horiz-adv-x="631" 
d="M631 656h-266v-656h-99v656h-266v88h631v-88z" />
    <glyph glyph-name="Upsilon" unicode="&#x3a5;" horiz-adv-x="630" 
d="M627 744l-262 -418v-326h-99v316l-263 428h109l204 -332l206 332h105z" />
    <glyph glyph-name="Phi" unicode="&#x3a6;" horiz-adv-x="838" 
d="M786 378q0 -70 -22 -124q-22 -56 -62 -92q-42 -40 -103 -63t-131 -24v-83h-98v83q-67 2 -128.5 24.5t-105.5 62.5q-40 37 -62 91.5t-22 124.5q0 68 22 119t60 89q40 40 101 63.5t135 25.5v77h98v-77q74 -2 136 -26.5t101 -62.5q38 -36 59.5 -88t21.5 -120zM683 382
q0 50 -16 91q-15 41 -45 69q-29 28 -64.5 41t-89.5 15v-446q47 1 85.5 15.5t64.5 38.5q32 30 48.5 73.5t16.5 102.5zM370 152v446q-53 0 -88.5 -14t-64.5 -42t-45 -70t-16 -90q0 -56 16.5 -102t48.5 -74q24 -22 63 -38t86 -16z" />
    <glyph glyph-name="Chi" unicode="&#x3a7;" horiz-adv-x="701" 
d="M668 744l-257 -368l257 -376h-115l-203 306l-208 -306h-108l260 372l-254 372h114l200 -302l206 302h108z" />
    <glyph glyph-name="Psi" unicode="&#x3a8;" horiz-adv-x="891" 
d="M802 455q0 -78 -20 -132q-20 -53 -59 -87q-40 -34 -96.5 -52t-131.5 -23v-161h-99v161q-77 6 -133.5 23.5t-93.5 51.5q-39 34 -59 87.5t-20 131.5v289h98v-300q0 -54 15 -90t41 -58t65 -34t87 -16v498h99v-498q48 4 87.5 15.5t65.5 34.5q28 24 42 58q13 34 13 90v300h99
v-289z" />
    <glyph glyph-name="uni03A9" unicode="&#x3a9;" horiz-adv-x="838" 
d="M784 0h-288v194q30 19 60 40.5t52 50.5q22 30 35 69.5t13 92.5q0 103 -63.5 165t-173.5 62t-173.5 -62t-63.5 -165q0 -53 13 -93t35 -69q22 -28 52 -50.5t60 -40.5v-194h-288v87h205v62q-78 45 -129 123t-51 175q0 138 93.5 225.5t246.5 87.5q152 0 246 -87.5t94 -225.5
q0 -97 -50.5 -175t-129.5 -123v-62h205v-87z" />
    <glyph glyph-name="Iotadieresis" unicode="&#x3aa;" horiz-adv-x="431" 
d="M369 838h-99v98h99v-98zM162 838h-99v98h99v-98zM362 0h-294v76h98v592h-98v76h294v-76h-97v-592h97v-76z" />
    <glyph glyph-name="Upsilondieresis" unicode="&#x3ab;" horiz-adv-x="630" 
d="M470 838h-100v98h100v-98zM263 838h-99v98h99v-98zM627 744l-262 -418v-326h-99v316l-263 428h109l204 -332l206 332h105z" />
    <glyph glyph-name="alphatonos" unicode="&#x3ac;" horiz-adv-x="638" 
d="M372 838l-25 -192h-73l-24 192h122zM546 0h-94v58q-40 -35 -84 -54q-44 -20 -96 -20q-100 0 -159 77t-59 214q0 71 20 126.5t55 94.5q34 38 79.5 58t93.5 20q44 0 78 -11t72 -31v26h94v-558zM452 138v318q-38 17 -68 24.5t-66 7.5q-79 0 -123 -55t-44 -156
q0 -100 34 -151.5t109 -51.5q40 0 81 18t77 46z" />
    <glyph glyph-name="epsilontonos" unicode="&#x3ad;" horiz-adv-x="525" 
d="M360 838l-24 -192h-72l-25 192h121zM503 32q-54 -24 -105.5 -34.5t-108.5 -10.5q-40 0 -80.5 8t-76.5 28q-34 20 -56 51.5t-22 78.5q0 48 28 84q30 36 90 55v4q-46 12 -73 45t-27 79q0 44 24 73t56 47q32 16 72 24t80 8q49 0 90.5 -8t85.5 -22v-104h-6q-33 26 -81.5 40
t-98.5 14q-22 0 -42 -3t-41 -13q-18 -8 -30.5 -24.5t-12.5 -38.5q0 -30 14 -47.5t38 -24.5q22 -7 48 -8t53 -1h55v-82h-78q-31 0 -56 -2q-26 -4 -46 -12t-33 -26t-13 -48q0 -26 13 -45t34 -29q18 -10 43.5 -15t53.5 -5q51 0 109 18q57 18 93 49h7v-103z" />
    <glyph glyph-name="etatonos" unicode="&#x3ae;" horiz-adv-x="648" 
d="M401 838l-25 -192h-72l-24 192h121zM560 -206h-94v524q0 38 -5 72t-17 53q-12 21 -36 31q-22 10 -60 10t-80 -19q-44 -19 -82 -48v-417h-94v558h94v-62q44 36 91 57t97 21q90 0 138 -54q48 -56 48 -158v-568z" />
    <glyph glyph-name="iotatonos" unicode="&#x3af;" horiz-adv-x="281" 
d="M202 838l-25 -192h-73l-24 192h122zM188 0h-94v558h94v-558z" />
    <glyph glyph-name="upsilondieresistonos" unicode="&#x3b0;" horiz-adv-x="646" 
d="M380 838l-24 -192h-64l-25 192h113zM522 652h-96v98h96v-98zM221 652h-95v98h95v-98zM558 204q0 -109 -61 -164t-174 -55q-112 0 -173.5 53.5t-61.5 165.5v354h94v-320q0 -46 5 -76t21 -54q16 -22 43 -32t73 -10q43 0 71.5 11t43.5 33q14 22 19.5 52.5t5.5 75.5v320h94
v-354z" />
    <glyph glyph-name="alpha" unicode="&#x3b1;" horiz-adv-x="638" 
d="M546 0h-94v58q-40 -35 -84 -54q-44 -20 -96 -20q-100 0 -159 77t-59 214q0 71 20 126.5t55 94.5q34 38 79.5 58t93.5 20q44 0 78 -11t72 -31v26h94v-558zM452 138v318q-38 17 -68 24.5t-66 7.5q-79 0 -123 -55t-44 -156q0 -100 34 -151.5t109 -51.5q40 0 81 18t77 46z
" />
    <glyph glyph-name="beta" unicode="&#x3b2;" horiz-adv-x="635" 
d="M582 222q0 -101 -67 -167t-169 -66q-40 0 -84 11t-76 32v-238h-94v745q0 112 64 175q62 64 174 64q45 0 82.5 -11t67.5 -33q28 -22 45 -56t17 -80q0 -64 -35 -111t-98 -66v-9q80 -13 126.5 -62.5t46.5 -127.5zM486 224q0 44 -17.5 72t-46.5 44q-30 16 -66 21.5t-73 5.5
h-18v80h18q33 0 65 7q32 8 52 22q23 17 34.5 41.5t11.5 67.5q0 56 -34 85q-36 29 -90 29q-36 0 -62 -13.5t-42 -35.5t-24 -51t-8 -60v-431q33 -19 70.5 -26.5t73.5 -7.5q74 0 115 39t41 111z" />
    <glyph glyph-name="gamma" unicode="&#x3b3;" horiz-adv-x="606" 
d="M576 558l-229 -530v-234h-94v234l-223 530h102l172 -414l173 414h99z" />
    <glyph glyph-name="delta" unicode="&#x3b4;" horiz-adv-x="622" 
d="M570 276q0 -136 -69.5 -214t-188.5 -78q-120 0 -189.5 76t-69.5 207q0 70 21.5 119.5t53.5 81.5q34 36 79 56q45 22 91 30q-38 32 -83 65t-95 69v90h404v-79h-280v-5q34 -23 90 -62t102 -81q75 -68 104.5 -130.5t29.5 -144.5zM472 276q0 68 -27 124.5t-83 99.5
q-33 -4 -69 -16t-69 -38q-32 -25 -53 -68.5t-21 -107.5q0 -100 42.5 -152t120.5 -52q76 0 117.5 53t41.5 157z" />
    <glyph glyph-name="epsilon" unicode="&#x3b5;" horiz-adv-x="525" 
d="M503 32q-54 -24 -105.5 -34.5t-108.5 -10.5q-40 0 -80.5 8t-76.5 28q-34 20 -56 51.5t-22 78.5q0 48 28 84q30 36 90 55v4q-46 12 -73 45t-27 79q0 44 24 73t56 47q32 16 72 24t80 8q49 0 90.5 -8t85.5 -22v-104h-6q-33 26 -81.5 40t-98.5 14q-22 0 -42 -3t-41 -13
q-18 -8 -30.5 -24.5t-12.5 -38.5q0 -30 14 -47.5t38 -24.5q22 -7 48 -8t53 -1h55v-82h-78q-31 0 -56 -2q-26 -4 -46 -12t-33 -26t-13 -48q0 -26 13 -45t34 -29q18 -10 43.5 -15t53.5 -5q51 0 109 18q57 18 93 49h7v-103z" />
    <glyph glyph-name="zeta" unicode="&#x3b6;" horiz-adv-x="468" 
d="M461 38q16 -20 23 -43t7 -43q0 -42 -22.5 -84t-56.5 -74h-89v7q45 40 64 69.5t19 63.5q0 28 -15 47.5t-39 19.5h-72q-114 0 -170 58q-56 59 -56 173q0 70 23 134t62 123q38 56 87 107.5t103 97.5v5h-230v79h372v-68q-58 -39 -115.5 -90.5t-102.5 -111.5
q-44 -58 -72.5 -128t-28.5 -142q0 -17 1 -34.5t7 -37.5q5 -19 17.5 -38t32.5 -31q18 -11 48 -12t58 -1h43q36 0 61 -13t41 -33z" />
    <glyph glyph-name="eta" unicode="&#x3b7;" horiz-adv-x="648" 
d="M560 -206h-94v524q0 38 -5 72t-17 53q-12 21 -36 31q-22 10 -60 10t-80 -19q-44 -19 -82 -48v-417h-94v558h94v-62q44 36 91 57t97 21q90 0 138 -54q48 -56 48 -158v-568z" />
    <glyph glyph-name="theta" unicode="&#x3b8;" horiz-adv-x="639" 
d="M570 384q0 -95 -11 -158.5t-29 -105.5q-29 -68 -81.5 -102t-128.5 -34t-129 34t-81 102q-18 42 -30 105.5t-12 158.5q0 87 11.5 152.5t30.5 107.5q28 65 81 99.5t129 34.5t128 -34.5t81 -99.5q18 -42 29.5 -107.5t11.5 -152.5zM476 429q-2 72 -14 125.5t-28 79.5
q-20 35 -48 50q-26 14 -66 14t-67 -14t-47 -50q-17 -28 -29 -81t-14 -124h313zM476 348h-313q0 -71 11.5 -129t29.5 -89q20 -34 48 -50t68 -16t67.5 16t47.5 50q18 31 29.5 89t11.5 129z" />
    <glyph glyph-name="iota" unicode="&#x3b9;" horiz-adv-x="281" 
d="M188 0h-94v558h94v-558z" />
    <glyph glyph-name="kappa" unicode="&#x3ba;" horiz-adv-x="606" 
d="M596 0h-124l-226 244l-56 -54v-190h-94v558h94v-274l192 208q36 40 68 54t64 14q14 0 29 -1t18 -1v-82h-5q-8 1 -20 1.5t-18 0.5q-24 0 -43 -12t-34 -28l-125 -136z" />
    <glyph glyph-name="lambda" unicode="&#x3bb;" horiz-adv-x="606" 
d="M576 0h-103l-164 414l-181 -414h-98l233 528l-107 250h105z" />
    <glyph glyph-name="uni03BC" unicode="&#x3bc;" horiz-adv-x="655" 
d="M562 0h-92v59q-37 -39 -71 -54t-73 -15q-38 0 -68 13t-72 53v-262h-94v764h94v-418q16 -20 56 -40.5t85 -20.5q46 0 80.5 16.5t60.5 46.5v416h94v-558z" />
    <glyph glyph-name="nu" unicode="&#x3bd;" horiz-adv-x="606" 
d="M576 558l-226 -558h-95l-225 558h102l174 -444l171 444h99z" />
    <glyph glyph-name="xi" unicode="&#x3be;" horiz-adv-x="515" 
d="M520 -48q0 -42 -22.5 -84t-55.5 -74h-90v7q46 40 65 69.5t19 63.5q0 28 -15 47.5t-37 19.5h-70q-70 0 -116 13q-46 14 -78 42q-33 30 -50.5 68t-17.5 82q0 39 12 72q13 34 37 60q22 24 56.5 41t72.5 27v6q-62 14 -100 55t-38 93q0 42 22 75.5t66 62.5v3h-114v77h412v-79
h-128q-34 0 -61 -7.5t-51 -23.5q-22 -16 -36 -42t-14 -59q0 -40 16 -65q16 -24 42 -36q22 -12 52 -17.5t70 -5.5h85v-83h-147q-33 0 -59.5 -10t-50.5 -29q-22 -18 -34 -44.5t-12 -56.5q0 -51 18.5 -79.5t50.5 -40.5t70 -14t83 -2h14q34 0 60 -12t42 -30t24 -42t8 -48z" />
    <glyph glyph-name="omicron" unicode="&#x3bf;" horiz-adv-x="621" 
d="M568 279q0 -136 -70 -215.5t-187 -79.5q-118 0 -188 79t-70 216q0 136 69.5 215.5t188.5 79.5q118 0 187.5 -79.5t69.5 -215.5zM472 279q0 108 -43 161t-118 53q-76 0 -118.5 -52.5t-42.5 -161.5q0 -105 42.5 -159t118.5 -54q75 0 118 53.5t43 159.5z" />
    <glyph glyph-name="pi" unicode="&#x3c0;" horiz-adv-x="652" 
d="M560 0h-94v478h-280v-478h-94v558h468v-558z" />
    <glyph glyph-name="rho" unicode="&#x3c1;" horiz-adv-x="640" 
d="M586 288q0 -129 -69 -214t-181 -85q-32 0 -73 9q-41 8 -77 30v-234h-94v529q0 62 18 108t51 79q31 31 78 47.5t97 16.5q122 0 186 -74t64 -212zM489 282q0 109 -40 160.5t-113 51.5q-79 0 -114.5 -48t-35.5 -140v-201q36 -17 66 -24t68 -7q81 0 125 55t44 153z" />
    <glyph glyph-name="sigma1" unicode="&#x3c2;" horiz-adv-x="520" 
d="M509 -48q0 -44 -23.5 -86t-54.5 -72h-89v7q43 38 62 68q20 29 20 65q0 27 -15 47t-37 20h-46q-58 0 -108 15q-50 14 -88 48q-36 33 -57 85.5t-21 124.5q0 135 78 216.5t208 81.5q42 0 82 -10q40 -8 73 -22v-106h-6q-47 31 -86 43.5t-73 12.5q-83 0 -130 -60
q-48 -60 -48 -156q0 -56 14 -91t40 -58q25 -22 57 -31q31 -10 69 -10h50q58 0 93.5 -38.5t35.5 -93.5z" />
    <glyph glyph-name="sigma" unicode="&#x3c3;" horiz-adv-x="645" 
d="M568 279q0 -140 -70 -217.5t-186 -77.5q-120 0 -189.5 79t-69.5 216q0 138 70.5 216.5t188.5 78.5q28 0 54 -6q28 -6 42 -10h240v-82h-144q31 -36 47.5 -84.5t16.5 -112.5zM472 279q0 108 -41 161.5t-119 53.5q-80 0 -121 -56t-41 -159q0 -104 42 -158.5t120 -54.5
q76 0 118 53.5t42 159.5z" />
    <glyph glyph-name="tau" unicode="&#x3c4;" horiz-adv-x="508" 
d="M503 476h-202v-476h-94v476h-202v82h498v-82z" />
    <glyph glyph-name="upsilon" unicode="&#x3c5;" horiz-adv-x="646" 
d="M558 204q0 -109 -61 -164t-174 -55q-112 0 -173.5 53.5t-61.5 165.5v354h94v-320q0 -46 5 -76t21 -54q16 -22 43 -32t73 -10q43 0 71.5 11t43.5 33q14 22 19.5 52.5t5.5 75.5v320h94v-354z" />
    <glyph glyph-name="phi" unicode="&#x3c6;" horiz-adv-x="809" 
d="M757 288q0 -130 -85.5 -209t-220.5 -86v-199h-93v199q-65 3 -120.5 23t-95.5 55q-42 37 -66 86t-24 116q0 80 30 149q30 68 96 136h114v-8q-68 -50 -105 -116t-37 -150q0 -94 56 -152t151 -60v500q16 1 35 1h38q152 0 239.5 -74.5t87.5 -210.5zM660 293q0 92 -56 146.5
t-153 54.5v-422q103 5 156 63t53 158z" />
    <glyph glyph-name="chi" unicode="&#x3c7;" horiz-adv-x="604" 
d="M580 -206h-106l-174 310l-174 -310h-102l222 385l-216 379h106l168 -300l169 300h101l-216 -375z" />
    <glyph glyph-name="psi" unicode="&#x3c8;" horiz-adv-x="841" 
d="M754 223q0 -57 -24 -99t-64 -68q-41 -28 -91 -42q-49 -14 -107 -16v-204h-94v204q-58 3 -108 16q-48 14 -90 42q-40 27 -64 68.5t-24 98.5v335h94v-306q0 -56 19 -90t45 -51q28 -19 61 -26.5t67 -9.5v483h94v-483q34 2 67 9.5t61 26.5q30 20 47 50.5t17 90.5v306h94v-335
z" />
    <glyph glyph-name="omega" unicode="&#x3c9;" horiz-adv-x="833" 
d="M776 252q0 -48 -12 -96q-10 -48 -36 -86q-28 -40 -67 -62.5t-97 -22.5q-48 0 -88 25q-42 24 -60 58h-2q-20 -34 -57 -58.5t-88 -24.5q-56 0 -97 23q-40 24 -66 62t-38 86t-12 96q0 85 29 154q29 68 101 152h114v-8q-68 -54 -108 -131t-40 -169q0 -33 4 -61q4 -27 20 -59
q13 -28 36 -46q22 -18 58 -18q26 0 44 6t28 14q11 9 18 20.5t10 18.5v292h93v-292q4 -8 11.5 -19.5t17.5 -19.5q12 -10 26 -15t44 -5q35 0 58 18q24 18 37 46q12 28 17.5 58t5.5 62q0 91 -39 168.5t-107 131.5v8h114q72 -84 100 -152.5t28 -153.5z" />
    <glyph glyph-name="iotadieresis" unicode="&#x3ca;" horiz-adv-x="281" 
d="M278 652h-94v98h94v-98zM97 652h-95v98h95v-98zM188 0h-94v558h94v-558z" />
    <glyph glyph-name="upsilondieresis" unicode="&#x3cb;" horiz-adv-x="646" 
d="M476 652h-99v98h99v-98zM270 652h-100v98h100v-98zM558 204q0 -109 -61 -164t-174 -55q-112 0 -173.5 53.5t-61.5 165.5v354h94v-320q0 -46 5 -76t21 -54q16 -22 43 -32t73 -10q43 0 71.5 11t43.5 33q14 22 19.5 52.5t5.5 75.5v320h94v-354z" />
    <glyph glyph-name="omicrontonos" unicode="&#x3cc;" horiz-adv-x="621" 
d="M372 838l-25 -192h-73l-24 192h122zM568 279q0 -136 -70 -215.5t-187 -79.5q-118 0 -188 79t-70 216q0 136 69.5 215.5t188.5 79.5q118 0 187.5 -79.5t69.5 -215.5zM472 279q0 108 -43 161t-118 53q-76 0 -118.5 -52.5t-42.5 -161.5q0 -105 42.5 -159t118.5 -54
q75 0 118 53.5t43 159.5z" />
    <glyph glyph-name="upsilontonos" unicode="&#x3cd;" horiz-adv-x="646" 
d="M384 838l-24 -192h-73l-25 192h122zM558 204q0 -109 -61 -164t-174 -55q-112 0 -173.5 53.5t-61.5 165.5v354h94v-320q0 -46 5 -76t21 -54q16 -22 43 -32t73 -10q43 0 71.5 11t43.5 33q14 22 19.5 52.5t5.5 75.5v320h94v-354z" />
    <glyph glyph-name="omegatonos" unicode="&#x3ce;" horiz-adv-x="833" 
d="M478 838l-25 -192h-73l-24 192h122zM776 252q0 -48 -12 -96q-10 -48 -36 -86q-28 -40 -67 -62.5t-97 -22.5q-48 0 -88 25q-42 24 -60 58h-2q-20 -34 -57 -58.5t-88 -24.5q-56 0 -97 23q-40 24 -66 62t-38 86t-12 96q0 85 29 154q29 68 101 152h114v-8q-68 -54 -108 -131
t-40 -169q0 -33 4 -61q4 -27 20 -59q13 -28 36 -46q22 -18 58 -18q26 0 44 6t28 14q11 9 18 20.5t10 18.5v292h93v-292q4 -8 11.5 -19.5t17.5 -19.5q12 -10 26 -15t44 -5q35 0 58 18q24 18 37 46q12 28 17.5 58t5.5 62q0 91 -39 168.5t-107 131.5v8h114q72 -84 100 -152.5
t28 -153.5z" />
    <glyph glyph-name="omega1" unicode="&#x3d6;" horiz-adv-x="724" 
d="M672 480h-100v-480h-94v480h-226v-480h-94v480h-102v78h616v-78z" />
    <glyph glyph-name="uni0401" unicode="&#x401;" horiz-adv-x="647" 
d="M519 838h-99v98h99v-98zM312 838h-99v98h99v-98zM590 0h-490v744h490v-88h-391v-204h391v-88h-391v-276h391v-88z" />
    <glyph glyph-name="uni0402" unicode="&#x402;" horiz-adv-x="811" 
d="M772 230q0 -54 -21 -98t-57 -74q-44 -34 -88 -46t-112 -12h-56v88h47q46 0 75.5 4t53.5 22q28 20 41 47.5t13 66.5q0 38 -12 66t-39 46q-25 17 -62 22t-103 5h-138v-367h-100v656h-214v88h564v-88h-250v-204h169q76 0 123.5 -9t90.5 -41q38 -30 56.5 -73.5t18.5 -98.5z
" />
    <glyph glyph-name="uni0403" unicode="&#x403;" horiz-adv-x="580" 
d="M508 1014l-136 -186h-75l89 186h122zM581 656h-382v-656h-99v744h481v-88z" />
    <glyph glyph-name="uni0404" unicode="&#x404;" horiz-adv-x="717" 
d="M668 32q-50 -20 -108 -33q-60 -13 -132 -13q-84 0 -152 26q-70 26 -118 76t-74 122t-26 163q0 88 26 159.5t75 122.5q48 49 116.5 76t152.5 27q70 0 132 -13q60 -13 108 -33v-111h-8q-39 32 -101 53q-63 20 -133 20q-54 0 -98 -14q-43 -14 -79 -44q-35 -30 -57 -73
t-30 -101h410v-86h-414q0 -70 22 -124t57 -89q37 -36 86 -54.5t105 -18.5q69 0 130.5 19t101.5 52h8v-109z" />
    <glyph glyph-name="uni0405" unicode="&#x405;" horiz-adv-x="700" 
d="M641 212q0 -44 -20.5 -86t-56.5 -72q-40 -32 -93 -50t-129 -18q-80 0 -144 15t-131 45v124h7q56 -47 130 -72.5t140 -25.5q92 0 143 34t51 92q0 50 -24 73.5t-74 36.5q-38 10 -81.5 16.5t-92.5 16.5q-99 21 -146.5 72t-47.5 132q0 94 79 153.5t200 59.5q78 0 143.5 -15
t116.5 -37v-117h-7q-42 36 -112 59q-70 24 -142 24q-80 0 -128 -33t-48 -85q0 -46 24 -72.5t85 -40.5q32 -7 91 -17t100 -20q83 -22 125 -67t42 -125z" />
    <glyph glyph-name="uni0406" unicode="&#x406;" horiz-adv-x="431" 
d="M362 0h-294v76h98v592h-98v76h294v-76h-97v-592h97v-76z" />
    <glyph glyph-name="uni0407" unicode="&#x407;" horiz-adv-x="431" 
d="M369 838h-99v98h99v-98zM162 838h-99v98h99v-98zM362 0h-294v76h98v592h-98v76h294v-76h-97v-592h97v-76z" />
    <glyph glyph-name="uni0408" unicode="&#x408;" horiz-adv-x="465" 
d="M373 194q0 -98 -59.5 -151t-160.5 -53q-24 0 -64 4t-67 10v92h6q20 -7 50 -14.5t62 -7.5q46 0 73 11t40 30q14 20 17.5 49t3.5 67v435h-158v78h257v-550z" />
    <glyph glyph-name="uni0409" unicode="&#x409;" horiz-adv-x="1145" 
d="M1002 228q0 38 -13 66t-39 46q-28 18 -64 22.5t-101 4.5h-138v-283h135q66 0 102 7t64 25q28 20 41 46t13 66zM1105 230q0 -54 -21.5 -98t-56.5 -71q-42 -33 -90 -47t-124 -14h-265v656h-264q-2 -56 -4 -110t-4 -97q-4 -107 -14 -176t-24 -113q-14 -45 -32 -72
q-18 -26 -42 -48t-49 -32t-59 -10q-10 0 -25.5 1t-21.5 1v96h7q5 0 12.5 -1t15.5 -1q18 0 34 6t26 17q36 36 53 117.5t23 231.5q2 49 5 130q3 80 5 148h457v-292h169q76 0 124 -8.5t90 -41.5q38 -30 56.5 -73.5t18.5 -98.5z" />
    <glyph glyph-name="uni040A" unicode="&#x40a;" horiz-adv-x="1129" 
d="M986 228q0 38 -12 66q-14 28 -40 46q-28 18 -64 22q-34 5 -100 5h-138v-283h135q66 0 102 7t63 25q28 20 41 46t13 66zM1090 230q0 -54 -22 -98q-20 -44 -56 -71q-42 -33 -90 -47t-124 -14h-266v367h-333v-367h-99v744h99v-292h333v292h100v-292h168q76 0 124 -8.5
t91 -41.5q38 -30 56.5 -73.5t18.5 -98.5z" />
    <glyph glyph-name="uni040B" unicode="&#x40b;" horiz-adv-x="837" 
d="M314 0h-100v656h-214v88h564v-88h-250v-233q48 16 109 28.5t113 12.5q50 0 92 -12q44 -14 74 -40t47 -66t17 -98v-248h-98v198q0 37 -6 72q-6 34 -20 56q-16 23 -46.5 35.5t-80.5 12.5q-53 0 -102 -9.5t-99 -26.5v-338z" />
    <glyph glyph-name="uni040C" unicode="&#x40c;" horiz-adv-x="709" 
d="M512 1014l-137 -186h-75l90 186h122zM698 0h-126l-303 340h-67v-340h-100v744h100v-334q26 0 48 5t42 17t39.5 33t34.5 53q6 14 15 34t18 42q34 83 80.5 116.5t136.5 33.5h40v-88h-42q-34 0 -54 -6t-35 -21q-14 -13 -25 -35q-10 -22 -22 -52q-26 -66 -53 -97t-72 -53z
" />
    <glyph glyph-name="uni040D" unicode="&#x40d;" horiz-adv-x="768" 
d="M456 838h-74l-137 186h121zM668 0h-98v596l-370 -596h-100v744h98v-587l366 587h104v-744z" />
    <glyph glyph-name="uni040E" unicode="&#x40e;" horiz-adv-x="630" 
d="M627 744l-283 -626q-17 -38 -40 -62q-24 -24 -50 -38q-26 -12 -50 -17q-26 -5 -48 -5q-20 0 -48 2t-36 3v93h6q8 -1 26 -4q18 -2 40 -2q10 0 28 2q18 0 32 6q16 6 31.5 19t26.5 39l18 39l-277 551h109l218 -438l195 438h102zM508 968q-2 -83 -52 -125.5t-134 -42.5
t-134 42q-52 42 -54 126h92q1 -56 24.5 -81t71.5 -25t71 24q23 26 25 82h90z" />
    <glyph glyph-name="uni040F" unicode="&#x40f;" horiz-adv-x="769" 
d="M338 0h-238v744h99v-658h371v658h100v-744h-238v-168h-94v168z" />
    <glyph glyph-name="uni0410" unicode="&#x410;" horiz-adv-x="700" 
d="M687 0h-105l-74 208h-322l-72 -208h-101l271 744h132zM478 292l-130 366l-132 -366h262z" />
    <glyph glyph-name="uni0411" unicode="&#x411;" horiz-adv-x="702" 
d="M662 230q0 -54 -21 -98t-57 -71q-42 -33 -90 -47t-124 -14h-270v744h498v-88h-399v-204h174q76 0 124 -8q49 -9 91 -42q38 -30 56 -73.5t18 -98.5zM558 228q0 38 -12 66t-39 46q-28 18 -63.5 22.5t-101.5 4.5h-143v-283h141q66 0 102 7t62 25q28 20 41 46t13 66z" />
    <glyph glyph-name="uni0412" unicode="&#x412;" horiz-adv-x="702" 
d="M662 229q0 -56 -21 -98.5t-57 -69.5q-42 -33 -92 -47t-128 -14h-264v744h220q82 0 122.5 -6t77.5 -24q41 -22 59.5 -56t18.5 -80q0 -53 -27 -90.5t-72 -59.5v-4q76 -16 119.5 -66.5t43.5 -128.5zM495 564q0 27 -9 45.5t-29 30.5q-24 14 -57.5 17t-82.5 3h-118v-215h128
q46 0 73.5 4.5t51.5 20.5q24 15 33.5 38.5t9.5 55.5zM558 225q0 45 -13 71q-13 28 -49 46q-24 12 -58 16t-84 4h-155v-278h131q65 0 106.5 7t67.5 25q28 20 41 44.5t13 64.5z" />
    <glyph glyph-name="uni0413" unicode="&#x413;" horiz-adv-x="580" 
d="M581 656h-382v-656h-99v744h481v-88z" />
    <glyph glyph-name="uni0414" unicode="&#x414;" horiz-adv-x="763" 
d="M719 -168h-94v170h-526v-170h-94v256h60q65 107 104 279.5t39 376.5h440v-656h71v-256zM550 88v570h-250q-7 -178 -43.5 -326t-96.5 -244h390z" />
    <glyph glyph-name="uni0415" unicode="&#x415;" horiz-adv-x="647" 
d="M590 0h-490v744h490v-88h-391v-204h391v-88h-391v-276h391v-88z" />
    <glyph glyph-name="uni0416" unicode="&#x416;" horiz-adv-x="996" 
d="M980 0h-121l-262 340h-53v-340h-98v340h-53l-262 -340h-115l296 383q-44 29 -70 68t-42 91q-10 30 -19 52t-23 36t-34 20t-50 6h-30v88h35q84 0 129 -32q44 -32 74 -118q6 -15 13 -36.5t15 -39.5q22 -52 58 -78t78 -30v334h98v-335q46 3 82.5 28t59.5 81q9 22 16.5 43
t11.5 33q30 86 75 118t128 32h35v-88h-30q-33 0 -51.5 -6t-33.5 -20q-14 -14 -23.5 -36t-19.5 -52q-21 -66 -52 -100t-62 -53z" />
    <glyph glyph-name="uni0417" unicode="&#x417;" horiz-adv-x="630" 
d="M523 358q24 -21 39.5 -53t15.5 -83q0 -52 -22.5 -95t-57.5 -73q-40 -34 -98 -51t-124 -17q-74 0 -136 14t-100 29v111h8q50 -30 112 -48.5t118 -18.5q36 0 78 10.5t68 30.5q27 22 39.5 50t12.5 63q0 40 -15 65q-15 24 -41 40q-26 15 -62 22t-80 7h-100v85h89
q86 0 138.5 31.5t52.5 91.5q0 27 -13 47.5t-36 32.5q-22 12 -50 17.5t-66 5.5q-39 0 -72 -8t-63 -18q-24 -8 -49 -21t-36 -19h-7v109q38 16 100 29.5t125 13.5q62 0 106 -10q43 -10 81 -32q39 -24 59.5 -58t20.5 -78q0 -64 -40 -108q-42 -44 -104 -58v-7q26 -4 55.5 -16.5
t53.5 -32.5z" />
    <glyph glyph-name="uni0418" unicode="&#x418;" horiz-adv-x="768" 
d="M668 0h-98v596l-370 -596h-100v744h98v-587l366 587h104v-744z" />
    <glyph glyph-name="uni0419" unicode="&#x419;" horiz-adv-x="768" 
d="M668 0h-98v596l-370 -596h-100v744h98v-587l366 587h104v-744zM578 968q-2 -83 -52.5 -125.5t-134.5 -42.5t-134.5 42t-52.5 126h91q1 -56 25 -81t71 -25q48 0 71 24q24 26 25 82h91z" />
    <glyph glyph-name="uni041A" unicode="&#x41a;" horiz-adv-x="709" 
d="M698 0h-126l-303 340h-67v-340h-100v744h100v-334q26 0 48 5t42 17t39.5 33t34.5 53q6 14 15 34t18 42q34 83 80.5 116.5t136.5 33.5h40v-88h-42q-34 0 -54 -6t-35 -21q-14 -13 -25 -35q-10 -22 -22 -52q-26 -66 -53 -97t-72 -53z" />
    <glyph glyph-name="uni041B" unicode="&#x41b;" horiz-adv-x="752" 
d="M652 0h-99v656h-269q-2 -56 -4 -110t-4 -97q-4 -107 -14 -176t-24 -113q-14 -45 -32 -72q-18 -26 -42 -48t-49 -32t-59 -10q-10 0 -25.5 1t-21.5 1v96h7q5 0 12.5 -1t15.5 -1q18 0 34 6t26 17q36 36 53 117.5t23 231.5q2 49 5 130q3 80 5 148h462v-744z" />
    <glyph glyph-name="uni041C" unicode="&#x41c;" horiz-adv-x="863" 
d="M763 0h-99v642l-207 -437h-59l-206 437v-642h-92v744h135l199 -414l192 414h137v-744z" />
    <glyph glyph-name="uni041D" unicode="&#x41d;" horiz-adv-x="769" 
d="M670 0h-100v364h-371v-364h-99v744h99v-292h371v292h100v-744z" />
    <glyph glyph-name="uni041E" unicode="&#x41e;" horiz-adv-x="806" 
d="M655 659q46 -50 70 -122.5t24 -164.5t-24.5 -165t-69.5 -121q-46 -50 -108.5 -76t-143.5 -26q-78 0 -142.5 26t-109.5 76t-69 122t-24 164q0 91 24 163.5t70 123.5q44 49 109 75t142 26q80 0 144 -26.5t108 -74.5zM646 372q0 145 -65 223.5t-177 78.5q-114 0 -179 -78.5
t-65 -223.5q0 -146 66 -224t178 -78q111 0 176.5 78t65.5 224z" />
    <glyph glyph-name="uni041F" unicode="&#x41f;" horiz-adv-x="769" 
d="M670 0h-100v656h-371v-656h-99v744h570v-744z" />
    <glyph glyph-name="uni0420" unicode="&#x420;" horiz-adv-x="617" 
d="M587 520q0 -50 -17.5 -92t-47.5 -74q-38 -38 -91 -57t-133 -19h-99v-278h-99v744h202q67 0 113.5 -11t82.5 -35q42 -28 65.5 -70.5t23.5 -107.5zM484 517q0 38 -14 67q-12 28 -40 46q-24 16 -55 23t-78 7h-98v-298h83q60 0 98 11t61 34q24 24 33.5 50.5t9.5 59.5z" />
    <glyph glyph-name="uni0421" unicode="&#x421;" horiz-adv-x="715" 
d="M675 54q-28 -12 -50 -22t-58 -22q-30 -10 -66 -17t-79 -7q-81 0 -147.5 23t-114.5 71t-75 121t-27 171q0 92 26 164t74 122q48 48 115 74t149 26q60 0 120 -14q60 -16 133 -52v-117h-7q-62 52 -122.5 75.5t-129.5 23.5q-56 0 -102 -18q-44 -20 -80 -58q-34 -38 -54 -95
t-20 -131q0 -78 22 -135q20 -57 54 -93q35 -37 82 -54.5t99 -17.5q72 0 134.5 24.5t116.5 73.5h7v-116z" />
    <glyph glyph-name="uni0422" unicode="&#x422;" horiz-adv-x="631" 
d="M631 656h-266v-656h-99v656h-266v88h631v-88z" />
    <glyph glyph-name="uni0423" unicode="&#x423;" horiz-adv-x="630" 
d="M627 744l-283 -626q-17 -38 -40 -62q-24 -24 -50 -38q-26 -12 -50 -17q-26 -5 -48 -5q-20 0 -48 2t-36 3v93h6q8 -1 26 -4q18 -2 40 -2q10 0 28 2q18 0 32 6q16 6 31.5 19t26.5 39l18 39l-277 551h109l218 -438l195 438h102z" />
    <glyph glyph-name="uni0424" unicode="&#x424;" horiz-adv-x="838" 
d="M786 378q0 -70 -22 -124q-22 -56 -62 -92q-42 -40 -103 -63t-131 -24v-83h-98v83q-67 2 -128.5 24.5t-105.5 62.5q-40 37 -62 91.5t-22 124.5q0 68 22 119t60 89q40 40 101 63.5t135 25.5v77h98v-77q74 -2 136 -26.5t101 -62.5q38 -36 59.5 -88t21.5 -120zM683 382
q0 50 -16 91q-15 41 -45 69q-29 28 -64.5 41t-89.5 15v-446q47 1 85.5 15.5t64.5 38.5q32 30 48.5 73.5t16.5 102.5zM370 152v446q-53 0 -88.5 -14t-64.5 -42t-45 -70t-16 -90q0 -56 16.5 -102t48.5 -74q24 -22 63 -38t86 -16z" />
    <glyph glyph-name="uni0425" unicode="&#x425;" horiz-adv-x="701" 
d="M668 744l-257 -368l257 -376h-115l-203 306l-208 -306h-108l260 372l-254 372h114l200 -302l206 302h108z" />
    <glyph glyph-name="uni0426" unicode="&#x426;" horiz-adv-x="779" 
d="M641 0h-541v744h99v-657h367v657h98v-657h71v-255h-94v168z" />
    <glyph glyph-name="uni0427" unicode="&#x427;" horiz-adv-x="729" 
d="M629 0h-99v315q-64 -20 -119.5 -30.5t-105.5 -10.5t-92.5 12t-74.5 39q-32 26 -49.5 67.5t-17.5 97.5v254h99v-204q0 -44 5 -74t23 -54t46 -35.5t82 -11.5q56 0 109.5 10t94.5 25v344h99v-744z" />
    <glyph glyph-name="uni0428" unicode="&#x428;" horiz-adv-x="1055" 
d="M955 0h-855v744h99v-658h279v658h99v-658h279v658h99v-744z" />
    <glyph glyph-name="uni0429" unicode="&#x429;" horiz-adv-x="1070" 
d="M932 0h-832v744h99v-658h279v658h99v-658h279v658h99v-658h71v-254h-94v168z" />
    <glyph glyph-name="uni042A" unicode="&#x42a;" horiz-adv-x="802" 
d="M658 228q0 38 -12 66t-39 46q-28 18 -63.5 22.5t-101.5 4.5h-138v-283h136q66 0 102 7t62 25q28 20 41 46t13 66zM762 230q0 -54 -21 -98t-57 -71q-42 -33 -90 -47t-124 -14h-265v656h-205v88h304v-292h169q76 0 124 -8q49 -9 91 -42q38 -30 56 -73.5t18 -98.5z" />
    <glyph glyph-name="uni042B" unicode="&#x42b;" horiz-adv-x="942" 
d="M554 228q0 38 -13 66t-39 46q-28 18 -64 22.5t-101 4.5h-138v-283h135q66 0 102 7t64 25q28 20 41 46t13 66zM657 230q0 -54 -21.5 -98t-56.5 -71q-42 -33 -90 -47t-124 -14h-265v744h99v-292h169q76 0 124 -8.5t90 -41.5q38 -30 56.5 -73.5t18.5 -98.5zM842 0h-98v744
h98v-744z" />
    <glyph glyph-name="uni042C" unicode="&#x42c;" horiz-adv-x="697" 
d="M554 228q0 38 -13 66t-39 46q-28 18 -64 22.5t-101 4.5h-138v-283h135q66 0 102 7t64 25q28 20 41 46t13 66zM657 230q0 -54 -21.5 -98t-56.5 -71q-42 -33 -90 -47t-124 -14h-265v744h99v-292h169q76 0 124 -8.5t90 -41.5q38 -30 56.5 -73.5t18.5 -98.5z" />
    <glyph glyph-name="uni042D" unicode="&#x42d;" horiz-adv-x="718" 
d="M560 662q48 -48 74 -119t26 -168q0 -86 -26 -158.5t-76 -123.5q-51 -53 -119 -80q-67 -27 -149 -27q-70 0 -134 14t-108 32v110h8q40 -32 102 -52t133 -20q62 0 112.5 22t84.5 60q36 40 54.5 90t18.5 114h-407v86h402q-7 60 -30 104q-22 44 -58 72t-81 42t-96 14
q-68 0 -128.5 -19t-103.5 -53h-9v110q46 20 110 33t130 13q86 0 154 -24t116 -72z" />
    <glyph glyph-name="uni042E" unicode="&#x42e;" horiz-adv-x="1059" 
d="M898 372q0 148 -64 225t-174 77t-174.5 -77t-64.5 -225q0 -146 64.5 -224t174.5 -78t174 77.5t64 224.5zM319 360h-120v-360h-99v744h99v-298h125q18 150 108 232t228 82q160 0 251 -103t91 -285t-92 -285t-250 -103q-154 0 -245.5 98.5t-95.5 277.5z" />
    <glyph glyph-name="uni042F" unicode="&#x42f;" horiz-adv-x="723" 
d="M623 0h-99v296h-160l-223 -296h-119l239 311q-75 26 -116 79q-41 52 -41 142q0 57 23.5 98.5t62.5 69.5q36 25 83 34.5t105 9.5h245v-744zM524 378v282h-151q-43 0 -69 -6t-48 -20q-23 -16 -35.5 -44t-12.5 -61q0 -40 9 -66.5t29 -46.5q22 -22 55 -30t76 -8h147z" />
    <glyph glyph-name="uni0430" unicode="&#x430;" horiz-adv-x="615" 
d="M526 0h-93v60q-12 -8 -33.5 -24t-41.5 -24q-24 -12 -54 -20t-72 -8q-76 0 -128 50t-52 128q0 64 27 103t78 61t122.5 30.5t153.5 12.5v15q0 32 -11.5 53t-31.5 33t-48 15.5t-59 3.5q-37 0 -83 -9q-46 -10 -94 -29h-4v95q28 8 80 17t102 9q59 0 102.5 -10t75.5 -33
t48 -59.5t16 -90.5v-379zM433 138v155q-43 -2 -101 -7.5t-92 -14.5q-40 -12 -66 -36q-25 -25 -25 -67q0 -48 29 -72q28 -24 88 -24q50 0 91 19.5t76 46.5z" />
    <glyph glyph-name="uni0431" unicode="&#x431;" horiz-adv-x="629" 
d="M503 476q35 -35 53 -84.5t18 -117.5q0 -125 -75 -207.5t-185 -82.5q-54 0 -99 18.5t-77 56.5q-40 48 -60 120t-20 176q0 38 4 77q4 38 16 92q10 46 29 89t45 70q36 36 95 58.5t156 30.5q40 4 73.5 6t61.5 4v-86q-33 -2 -65.5 -4t-64.5 -5q-64 -6 -116 -21.5t-76 -39.5
q-26 -26 -39 -69t-17 -81q38 27 82 45t95 18q47 0 90.5 -15.5t75.5 -47.5zM478 269q0 92 -44 138t-118 46q-44 0 -83.5 -13.5t-75.5 -37.5q-1 -12 -2 -29t-1 -31q0 -87 15 -140.5t41 -85.5q23 -27 50 -38.5t58 -11.5q76 0 118 54.5t42 148.5z" />
    <glyph glyph-name="uni0432" unicode="&#x432;" horiz-adv-x="609" 
d="M554 169q0 -40 -16 -71q-18 -32 -46 -54q-32 -24 -70 -34q-36 -10 -98 -10h-232v558h216q62 0 94 -4t60 -18q32 -16 47 -43t15 -63q0 -42 -24 -72t-60 -48v-4q50 -12 82 -46.5t32 -90.5zM427 416q0 18 -7.5 32t-23.5 22q-21 10 -47.5 12t-64.5 2h-98v-154h117q37 0 55 3
t36 14q19 12 26 28.5t7 40.5zM456 168q0 28 -9 45t-39 32q-19 9 -41 11t-61 2h-120v-183h88q56 0 86.5 3.5t52.5 16.5q22 12 32.5 30t10.5 43z" />
    <glyph glyph-name="uni0433" unicode="&#x433;" horiz-adv-x="482" 
d="M478 476h-292v-476h-94v558h386v-82z" />
    <glyph glyph-name="uni0434" unicode="&#x434;" horiz-adv-x="636" 
d="M600 -134h-88v136h-420v-136h-88v214h61q58 96 87 222t29 256h351v-478h68v-214zM438 80v400h-168q-6 -126 -38 -230q-32 -103 -74 -170h280z" />
    <glyph glyph-name="uni0435" unicode="&#x435;" horiz-adv-x="610" 
d="M560 270h-412q0 -52 16 -90t42 -63q26 -24 62 -36t79 -12q57 0 115 22.5t82 44.5h5v-102q-48 -20 -97.5 -33.5t-103.5 -13.5q-139 0 -217 75.5t-78 213.5q0 137 74.5 217.5t196.5 80.5q113 0 174.5 -66t61.5 -188v-50zM468 342q0 74 -37 114t-111 40q-76 0 -121 -44
t-51 -110h320z" />
    <glyph glyph-name="uni0436" unicode="&#x436;" horiz-adv-x="817" 
d="M793 0h-113l-180 255h-45v-255h-93v255h-40l-188 -255h-108l216 292q-24 13 -43 37.5t-35 72.5q-14 42 -32 59t-60 17h-27v80h35q62 0 99 -25t60 -87q4 -13 11 -29.5t12 -28.5q16 -38 42 -54t58 -18v242h93v-242q32 2 58.5 18t42.5 54q6 12 12.5 29t10.5 29q22 62 59 87
q38 25 100 25h34v-80h-26q-42 0 -61 -18t-32 -58q-14 -44 -33.5 -69t-41.5 -37z" />
    <glyph glyph-name="uni0437" unicode="&#x437;" horiz-adv-x="537" 
d="M481 156q0 -47 -21.5 -79.5t-55.5 -52.5t-75 -28.5t-83 -8.5q-58 0 -110 11t-104 34v103h7q36 -32 92.5 -49.5t110.5 -17.5q25 0 51.5 5t45.5 15q21 12 33.5 29t12.5 45q0 30 -12.5 48t-32.5 28q-20 9 -49.5 10.5t-53.5 1.5h-81v82h56q20 0 52 1t52 8q26 8 41.5 23.5
t15.5 49.5q0 24 -12 39t-30 24q-18 8 -41 11q-22 4 -40 4q-51 0 -100.5 -14t-83.5 -40h-6v104q42 14 89 22t95 8q39 0 77.5 -7t72.5 -24q33 -17 54 -46t21 -73t-27.5 -77t-73.5 -47v-4q52 -12 82.5 -47t30.5 -91z" />
    <glyph glyph-name="uni0438" unicode="&#x438;" horiz-adv-x="655" 
d="M563 0h-93v420l-292 -420h-86v558h94v-413l289 413h88v-558z" />
    <glyph glyph-name="uni0439" unicode="&#x439;" horiz-adv-x="655" 
d="M563 0h-93v420l-292 -420h-86v558h94v-413l289 413h88v-558zM510 778q-2 -74 -47 -115t-129 -41t-128 41q-46 41 -48 115h86q0 -52 23 -75.5t67 -23.5t67 23q23 22 23 76h86z" />
    <glyph glyph-name="uni043A" unicode="&#x43a;" horiz-adv-x="606" 
d="M596 0h-122l-232 256h-52v-256h-94v558h94v-240q46 0 75 16.5t49 53.5q7 14 13.5 29t13.5 29q26 56 65 84t112 28h43v-80h-41q-40 0 -62 -17t-40 -59q-20 -47 -42.5 -70.5t-47.5 -35.5z" />
    <glyph glyph-name="uni043B" unicode="&#x43b;" horiz-adv-x="635" 
d="M543 0h-94v480h-209q-2 -42 -3 -80.5t-3 -69.5q-4 -84 -11.5 -133.5t-20.5 -82.5q-12 -31 -27 -50.5t-31 -34.5q-17 -15 -38 -23q-22 -7 -46 -7q-8 0 -24 0.5t-22 0.5v82h6q4 0 11 -0.5t13 -0.5q12 0 24.5 3.5t21.5 13.5q26 25 41 84.5t21 171.5q2 41 4 98q0 56 2 106
h385v-558z" />
    <glyph glyph-name="uni043C" unicode="&#x43c;" horiz-adv-x="713" 
d="M620 0h-92v441l-140 -287h-70l-138 287v-441h-88v558h114l152 -312l147 312h115v-558z" />
    <glyph glyph-name="uni043D" unicode="&#x43d;" horiz-adv-x="652" 
d="M560 0h-94v252h-280v-252h-94v558h94v-226h280v226h94v-558z" />
    <glyph glyph-name="uni043E" unicode="&#x43e;" horiz-adv-x="621" 
d="M568 279q0 -136 -70 -215.5t-187 -79.5q-118 0 -188 79t-70 216q0 136 69.5 215.5t188.5 79.5q118 0 187.5 -79.5t69.5 -215.5zM472 279q0 108 -43 161t-118 53q-76 0 -118.5 -52.5t-42.5 -161.5q0 -105 42.5 -159t118.5 -54q75 0 118 53.5t43 159.5z" />
    <glyph glyph-name="uni043F" unicode="&#x43f;" horiz-adv-x="652" 
d="M560 0h-94v478h-280v-478h-94v558h468v-558z" />
    <glyph glyph-name="uni0440" unicode="&#x440;" horiz-adv-x="638" 
d="M584 286q0 -68 -20 -124q-18 -56 -54 -96q-33 -37 -78 -57t-95 -20q-44 0 -79 9q-36 10 -72 30v-234h-94v764h94v-58q38 32 85 53t99 21q101 0 157.5 -76t56.5 -212zM487 284q0 101 -34.5 150.5t-106.5 49.5q-40 0 -81 -17t-79 -46v-317q40 -18 69 -24t65 -6
q78 0 122.5 53t44.5 157z" />
    <glyph glyph-name="uni0441" unicode="&#x441;" horiz-adv-x="547" 
d="M510 35q-58 -27 -99 -37t-81 -10q-61 0 -112.5 17.5t-87.5 53.5t-56 91q-21 54 -21 128q0 134 74 214q75 80 203 80q48 0 95 -14t85 -33v-105h-5q-46 36 -91.5 53t-87.5 17q-84 0 -130 -56t-46 -156t46 -154.5t130 -54.5q30 0 59 7.5t53 19.5q19 10 39 23t28 19h5v-103z
" />
    <glyph glyph-name="uni0442" unicode="&#x442;" horiz-adv-x="508" 
d="M503 476h-202v-476h-94v476h-202v82h498v-82z" />
    <glyph glyph-name="uni0443" unicode="&#x443;" horiz-adv-x="606" 
d="M576 558l-326 -764h-101l104 233l-223 531h102l172 -414l173 414h99z" />
    <glyph glyph-name="uni0444" unicode="&#x444;" horiz-adv-x="861" 
d="M806 294q0 -74 -19 -131.5t-51 -94.5q-31 -37 -71.5 -56.5t-84.5 -19.5q-34 0 -59 12q-25 10 -44 20v-230h-93v230q-30 -15 -50 -23.5t-62 -8.5q-96 0 -156 76t-60 210q0 70 19 125t51 93q30 36 71.5 55.5t82.5 19.5q30 0 55 -9.5t49 -23.5v240h93v-240q23 14 54 23.5
t63 9.5q99 0 155.5 -74.5t56.5 -202.5zM709 284q0 96 -34 151t-102 55q-28 0 -47 -4q-18 -6 -49 -18v-372q24 -11 39.5 -17.5t44.5 -6.5q70 0 109 55t39 157zM384 96v372q-20 9 -40 15.5t-44 6.5q-68 0 -108 -51.5t-40 -156.5q0 -98 36 -154t103 -56q26 0 49 7.5t44 16.5z
" />
    <glyph glyph-name="uni0445" unicode="&#x445;" horiz-adv-x="606" 
d="M576 0h-118l-159 214l-159 -214h-110l218 278l-216 280h118l158 -210l158 210h110l-220 -274z" />
    <glyph glyph-name="uni0446" unicode="&#x446;" horiz-adv-x="660" 
d="M536 0h-444v558h94v-477h276v477h94v-477h67v-215h-87v134z" />
    <glyph glyph-name="uni0447" unicode="&#x447;" horiz-adv-x="620" 
d="M528 0h-94v214q-46 -14 -87.5 -22t-90.5 -8q-90 0 -137.5 44t-47.5 128v202h94v-154q0 -32 4 -58t17 -44t36.5 -27t65.5 -9q34 0 75 6.5t71 15.5v270h94v-558z" />
    <glyph glyph-name="uni0448" unicode="&#x448;" horiz-adv-x="897" 
d="M804 0h-712v558h94v-477h216v477h94v-477h214v477h94v-558z" />
    <glyph glyph-name="uni0449" unicode="&#x449;" horiz-adv-x="909" 
d="M784 0h-692v558h94v-477h216v477h94v-477h214v477h94v-477h68v-215h-88v134z" />
    <glyph glyph-name="uni044A" unicode="&#x44a;" horiz-adv-x="656" 
d="M513 172q0 26 -8.5 45t-28.5 31q-21 12 -48 14.5t-77 2.5h-88v-190h86q50 0 77.5 4.5t47.5 16.5q20 13 29.5 30.5t9.5 45.5zM610 173q0 -40 -16 -73.5t-44 -53.5q-33 -25 -70.5 -35.5t-97.5 -10.5h-213v476h-164v82h258v-217h122q63 0 98 -6.5t69 -32.5q29 -22 43.5 -55
t14.5 -74z" />
    <glyph glyph-name="uni044B" unicode="&#x44b;" horiz-adv-x="813" 
d="M436 172q0 26 -8.5 45t-28.5 31q-21 12 -48 14.5t-77 2.5h-88v-190h86q50 0 78 4.5t48 16.5q20 13 29 30.5t9 45.5zM534 173q0 -40 -16.5 -73.5t-44.5 -53.5q-33 -25 -70.5 -35.5t-96.5 -10.5h-214v558h94v-217h122q63 0 98 -7q36 -6 70 -32q29 -22 43.5 -55t14.5 -74z
M627 558h94v-558h-94v558z" />
    <glyph glyph-name="uni044C" unicode="&#x44c;" horiz-adv-x="584" 
d="M442 172q0 26 -9 45t-29 31q-21 12 -47.5 14.5t-76.5 2.5h-94v-190h92q50 0 77 4.5t47 16.5q20 13 30 30.5t10 45.5zM538 173q0 -40 -16 -73.5t-44 -53.5q-33 -25 -70.5 -35.5t-96.5 -10.5h-219v558h94v-217h128q63 0 97.5 -6.5t68.5 -32.5q29 -22 43.5 -55t14.5 -74z
" />
    <glyph glyph-name="uni044D" unicode="&#x44d;" horiz-adv-x="560" 
d="M430 502q36 -35 56.5 -87.5t20.5 -124.5q0 -139 -77.5 -220.5t-207.5 -81.5q-51 0 -99 12q-47 12 -81 25v103h6q30 -24 80 -42t104 -18q78 0 127 48t55 141h-282v75h282q-10 79 -58 119t-118 40q-46 0 -91 -15.5t-89 -48.5h-6v103q32 12 80 27t100 15q62 0 112 -17.5
t86 -52.5z" />
    <glyph glyph-name="uni044E" unicode="&#x44e;" horiz-adv-x="859" 
d="M709 279q0 108 -41.5 161t-115.5 53q-76 0 -116 -55.5t-40 -158.5q0 -106 42 -159.5t114 -53.5q73 0 115 53t42 160zM302 253h-116v-253h-94v558h94v-226h119q12 116 80.5 179t168.5 63q116 0 184 -79t68 -216q0 -136 -68 -215q-66 -80 -184 -80q-111 0 -178.5 72.5
t-73.5 196.5z" />
    <glyph glyph-name="uni044F" unicode="&#x44f;" horiz-adv-x="614" 
d="M522 0h-94v222h-111l-173 -222h-110l188 230q-72 20 -106 61.5t-34 108.5q0 44 20 75t50 51q30 19 69 25.5t85 6.5h216v-558zM428 296v188h-119q-38 0 -55.5 -3t-37.5 -13q-20 -11 -29 -30t-9 -41q0 -28 6 -44.5t24 -32.5q18 -14 45 -19t59 -5h116z" />
    <glyph glyph-name="uni0451" unicode="&#x451;" horiz-adv-x="610" 
d="M476 652h-100v98h100v-98zM269 652h-99v98h99v-98zM560 270h-412q0 -52 16 -90t42 -63q26 -24 62 -36t79 -12q57 0 115 22.5t82 44.5h5v-102q-48 -20 -97.5 -33.5t-103.5 -13.5q-139 0 -217 75.5t-78 213.5q0 137 74.5 217.5t196.5 80.5q113 0 174.5 -66t61.5 -188v-50z
M468 342q0 74 -37 114t-111 40q-76 0 -121 -44t-51 -110h320z" />
    <glyph glyph-name="uni0452" unicode="&#x452;" horiz-adv-x="648" 
d="M466 277.5v40.5q0 40 -5 72t-18 52q-13 22 -35 32t-58 10q-40 0 -83 -19t-81 -48v-417h-94v634h-82v67h82v77h94v-77h161v-67h-161v-138q44 36 92.5 57t97.5 21q88 0 135 -56t49 -156q0 -24 0.5 -50t0.5 -64q0 -29 -0.5 -57t-0.5 -57q-2 -88 -23 -152t-57 -104
q-35 -40 -81 -60t-99 -20h-18t-26 2v78h34q94 0 132 62q40 62 44 230v35.5v41.5v30.5z" />
    <glyph glyph-name="uni0453" unicode="&#x453;" horiz-adv-x="482" 
d="M430 833l-136 -187h-74l89 187h121zM478 476h-292v-476h-94v558h386v-82z" />
    <glyph glyph-name="uni0454" unicode="&#x454;" horiz-adv-x="560" 
d="M517 24q-39 -16 -79 -26t-101 -10q-62 0 -114.5 17.5t-90.5 53.5t-58.5 91.5t-20.5 127.5q0 130 74.5 212t209.5 82q52 0 98.5 -14t81.5 -30v-101h-6q-32 25 -80.5 44.5t-98.5 19.5q-72 0 -122 -39q-50 -40 -62 -120h286v-75h-288q5 -89 54.5 -139t131.5 -50q54 0 101 17
t78 42h6v-103z" />
    <glyph glyph-name="uni0455" unicode="&#x455;" horiz-adv-x="533" 
d="M492 161q0 -76 -64 -125q-62 -50 -172 -50q-62 0 -114 15t-87 33v105h5q44 -34 99 -53.5t105 -19.5q62 0 97 20t35 63q0 33 -20 50q-18 17 -72 29q-20 4 -52 10q-34 6 -60 14q-74 20 -104 57t-30 93q0 34 14 64.5t43 54.5q28 24 71.5 37.5t96.5 13.5q50 0 101.5 -12
t85.5 -30v-100h-6q-36 26 -87 44t-101 18q-52 0 -87 -19.5t-35 -58.5q0 -34 21 -52t68 -28q26 -6 58.5 -12t53.5 -12q66 -15 101 -51q36 -37 36 -98z" />
    <glyph glyph-name="uni0456" unicode="&#x456;" horiz-adv-x="281" 
d="M194 652h-106v98h106v-98zM188 0h-94v558h94v-558z" />
    <glyph glyph-name="uni0457" unicode="&#x457;" horiz-adv-x="281" 
d="M278 652h-94v98h94v-98zM97 652h-95v98h95v-98zM188 0h-94v558h94v-558z" />
    <glyph glyph-name="uni0458" unicode="&#x458;" horiz-adv-x="352" 
d="M266 652h-106v98h106v-98zM260 -14q0 -98 -50 -148t-134 -50q-20 0 -52.5 4t-54.5 10v90h5q14 -6 38 -13t46 -7q36 0 58 10t33 30t14 48q3 30 3 70v450h-116v78h210v-572z" />
    <glyph glyph-name="uni0459" unicode="&#x459;" horiz-adv-x="936" 
d="M793 172q0 26 -8.5 45t-28.5 31q-21 12 -48 14.5t-77 2.5h-88v-190h86q50 0 77.5 4.5t47.5 16.5q20 13 29.5 30.5t9.5 45.5zM890 173q0 -40 -16 -73.5t-44 -53.5q-33 -25 -70.5 -35.5t-97.5 -10.5h-213v480h-209q-2 -42 -3 -80.5t-3 -69.5q-4 -84 -11.5 -133.5
t-20.5 -82.5q-12 -31 -27 -50.5t-31 -34.5q-17 -15 -38 -23q-22 -7 -46 -7q-8 0 -24 0.5t-22 0.5v82h6q4 0 11 -0.5t13 -0.5q12 0 24.5 3.5t21.5 13.5q26 25 41 84.5t21 171.5q2 41 4 98q0 56 2 106h385v-217h122q63 0 98 -6.5t69 -32.5q29 -22 43.5 -55t14.5 -74z" />
    <glyph glyph-name="uni045A" unicode="&#x45a;" horiz-adv-x="936" 
d="M793 172q0 26 -8.5 45t-28.5 31q-21 12 -48 14.5t-77 2.5h-88v-190h86q50 0 77.5 4.5t47.5 16.5q20 13 29.5 30.5t9.5 45.5zM890 173q0 -40 -16 -73.5t-44 -53.5q-33 -25 -70.5 -35.5t-97.5 -10.5h-213v264h-263v-264h-94v558h94v-217h263v217h94v-217h122q63 0 98 -6.5
t69 -32.5q29 -22 43.5 -55t14.5 -74z" />
    <glyph glyph-name="uni045B" unicode="&#x45b;" horiz-adv-x="648" 
d="M560 0h-94v318q0 38 -5 72t-17 53q-12 21 -36 31q-22 10 -60 10t-80 -19q-44 -19 -82 -48v-417h-94v634h-82v67h82v77h94v-77h161v-67h-161v-138q44 36 91 57t97 21q90 0 138 -54q48 -56 48 -158v-362z" />
    <glyph glyph-name="uni045C" unicode="&#x45c;" horiz-adv-x="606" 
d="M478 833l-136 -187h-75l89 187h122zM596 0h-122l-232 256h-52v-256h-94v558h94v-240q46 0 75 16.5t49 53.5q7 14 13.5 29t13.5 29q26 56 65 84t112 28h43v-80h-41q-40 0 -62 -17t-40 -59q-20 -47 -42.5 -70.5t-47.5 -35.5z" />
    <glyph glyph-name="uni045D" unicode="&#x45d;" horiz-adv-x="655" 
d="M396 651h-74l-137 187h121zM563 0h-93v420l-292 -420h-86v558h94v-413l289 413h88v-558z" />
    <glyph glyph-name="uni045E" unicode="&#x45e;" horiz-adv-x="606" 
d="M576 558l-326 -764h-101l104 233l-223 531h102l172 -414l173 414h99zM481 778q-2 -74 -46.5 -115t-128.5 -41t-129 41t-47 115h86q0 -52 23 -75.5t67 -23.5t66 23q24 22 24 76h85z" />
    <glyph glyph-name="uni045F" unicode="&#x45f;" horiz-adv-x="652" 
d="M560 0h-190v-134h-87v134h-191v558h94v-478h280v478h94v-558z" />
    <glyph glyph-name="uni0478" unicode="&#x478;" horiz-adv-x="1216" 
d="M568 659q39 -50 60 -122.5t21 -164.5q0 -94 -21.5 -166t-60 -121t-93 -75t-121.5 -26q-68 0 -122.5 26t-92.5 75.5t-59 121.5t-21 165q0 90 20 162t58 122t93 77t124 27q68 0 122.5 -26.5t92.5 -74.5zM546 372q0 72 -13.5 128.5t-38.5 95t-60.5 58.5t-79.5 20
q-45 0 -81 -20t-61 -58.5t-38.5 -95t-13.5 -128.5q0 -73 14 -129.5t39 -94.5t61 -58t80 -20t79.5 20t60.5 58t38.5 95t13.5 129zM1216 558l-291 -764h-100l93 233l-198 531h101l149 -414l148 414h98z" />
    <glyph glyph-name="uni0479" unicode="&#x479;" horiz-adv-x="1065" 
d="M518 279q0 -68 -16 -122.5t-46.5 -92.5t-73.5 -59t-96 -21q-54 0 -97 21t-73 59t-46.5 92.5t-16.5 122.5t16.5 122.5t46.5 93t73.5 59t96.5 20.5t96 -20.5t73.5 -59t46.5 -93t16 -122.5zM422 279q0 108 -36 161t-100 53t-100 -52.5t-36 -161.5q0 -106 35.5 -159.5
t100.5 -53.5q64 0 100 53.5t36 159.5zM1065 558l-291 -764h-100l94 233l-199 531h101l148 -414l148 414h99z" />
    </font>
</defs>
</svg>
