<?xml version="1.0" standalone="no"?>
<!DOCTYPE svg PUBLIC "-//W3C//DTD SVG 1.1//EN" "http://www.w3.org/Graphics/SVG/1.1/DTD/svg11.dtd" >
<svg xmlns="http://www.w3.org/2000/svg" xmlns:xlink="http://www.w3.org/1999/xlink" version="1.1">
<metadata>
Created by FontForge 20170812 at Wed Feb 23 14:41:18 2022
 By www-data
Copyright (c) 2022 I.R.E Type Foundry / SportieTootie Fonts., All rights reserved. This font is for Tokcel Restaurant only. And it's made by I.R.E
</metadata>
<defs>
<font id="tokcelwebfont-regular" horiz-adv-x="0" >
  <font-face 
    font-family="Tokcel Webfont"
    font-weight="400"
    font-stretch="normal"
    units-per-em="1000"
    panose-1="2 0 5 3 0 0 0 0 0 0"
    ascent="800"
    descent="-200"
    x-height="542"
    cap-height="736"
    bbox="-76 -403 1965 1076"
    underline-thickness="50"
    underline-position="-150"
    unicode-range="U+0020-FEFC"
  />
<missing-glyph horiz-adv-x="608" 
d="M473 683h-350v-590h350v590zM73 733h450v-690h-450v690z" />
    <glyph glyph-name="fj" unicode="fj" horiz-adv-x="398" 
d="M249 724q-14 0 -29 -1q-11 -1 -30 -9t-34 -23q-34 -34 -34 -93v-55h239v-565q0 -81 -49 -130q-25 -25 -58 -37q-22 -8 -39 -8v50q8 0 22 5q22 8 39 25q35 35 35 95v515h-189v-495h-50v495h-43v50h43v55q0 80 49 128q41 42 95 47q16 1 32 1q51 0 77 -8v-51q-30 9 -76 9z
" />
    <glyph glyph-name="uniFB01" unicode="fi" horiz-adv-x="398" 
d="M249 724q-14 0 -29 -1q-11 -1 -30 -9t-34 -23q-34 -34 -34 -93v-55h238v-545h-50v495h-188v-495h-50v495h-43v50h43v55q0 80 49 128q41 42 95 47q16 1 32 1q50 0 76 -8l1 -51q-30 9 -76 9z" />
    <glyph glyph-name="uniFB02" unicode="fl" horiz-adv-x="436" 
d="M347 748h50v-750h-50v750zM249 724q-14 0 -29 -1q-11 -1 -30 -9t-34 -23q-34 -34 -34 -93v-55h173v-50h-173v-495h-50v495h-43v50h43v55q0 80 49 128q41 42 95 47q16 1 32 1q51 0 77 -8v-51q-30 9 -76 9z" />
    <glyph glyph-name="uniFDF2" unicode="&#xfedf;&#xfee0;&#xfeea;" horiz-adv-x="1187" arabic-form="isolated" 
d="M838 790l-16 78l-21 -6l14 -67q1 -4 1 -11q0 -22 -20 -22q-28 0 -36 38l-10 51l-22 -6l10 -50q2 -10 2 -15q0 -14 -8.5 -25.5t-21.5 -11.5q-16 0 -21 23l-12 67l-22 -4l15 -77q8 -36 37 -36q45 0 45 67q19 -46 46 -46q20 0 31.5 10t11.5 24q0 7 -3 19zM1144 647h-71v-440
q0 -80 -22 -108.5t-77 -28.5h-190q20 42 20 106v471h-70v-440q0 -79 -22 -108.5t-78 -29.5h-72q-60 0 -94 42t-34 117v321h-212q-85 0 -137.5 -67.5t-52.5 -174.5q0 -100 51 -169t127 -69q108 0 153 77q44 -146 191 -146h443q147 0 147 176v471zM362 320q0 -196 -129 -196
q-57 0 -94 54.5t-37 132.5q0 80 37 133t96 53h127v-177z" />
    <glyph glyph-name="uniFEF5" unicode="&#xfedf;&#xfe82;" horiz-adv-x="547" arabic-form="isolated" 
d="M504 647h-70v-440q0 -80 -22.5 -109t-77.5 -29h-30l-126 501h-76l129 -501h-163v-69h289q147 0 147 176v471zM243 669l-17 23q-24 -27 -44 -27q-5 0 -46.5 16.5t-51.5 16.5q-34 0 -60 -39l17 -23q24 29 41 29q9 0 49.5 -17t49.5 -17q30 0 62 38z" />
    <glyph glyph-name="uniFEF6" unicode="&#xfee0;&#xfe82;" horiz-adv-x="635" arabic-form="final" 
d="M654 0v70h-173q21 40 21 106v471h-71v-440q0 -80 -22 -109t-78 -29h-29l-127 501h-75l129 -501h-163v-69h588zM243 669l-17 23q-24 -27 -44 -27q-5 0 -46.5 16.5t-51.5 16.5q-34 0 -60 -39l17 -23q24 29 41 29l99 -34q30 0 62 38z" />
    <glyph glyph-name="uniFEF7" unicode="&#xfedf;&#xfe84;" horiz-adv-x="547" arabic-form="isolated" 
d="M504 647h-70v-440q0 -80 -22.5 -109t-77.5 -29h-30l-126 501h-76l129 -501h-163v-69h289q147 0 147 176v471zM224 742q-13 64 -78 64q-41 0 -61.5 -24t-20.5 -64q0 -20 7 -35h-40v-40h191v40h-107q-10 14 -10 36q0 54 41 54q31 0 37 -35z" />
    <glyph glyph-name="uniFEF8" unicode="&#xfee0;&#xfe84;" horiz-adv-x="635" arabic-form="final" 
d="M654 0v70h-173q21 40 21 106v471h-71v-440q0 -80 -22 -109t-78 -29h-29l-127 501h-75l129 -501h-163v-69h588zM224 742q-13 64 -78 64q-41 0 -61.5 -24t-20.5 -64q0 -20 7 -35h-40v-40h191v40h-107q-10 14 -10 36q0 54 41 54q31 0 37 -35z" />
    <glyph glyph-name="uniFEF9" unicode="&#xfedf;&#xfe88;" horiz-adv-x="547" arabic-form="isolated" 
d="M504 647h-70v-440q0 -69 -15 -96q-23 -42 -85 -42h-30l-126 501h-76l129 -501h-163v-69h289q147 0 147 176v471zM206 -105q-14 63 -78 63q-40 0 -63 -26q-18 -22 -18 -61q0 -20 6 -35h-39v-40h192v40h-108q-10 13 -10 35q0 54 41 54q30 0 38 -35z" />
    <glyph glyph-name="uniFEFA" unicode="&#xfee0;&#xfe88;" horiz-adv-x="635" arabic-form="final" 
d="M654 0v70h-173q21 40 21 106v471h-71v-440q0 -80 -22 -109t-78 -29h-29l-127 501h-75l129 -501h-163v-69h588zM206 -105q-14 63 -78 63q-38 0 -59.5 -22.5t-21.5 -64.5q0 -20 6 -35h-39v-40h192v40h-108q-10 13 -10 35q0 54 41 54q30 0 38 -35z" />
    <glyph glyph-name="uniFEFB" unicode="&#xfedf;&#xfe8e;" horiz-adv-x="547" arabic-form="isolated" 
d="M504 647h-70v-440q0 -69 -15 -96q-23 -42 -85 -42h-30l-126 501h-76l129 -501h-163v-69h289q147 0 147 176v471z" />
    <glyph glyph-name="uniFEFC" unicode="&#xfee0;&#xfe8e;" horiz-adv-x="637" arabic-form="final" 
d="M656 0v70h-173q21 40 21 106v471h-71v-440q0 -80 -22 -109t-78 -29h-29l-127 501h-75l129 -501h-163v-69h588z" />
    <glyph glyph-name="uniFB50" unicode="&#x671;" horiz-adv-x="215" arabic-form="isolated" 
d="M161 0v647h-70v-647h70zM226 696q0 127 -73 127q-63 0 -111 -108l3 69l-16 -1v-68h-28v-19h225zM202 716h-146q47 83 96 83q50 0 50 -74v-9z" />
    <glyph glyph-name="uniFB51" unicode="&#x671;" horiz-adv-x="302" arabic-form="final" 
d="M331 0v70q-77 0 -84 1q-41 6 -57 31q-20 31 -20 99v446h-72v-488q0 -79 43 -121q38 -38 91 -38h99zM234 696q0 127 -73 127q-63 0 -111 -108l3 69l-16 -1v-68h-28v-19h225zM210 716h-146q47 83 96 83q50 0 50 -74v-9z" />
    <glyph glyph-name="uniFB56" unicode="&#x67e;" horiz-adv-x="816" arabic-form="isolated" 
d="M773 454h-70v-247q0 -80 -22 -108.5t-77 -28.5h-290q-212 0 -212 221v164h-70v-164q0 -291 288 -291h307q146 0 146 176v278zM533 -153v85h-72v-85h72zM402 -153v85h-72v-85h72zM467 -264v85h-71v-85h71z" />
    <glyph glyph-name="uniFB57" unicode="&#x67e;" horiz-adv-x="928" arabic-form="final" 
d="M939 0v70h-185q19 39 19 106v278h-70v-247q0 -67 -14 -97q-22 -40 -85 -40h-293q-209 0 -209 221v164h-70v-164q0 -291 288 -291h619zM533 -153v85h-72v-85h72zM402 -153v85h-72v-85h72zM467 -264v85h-71v-85h71z" />
    <glyph glyph-name="uniFB58" unicode="&#x67e;" horiz-adv-x="285" arabic-form="initial" 
d="M232 454h-70v-247q0 -69 -15 -96q-21 -42 -85 -42h-72v-69h95q147 0 147 176v278zM233 -153v85h-71v-85h71zM102 -153v85h-72v-85h72zM167 -264v85h-71v-85h71z" />
    <glyph glyph-name="uniFB59" unicode="&#x67e;" horiz-adv-x="328" arabic-form="medial" 
d="M337 0v70h-130q19 39 19 106v278h-70v-247q0 -69 -15 -97q-21 -41 -85 -41h-64v-69h345zM227 -153v85h-71v-85h71zM96 -153v85h-71v-85h71zM162 -264v85h-72v-85h72z" />
    <glyph glyph-name="uniFB6A" unicode="&#x6a4;" horiz-adv-x="921" arabic-form="isolated" 
d="M706 636v85h-71v-85h71zM772 525v85h-66v-85h66zM641 525v85h-72v-85h72zM878 227q0 102 -56 164t-151 62q-97 0 -154 -63.5t-57 -163.5q0 -97 49 -156h-195q-212 0 -212 221v144h-70v-144q0 -291 288 -291h349q93 0 151 64t58 163zM800 234q0 -176 -130 -176
q-61 0 -96.5 44.5t-35.5 119.5q0 81 35 127t101 46q60 0 93 -42t33 -119z" />
    <glyph glyph-name="uniFB6B" unicode="&#x6a4;" horiz-adv-x="1037" arabic-form="final" 
d="M750 724v85h-71v-85h71zM817 613v85h-67v-85h67zM686 613v85h-71v-85h71zM1053 0v70h-158q-55 0 -102 24q66 31 104 89.5t38 129.5q0 91 -60 149.5t-156 58.5t-156 -58.5t-60 -149.5q0 -69 38.5 -128.5t103.5 -90.5q-47 -24 -102 -24h-229q-212 0 -212 221v144h-70v-144
q0 -291 288 -291h164q101 0 137.5 9t98.5 45q63 -36 99 -45t135 -9h99zM720 136q-64 27 -102 78t-38 110t37.5 97.5t101.5 38.5q63 0 101 -38t38 -99q0 -59 -37 -109.5t-101 -77.5z" />
    <glyph glyph-name="uniFB6C" unicode="&#x6a4;" horiz-adv-x="592" arabic-form="initial" 
d="M373 637v85h-71v-85h71zM438 526v85h-71l6 -85h65zM307 526v85h-71v-85h71zM549 227q0 102 -56 164t-151 62q-96 0 -153.5 -64t-57.5 -163q0 -95 50 -156h-195v-70h355q93 0 150.5 64t57.5 163zM472 234q0 -176 -131 -176q-61 0 -96 44.5t-35 119.5q0 81 34.5 127
t100.5 46q61 0 94 -42.5t33 -118.5z" />
    <glyph glyph-name="uniFB6D" unicode="&#x6a4;" horiz-adv-x="628" arabic-form="medial" 
d="M350 716v85h-71v-85h71zM415 605v85h-71v-85h71zM284 605v85h-71v-85h71zM644 0v70h-158q-56 0 -102 24q69 32 106 93q36 59 36 126q0 85 -54 144q-60 64 -162 64q-101 0 -161 -64q-55 -58 -55 -144q0 -67 36 -126q37 -61 106 -93q-46 -24 -102 -24h-158v-70h99
q85 0 116 6q55 10 120 48q65 -38 119 -48q32 -6 115 -6h99zM311 136q-70 29 -106 83q-34 49 -34 105q0 59 37.5 97.5t101.5 38.5q66 0 104 -41q36 -37 36 -96q0 -55 -35 -105q-37 -54 -104 -82z" />
    <glyph glyph-name="uniFB7A" unicode="&#x686;" horiz-adv-x="514" arabic-form="isolated" 
d="M410 78v77h-71v-77h71zM470 243q1 10 1 30q0 142 -57.5 215.5t-170.5 73.5q-51 0 -74 -10v-61q27 14 58 14q158 0 173 -191h-38q-110 0 -146 -6q-82 -13 -133 -79t-51 -155q0 -108 68.5 -173.5t176.5 -65.5h104v74h-104q-79 0 -124 43.5t-45 116.5q0 79 46.5 126.5
t122.5 47.5h193zM286 78v77h-71v-77h71zM348 -26v78h-72v-78h72z" />
    <glyph glyph-name="uniFB7B" unicode="&#x686;" horiz-adv-x="646" arabic-form="final" 
d="M653 0v70h-40q-56 0 -98 63.5t-45 157.5q-9 270 -225 270q-53 0 -76 -10v-61q27 14 58 14q158 0 173 -190h-38q-110 0 -146 -6q-82 -13 -133 -79t-51 -155q0 -108 68.5 -173.5t176.5 -65.5h104v74h-104q-79 0 -124 43.5t-45 116.5q0 79 45.5 125.5t123.5 46.5h129
q12 -100 74 -170.5t146 -70.5h27zM382 70v78h-71v-78h71zM258 70v78h-71v-78h71zM320 -33v77h-72v-77h72z" />
    <glyph glyph-name="uniFB7C" unicode="&#x686;" horiz-adv-x="721" arabic-form="initial" 
d="M678 101q0 155 -90 247.5t-240 92.5q-163 0 -248 -106q51 -51 61 -62q60 99 188 99q118 0 182 -69.5t64 -196.5l-2 -36h-608v-70h693v101zM455 -153v85h-71v-85h71zM324 -153v85h-71v-85h71zM390 -264v85h-72v-85h72z" />
    <glyph glyph-name="uniFB7D" unicode="&#x686;" horiz-adv-x="774" arabic-form="medial" 
d="M788 0v70h-110v31q0 155 -90 247.5t-240 92.5q-163 0 -248 -106q51 -51 61 -62q60 99 188 99q118 0 182 -69.5t64 -196.5l-2 -36h-608v-70h803zM455 -153v85h-71v-85h71zM324 -153v85h-71v-85h71zM390 -264v85h-72l6 -85h66z" />
    <glyph glyph-name="uniFB8A" unicode="&#x698;" horiz-adv-x="288" arabic-form="isolated" 
d="M242 454h-70v-382q0 -87 -34.5 -128t-105.5 -41v-67q110 6 160 66t50 183v369zM180 636v85h-71v-85h71zM245 525v85h-71v-85h71zM114 525v85h-71v-85h71z" />
    <glyph glyph-name="uniFB8B" unicode="&#x698;" horiz-adv-x="393" arabic-form="final" 
d="M407 0v70h-165v384h-70v-382q0 -87 -34.5 -128t-105.5 -41v-67q175 11 203 164h172zM180 636v85h-71v-85h71zM245 525v85h-71l6 -85h65zM114 525v85h-71v-85h71z" />
    <glyph glyph-name="uniFBFE" unicode="&#x6cc;" horiz-adv-x="275" arabic-form="initial" 
d="M232 454h-70v-247q0 -69 -15 -96q-21 -42 -85 -42h-65v-69h88q147 0 147 176v278zM231 -153v85h-71v-85h71zM100 -153v85h-71v-85h71z" />
    <glyph glyph-name="uniFBFF" unicode="&#x6cc;" horiz-adv-x="328" arabic-form="medial" 
d="M337 0v70h-130q19 39 19 106v278h-70v-247q0 -69 -15 -97q-21 -41 -85 -41h-64v-69h345zM227 -153v85h-71v-85h71zM96 -153v85h-71v-85h71z" />
    <glyph glyph-name="uniFC5E" unicode="&#xfc5e;" arabic-form="isolated" 
d="M162 919q0 19 -15 34t-36 15q-19 0 -30.5 -13t-11.5 -31q0 -33 31 -60q-31 -29 -81 -32q21 27 21 52q0 19 -11 31.5t-26 12.5q-13 0 -27 -12q8 3 16 3q30 0 30 -38q0 -28 -20 -50q5 -11 6 -17q69 0 111.5 35.5t42.5 69.5zM195 744l-15 76l-21 -4l13 -68q1 -3 1 -10
q0 -22 -18 -22q-31 0 -38 37l-10 51l-22 -6l10 -51q2 -10 2 -15q0 -14 -8.5 -25t-21.5 -11q-15 0 -20 23l-14 68l-21 -6l16 -76q8 -36 37 -36q44 0 44 66q19 -45 47 -45q20 0 31 9.5t11 23.5q0 7 -3 21zM111 872q-28 16 -28 51q0 13 9.5 23t21.5 10t22 -10t10 -23
q0 -28 -35 -51z" />
    <glyph glyph-name="uniFC5F" unicode="&#xfc5f;" arabic-form="isolated" 
d="M191 864l-15 78l-21 -6l13 -67q1 -4 1 -11q0 -22 -20 -22q-27 0 -35 38l-11 51l-22 -6l10 -50q2 -12 2 -16q0 -14 -8 -25t-21 -11q-16 0 -21 23l-13 67l-22 -4l16 -77q8 -36 37 -36q44 0 44 67q21 -46 47 -46q19 0 30.5 10t11.5 24q0 7 -3 19zM220 798l-146 -41
q-21 -9 -32 -30q21 6 53 14t48.5 12.5t35.5 11.5t28.5 15t12.5 18zM211 738l-145 -41q-23 -9 -32 -30q22 6 53 14t48 12.5t35.5 11t28 14.5t12.5 19z" />
    <glyph glyph-name="uniFC60" unicode="&#xfc60;" arabic-form="isolated" 
d="M170 878l-145 -40q-22 -9 -31 -29q20 5 51.5 13t48 12t35.5 11t28.5 15t12.5 18zM185 739l-15 78l-21 -6l13 -67q1 -3 1 -9q0 -23 -21 -23q-27 0 -35 38l-10 50l-22 -5l10 -51q1 -5 1 -13q0 -15 -8 -27t-21 -12q-15 0 -21 23l-13 68l-21 -5l16 -76q8 -36 36 -36
q45 0 45 66q19 -46 47 -46q19 0 30 10t11 24q0 3 -2 19z" />
    <glyph glyph-name="uniFC61" unicode="&#xfc61;" arabic-form="isolated" 
d="M147 919q0 21 -14.5 35.5t-35.5 14.5q-19 0 -30.5 -13t-11.5 -32q0 -34 30 -59q-34 -34 -84 -34h-13q12 -14 15 -15q64 0 104 34.5t40 68.5zM185 747l-15 77l-21 -5l13 -67q1 -3 1 -9q0 -23 -21 -23q-27 0 -35 37l-10 50l-22 -4l10 -51q1 -5 1 -13q0 -15 -8.5 -27.5
t-20.5 -12.5q-17 0 -21 24l-13 68l-21 -5l16 -76q7 -37 36 -37q45 0 45 67q19 -46 47 -46q19 0 30 9.5t11 23.5q0 4 -2 20zM97 872q-28 18 -28 51q0 14 9 23.5t23 9.5q12 0 21.5 -9.5t9.5 -23.5q0 -28 -35 -51z" />
    <glyph glyph-name="uniFC62" unicode="&#xfc62;" arabic-form="isolated" 
d="M179 796l-16 78l-21 -6l14 -67q1 -4 1 -11q0 -21 -21 -21q-26 0 -35 38l-11 49l-21 -4l10 -51q2 -10 2 -15q0 -14 -8.5 -25.5t-21.5 -11.5q-16 0 -21 23l-13 68l-21 -5l15 -76q7 -36 37 -36h10q35 8 35 66q19 -46 46 -46q20 0 31 10t11 24q0 3 -2 19zM205 737l-146 -39
q-20 -10 -31 -30q19 5 53 13t49 12t34.5 11t28.5 15t12 18z" />
    <glyph glyph-name="uniFD3C" unicode="&#xfd3c;" horiz-adv-x="302" arabic-form="final" 
d="M331 0v70q-105 0 -133 21t-28 110v446h-72v-488q0 -72 38 -115.5t96 -43.5h99zM227 805l-146 -39q-22 -10 -31 -30l52 13t48 12.5t35.5 11t29 14.5t12.5 18zM218 745l-145 -39q-21 -10 -32 -30q20 5 52.5 13t48.5 12t35 11t28.5 15t12.5 18z" />
    <glyph glyph-name="uniFD3D" unicode="&#xfd3d;" horiz-adv-x="215" arabic-form="isolated" 
d="M161 0v647h-70v-647h70zM227 805l-146 -39q-22 -10 -31 -30l52 13t48 12.5t35.5 11t29 14.5t12.5 18zM218 745l-145 -39q-21 -10 -32 -30q20 5 52.5 13t48.5 12t35 11t28.5 15t12.5 18z" />
    <glyph glyph-name="uniFE70" unicode="&#xfe70;" arabic-form="isolated" 
d="M207 796l-146 -39q-22 -10 -31 -30l52 13t48 12.5t35.5 11t29 14.5t12.5 18zM198 736l-145 -39q-21 -10 -32 -30q20 5 52.5 13t48.5 12t35 11t28.5 15t12.5 18z" />
    <glyph glyph-name="uniFE72" unicode="&#xfe72;" arabic-form="isolated" 
d="M211 770q0 21 -14.5 35.5t-35.5 14.5q-17 0 -27 -10q-14 -14 -14 -35q0 -31 30 -59q-31 -29 -81 -32q21 26 21 52q0 18 -10.5 31t-25.5 13t-27 -12q10 2 15 2q30 0 30 -37q0 -31 -19 -50q1 -2 2.5 -8t2.5 -9q29 0 62 10q44 14 67.5 41t23.5 53zM161 724q-27 18 -27 51
q0 13 9 23t21 10q13 0 22.5 -10t9.5 -24q0 -27 -35 -50z" />
    <glyph glyph-name="uniFE74" unicode="&#xfe74;" arabic-form="isolated" 
d="M201 -274l-146 -40q-20 -9 -31 -29q18 5 52 13t49 12t35 11t29 15t12 18zM193 -334l-146 -40q-21 -9 -30 -29q18 5 52.5 13t49 12t34 11t28.5 15t12 18z" />
    <glyph glyph-name="uniFE76" unicode="&#xfe76;" arabic-form="isolated" 
d="M198 736l-146 -40q-22 -10 -32 -29l52 13l48 12t35.5 11t29 15t13.5 18z" />
    <glyph glyph-name="uniFE78" unicode="&#xfe78;" arabic-form="isolated" 
d="M147 806q-14 14 -36 14q-18 0 -30 -13.5t-12 -32.5q0 -31 31 -59q-34 -33 -85 -33q-9 0 -13 1q1 -3 2 -6.5t2 -5t3.5 -3t8.5 -1.5q62 0 103 35t41 68q0 20 -15 36zM111 724q-28 16 -28 50q0 13 9.5 23.5t21.5 10.5t22 -10t10 -25q0 -26 -35 -49z" />
    <glyph glyph-name="uniFE7A" unicode="&#xfe7a;" arabic-form="isolated" 
d="M180 -266l-145 -40q-22 -9 -31 -29q86 23 135 36q33 9 41 33z" />
    <glyph glyph-name="uniFE7C" unicode="&#xfe7c;" arabic-form="isolated" 
d="M185 742l-15 77l-21 -5l13 -68q1 -3 1 -9q0 -23 -21 -23q-27 0 -35 38l-10 50l-22 -5l10 -51q1 -5 1 -13q0 -14 -8.5 -26.5t-20.5 -12.5q-15 0 -21 23l-13 68l-21 -5l16 -76q8 -36 36 -36q45 0 45 66q19 -45 47 -45q19 0 30 9.5t11 23.5q0 2 -2 20z" />
    <glyph glyph-name="uniFE7E" unicode="&#xfe7e;" arabic-form="isolated" 
d="M147 753q-11 57 -58 57q-6 0 -18 -2q-48 -10 -48 -62q0 -7 2 -21q11 -57 58 -57q5 0 17 2q49 10 49 64q0 5 -2 19zM85 795q19 0 33 -23q10 -17 10 -40q0 -49 -41 -49q-22 0 -34 23q-11 19 -11 41q0 39 33 47q3 1 10 1z" />
    <glyph glyph-name="uniFE80" unicode="&#x621;" horiz-adv-x="430" arabic-form="isolated" 
d="M387 173q-24 109 -136 109q-71 0 -108 -45q-33 -41 -33 -106q0 -33 12 -61h-70v-70h334v70h-188q-16 23 -16 61q0 95 71 95q55 0 65 -61z" />
    <glyph glyph-name="uniFE81" unicode="&#x622;" horiz-adv-x="215" arabic-form="isolated" 
d="M161 0v647h-70v-647h70zM243 726l-17 23q-24 -27 -44 -27q-13 0 -46 16q-36 17 -52 17q-34 0 -60 -39l17 -23q24 29 41 29q15 0 49 -17t50 -17q30 0 62 38z" />
    <glyph glyph-name="uniFE82" unicode="&#x622;" horiz-adv-x="302" arabic-form="final" 
d="M331 0v70q-77 0 -84 1q-41 6 -57 31q-20 31 -20 99v446h-72v-488q0 -79 43 -121q38 -38 91 -38h99zM243 726l-17 23q-24 -27 -44 -27q-13 0 -46 16q-36 17 -52 17q-34 0 -60 -39l17 -23q24 29 41 29q15 0 49 -17t50 -17q30 0 62 38z" />
    <glyph glyph-name="uniFE83" unicode="&#x623;" horiz-adv-x="215" arabic-form="isolated" 
d="M161 0v647h-70v-647h70zM224 791q-13 64 -78 64q-41 0 -61.5 -24t-20.5 -64q0 -20 7 -35h-40v-40h191v40h-107q-10 14 -10 36q0 54 41 54q31 0 37 -35z" />
    <glyph glyph-name="uniFE84" unicode="&#x623;" horiz-adv-x="302" arabic-form="final" 
d="M331 0v70q-77 0 -84 1q-41 6 -57 31q-20 31 -20 99v446h-72v-488q0 -79 43 -121q38 -38 91 -38h99zM224 791q-13 64 -78 64q-41 0 -61.5 -24t-20.5 -64q0 -20 7 -35h-40v-40h191v40h-107q-10 14 -10 36q0 54 41 54q31 0 37 -35z" />
    <glyph glyph-name="uniFE85" unicode="&#x624;" horiz-adv-x="484" arabic-form="isolated" 
d="M441 234q0 97 -53 160t-135 63q-85 0 -138 -61.5t-53 -158.5t54 -159.5t137 -62.5q85 0 118 57q-3 -169 -141 -169v-67q110 6 160.5 66t50.5 183v149zM373 234q0 -67 -32.5 -111.5t-86.5 -44.5t-88.5 45.5t-34.5 114.5q0 67 32.5 112t85.5 45q55 0 89.5 -46t34.5 -115z
M374 634q-16 79 -96 79q-46 0 -73 -28.5t-27 -79.5q0 -23 8 -44h-49v-49h236v49h-132q-12 18 -12 44q0 67 49 67q39 0 48 -43z" />
    <glyph glyph-name="uniFE86" unicode="&#x624;" horiz-adv-x="561" arabic-form="final" 
d="M573 0v69h-130v186q0 97 -47.5 148.5t-132.5 51.5t-143 -66t-58 -163t54.5 -161.5t137.5 -64.5h109q-25 -97 -131 -97v-67q173 11 203 164h138zM371 70l-116 -1q-52 0 -86.5 48t-34.5 116q0 62 36.5 109.5t88.5 47.5q51 0 81.5 -31t30.5 -78v-211zM374 634q-16 79 -96 79
q-46 0 -73 -28.5t-27 -79.5q0 -23 8 -44h-49v-49h236v49h-132q-12 18 -12 44q0 67 49 67q39 0 48 -43z" />
    <glyph glyph-name="uniFE87" unicode="&#x625;" horiz-adv-x="225" arabic-form="isolated" 
d="M171 0v647h-70v-647h70zM216 -105q-14 63 -78 63q-40 0 -63 -26q-18 -22 -18 -61q0 -20 6 -35h-39v-40h192v40h-108q-10 13 -10 35q0 54 41 54q30 0 38 -35z" />
    <glyph glyph-name="uniFE88" unicode="&#x625;" horiz-adv-x="302" arabic-form="final" 
d="M331 0v70q-77 0 -84 1q-41 6 -57 31q-20 31 -20 99v446h-72v-488q0 -79 43 -121q38 -38 91 -38h99zM206 -105q-14 63 -78 63q-40 0 -63 -26q-18 -22 -18 -61q0 -20 6 -35h-39v-40h192v40h-108q-10 13 -10 35q0 54 41 54q30 0 38 -35z" />
    <glyph glyph-name="uniFE89" unicode="&#x626;" horiz-adv-x="729" arabic-form="isolated" 
d="M270 492q-16 78 -96 78q-47 0 -73.5 -29t-26.5 -79q0 -22 8 -43h-49v-49h237v49h-133q-12 18 -12 43q0 68 49 68q39 0 48 -44zM686 176v93h-245q43 172 207 172v61q-134 0 -209 -76t-85 -228h263q0 -136 -69.5 -216t-188.5 -80q-110 0 -178 69.5t-77 192.5q-1 10 -1 108
h-71v-96q0 -145 93.5 -243.5t230.5 -98.5h6q138 0 231 98.5t93 243.5z" />
    <glyph glyph-name="uniFE8A" unicode="&#x626;" horiz-adv-x="936" arabic-form="final" 
d="M293 533q-18 85 -105 85q-52 0 -80 -31.5t-28 -85.5q0 -25 9 -47h-53v-53h256v53h-144q-13 19 -13 47q0 73 54 73q42 0 51 -47zM520 379v-80q68 0 105 -37.5t37 -109.5q0 -98 -82 -175t-191 -77q-129 0 -203 88.5t-74 235.5v94h-77v-108q0 -164 101 -275t250 -111
q139 0 241.5 95.5t102.5 230.5q19 -70 72 -110t130 -40h16v76h-23q-34 0 -61 17t-45.5 44t-36.5 59t-40 64t-49.5 58.5t-72 43.5t-100.5 17z" />
    <glyph glyph-name="uniFE8B" unicode="&#x626;" horiz-adv-x="277" arabic-form="initial" 
d="M234 577q-17 77 -96 77q-50 0 -77 -32q-23 -29 -23 -75q0 -22 8 -43h-49v-49h237v49h-133q-12 16 -12 43q0 68 49 68q39 0 48 -44zM234 402h-72v-195q0 -70 -13 -96q-23 -42 -85 -42h-66v-69h89q147 0 147 176v226z" />
    <glyph glyph-name="uniFE8C" unicode="&#x626;" horiz-adv-x="328" arabic-form="medial" 
d="M228 577q-17 77 -97 77q-50 0 -77 -32q-23 -29 -23 -75q0 -23 9 -43h-49v-49h235v49h-132q-12 16 -12 43q0 68 50 68q39 0 47 -44zM337 0v70h-130q19 39 19 106v227h-70v-196q0 -69 -15 -97q-21 -41 -85 -41h-64v-69h345z" />
    <glyph glyph-name="uniFE8D" unicode="&#x627;" horiz-adv-x="215" arabic-form="isolated" 
d="M161 0v647h-70v-647h70z" />
    <glyph glyph-name="uniFE8E" unicode="&#x627;" horiz-adv-x="302" arabic-form="final" 
d="M311 0v70q-57 0 -64 1q-41 6 -57 31q-20 31 -20 99v446h-72v-488q0 -79 43 -121q38 -38 91 -38h79z" />
    <glyph glyph-name="uniFE8F" unicode="&#x628;" horiz-adv-x="816" arabic-form="isolated" 
d="M773 454h-70v-247q0 -80 -22 -108.5t-77 -28.5h-290q-212 0 -212 221v164h-70v-164q0 -291 288 -291h307q146 0 146 176v278zM458 -152v85h-71v-85h71z" />
    <glyph glyph-name="uniFE90" unicode="&#x628;" horiz-adv-x="928" arabic-form="final" 
d="M458 -152v85h-71v-85h71zM939 0v70h-185q19 39 19 106v278h-70v-247q0 -67 -14 -97q-22 -40 -85 -40h-293q-209 0 -209 221v164h-70v-164q0 -291 288 -291h619z" />
    <glyph glyph-name="uniFE91" unicode="&#x628;" horiz-adv-x="236" arabic-form="initial" 
d="M232 454h-70v-247q0 -69 -15 -96q-21 -42 -85 -42h-65v-69h88q147 0 147 176v278zM232 -152v85h-71v-85h71z" />
    <glyph glyph-name="uniFE92" unicode="&#x628;" horiz-adv-x="328" arabic-form="medial" 
d="M337 0v70h-130q19 39 19 106v278h-70v-247q0 -69 -15 -97q-21 -41 -85 -41h-64v-69h345zM226 -152v85h-71v-85h71z" />
    <glyph glyph-name="uniFE93" unicode="&#x629;" horiz-adv-x="502" arabic-form="isolated" 
d="M352 526v85h-71v-85h71zM221 526v85h-71v-85h71zM459 232q0 101 -54 164q-59 66 -158 66t-157 -67q-58 -64 -58 -164q0 -103 56 -165q58 -66 158 -66q98 0 157 68q56 65 56 164zM379 238q0 -179 -133 -179q-67 0 -103 52q-30 43 -30 115q0 76 30 123q36 54 108 54
q66 0 101 -50q27 -43 27 -115z" />
    <glyph glyph-name="uniFE94" unicode="&#x629;" horiz-adv-x="590" arabic-form="final" 
d="M388 622v85h-71v-85h71zM257 622v85h-71v-85h71zM600 0v69h-38q-61 0 -94.5 42t-33.5 117v321h-212q-85 0 -137.5 -67.5t-52.5 -174.5q0 -100 51 -169t127 -69q108 0 153 77q44 -146 191 -146h46zM362 320q-3 -196 -129 -196q-57 0 -94 54.5t-37 132.5q0 80 37 133t96 53
h127v-177z" />
    <glyph glyph-name="uniFE95" unicode="&#x62a;" horiz-adv-x="816" arabic-form="isolated" 
d="M507 455v85h-71v-85h71zM376 455v85h-71v-85h71zM773 454h-70v-247q0 -80 -22 -108.5t-77 -28.5h-290q-212 0 -212 221v164h-70v-164q0 -291 288 -291h307q146 0 146 176v278z" />
    <glyph glyph-name="uniFE96" unicode="&#x62a;" horiz-adv-x="928" arabic-form="final" 
d="M507 455v85h-71v-85h71zM376 455v85h-71v-85h71zM939 0v70h-185q19 39 19 106v278h-70v-247q0 -67 -14 -97q-22 -40 -85 -40h-293q-209 0 -209 221v164h-70v-164q0 -291 288 -291h619z" />
    <glyph glyph-name="uniFE97" unicode="&#x62a;" horiz-adv-x="275" arabic-form="initial" 
d="M232 526v85h-71v-85h71zM101 526v85h-71v-85h71zM232 454h-70v-247q0 -69 -15 -96q-21 -42 -85 -42h-65v-69h88q147 0 147 176v278z" />
    <glyph glyph-name="uniFE98" unicode="&#x62a;" horiz-adv-x="328" arabic-form="medial" 
d="M225 526v85h-71v-85h71zM94 526v85h-71v-85h71zM337 0v70h-130q19 39 19 106v278h-70v-247q0 -69 -15 -97q-21 -41 -85 -41h-64v-69h345z" />
    <glyph glyph-name="uniFE99" unicode="&#x62b;" horiz-adv-x="816" arabic-form="isolated" 
d="M443 565v85h-71v-85h71zM509 455v85h-71v-85h71zM378 455v85h-72v-85h72zM773 454h-70v-247q0 -80 -22 -108.5t-77 -28.5h-290q-212 0 -212 221v164h-70v-164q0 -291 288 -291h307q146 0 146 176v278z" />
    <glyph glyph-name="uniFE9A" unicode="&#x62b;" horiz-adv-x="928" arabic-form="final" 
d="M443 565v85h-71v-85h71zM509 455v85h-71v-85h71zM378 455v85h-72v-85h72zM939 0v70h-185q19 39 19 106v278h-70v-247q0 -67 -14 -97q-22 -40 -85 -40h-293q-209 0 -209 221v164h-70v-164q0 -291 288 -291h619z" />
    <glyph glyph-name="uniFE9B" unicode="&#x62b;" horiz-adv-x="275" arabic-form="initial" 
d="M166 637v85h-71v-85h71zM232 526v85h-71v-85h71zM101 526v85h-71v-85h71zM232 454h-70v-247q0 -69 -15 -96q-21 -42 -85 -42h-65v-69h88q147 0 147 176v278z" />
    <glyph glyph-name="uniFE9C" unicode="&#x62b;" horiz-adv-x="328" arabic-form="medial" 
d="M159 637v85h-71v-85h71zM224 526v85h-71v-85h71zM93 526v85h-71v-85h71zM337 0v70h-130q19 39 19 106v278h-70v-247q0 -69 -15 -97q-21 -41 -85 -41h-64v-69h345z" />
    <glyph glyph-name="uniFE9D" unicode="&#x62c;" horiz-adv-x="514" arabic-form="isolated" 
d="M470 243q1 10 1 30q0 142 -57.5 215.5t-170.5 73.5q-51 0 -74 -10v-61q27 14 58 14q158 0 173 -191h-144q-106 0 -165 -71.5t-59 -168.5q0 -108 68.5 -173.5t176.5 -65.5h104v74h-104q-79 0 -124 43.5t-45 116.5q0 79 46.5 126.5t122.5 47.5h193zM315 25v85h-71v-85h71z
" />
    <glyph glyph-name="uniFE9E" unicode="&#x62c;" horiz-adv-x="646" arabic-form="final" 
d="M653 0v70h-40q-56 0 -98 63.5t-45 157.5q-9 270 -225 270q-53 0 -76 -10v-61q27 14 58 14q158 0 173 -190h-38q-110 0 -146 -6q-82 -13 -133 -79t-51 -155q0 -108 68.5 -173.5t176.5 -65.5h104v74h-104q-79 0 -124 43.5t-45 116.5q0 79 45.5 125.5t123.5 46.5h129
q12 -100 74 -170.5t146 -70.5h27zM315 25v85h-71v-85h71z" />
    <glyph glyph-name="uniFE9F" unicode="&#x62c;" horiz-adv-x="721" arabic-form="initial" 
d="M678 101q0 155 -90 247.5t-240 92.5q-163 0 -248 -106q51 -51 61 -62q60 99 188 99q118 0 182 -69.5t64 -196.5q0 -10 -2 -36h-608v-70h693v101zM402 -152v85h-72v-85h72z" />
    <glyph glyph-name="uniFEA0" unicode="&#x62c;" horiz-adv-x="774" arabic-form="medial" 
d="M788 0v70h-110v31q0 155 -90 247.5t-240 92.5q-163 0 -248 -106q51 -51 61 -62q60 99 188 99q118 0 182 -69.5t64 -196.5q0 -10 -2 -36h-608v-70h803zM403 -152v85h-71v-85h71z" />
    <glyph glyph-name="uniFEA1" unicode="&#x62d;" horiz-adv-x="514" arabic-form="isolated" 
d="M470 243q1 10 1 30q0 142 -57.5 215.5t-170.5 73.5q-51 0 -74 -10v-61q27 14 58 14q158 0 173 -191h-144q-106 0 -165 -71.5t-59 -168.5q0 -108 68.5 -173.5t176.5 -65.5h104v74h-104q-79 0 -124 43.5t-45 116.5q0 79 46.5 126.5t122.5 47.5h193z" />
    <glyph glyph-name="uniFEA2" unicode="&#x62d;" horiz-adv-x="646" arabic-form="final" 
d="M653 0v70h-40q-56 0 -98 63.5t-45 157.5q-9 270 -225 270q-53 0 -76 -10v-61q27 14 58 14q158 0 173 -190h-62q-90 0 -122 -6q-83 -13 -133.5 -78.5t-50.5 -155.5q0 -108 68.5 -173.5t176.5 -65.5h104v74h-104q-79 0 -124 43.5t-45 116.5q0 79 45.5 125.5t123.5 46.5h129
q12 -100 74 -170.5t146 -70.5h27z" />
    <glyph glyph-name="uniFEA3" unicode="&#x62d;" horiz-adv-x="721" arabic-form="initial" 
d="M678 101q0 155 -90 247.5t-240 92.5q-163 0 -248 -106q51 -51 61 -62q60 99 188 99q118 0 182 -69.5t64 -196.5q0 -10 -2 -36h-608v-70h693v101z" />
    <glyph glyph-name="uniFEA4" unicode="&#x62d;" horiz-adv-x="774" arabic-form="medial" 
d="M788 0v70h-110v31q0 155 -90 247.5t-240 92.5q-163 0 -248 -106q51 -51 61 -62q60 99 188 99q118 0 182 -69.5t64 -196.5q0 -10 -2 -36h-608v-70h803z" />
    <glyph glyph-name="uniFEA5" unicode="&#x62e;" horiz-adv-x="514" arabic-form="isolated" 
d="M341 640v85h-71v-85h71zM470 243q1 10 1 30q0 142 -57.5 215.5t-170.5 73.5q-51 0 -74 -10v-61q27 14 58 14q158 0 173 -191h-144q-106 0 -165 -71.5t-59 -168.5q0 -108 68.5 -173.5t176.5 -65.5h104v74h-104q-79 0 -124 43.5t-45 116.5q0 79 46.5 126.5t122.5 47.5h193z
" />
    <glyph glyph-name="uniFEA6" unicode="&#x62e;" horiz-adv-x="646" arabic-form="final" 
d="M315 640v85h-71v-85h71zM653 0v70h-40q-56 0 -98 63.5t-45 157.5q-9 270 -225 270q-53 0 -76 -10v-61q27 14 58 14q158 0 173 -190h-38q-110 0 -146 -6q-82 -13 -133 -79t-51 -155q0 -108 68.5 -173.5t176.5 -65.5h104v74h-104q-79 0 -124 43.5t-45 116.5
q0 79 45.5 125.5t123.5 46.5h129q12 -100 74 -170.5t146 -70.5h27z" />
    <glyph glyph-name="uniFEA7" unicode="&#x62e;" horiz-adv-x="721" arabic-form="initial" 
d="M381 526v85h-71v-85h71zM678 101q0 155 -90 247.5t-240 92.5q-163 0 -248 -106q51 -51 61 -62q60 99 188 99q118 0 182 -69.5t64 -196.5q0 -10 -2 -36h-608v-70h693v101z" />
    <glyph glyph-name="uniFEA8" unicode="&#x62e;" horiz-adv-x="774" arabic-form="medial" 
d="M381 526v85h-71v-85h71zM788 0v70h-110v31q0 155 -90 247.5t-240 92.5q-163 0 -248 -106q51 -51 61 -62q60 99 188 99q118 0 182 -69.5t64 -196.5q0 -10 -2 -36h-608v-70h803z" />
    <glyph glyph-name="uniFEA9" unicode="&#x62f;" horiz-adv-x="539" arabic-form="isolated" 
d="M496 0q0 188 -46 287q-76 168 -289 168v-66h27q126 -8 185 -104q49 -80 49 -215h-370v-70h444z" />
    <glyph glyph-name="uniFEAA" unicode="&#x62f;" horiz-adv-x="620" arabic-form="final" 
d="M633 0v70h-159q-16 385 -333 385v-66h27q126 -8 185 -104q49 -80 49 -215h-370v-70h601z" />
    <glyph glyph-name="uniFEAB" unicode="&#x630;" horiz-adv-x="539" arabic-form="isolated" 
d="M277 526v85h-71v-85h71zM496 0q0 188 -46 287q-76 168 -289 168v-66h27q126 -8 185 -104q49 -80 49 -215h-370v-70h444z" />
    <glyph glyph-name="uniFEAC" unicode="&#x630;" horiz-adv-x="620" arabic-form="final" 
d="M238 526v85h-71v-85h71zM633 0v70h-159q-16 385 -333 385v-66h27q126 -8 185 -104q49 -80 49 -215h-370v-70h601z" />
    <glyph glyph-name="uniFEAD" unicode="&#x631;" horiz-adv-x="285" arabic-form="isolated" 
d="M242 454h-70v-382q0 -87 -34.5 -128t-105.5 -41v-67q110 6 160 66t50 183v369z" />
    <glyph glyph-name="uniFEAE" unicode="&#x631;" horiz-adv-x="393" arabic-form="final" 
d="M407 0v70h-165v384h-70v-382q0 -87 -34.5 -128t-105.5 -41v-67q175 11 203 164h172z" />
    <glyph glyph-name="uniFEAF" unicode="&#x632;" horiz-adv-x="286" arabic-form="isolated" 
d="M243 526v85h-71v-85h71zM242 454h-70v-382q0 -87 -34.5 -128t-105.5 -41v-67q110 6 160 66t50 183v369z" />
    <glyph glyph-name="uniFEB0" unicode="&#x632;" horiz-adv-x="393" arabic-form="final" 
d="M243 526v85h-71v-85h71zM407 0v70h-165v384h-70v-382q0 -87 -34.5 -128t-105.5 -41v-67q171 10 211 164h164z" />
    <glyph glyph-name="uniFEB1" unicode="&#x633;" horiz-adv-x="1181" arabic-form="isolated" 
d="M1138 454h-71v-247q0 -79 -21.5 -108t-78.5 -29h-120q19 39 19 106v278h-70v-247q0 -79 -18.5 -108t-66.5 -29h-126q12 55 12 106v278h-71v-291q-8 -122 -63.5 -191.5t-147.5 -69.5q-98 0 -155.5 79t-57.5 211v262h-70v-276q0 -150 81 -247t202 -97q84 0 152 50.5
t104 140.5q4 -13 4 -25h415q148 0 148 176v278z" />
    <glyph glyph-name="uniFEB2" unicode="&#x633;" horiz-adv-x="1267" arabic-form="final" 
d="M1277 0v70h-161q20 42 20 106v278h-70v-247q0 -78 -21.5 -107.5t-78.5 -29.5h-120q19 39 19 106v278h-70v-247q0 -79 -18.5 -108t-66.5 -29h-125q12 50 12 108v276h-72v-302q-10 -117 -65 -183.5t-145 -66.5q-98 0 -155.5 79t-57.5 211v262h-70v-276q0 -150 81 -247
t202 -97q84 0 153 50.5t102 139.5q4 -12 4 -24h703z" />
    <glyph glyph-name="uniFEB3" unicode="&#x633;" horiz-adv-x="839" arabic-form="initial" 
d="M796 454h-71v-247q0 -79 -21.5 -108t-78.5 -29h-120q19 39 19 106v278h-70v-247q0 -79 -18.5 -108t-66.5 -29h-131v4q17 42 17 102v278h-70v-256q-11 -128 -106 -128h-93v-70h662q148 0 148 176v278z" />
    <glyph glyph-name="uniFEB4" unicode="&#x633;" horiz-adv-x="925" arabic-form="medial" 
d="M936 0v70h-161q20 42 20 106v278h-70v-247q0 -79 -21.5 -108t-78.5 -29h-120q19 39 19 106v278h-70v-247q0 -79 -18.5 -108t-66.5 -29h-131v4q17 42 17 102v278h-71v-256q0 -62 -28 -95t-77 -33h-93v-70h950z" />
    <glyph glyph-name="uniFEB5" unicode="&#x634;" horiz-adv-x="1181" arabic-form="isolated" 
d="M934 526v85h-71v-85h71zM867 637v85h-71v-85h71zM803 526v85h-71v-85h71zM1138 454h-71v-247q0 -79 -21.5 -108t-78.5 -29h-120q19 39 19 106v278h-70v-247q0 -79 -18.5 -108t-66.5 -29h-126q12 55 12 106v278h-71v-291q-8 -122 -63.5 -191.5t-147.5 -69.5
q-98 0 -155.5 79t-57.5 211v262h-70v-276q0 -150 81 -247t202 -97q84 0 152 50.5t104 140.5q4 -13 4 -25h415q148 0 148 176v278z" />
    <glyph glyph-name="uniFEB6" unicode="&#x634;" horiz-adv-x="1267" arabic-form="final" 
d="M1277 0v70h-161q20 42 20 106v278h-70v-247q0 -79 -21.5 -108t-78.5 -29h-120q19 39 19 106v278h-70v-247q0 -79 -18.5 -108t-66.5 -29h-125q12 50 12 108v276h-72v-302q-10 -117 -65 -183.5t-145 -66.5q-98 0 -155.5 79t-57.5 211v262h-70v-276q0 -150 81 -247t202 -97
q84 0 153 50.5t102 139.5q4 -12 4 -24h703zM933 526v85h-71v-85h71zM866 637v85h-71v-85h71zM802 526v85h-71v-85h71z" />
    <glyph glyph-name="uniFEB7" unicode="&#x634;" horiz-adv-x="839" arabic-form="initial" 
d="M592 526v85h-71v-85h71zM525 637v85h-71v-85h71zM461 526v85h-71v-85h71zM796 454h-71v-247q0 -79 -21.5 -108t-78.5 -29h-120q19 39 19 106v278h-70v-247q0 -79 -18.5 -108t-66.5 -29h-131v4q17 42 17 102v278h-70v-256q-11 -128 -106 -128h-93v-70h662q148 0 148 176
v278z" />
    <glyph glyph-name="uniFEB8" unicode="&#x634;" horiz-adv-x="925" arabic-form="medial" 
d="M592 526v85h-71v-85h71zM525 637v85h-71v-85h71zM461 526v85h-71v-85h71zM936 0v70h-161q20 42 20 106v278h-70v-247q0 -79 -21.5 -108t-78.5 -29h-120q19 39 19 106v278h-70v-247q0 -79 -18.5 -108t-66.5 -29h-131v4q17 42 17 102v278h-71v-256q0 -62 -28 -95t-77 -33
h-93v-70h950z" />
    <glyph glyph-name="uniFEB9" unicode="&#x635;" horiz-adv-x="1187" arabic-form="isolated" 
d="M1141 0q5 70 5 116q0 339 -240 339q-86 0 -170.5 -61t-138.5 -165v225h-70v-262q0 -133 -56.5 -211.5t-155.5 -78.5q-98 0 -155.5 79t-57.5 211v262h-70v-276q0 -150 81 -247t202 -97q158 0 245 166h581zM1072 69h-488q6 22 9 49q47 116 136 194.5t172 78.5
q81 0 127.5 -70.5t46.5 -188.5q0 -30 -3 -63z" />
    <glyph glyph-name="uniFEBA" unicode="&#x635;" horiz-adv-x="1262" arabic-form="final" 
d="M1273 0v70h-127v46q0 339 -240 339q-86 0 -170.5 -61t-138.5 -165v225h-70v-262q0 -133 -56.5 -211.5t-155.5 -78.5q-98 0 -155.5 79t-57.5 211v262h-70v-276q0 -150 81 -247t202 -97q158 0 245 166h713zM1072 69h-488q6 22 9 49q47 116 136 194.5t172 78.5
q81 0 127.5 -70.5t46.5 -188.5q0 -30 -3 -63z" />
    <glyph glyph-name="uniFEBB" unicode="&#x635;" horiz-adv-x="842" arabic-form="initial" 
d="M797 0q5 70 5 116q0 339 -240 339q-85 0 -168.5 -59.5t-138.5 -163.5v174h-70v-180q0 -156 -106 -156h-93v-70h811zM728 69h-490v17q40 123 134 214t185 91q81 0 127.5 -70.5t46.5 -188.5q0 -30 -3 -63z" />
    <glyph glyph-name="uniFEBC" unicode="&#x635;" horiz-adv-x="930" arabic-form="medial" 
d="M939 0v70h-132v46q0 339 -240 339q-87 0 -173 -62.5t-140 -170.5q1 7 1 20v164h-70v-180q0 -156 -106 -156h-93v-70h953zM733 69h-495q36 127 133 224.5t191 97.5q81 0 127.5 -70.5t46.5 -188.5q0 -30 -3 -63z" />
    <glyph glyph-name="uniFEBD" unicode="&#x636;" horiz-adv-x="1187" arabic-form="isolated" 
d="M923 526v85h-71v-85h71zM1141 0q5 70 5 116q0 339 -240 339q-86 0 -170.5 -61t-138.5 -165v225h-70v-262q0 -133 -56.5 -211.5t-155.5 -78.5q-98 0 -155.5 79t-57.5 211v262h-70v-276q0 -150 81 -247t202 -97q158 0 245 166h581zM1072 69h-488q6 22 9 49
q47 116 136 194.5t172 78.5q81 0 127.5 -70.5t46.5 -188.5q0 -30 -3 -63z" />
    <glyph glyph-name="uniFEBE" unicode="&#x636;" horiz-adv-x="1262" arabic-form="final" 
d="M918 526v85h-71v-85h71zM1273 0v70h-127v46q0 339 -240 339q-86 0 -170.5 -61t-138.5 -165v225h-70v-262q0 -133 -56.5 -211.5t-155.5 -78.5q-98 0 -155.5 79t-57.5 211v262h-70v-276q0 -150 81 -247t202 -97q158 0 245 166h713zM1072 69h-488q6 22 9 49
q47 116 136 194.5t172 78.5q81 0 127.5 -70.5t46.5 -188.5q0 -30 -3 -63z" />
    <glyph glyph-name="uniFEBF" unicode="&#x636;" horiz-adv-x="842" arabic-form="initial" 
d="M579 526v85h-71v-85h71zM797 0q5 70 5 116q0 339 -240 339q-85 0 -168.5 -59.5t-138.5 -163.5v174h-70v-180q0 -156 -106 -156h-93v-70h811zM728 69h-490v17q40 123 134 214t185 91q81 0 127.5 -70.5t46.5 -188.5q0 -30 -3 -63z" />
    <glyph glyph-name="uniFEC0" unicode="&#x636;" horiz-adv-x="930" arabic-form="medial" 
d="M584 526v85h-71v-85h71zM939 0v70h-132v46q0 339 -240 339q-87 0 -173 -62.5t-140 -170.5q1 7 1 20v164h-70v-180q0 -156 -106 -156h-93v-70h953zM733 69h-495q36 127 133 224.5t191 97.5q81 0 127.5 -70.5t46.5 -188.5q0 -30 -3 -63z" />
    <glyph glyph-name="uniFEC1" unicode="&#x637;" horiz-adv-x="787" arabic-form="isolated" 
d="M737 0q7 59 7 116q0 339 -241 339q-97 0 -188 -75.5t-142 -198.5l16 465h-74v-577h-83v-69h705zM669 69h-495q36 128 133 225t191 97q81 0 127.5 -70t46.5 -189q0 -30 -3 -63z" />
    <glyph glyph-name="uniFEC2" unicode="&#x637;" horiz-adv-x="903" arabic-form="final" 
d="M908 0v70h-136q1 16 1 46q0 339 -241 339q-96 0 -187.5 -75.5t-142.5 -198.5l16 465h-74v-577h-80v-69h844zM698 69h-495q36 127 133 224.5t191 97.5q81 0 127.5 -70.5t46.5 -188.5q0 -30 -3 -63z" />
    <glyph glyph-name="uniFEC3" unicode="&#x637;" horiz-adv-x="818" arabic-form="initial" 
d="M769 0q6 63 6 116q0 339 -240 339q-98 0 -189 -75.5t-142 -198.5l16 465h-73v-577h-185v-69h807zM700 69h-495q36 127 133 224.5t191 97.5q81 0 127.5 -70t46.5 -189q0 -30 -3 -63z" />
    <glyph glyph-name="uniFEC4" unicode="&#x637;" horiz-adv-x="903" arabic-form="medial" 
d="M908 0v70h-136q1 16 1 46q0 339 -241 339q-96 0 -187.5 -75.5t-142.5 -198.5l16 465h-74v-577h-184v-69h948zM698 69h-495q36 127 133 224.5t191 97.5q81 0 127.5 -70.5t46.5 -188.5q0 -30 -3 -63z" />
    <glyph glyph-name="uniFEC5" unicode="&#x638;" horiz-adv-x="787" arabic-form="isolated" 
d="M520 526v85h-71v-85h71zM737 0q7 59 7 116q0 339 -241 339q-97 0 -188 -75.5t-142 -198.5l16 465h-74v-577h-83v-69h705zM669 69h-495q36 128 133 225t191 97q81 0 127.5 -70t46.5 -189q0 -30 -3 -63z" />
    <glyph glyph-name="uniFEC6" unicode="&#x638;" horiz-adv-x="903" arabic-form="final" 
d="M549 526v85h-71v-85h71zM908 0v70h-136q1 16 1 46q0 339 -241 339q-96 0 -187.5 -75.5t-142.5 -198.5l16 465h-74v-577h-80v-69h844zM698 69h-495q36 127 133 224.5t191 97.5q81 0 127.5 -70.5t46.5 -188.5q0 -30 -3 -63z" />
    <glyph glyph-name="uniFEC7" unicode="&#x638;" horiz-adv-x="818" arabic-form="initial" 
d="M553 526v85h-71v-85h71zM769 0q6 63 6 116q0 339 -240 339q-98 0 -189 -75.5t-142 -198.5l16 465h-73v-577h-185v-69h807zM700 69h-495q36 127 133 224.5t191 97.5q81 0 127.5 -70t46.5 -189q0 -30 -3 -63z" />
    <glyph glyph-name="uniFEC8" unicode="&#x638;" horiz-adv-x="903" arabic-form="medial" 
d="M549 526v85h-71v-85h71zM908 0v70h-136q1 16 1 46q0 339 -241 339q-96 0 -187.5 -75.5t-142.5 -198.5l16 465h-74v-577h-184v-69h948zM698 69h-495q36 127 133 224.5t191 97.5q81 0 127.5 -70.5t46.5 -188.5q0 -30 -3 -63z" />
    <glyph glyph-name="uniFEC9" unicode="&#x639;" horiz-adv-x="599" arabic-form="isolated" 
d="M556 243v70h-269q-41 53 -41 116q0 81 31.5 125t89.5 44q96 0 112 -94l76 8q-13 62 -64 99t-125 37q-90 0 -143 -61t-53 -159q0 -74 30 -122q-75 -19 -121.5 -83t-46.5 -149q0 -108 68.5 -173.5t176.5 -65.5h126v74h-126q-79 0 -124 43.5t-45 116.5q0 79 46.5 126.5
t122.5 47.5h279z" />
    <glyph glyph-name="uniFECA" unicode="&#x639;" horiz-adv-x="745" arabic-form="final" 
d="M774 0v70q-100 0 -159 57.5t-59 145.5v40h-269q-41 53 -41 116q0 81 31.5 125t89.5 44q96 0 112 -94l76 8q-13 62 -64 99t-125 37q-90 0 -143 -61t-53 -159q0 -74 30 -122q-75 -19 -121.5 -83t-46.5 -149q0 -108 68.5 -173.5t176.5 -65.5h126v74h-126q-79 0 -124 43.5
t-45 116.5q0 78 45 125.5t120 47.5h223q4 -103 77 -172.5t174 -69.5h27z" />
    <glyph glyph-name="uniFECB" unicode="&#x639;" horiz-adv-x="562" arabic-form="initial" 
d="M519 0v70h-302q-46 47 -46 140q0 80 27 129q36 61 109 61q107 0 125 -106l85 9q-13 74 -77 115q-56 38 -134 38q-107 0 -165 -73q-55 -67 -55 -173q0 -82 36 -140h-153v-70h550z" />
    <glyph glyph-name="uniFECC" unicode="&#x639;" horiz-adv-x="703" arabic-form="medial" 
d="M713 0v70h-135q-63 0 -81 5q-37 9 -71 51q78 60 132 136q24 34 64 110q-118 96 -263 96q-126 0 -250 -80l1 -79q131 -51 214 -176q-52 -37 -89 -50q-36 -13 -92 -13h-155v-70h157q133 0 225 78q57 -78 149 -78h194zM541 350q-55 -99 -163 -172q-52 71 -91 103
q-51 43 -115 67q104 57 191 57q52 0 102 -19q19 -8 76 -36z" />
    <glyph glyph-name="uniFECD" unicode="&#x63a;" horiz-adv-x="599" arabic-form="isolated" 
d="M403 721v85h-71v-85h71zM556 243v70h-269q-41 53 -41 116q0 81 31.5 125t89.5 44q96 0 112 -94l76 8q-13 62 -64 99t-125 37q-90 0 -143 -61t-53 -159q0 -74 30 -122q-75 -19 -121.5 -83t-46.5 -149q0 -108 68.5 -173.5t176.5 -65.5h126v74h-126q-79 0 -124 43.5
t-45 116.5q0 79 46.5 126.5t122.5 47.5h279z" />
    <glyph glyph-name="uniFECE" unicode="&#x63a;" horiz-adv-x="745" arabic-form="final" 
d="M403 721v85h-71v-85h71zM774 0v70q-100 0 -159 57.5t-59 145.5v40h-269q-41 53 -41 116q0 81 31.5 125t89.5 44q96 0 112 -94l76 8q-13 62 -64 99t-125 37q-90 0 -143 -61t-53 -159q0 -74 30 -122q-75 -19 -121.5 -83t-46.5 -149q0 -108 68.5 -173.5t176.5 -65.5h126v74
h-126q-79 0 -124 43.5t-45 116.5q0 78 45 125.5t120 47.5h223q4 -103 77 -172.5t174 -69.5h27z" />
    <glyph glyph-name="uniFECF" unicode="&#x63a;" horiz-adv-x="562" arabic-form="initial" 
d="M338 526v85h-71v-85h71zM519 0v70h-302q-46 47 -46 140q0 80 27 129q36 61 109 61q107 0 125 -106l85 9q-13 74 -77 115q-56 38 -134 38q-107 0 -165 -73q-55 -67 -55 -173q0 -82 36 -140h-153v-70h550z" />
    <glyph glyph-name="uniFED0" unicode="&#x63a;" horiz-adv-x="703" arabic-form="medial" 
d="M407 526v85h-71v-85h71zM713 0v70h-135q-74 0 -97 9t-55 47q78 60 132 136q24 34 64 110q-118 96 -263 96q-127 0 -249 -80v-79q131 -51 214 -176q-53 -38 -89 -50.5t-92 -12.5h-155v-70h157q133 0 225 78q57 -78 149 -78h194zM541 350q-55 -99 -163 -172
q-54 74 -97.5 109.5t-108.5 60.5q104 57 191 57q48 0 71.5 -7t106.5 -48z" />
    <glyph glyph-name="uniFED1" unicode="&#x641;" horiz-adv-x="921" arabic-form="isolated" 
d="M708 525v85h-71v-85h71zM878 227q0 102 -56 164t-151 62q-97 0 -154 -63.5t-57 -163.5q0 -97 49 -156h-195q-212 0 -212 221v144h-70v-144q0 -291 288 -291h349q93 0 151 64t58 163zM800 234q0 -176 -130 -176q-61 0 -96.5 44.5t-35.5 119.5q0 81 35 127t101 46
q60 0 93 -42t33 -119z" />
    <glyph glyph-name="uniFED2" unicode="&#x641;" horiz-adv-x="1037" arabic-form="final" 
d="M746 614v85h-71v-85h71zM1053 0v70h-158q-55 0 -102 24q66 31 104 89.5t38 129.5q0 91 -60 149.5t-156 58.5t-156 -58.5t-60 -149.5q0 -69 38.5 -128.5t103.5 -90.5q-47 -24 -102 -24h-229q-212 0 -212 221v144h-70v-144q0 -291 288 -291h164q101 0 137.5 9t98.5 45
q63 -36 99 -45t135 -9h99zM720 136q-64 27 -102 78t-38 110t37.5 97.5t101.5 38.5q63 0 101 -38t38 -99q0 -59 -37 -109.5t-101 -77.5z" />
    <glyph glyph-name="uniFED3" unicode="&#x641;" horiz-adv-x="592" arabic-form="initial" 
d="M378 526v85h-72v-85h72zM549 227q0 102 -56 164t-151 62q-96 0 -153.5 -64t-57.5 -163q0 -95 50 -156h-195v-70h355q93 0 150.5 64t57.5 163zM472 234q0 -176 -131 -176q-61 0 -96 44.5t-35 119.5q0 81 34.5 127t100.5 46q61 0 94 -42.5t33 -118.5z" />
    <glyph glyph-name="uniFED4" unicode="&#x641;" horiz-adv-x="628" arabic-form="medial" 
d="M347 606v85h-71v-85h71zM644 0v70h-158q-56 0 -102 24q69 32 106 93q36 59 36 126q0 85 -54 144q-60 64 -162 64q-101 0 -161 -64q-55 -58 -55 -144q0 -67 36 -126q37 -61 106 -93q-46 -24 -102 -24h-158v-70h99q85 0 116 6q55 10 120 48q65 -38 119 -48q32 -6 115 -6h99
zM311 136q-70 29 -106 83q-34 49 -34 105q0 59 37.5 97.5t101.5 38.5q66 0 104 -41q36 -37 36 -96q0 -55 -35 -105q-37 -54 -104 -82z" />
    <glyph glyph-name="uniFED5" unicode="&#x642;" horiz-adv-x="708" arabic-form="isolated" 
d="M569 526v85h-72v-85h72zM438 526v85h-72v-85h72zM665 155v110q0 97 -52.5 151t-141.5 54q-88 0 -138 -55.5t-50 -152.5q0 -95 53 -151q54 -56 138 -56q77 0 122 53q-14 -108 -89 -161q-65 -45 -158 -45q-107 0 -176 76t-69 197v165h-72v-178q0 -144 92 -236
q94 -92 228 -92q147 0 229 85q84 86 84 236zM594 258q0 -60 -27 -100q-33 -49 -93 -49q-61 0 -94 52q-26 43 -26 103q0 56 24 99q32 54 89 54h10q63 0 94 -55q23 -43 23 -104z" />
    <glyph glyph-name="uniFED6" unicode="&#x642;" horiz-adv-x="775" arabic-form="final" 
d="M569 526v85h-72v-85h72zM438 526v85h-72v-85h72zM787 0v70h-131v185q0 98 -47 149t-133 51q-85 0 -142.5 -66t-57.5 -163t54 -161.5t137 -64.5h91q-62 -98 -209 -98q-107 0 -176 76.5t-69 196.5v165h-72v-178q0 -143 92.5 -235.5t227.5 -92.5q211 0 284 166h151zM585 70
l-116 -1q-52 0 -86.5 49t-34.5 115q0 63 36 110t89 47q49 0 80.5 -30.5t31.5 -78.5v-211z" />
    <glyph glyph-name="uniFED7" unicode="&#x642;" horiz-adv-x="592" arabic-form="initial" 
d="M442 526v85h-71v-85h71zM311 526v85h-71v-85h71zM549 227q0 102 -56 164t-151 62q-96 0 -153.5 -64t-57.5 -163q0 -95 50 -156h-195v-70h355q94 0 151 64t57 163zM472 234q0 -176 -131 -176q-61 0 -96 44.5t-35 119.5q0 81 34.5 127t100.5 46q61 0 94 -42.5t33 -118.5z
" />
    <glyph glyph-name="uniFED8" unicode="&#x642;" horiz-adv-x="628" arabic-form="medial" 
d="M415 605v85h-71v-85h71zM284 605v85h-71v-85h71zM644 0v70h-158q-56 0 -102 24q69 32 106 93q36 59 36 126q0 85 -54 144q-60 64 -162 64q-101 0 -161 -64q-55 -58 -55 -144q0 -67 36 -126q37 -61 106 -93q-46 -24 -102 -24h-158v-70h99q85 0 116 6q55 10 120 48
q65 -38 119 -48q32 -6 115 -6h99zM311 136q-70 29 -106 83q-34 49 -34 105q0 59 37.5 97.5t101.5 38.5q66 0 104 -41q36 -37 36 -96q0 -55 -35 -105q-37 -54 -104 -82z" />
    <glyph glyph-name="uniFED9" unicode="&#x643;" horiz-adv-x="816" arabic-form="isolated" 
d="M523 461q-16 79 -97 79q-47 0 -73.5 -29t-26.5 -79q0 -22 8 -43h-49v-49h236v49h-132q-12 17 -12 44q0 66 50 66q39 0 46 -42zM773 647h-70v-440q0 -80 -22 -108.5t-77 -28.5h-290q-212 0 -212 221v164h-70v-164q0 -291 288 -291h307q146 0 146 176v471z" />
    <glyph glyph-name="uniFEDA" unicode="&#x643;" horiz-adv-x="928" arabic-form="final" 
d="M523 461q-16 79 -97 79q-47 0 -73.5 -29t-26.5 -79q0 -22 8 -43h-49v-49h236v49h-132q-12 17 -12 44q0 66 50 66q39 0 46 -42zM940 0v70h-186q19 39 19 106v471h-70v-440q0 -80 -21.5 -108.5t-77.5 -28.5h-290q-212 0 -212 221v164h-70v-164q0 -291 288 -291h620z" />
    <glyph glyph-name="uniFEDB" unicode="&#x643;" horiz-adv-x="700" arabic-form="initial" 
d="M657 101q0 154 -88 246q-90 94 -242 94h-89l119 205h-83q-127 -228 -153 -274h206q127 0 192 -81q55 -68 55 -185q0 -12 -2 -36h-608v-70h693v101z" />
    <glyph glyph-name="uniFEDC" unicode="&#x643;" horiz-adv-x="758" arabic-form="medial" 
d="M782 0v70h-137v31q0 154 -88 246q-90 94 -242 94h-89l119 205h-83q-127 -228 -153 -274h206q127 0 192 -81q55 -68 55 -185q0 -12 -2 -36h-608v-70h830z" />
    <glyph glyph-name="uniFEDD" unicode="&#x644;" horiz-adv-x="640" arabic-form="isolated" 
d="M102 192v82h-70v-96q0 -152 81 -248q83 -96 202 -96t199 95q83 98 83 249v469h-70v-455q0 -117 -47 -196q-55 -94 -165 -94q-108 0 -165 94q-48 81 -48 196z" />
    <glyph glyph-name="uniFEDE" unicode="&#x644;" horiz-adv-x="734" arabic-form="final" 
d="M754 0v70h-170q13 49 13 108v469h-70v-455q0 -133 -57 -211.5t-155 -78.5q-97 0 -155 80t-58 210v82h-70v-96q0 -149 80 -246.5t203 -97.5q78 0 143 44t102 122h194z" />
    <glyph glyph-name="uniFEDF" unicode="&#x644;" horiz-adv-x="269" arabic-form="initial" 
d="M226 647h-70v-440q0 -69 -15 -96q-21 -42 -85 -42h-64v-69h87q147 0 147 176v471z" />
    <glyph glyph-name="uniFEE0" unicode="&#x644;" horiz-adv-x="328" arabic-form="medial" 
d="M337 0v70h-130q19 39 19 106v471h-70v-440q0 -69 -15 -97q-21 -41 -85 -41h-64v-69h345z" />
    <glyph glyph-name="uniFEE1" unicode="&#x645;" horiz-adv-x="785" arabic-form="isolated" 
d="M742 229q0 102 -56 163.5t-151 61.5h-289q-214 0 -214 -277v-339h70v335q0 103 38 161.5t106 58.5h137q-59 -64 -59 -164q0 -102 55.5 -164t154.5 -62q93 0 150.5 62.5t57.5 163.5zM658 235q0 -167 -124 -167q-58 0 -91 42.5t-33 113.5q0 78 33.5 122t94.5 44
q57 0 88.5 -41t31.5 -114z" />
    <glyph glyph-name="uniFEE2" unicode="&#x645;" horiz-adv-x="956" arabic-form="final" 
d="M967 0q-1 9 -1 31q0 25 1 39h-41q-75 0 -124.5 43.5t-56.5 117.5q-11 106 -64.5 164.5t-141.5 58.5h-293q-214 0 -214 -277v-339h70v335q0 103 38 161.5t106 58.5h137q-59 -64 -59 -164q0 -102 55.5 -164t154.5 -62q131 0 185 115q48 -118 215 -118h33zM658 235
q0 -167 -124 -167q-58 0 -91 42.5t-33 113.5q0 78 33.5 122t94.5 44q57 0 88.5 -41t31.5 -114z" />
    <glyph glyph-name="uniFEE3" unicode="&#x645;" horiz-adv-x="600" arabic-form="initial" 
d="M557 140q0 100 -52 161q-56 65 -154 65t-155 -64t-57 -163q0 -37 9 -69h-164v-70h193q57 -87 173 -87q96 0 153 67q54 63 54 160zM476 147q0 -171 -126 -171q-65 0 -99 49q-29 43 -29 110q0 72 29 116q35 53 103 53q63 0 96 -49q26 -41 26 -108z" />
    <glyph glyph-name="uniFEE4" unicode="&#x645;" horiz-adv-x="618" arabic-form="medial" 
d="M631 0v70h-122q9 33 9 70q0 99 -53 161q-56 65 -154 65t-155 -64q-56 -65 -56 -163q0 -35 8 -69h-118v-70h148q56 -87 172 -87q111 0 168 87h153zM436 147q0 -171 -126 -171q-65 0 -99 49q-28 41 -28 110q0 73 28 116q35 53 103 53q64 0 95 -49q27 -41 27 -108z" />
    <glyph glyph-name="uniFEE5" unicode="&#x646;" horiz-adv-x="640" arabic-form="isolated" 
d="M349 526v85h-71v-85h71zM597 454h-70v-262q0 -133 -56.5 -211.5t-155.5 -78.5q-98 0 -155.5 79t-57.5 211v262h-70v-276q0 -150 81 -247t202 -97t201.5 98.5t80.5 245.5v276z" />
    <glyph glyph-name="uniFEE6" unicode="&#x646;" horiz-adv-x="734" arabic-form="final" 
d="M349 526v85h-71v-85h71zM757 0v70h-173q13 49 13 108v276h-70v-262q0 -133 -57 -211.5t-155 -78.5t-155.5 80t-57.5 210v262h-70v-276q0 -149 80 -246.5t203 -97.5q78 0 143 44t102 122h197z" />
    <glyph glyph-name="uniFEE7" unicode="&#x646;" horiz-adv-x="269" arabic-form="initial" 
d="M226 526v85h-71v-85h71zM226 454h-70v-247q0 -69 -15 -96q-21 -42 -85 -42h-64v-69h87q147 0 147 176v278z" />
    <glyph glyph-name="uniFEE8" unicode="&#x646;" horiz-adv-x="328" arabic-form="medial" 
d="M227 526v85h-71v-85h71zM337 0v70h-130q19 39 19 106v278h-70v-247q0 -69 -15 -97q-21 -41 -85 -41h-64v-69h345z" />
    <glyph glyph-name="uniFEE9" unicode="&#x647;" horiz-adv-x="502" arabic-form="isolated" 
d="M459 232q0 101 -54 164q-59 66 -158 66t-157 -67q-58 -64 -58 -164q0 -103 56 -165q58 -66 158 -66q98 0 157 68q56 65 56 164zM379 238q0 -179 -133 -179q-67 0 -103 52q-30 43 -30 115q0 76 30 123q36 54 108 54q66 0 101 -50q27 -43 27 -115z" />
    <glyph glyph-name="uniFEEA" unicode="&#x647;" horiz-adv-x="590" arabic-form="final" 
d="M600 0v69h-38q-61 0 -94.5 42t-33.5 117v321h-212q-85 0 -137.5 -67.5t-52.5 -174.5q0 -100 51 -169t127 -69q108 0 153 77q44 -146 191 -146h46zM362 320q-3 -196 -129 -196q-57 0 -94 54.5t-37 132.5q0 80 37 133t96 53h127v-177z" />
    <glyph glyph-name="uniFEEB" unicode="&#x647;" horiz-adv-x="696" arabic-form="initial" 
d="M638 0q15 70 15 137q0 149 -71 253q-39 59 -106 104.5t-126 56.5v-72q100 -29 167.5 -118t67.5 -210q0 -42 -9 -81h-147q47 55 47 138q0 88 -48.5 141t-128.5 53q-81 0 -131 -55t-50 -140q0 -84 45 -138h-171v-69h646zM404 212q0 -142 -106 -142q-50 0 -78.5 36.5
t-28.5 96.5q0 67 28.5 104t82.5 37q49 0 75.5 -34t26.5 -98z" />
    <glyph glyph-name="uniFEEC" unicode="&#x647;" horiz-adv-x="732" arabic-form="medial" 
d="M764 0v70h-114q3 33 3 67q0 149 -71 253q-39 59 -106 104.5t-126 56.5v-72q100 -29 167.5 -118t67.5 -210q0 -42 -9 -81h-147q47 55 47 138q0 88 -48.5 141t-128.5 53q-81 0 -131 -55t-50 -140q0 -84 45 -138h-171v-69h772zM404 212q0 -142 -106 -142q-50 0 -78.5 36.5
t-28.5 96.5q0 67 28.5 104t82.5 37q49 0 75.5 -34t26.5 -98z" />
    <glyph glyph-name="uniFEED" unicode="&#x648;" horiz-adv-x="484" arabic-form="isolated" 
d="M441 234q0 97 -53 160t-135 63q-85 0 -138 -61.5t-53 -158.5t54 -159.5t137 -62.5q85 0 118 57q-3 -169 -141 -169v-67q110 6 160.5 66t50.5 183v149zM373 234q0 -67 -32.5 -111.5t-86.5 -44.5t-88.5 45.5t-34.5 114.5q0 67 32.5 112t85.5 45q55 0 89.5 -46t34.5 -115z
" />
    <glyph glyph-name="uniFEEE" unicode="&#x648;" horiz-adv-x="561" arabic-form="final" 
d="M573 0v69h-130v186q0 97 -47.5 148.5t-132.5 51.5t-144 -66q-57 -66 -57 -163q0 -98 54 -162t138 -64h109q-26 -97 -122 -97h-9v-67q173 11 203 164h138zM371 70l-116 -1q-59 0 -93 57q-28 46 -28 107q0 57 32 104q36 53 93 53q55 0 85 -35q27 -30 27 -74v-211z" />
    <glyph glyph-name="uniFEEF" unicode="&#x649;" horiz-adv-x="729" arabic-form="isolated" 
d="M686 176v93h-246q45 172 208 172v61q-134 0 -209 -76t-86 -228h264q0 -136 -69.5 -216t-188.5 -80q-111 0 -178.5 69.5t-76.5 192.5q-1 10 -1 108h-71v-96q0 -145 93.5 -243.5t230.5 -98.5h6q138 0 231 98.5t93 243.5z" />
    <glyph glyph-name="uniFEF0" unicode="&#x649;" horiz-adv-x="864" arabic-form="final" 
d="M875 0v70h-21q-56 0 -86.5 27.5t-58.5 100.5q-23 59 -76 101t-100 42q-54 0 -54 -2h1v-63q62 0 96 -34.5t34 -101.5q0 -91 -75.5 -161.5t-175.5 -70.5q-118 0 -187 81.5t-69 217.5v87h-71v-100q0 -150 93 -253t231 -103q129 0 223.5 88t94.5 212q17 -64 67 -101t119 -37
h15z" />
    <glyph glyph-name="uniFEF1" unicode="&#x64a;" horiz-adv-x="730" arabic-form="isolated" 
d="M687 176l-1 93h-245q43 172 207 172v61q-134 0 -209 -76t-85 -228h263q0 -136 -69.5 -216t-188.5 -80q-110 0 -178 69.5t-77 192.5q-1 10 -1 108h-71v-96q0 -145 93.5 -243.5t230.5 -98.5h6q136 0 230.5 98t94.5 240v4zM460 -323v85h-71v-85h71zM329 -323v85h-71v-85h71z
" />
    <glyph glyph-name="uniFEF2" unicode="&#x64a;" horiz-adv-x="864" arabic-form="final" 
d="M875 0v70h-21q-56 0 -86.5 27.5t-58.5 100.5q-23 59 -76 101t-100 42q-54 0 -54 -2h1v-63q62 0 96 -34.5t34 -101.5q0 -91 -75.5 -161.5t-175.5 -70.5q-118 0 -187 81.5t-69 217.5v87h-71v-100q0 -150 93 -253t231 -103q129 0 223.5 88t94.5 212q17 -64 67 -101t119 -37
h15zM465 -323v85h-71v-85h71zM334 -323v85h-71v-85h71z" />
    <glyph glyph-name="uniFEF3" unicode="&#x64a;" horiz-adv-x="301" arabic-form="initial" 
d="M232 454h-70v-247q0 -69 -15 -96q-21 -42 -85 -42h-65v-69h88q147 0 147 176v278zM231 -153v85h-71v-85h71zM100 -153v85h-71v-85h71z" />
    <glyph glyph-name="uniFEF4" unicode="&#x64a;" horiz-adv-x="328" arabic-form="medial" 
d="M337 0v70h-130q19 39 19 106v278h-70v-247q0 -69 -15 -97q-21 -41 -85 -41h-64v-69h345zM227 -153v85h-71v-85h71zM96 -153v85h-71v-85h71z" />
    <glyph glyph-name=".notdef" horiz-adv-x="608" 
d="M473 683h-350v-590h350v590zM73 733h450v-690h-450v690z" />
    <glyph glyph-name=".null" 
 />
    <glyph glyph-name="nonmarkingreturn" horiz-adv-x="333" 
 />
    <glyph glyph-name="space" unicode=" " horiz-adv-x="288" 
 />
    <glyph glyph-name="exclam" unicode="!" horiz-adv-x="137" 
d="M39 88h50v-88h-50v88zM89 202h-50v515h50v-515z" />
    <glyph glyph-name="quotedbl" unicode="&#x22;" horiz-adv-x="265" 
d="M89 562h-50v155h50v-155zM219 562h-50v155h50v-155z" />
    <glyph glyph-name="numbersign" unicode="#" horiz-adv-x="587" 
d="M558 545v-50h-75l-37 -210h82v-50h-91l-41 -235h-50l41 235h-230l-41 -235h-50l41 235h-87v50h95l37 210h-72v50h81l30 176l51 1l-31 -177h230l30 176h51l-31 -176h67zM432 495h-229l-37 -210h229z" />
    <glyph glyph-name="dollar" unicode="$" horiz-adv-x="548" 
d="M35 563q0 13 3 28q9 63 50 104q56 56 166 64v125h50v-124q87 -2 164 -24l-1 -51q-82 22 -163 25v-270q67 -12 103 -25q53 -18 81 -46q38 -37 38 -99q0 -84 -59 -143q-61 -61 -163 -74v-161h-50v158q-38 1 -74 6.5t-58 11.5t-44 15t-27 12l-10 6v56q11 -7 29.5 -16
t74.5 -24.5t109 -16.5v298q-65 12 -101 24q-53 18 -81 46q-37 37 -37 95zM85 561q0 -35 23 -57q33 -33 146 -55v260q-150 -13 -167 -125q-2 -13 -2 -23zM476 269q0 42 -23 65q-34 33 -149 55v-285q81 12 128 58q44 44 44 107z" />
    <glyph glyph-name="percent" unicode="%" horiz-adv-x="1034" 
d="M338 0h-57l403 754l56 -1zM802 375q-13 0 -26 -2q-26 -3 -51 -28q-46 -47 -46 -140q0 -86 42 -129q26 -25 55 -29q14 -2 28 -2h2h1h2q14 0 28 2q29 4 55 29q42 43 42 129q0 93 -46 140q-26 25 -51 28q-13 2 -26 2h-4h-1h-4zM216 703q-13 0 -26 -2q-25 -3 -51 -28
q-46 -47 -46 -139q0 -87 42 -130q26 -25 55 -29q14 -2 28 -2h2h1h2q14 0 28 2q30 4 55 29q42 43 42 130q0 92 -46 139q-25 25 -51 28q-13 2 -26 2h-4h-1h-4zM804 -5q-18 0 -34 2q-47 6 -84 44q-57 57 -57 164q0 114 61 175q37 38 80 43q16 2 32 2h4.5h4.5q16 0 32 -2
q42 -5 80 -43q61 -61 61 -175q0 -107 -57 -164q-37 -38 -84 -44q-17 -2 -34 -2h-2.5h-2.5zM218 323q-17 0 -34 2q-47 6 -84 44q-57 57 -57 165q0 113 61 174q38 38 80 43q16 2 32 2h4.5h4.5q16 0 32 -2q43 -5 81 -43q60 -61 60 -174q0 -108 -57 -165q-37 -38 -84 -44
q-16 -2 -34 -2h-2.5h-2.5z" />
    <glyph glyph-name="ampersand" unicode="&#x26;" horiz-adv-x="731" 
d="M251 444q-18 9 -36 21t-39.5 30.5t-35 42.5t-13.5 49q0 23 12 49q10 19 25 34q37 38 97 42h11q66 0 102 -36q20 -21 20 -47v-4q-5 -79 -50 -124q-33 -33 -93 -57zM269 -4q153 0 247 130l131 -126h72l-175 169q19 35 33 75q27 79 27 151q0 20 -2 37l-51 1q3 -22 3 -36
q0 -66 -25 -137q-10 -29 -23 -55l-211 204q51 24 84 57q59 58 65 155v8q0 47 -35 82q-51 51 -136 51h-16q-78 -6 -128 -56q-21 -21 -34 -48q-18 -35 -18 -72q0 -25 9 -49q23 -63 101 -114l-14 -4q-43 -11 -74 -42q-52 -52 -56 -137v-12q0 -103 67 -170q62 -62 159 -62z
M480 161q-80 -115 -212 -115q-75 0 -123 47q-52 53 -52 135q0 72 42 114q21 21 50 29q32 8 60 17z" />
    <glyph glyph-name="quotesingle" unicode="'" horiz-adv-x="137" 
d="M89 562h-50v155h50v-155z" />
    <glyph glyph-name="parenleft" unicode="(" horiz-adv-x="198" 
d="M65 415q0 -116 35 -249.5t98 -263.5l-55 -1q-128 266 -128 514t129 475l58 1q-63 -112 -100 -237t-37 -239z" />
    <glyph glyph-name="parenright" unicode=")" horiz-adv-x="198" 
d="M152 415q0 -116 -35 -249.5t-98 -263.5l55 -1q128 266 128 514t-129 475l-58 1q64 -112 100.5 -237t36.5 -239z" />
    <glyph glyph-name="asterisk" unicode="*" horiz-adv-x="334" 
d="M139 744h50v-73l66 31l22 -46l-54 -24l54 -25l-22 -46l-66 31v-73h-50v73l-66 -31l-22 46l54 25l-54 24l22 46l66 -31v73z" />
    <glyph glyph-name="plus" unicode="+" horiz-adv-x="389" 
d="M36 355v50h134v134h50v-134h134v-50h-134v-134h-50v134h-134z" />
    <glyph glyph-name="comma" unicode="," horiz-adv-x="134" 
d="M41 -69h-30l55 165l53 -1z" />
    <glyph glyph-name="hyphen" unicode="-" horiz-adv-x="393" 
d="M40 355v50h318v-50h-318z" />
    <glyph glyph-name="period" unicode="." horiz-adv-x="134" 
d="M45 88h50v-88h-50v88z" />
    <glyph glyph-name="slash" unicode="/" horiz-adv-x="520" 
d="M80 0h-57l404 754h57z" />
    <glyph glyph-name="zero" unicode="0" horiz-adv-x="541" 
d="M263 747q-19 0 -38 -3q-25 -4 -56 -35q-94 -94 -94 -320q0 -211 87 -298q33 -33 64 -38q20 -4 40 -4h4v0h4q20 0 40 4q31 5 64 38q87 87 87 298q0 226 -94 320q-31 31 -56 35q-19 3 -38 3q-3 0 -6 -1h-1h-1q-3 1 -6 1zM266 -1q-25 0 -49 5q-46 8 -90 51
q-102 102 -102 334q0 247 109 355q42 43 84 49q22 4 45 4h7h7q23 0 45 -4q42 -6 84 -49q109 -108 109 -355q0 -232 -102 -334q-44 -43 -90 -51q-24 -5 -49 -5h-4h-4z" />
    <glyph glyph-name="one" unicode="1" horiz-adv-x="242" 
d="M170 773h33v-775h-50v701l-106 -96l-1 67l114 103h10z" />
    <glyph glyph-name="two" unicode="2" horiz-adv-x="511" 
d="M242 747q14 0 28 -1q98 -9 154 -64q52 -53 52 -137q0 -45 -21 -86q-18 -35 -52 -80q-62 -82 -174 -194q-68 -68 -142 -135h385v-50h-451v58l8 8q78 68 164 155q110 109 170 188q32 42 48 72q12 25 14 41q2 12 2 24q0 62 -39 100q-42 43 -122 50q-12 1 -24 1
q-87 0 -188 -53l-2 -1l-1 51q11 7 27.5 15.5t66 23t97.5 14.5z" />
    <glyph glyph-name="three" unicode="3" horiz-adv-x="482" 
d="M210 747q14 0 28 -1q113 -10 160 -57q37 -38 37 -99q0 -27 -7 -57q-9 -40 -39 -70q-28 -28 -73 -45q53 -17 85 -50q26 -26 38 -60q12 -36 12 -75q0 -97 -66 -163q-64 -63 -159 -63q-52 0 -101 9.5t-72 19.5l-24 10v53q10 -5 27 -11.5t66.5 -18t97.5 -12.5h6q75 0 123 49
q52 51 52 128q0 30 -10 58q-22 68 -126 88q-37 7 -74 7q-7 0 -38 -1v61q28 -1 32 -1q37 0 74 8q105 22 121 91q6 26 6 46q0 39 -24 63q-33 33 -128 42q-12 1 -24 1q-40 0 -81.5 -11.5t-62.5 -22.5l-21 -11v55q65 40 165 40z" />
    <glyph glyph-name="four" unicode="4" horiz-adv-x="458" 
d="M327 278v-280h50v280h60v50h-60v445h-46l-312 -456v-8v-31h308zM327 328h-240l240 351v-351z" />
    <glyph glyph-name="five" unicode="5" horiz-adv-x="464" 
d="M230 57q76 0 128 51q50 51 50 121q0 32 -12 61q-9 21 -25 37q-50 50 -166 62q-32 3 -68 3q-48 0 -82 -5l-28 -4v360h385v-50h-335v-253q30 2 60 2q38 0 73 -4q134 -13 196 -76q24 -23 36 -52q16 -39 16 -81q0 -91 -65 -156q-66 -66 -164 -66q-51 0 -99.5 10t-72 18.5
t-23.5 9.5l-1 54q10 -5 27 -11.5t66.5 -18t97.5 -12.5h6z" />
    <glyph glyph-name="six" unicode="6" horiz-adv-x="532" 
d="M293 475q95 0 154 -59q56 -56 66 -153q1 -17 1 -32q0 -96 -59 -155q-37 -37 -85.5 -53t-89.5 -17h-2q-92 0 -161 68q-62 62 -83 169q-11 59 -11 116q0 104 35.5 191.5t98.5 140.5q63 54 168 61q14 1 29 1q53 0 94 -10v-52q-46 12 -94 12q-13 0 -26 -1q-88 -6 -139 -49
q-46 -40 -76 -103t-37 -142q24 13 55 28q85 39 162 39zM293 425q-66 0 -140 -35q-52 -24 -80 -40q1 -48 11 -97q17 -92 69 -143q53 -54 125 -54q32 0 72.5 13.5t69.5 41.5q45 45 45 119q0 98 -53 151q-44 44 -119 44z" />
    <glyph glyph-name="seven" unicode="7" horiz-adv-x="503" 
d="M54 723v50h435v-37l-394 -736h-57l387 723h-371z" />
    <glyph glyph-name="eight" unicode="8" horiz-adv-x="496" 
d="M251 387h-2h-3.5h-2.5q-74 0 -117 -43q-21 -21 -31 -52q-12 -34 -12 -69q0 -77 47 -123q43 -43 112 -43q77 0 125 48q49 48 49 124q0 32 -11 63q-10 32 -32 53q-42 42 -114 42h-2.5h-3.5h-2v6v-6zM242 7q-90 0 -147 57q-62 62 -62 159q0 43 14 85q26 76 98 109
q-69 39 -87 116q-7 28 -7 53q0 65 41 106q54 54 158 54t158 -54q41 -41 41 -106q0 -25 -7 -53q-12 -51 -47 -87q-17 -17 -39 -29q71 -33 97 -109q13 -39 13 -79q0 -96 -64 -160q-62 -62 -160 -62zM399 587q0 43 -26 70q-40 39 -123 39t-123 -39q-26 -27 -26 -70q0 -19 5 -42
q9 -38 34 -63q40 -40 107 -45h4h4q65 5 105 45q25 25 34 63q5 23 5 42z" />
    <glyph glyph-name="nine" unicode="9" horiz-adv-x="532" 
d="M244 284q-95 0 -154 59q-55 56 -65 153q-2 17 -2 32q0 96 59 155q38 37 86 53t89 17h3q92 0 160 -69q62 -62 83 -168q12 -59 12 -116q0 -104 -35.5 -191.5t-98.5 -140.5q-64 -54 -168 -61q-14 -1 -29 -1q-53 0 -94 9v51q46 -10 94 -10q13 0 25 1q88 5 139 49
q47 40 76.5 103t37.5 141q-25 -12 -56 -27q-84 -39 -162 -39zM245 334q66 0 140 34q52 24 79 40q0 49 -10 98q-18 92 -69 143q-54 54 -125 54q-32 0 -73 -13.5t-69 -42.5q-45 -44 -45 -118q0 -98 53 -151q44 -44 119 -44z" />
    <glyph glyph-name="colon" unicode=":" horiz-adv-x="134" 
d="M45 88h50v-88h-50v88zM95 430h-50v88h50v-88z" />
    <glyph glyph-name="semicolon" unicode=";" horiz-adv-x="134" 
d="M11 -69h-30l55 165l53 -1zM95 430h-50v88h50v-88z" />
    <glyph glyph-name="less" unicode="&#x3c;" horiz-adv-x="550" 
d="M64 424v10v18l386 120l14 -48l-307 -95l307 -95l-14 -48l-386 120v18z" />
    <glyph glyph-name="equal" unicode="=" horiz-adv-x="393" 
d="M40 425v50h318v-50h-318zM40 325v50h318v-50h-318z" />
    <glyph glyph-name="greater" unicode="&#x3e;" horiz-adv-x="550" 
d="M482 434v-10v-18l-386 -120l-14 48l307 95l-307 95l14 48l386 -120v-18z" />
    <glyph glyph-name="question" unicode="?" horiz-adv-x="469" 
d="M167 88h50v-88h-50v88zM217 202h-50v144l14 7q65 31 117 83q54 54 59 106q1 9 1 18q0 54 -35 89q-42 43 -119 43q-17 0 -35 -3q-39 -5 -69 -14.5t-41 -16.5l-11 -7v52l2 1.5t5.5 4t9.5 5.5t15 6t20.5 6.5t27.5 6.5t35 6q21 3 41 3q97 0 155 -58q49 -49 49 -125
q0 -10 -1 -21q-7 -71 -74 -138q-49 -48 -116 -85v-113z" />
    <glyph glyph-name="at" unicode="@" horiz-adv-x="925" 
d="M474 2q44 0 85 7.5t60.5 14t19.5 7.5v-52q-64 -27 -165 -27q-161 0 -296 93q-26 18 -48 40q-110 110 -110 290q0 96 32.5 184t88.5 144q14 14 30 26q63 46 143.5 73.5t164.5 27.5q180 0 306 -126q10 -9 19 -20q90 -100 90 -250q0 -28 -4 -57q-6 -54 -23 -111t-25.5 -76
t-14.5 -31l-7 -13h-223v72q-58 -62 -141 -72q-13 -2 -26 -2q-74 0 -124 50q-66 66 -66 195q0 23 2 48q9 90 62 144q26 25 59.5 40t46.5 16.5t23 2.5h214v-444h142q41 90 52 186q3 27 3 52q0 131 -77 217q-8 9 -17 18q-111 111 -272 111q-75 0 -147.5 -24.5t-130.5 -67.5
q-12 -9 -24 -21q-47 -47 -76.5 -126.5t-29.5 -165.5q0 -159 96 -255q19 -19 41 -34q121 -84 267 -84zM597 590h-163q-15 -1 -37 -9q-33 -12 -57 -35q-41 -41 -48 -114q-2 -22 -2 -43q0 -108 52 -160q35 -35 87 -35q10 0 21 2q62 7 107 52q27 27 40 56v286zM435 590z" />
    <glyph glyph-name="A" unicode="A" horiz-adv-x="574" 
d="M264 793h24h19l245 -793h-53l-101 328h-225l-101 -328h-52zM382 378l-96 314l-97 -314h193z" />
    <glyph glyph-name="B" unicode="B" horiz-adv-x="465" 
d="M98 49q49 0 93 7q111 15 161 65q38 38 38 97q0 61 -36 97q-49 49 -160 57q-20 1 -42 1h-5q-37 -6 -76 -8v-315q13 -1 27 -1zM370 586q0 -115 -105 -174q79 -17 124 -62q51 -51 51 -132q0 -79 -53 -132q-62 -62 -189 -80q-48 -7 -100 -7q-32 0 -54 3l-23 2v386v400l22 3
q20 2 48 2q37 0 72 -5q101 -14 155 -68q52 -52 52 -136zM320 586q0 63 -38 101q-41 41 -126 54q-29 4 -68 4h-9h-8v-326q36 4 71 4q93 17 138 63q40 39 40 100z" />
    <glyph glyph-name="C" unicode="C" horiz-adv-x="518" 
d="M350 1q-29 0 -57 3q-98 11 -173 85q-111 111 -111 328q0 183 105 287q42 43 91 64.5t90 23.5q19 1 39 1q91 0 146 -15l-1 -51q-58 16 -144 16q-19 0 -38 -1q-30 -2 -71.5 -20t-76.5 -53q-90 -90 -90 -252q0 -196 97 -293q62 -62 143 -70q26 -3 52 -3q34 0 65.5 4.5
t46.5 8.5l15 5v-51q-50 -17 -128 -17z" />
    <glyph glyph-name="D" unicode="D" horiz-adv-x="519" 
d="M109 46q150 0 237 87q89 89 89 262.5t-89 262.5q-87 87 -237 87h-12v-698q6 -1 12 -1zM109 795q46 0 91 -9q111 -22 181 -92q104 -104 104 -298.5t-104 -297.5q-70 -71 -182 -93q-44 -9 -90 -9q-24 0 -40 2l-22 3v789l22 3q16 2 40 2z" />
    <glyph glyph-name="E" unicode="E" horiz-adv-x="407" 
d="M365 793v-50h-286v-292h146v-50h-146v-350h286v-50h-336v792h336z" />
    <glyph glyph-name="F" unicode="F" horiz-adv-x="407" 
d="M365 793v-50h-286v-292h146v-50h-146v-401h-50v793h336z" />
    <glyph glyph-name="G" unicode="G" horiz-adv-x="518" 
d="M335 743q-19 0 -38 -1q-30 -2 -71.5 -20t-76.5 -53q-90 -90 -90 -252q0 -196 97 -293q62 -62 143 -70q26 -3 52 -3q59 0 110 13v326h-137v50h187v-413l-17 -6q-60 -20 -144 -20q-29 0 -57 3q-98 11 -173 85q-111 111 -111 328q0 183 105 287q42 43 91 64.5t90 23.5
q19 1 39 1q91 0 146 -15l-1 -51q-58 16 -144 16z" />
    <glyph glyph-name="H" unicode="H" horiz-adv-x="419" 
d="M29 768h50v-317h261v317h50v-768h-50v401h-261v-401h-50v768z" />
    <glyph glyph-name="I" unicode="I" horiz-adv-x="195" 
d="M164 793v-50h-43v-693h43v-50h-138v50h45v693h-45v50h138z" />
    <glyph glyph-name="J" unicode="J" horiz-adv-x="197" 
d="M166 795v-624q0 -81 -49 -130q-25 -25 -58 -37q-22 -8 -39 -8v50q8 0 22 5q22 8 39 25q35 35 35 95v574h-85v50h135z" />
    <glyph glyph-name="K" unicode="K" horiz-adv-x="449" 
d="M28 768h50v-404l302 401l57 -1l-249 -338l257 -426h-59l-230 383l-78 -101v-281h-50v767z" />
    <glyph glyph-name="L" unicode="L" horiz-adv-x="407" 
d="M365 51v-50h-336v767h50v-717h286z" />
    <glyph glyph-name="M" unicode="M" horiz-adv-x="634" 
d="M316 214h-1h-16l-220 452v-666h-50v793h25h3h16l243 -498l242 498h16h3h25v-793h-50v666l-220 -452h-16z" />
    <glyph glyph-name="N" unicode="N" horiz-adv-x="530" 
d="M54 793h3h14l368 -609v584h50v-768h-50v87l-360 596v-683h-50v793h25z" />
    <glyph glyph-name="O" unicode="O" horiz-adv-x="785" 
d="M382 745q-31 0 -62 -3q-27 -3 -67 -21.5t-76 -54.5q-98 -98 -98 -278q0 -169 90 -259q37 -37 79.5 -55t71.5 -21q33 -4 66 -4h6h6q33 0 66 4q29 3 71.5 21t79.5 55q90 90 90 259q0 180 -98 278q-36 36 -76 54.5t-67 21.5q-31 3 -62 3h-10v0h-10zM386 -1q-36 0 -71 4
q-38 5 -87.5 25.5t-93.5 65.5q-105 105 -105 294q0 201 113 314q42 42 89.5 64t83.5 25q33 4 67 4h10h10q34 0 67 -4q36 -3 83.5 -25t89.5 -64q113 -113 113 -314q0 -189 -105 -294q-44 -45 -93.5 -65.5t-87.5 -25.5q-35 -4 -71 -4h-6h-6z" />
    <glyph glyph-name="P" unicode="P" horiz-adv-x="465" 
d="M71 745v-330q64 3 120.5 20.5t88.5 50.5q40 39 40 100q0 63 -38 101q-41 41 -126 54q-29 4 -68 4h-9h-8zM21 790l22 3q20 2 48 2q37 0 72 -5q101 -14 155 -68q52 -52 52 -136q0 -81 -54 -136q-53 -53 -152 -74q-45 -9 -93 -11v-365h-50v390v400z" />
    <glyph glyph-name="Q" unicode="Q" horiz-adv-x="785" 
d="M382 745q-31 0 -62 -3q-27 -3 -67 -21.5t-76 -54.5q-98 -98 -98 -278q0 -169 90 -259q37 -37 79.5 -55t71.5 -21q33 -4 66 -4h6h6q33 0 66 4q29 3 71.5 21t79.5 55q90 90 90 259q0 180 -98 278q-36 36 -76 54.5t-67 21.5q-31 3 -62 3h-10v0h-10zM490 7q-36 -8 -92 -8h-6
h-6q-36 0 -71 4q-38 5 -87.5 25.5t-93.5 65.5q-105 105 -105 294q0 201 113 314q42 42 89.5 64t83.5 25q33 4 67 4h10h10q34 0 67 -4q36 -3 83.5 -25t89.5 -64q113 -113 113 -314q0 -189 -105 -294q-47 -48 -110 -72v-1q0 -12 2 -24q5 -31 22 -48q4 -4 8 -7q20 -14 49 -14
q9 0 18 1q14 2 27.5 6t19.5 7l7 3v-53q-16 -8 -47 -12q-13 -2 -25 -2q-46 0 -79 24q-7 5 -13 11q-29 29 -37 76z" />
    <glyph glyph-name="R" unicode="R" horiz-adv-x="417" 
d="M21 790l22 3q20 2 48 2q37 0 72 -5q101 -14 155 -68q52 -52 52 -136q0 -81 -54 -136q-36 -36 -93 -57q48 -17 79 -47q30 -31 39 -73l55 -273h-52q-33 181 -51 263q-7 27 -27 48q-36 36 -116 49q-32 5 -66 6q-7 -1 -13 -1v-365h-50v390v400zM320 586q0 63 -38 101
q-41 41 -126 54q-29 4 -68 4h-9h-8v-329h3h9q36 2 70 9q85 18 127 61q40 39 40 100z" />
    <glyph glyph-name="S" unicode="S" horiz-adv-x="548" 
d="M526 245q0 -111 -77.5 -177.5t-192.5 -66.5q-38 0 -77.5 7.5t-66 17t-52 21.5t-33 17t-12.5 8v58q5 -3 14 -8.5t36.5 -19t54.5 -24t64.5 -19t71.5 -8.5q105 0 167 62q53 52 53 131q0 8 -1 17q-3 39 -27 63q-21 21 -62 36q-34 13 -114 29t-116 29q-50 19 -79 47
q-42 42 -42 109q0 16 2 32q11 76 57 122q66 66 195 66h14q88 -3 166 -27v-52l-16 4q-70 22 -151 25h-13q-108 0 -159 -51q-35 -35 -43 -94q-2 -14 -2 -26q0 -45 27 -72q21 -21 62 -36q34 -12 114 -28.5t115 -29.5q51 -19 80 -47q43 -43 43 -115z" />
    <glyph glyph-name="T" unicode="T" horiz-adv-x="387" 
d="M362 793v-50h-141v-743h-50v743h-146v50h337z" />
    <glyph glyph-name="U" unicode="U" horiz-adv-x="577" 
d="M285.5 0q-64.5 0 -120 20t-90.5 55q-42 42 -42 93v600h50v-600q0 -31 27 -58t73.5 -43.5t101.5 -16.5t102 16.5t73 43.5q28 27 28 58v600h50v-600q0 -51 -42 -93q-35 -35 -90.5 -55t-120 -20z" />
    <glyph glyph-name="V" unicode="V" horiz-adv-x="717" 
d="M371 2h-8h-17l-324 775l54 1l291 -696l291 696l53 -1l-323 -775h-17z" />
    <glyph glyph-name="W" unicode="W" horiz-adv-x="1071" 
d="M345 3h-8h-17l-324 774l54 1l291 -695l168 401l-123 293l54 1l96 -229l96 229h55l-124 -294l168 -401l291 695l54 -1l-324 -774h-17h-8h-17l-174 416l-174 -416h-17z" />
    <glyph glyph-name="X" unicode="X" horiz-adv-x="667" 
d="M648 0h-62l-249 342l-249 -342h-61l279 384l-291 399h62l260 -357l260 357h62l-291 -399z" />
    <glyph glyph-name="Y" unicode="Y" horiz-adv-x="763" 
d="M408 0h-50v425l-339 360h68l296 -314l296 314h69l-340 -360v-425z" />
    <glyph glyph-name="Z" unicode="Z" horiz-adv-x="530" 
d="M31 743v50h493v-35v-7l-457 -699h428v-50h-493v35v7l457 699h-428z" />
    <glyph glyph-name="bracketleft" unicode="[" horiz-adv-x="154" 
d="M152 -64v-50h-122v990h122v-50h-72v-890h72z" />
    <glyph glyph-name="backslash" unicode="\" horiz-adv-x="520" 
d="M427 0h57l-404 754h-57z" />
    <glyph glyph-name="bracketright" unicode="]" horiz-adv-x="154" 
d="M55 -114v50h72v890h-72v50h122v-990h-122z" />
    <glyph glyph-name="asciicircum" unicode="^" horiz-adv-x="234" 
d="M113 741h8h7l89 -49l-25 -44l-71 40l-72 -40l-24 44z" />
    <glyph glyph-name="underscore" unicode="_" horiz-adv-x="494" 
d="M498 -35v-50h-512v50h512z" />
    <glyph glyph-name="grave" unicode="`" horiz-adv-x="325" 
d="M49 751h79l106 -138h-39z" />
    <glyph glyph-name="a" unicode="a" horiz-adv-x="468" 
d="M245 540q70 0 131 -25q26 -10 43 -28q31 -30 31 -69v-418h-50v46q-101 -43 -186 -43q-98 0 -155 57q-51 51 -51 131q0 76 48 125q33 32 85 49q42 14 93 17h15q53 0 151 -12v48q0 5 -2 12q-9 26 -40 39q-52 21 -113 21q-55 0 -145 -25v53q79 22 145 22zM248 332h-12
q-44 -2 -80 -14q-40 -14 -64 -38q-34 -33 -34 -89q0 -59 36 -96q42 -42 121 -42q82 0 185 48v218q-104 13 -152 13z" />
    <glyph glyph-name="b" unicode="b" horiz-adv-x="497" 
d="M27 750h50v-217q55 12 115 12q28 0 55 -3q31 -3 74 -21.5t79 -54.5q72 -72 72 -185q0 -141 -76 -216q-62 -63 -161 -63q-73 0 -158 36v-38h-50v750zM235 52q78 0 126 48q61 61 61 181q0 92 -57 150q-29 28 -65 43.5t-57 17.5q-26 3 -52 3q-61 0 -114 -14v-389
q87 -40 158 -40z" />
    <glyph glyph-name="c" unicode="c" horiz-adv-x="472" 
d="M289 1q-28 0 -55 3q-33 3 -75.5 19.5t-78.5 53.5q-71 71 -71 190q0 126 76 202q35 35 76 52.5t73 20.5q25 2 51 2q83 0 134 -16l-1 -51q-52 17 -132 17q-24 0 -48 -2q-23 -2 -56.5 -16.5t-61.5 -41.5q-61 -62 -61 -167q0 -99 56 -155q29 -28 64 -42t59 -16q26 -3 52 -3
q77 0 128 18l1 -51q-50 -17 -130 -17z" />
    <glyph glyph-name="d" unicode="d" horiz-adv-x="499" 
d="M257 2q-99 0 -161 63q-76 75 -76 216q0 113 72 185q36 36 79 54.5t74 21.5q27 3 55 3q60 0 115 -12v217h50v-750h-50v38q-85 -36 -158 -36zM301 495q-26 0 -52 -3q-21 -2 -57 -17.5t-65 -43.5q-57 -58 -57 -150q0 -120 61 -181q48 -48 126 -48q71 0 158 40v389
q-53 14 -114 14z" />
    <glyph glyph-name="e" unicode="e" horiz-adv-x="531" 
d="M500 240h-430q6 -81 55 -130q29 -28 64 -42t59 -16q26 -3 52 -3q34 0 66 4.5t47 8.5l15 5v-51q-50 -17 -129 -17q-28 0 -55 3q-33 3 -75.5 19.5t-78.5 53.5q-71 71 -71 190q0 131 73 204q71 71 188 71q93 0 150 -57q47 -47 64 -126q8 -39 8 -79q0 -9 -2 -38zM280 490
q-96 0 -153 -57q-51 -51 -57 -143h382q-1 29 -7 57q-31 143 -165 143z" />
    <glyph glyph-name="f" unicode="f" horiz-adv-x="312" 
d="M249 724q-14 0 -29 -1q-11 -1 -30 -9t-34 -23q-34 -34 -34 -93v-55h173v-50h-173v-495h-50v495h-43v50h43v55q0 80 49 128q41 42 95 47q16 1 32 1q51 0 77 -8v-51q-30 9 -76 9z" />
    <glyph glyph-name="g" unicode="g" horiz-adv-x="498" 
d="M207 -158q18 0 35 1q42 3 76 15q40 13 65 38q38 38 38 102v38q-85 -36 -158 -36q-99 0 -161 63q-76 75 -76 216q0 113 72 185q36 36 79 54.5t74 21.5q27 3 55 3q59 0 115 -12v17h50v-550q0 -85 -53 -137q-33 -33 -84 -51q-40 -14 -88 -17q-19 -1 -39 -1q-73 0 -129 14v51
q62 -15 129 -15zM307 493q-26 0 -52 -3q-21 -2 -57 -17.5t-65 -43.5q-57 -58 -57 -150q0 -120 61 -181q48 -48 126 -48q71 0 158 40v390q-53 13 -114 13z" />
    <glyph glyph-name="h" unicode="h" horiz-adv-x="502" 
d="M24 748h50v-217q55 12 115 12q28 0 55 -3q31 -3 74 -21.5t79 -54.5q72 -72 72 -185v-281h-50v281q0 92 -57 150q-29 28 -65 43.5t-57 17.5q-26 3 -52 3q-61 0 -114 -14v-481h-50v750z" />
    <glyph glyph-name="i" unicode="i" horiz-adv-x="150" 
d="M50 518h50v-520h-50v520zM100 635h-50v84h50v-84z" />
    <glyph glyph-name="j" unicode="j" horiz-adv-x="209" 
d="M156 635h-50v84h50v-84zM106 -22v515h-59v50h109v-565q0 -81 -49 -130q-25 -25 -58 -37q-22 -8 -39 -8v50q8 0 22 5q22 8 39 25q35 35 35 95z" />
    <glyph glyph-name="k" unicode="k" horiz-adv-x="410" 
d="M27 748h50v-409l215 161h76l-178 -139l194 -361h-57l-178 331l-72 -54v-279h-50v750z" />
    <glyph glyph-name="l" unicode="l" horiz-adv-x="124" 
d="M35 748h50v-750h-50v750z" />
    <glyph glyph-name="m" unicode="m" horiz-adv-x="902" 
d="M46 548h50v-17q55 12 115 12q28 0 55 -3q30 -3 70.5 -19.5t75.5 -49.5q79 71 188 71q18 0 37 -2q31 -4 73.5 -22t78.5 -54q72 -72 72 -185v-281h-50v281q0 92 -57 149q-29 29 -64.5 44.5t-58.5 17.5q-16 2 -31 2q-91 0 -155 -59q46 -65 46 -154v-281h-50v281
q0 92 -57 150q-29 28 -65 43.5t-57 17.5q-26 3 -52 3q-61 0 -114 -14v-481h-50v550z" />
    <glyph glyph-name="n" unicode="n" horiz-adv-x="490" 
d="M24 548h50v-17q55 12 115 12q28 0 55 -3q31 -3 74 -21.5t79 -54.5q72 -72 72 -185v-281h-50v281q0 92 -57 150q-29 28 -65 43.5t-57 17.5q-26 3 -52 3q-61 0 -114 -14v-481h-50v550z" />
    <glyph glyph-name="o" unicode="o" horiz-adv-x="602" 
d="M294 492q-24 0 -47 -2t-56.5 -16.5t-61.5 -41.5q-61 -62 -61 -167q0 -99 56 -155q29 -28 64 -42t59.5 -16.5t49.5 -2.5h5h5q25 0 49.5 2.5t59.5 16.5t64 42q56 56 56 155q0 105 -61 167q-28 27 -61.5 41.5t-56.5 16.5t-47 2h-8h-8zM297 -1q-27 0 -54 3q-33 3 -75.5 19.5
t-78.5 53.5q-71 71 -71 190q0 126 76 202q35 35 76 52.5t73 20.5q25 2 51 2h8h8q26 0 51 -2q32 -3 73 -20.5t76 -52.5q76 -76 76 -202q0 -119 -71 -190q-36 -37 -78.5 -53.5t-75.5 -19.5q-27 -3 -54 -3h-5h-5z" />
    <glyph glyph-name="p" unicode="p" horiz-adv-x="496" 
d="M26 -172v730h50v-17q55 12 115 12q28 0 55 -3q31 -3 74 -21.5t79 -54.5q72 -72 72 -185q0 -141 -76 -216q-62 -63 -161 -63q-73 0 -158 36v-218h-50zM234 60q78 0 126 48q61 61 61 181q0 92 -57 150q-29 28 -65 43.5t-57 17.5q-26 3 -52 3q-61 0 -114 -14v-389
q87 -40 158 -40z" />
    <glyph glyph-name="q" unicode="q" horiz-adv-x="478" 
d="M455 -172h-50v218q-85 -36 -158 -36q-99 0 -161 63q-76 75 -76 216q0 113 72 185q36 36 79 54.5t74 21.5q27 3 55 3q60 0 115 -12v17h50v-730zM291 503q-26 0 -52 -3q-21 -2 -57 -17.5t-65 -43.5q-57 -58 -57 -150q0 -120 61 -181q48 -48 126 -48q71 0 158 40v389
q-53 14 -114 14z" />
    <glyph glyph-name="r" unicode="r" horiz-adv-x="408" 
d="M22 548h50v-17q55 12 115 12q28 0 55 -3q71 -7 124 -59q17 -16 24 -27l-19 -46q-23 26 -39 39q-28 23 -46.5 32t-47.5 11q-36 3 -52 3q-61 0 -114 -14v-481h-50v550z" />
    <glyph glyph-name="s" unicode="s" horiz-adv-x="422" 
d="M364 469q-75 19 -139 19q-89 0 -126 -37q-26 -26 -26 -67q0 -21 14.5 -35.5t45.5 -24.5q28 -9 84.5 -18.5t99.5 -22.5t67 -37q29 -29 29 -77q0 -63 -44 -108q-61 -60 -170 -60q-47 0 -95.5 13t-65 20.5t-26.5 13.5v55q11 -6 29.5 -14.5t68 -23t89.5 -14.5q88 0 134 46
q30 30 30 72q0 27 -14 42q-15 14 -46 24q-28 10 -84.5 19t-99 21.5t-67.5 37.5q-28 29 -28 73q0 11 1 22q8 47 39 78q52 52 161 52h5q71 -1 135 -18z" />
    <glyph glyph-name="t" unicode="t" horiz-adv-x="363" 
d="M249 2q-16 0 -32 1q-54 5 -95 47q-49 48 -49 128v315h-43v50h43v205h50v-205h173v-50h-173v-315q0 -59 34 -93q15 -15 34 -23t30 -9q15 -1 29 -1l76 9v-51q-26 -8 -77 -8z" />
    <glyph glyph-name="u" unicode="u" horiz-adv-x="473" 
d="M410 548h50v-550h-50v17q-55 -12 -115 -12q-28 0 -55 3q-31 3 -74 21.5t-79 54.5q-72 72 -72 185v281h50v-281q0 -92 57 -150q29 -28 65 -43.5t57 -17.5q26 -3 52 -3q61 0 114 14v481z" />
    <glyph glyph-name="v" unicode="v" horiz-adv-x="524" 
d="M259 0h-16l-254 558h55l217 -478l218 478l54 -1l-253 -557h-16h-5z" />
    <glyph glyph-name="w" unicode="w" horiz-adv-x="835" 
d="M567 0h-16l-137 300l-136 -300h-16h-5h-16l-254 558h55l217 -478l128 280l-90 199l55 -1l62 -138l63 138h55l-90 -198l128 -280l217 478h55l-254 -558h-16h-5z" />
    <glyph glyph-name="x" unicode="x" horiz-adv-x="465" 
d="M-16 563h63l185 -248l185 248l61 -1l-215 -289l205 -273h-64l-172 231l-172 -231h-63l204 273z" />
    <glyph glyph-name="y" unicode="y" horiz-adv-x="541" 
d="M226 -172l-54 1l72 169l-243 560h55l215 -497l211 497l54 -1z" />
    <glyph glyph-name="z" unicode="z" horiz-adv-x="442" 
d="M24 523v50h423v-35v-9l-383 -479h354v-50h-423v35v9l383 479h-354z" />
    <glyph glyph-name="braceleft" unicode="{" horiz-adv-x="211" 
d="M122 143q0 -18 -0.5 -47.5t-0.5 -43.5q0 -10 7 -16q9 -10 29 -15l28 -4l-2 -50q-18 0 -38 6q-34 8 -53 27q-21 22 -21 52q0 14 0.5 43t0.5 48q0 132 -18 191q-8 22 -16 31q-4 4 -8 4v50q4 0 8 4q8 9 16 31q18 59 18 191q0 19 -0.5 48t-0.5 43q0 30 21 52q19 19 53 27
q20 6 38 6l2 -50q-12 0 -28 -4q-20 -5 -29 -15q-7 -6 -7 -16q0 -14 0.5 -43.5t0.5 -47.5q0 -140 -21 -206q-9 -29 -22 -45q13 -16 22 -45q21 -66 21 -206z" />
    <glyph glyph-name="bar" unicode="|" horiz-adv-x="186" 
d="M67 866h50v-942h-50v942z" />
    <glyph glyph-name="braceright" unicode="}" horiz-adv-x="211" 
d="M142 143q0 -19 0.5 -48t0.5 -43q0 -30 -21 -52q-19 -19 -53 -27q-22 -6 -38 -6l-2 50q12 0 28 4q20 5 29 15q7 6 7 16q0 14 -0.5 43.5t-0.5 47.5q0 140 21 206q9 29 22 45q-13 16 -22 45q-21 66 -21 206q0 18 0.5 47.5t0.5 43.5q0 10 -7 16q-9 10 -29 15l-28 4l2 50
q18 0 38 -6q34 -8 53 -27q21 -22 21 -52q0 -14 -0.5 -43t-0.5 -48q0 -132 18 -191q8 -22 16 -31q4 -4 8 -4v-50q-4 0 -8 -4q-8 -9 -16 -31q-18 -59 -18 -191z" />
    <glyph glyph-name="asciitilde" unicode="~" horiz-adv-x="474" 
d="M156 544q21 0 38.5 -7.5t32 -23t21.5 -26t19 -30.5q20 -35 32 -47q16 -15 35 -15q18 0 32 14q19 19 31 60q4 13 6.5 26t2.5 19l1 7l50 -4q-2 -29 -12 -62q-15 -53 -43 -81q-29 -29 -68 -29q-22 0 -39 7.5t-31 23t-21 26t-19 30.5q-21 34 -32 46q-16 16 -36 16
q-23 0 -39 -17q-18 -17 -29 -52q-3 -11 -5.5 -21.5t-3.5 -16.5v-5l-50 4q2 25 12 54q14 46 41 73q31 31 74 31z" />
    <glyph glyph-name="uni00A0" unicode="&#xa0;" horiz-adv-x="288" 
 />
    <glyph glyph-name="exclamdown" unicode="&#xa1;" horiz-adv-x="137" 
d="M39 717h50v-88h-50v88zM39 515h50v-515h-50v515z" />
    <glyph glyph-name="cent" unicode="&#xa2;" horiz-adv-x="472" 
d="M289 1q-10 0 -20 1v-110h-50v114q-82 14 -139 71q-71 71 -71 190q0 126 76 202q57 57 134 71v92h50v-88h16q88 0 149 -19l-16 -48q-52 17 -132 17h-17v-442q10 -1 21 -1q77 0 128 18l16 -48q-60 -20 -145 -20zM59 267q0 -99 56 -155q41 -41 104 -55v432q-58 -14 -99 -55
q-61 -62 -61 -167z" />
    <glyph glyph-name="sterling" unicode="&#xa3;" horiz-adv-x="588" 
d="M393 740q-42 0 -83 -15q-24 -9 -41 -26q-28 -29 -41 -78q-8 -32 -8 -60v-1v-1v-162h212v-50h-212v-87q-1 -44 -13 -95q-18 -75 -56 -115h391v-50h-507v56l24 1q31 2 53 24q31 31 47 96q10 44 11 83v87h-82v50h82v162v2q0 34 10 72q16 63 54 101q25 25 58 37q50 19 101 19
q76 0 110 -23v-56q-22 16 -66 25q-22 4 -44 4z" />
    <glyph glyph-name="currency" unicode="&#xa4;" horiz-adv-x="577" 
d="M408 1q-29 0 -57 3q-98 11 -173 85q-87 87 -106 241h-44v50h40q-1 18 -1 37v13h-39v50h43q16 139 101 224q42 43 91 64.5t90 23.5q19 1 39 1q90 0 145 -15v-51q-58 16 -144 16q-19 0 -38 -1q-30 -2 -71.5 -20t-76.5 -53q-71 -71 -86 -189h155l-20 -50h-139v-13
q0 -19 1 -37h88l-20 -50h-64q18 -132 92 -206q62 -62 143 -70q26 -3 52 -3q76 0 127 18l1 -51q-50 -17 -129 -17z" />
    <glyph glyph-name="yen" unicode="&#xa5;" horiz-adv-x="546" 
d="M383 460v-50h-92v-10h92v-50h-92v-350h-50v350h-90v50h90v10h-90v50h82l-244 280l38 32l239 -274l252 275l36 -34l-254 -279h83z" />
    <glyph glyph-name="brokenbar" unicode="&#xa6;" horiz-adv-x="100" 
d="M21 356h50v-390h-50v390zM21 830h50v-394h-50v394z" />
    <glyph glyph-name="section" unicode="&#xa7;" horiz-adv-x="378" 
d="M143 2q9 0 19 1q51 4 89.5 44.5t38.5 94.5q0 40 -23 79q-26 43 -93 101q-25 22 -35 32q-29 29 -37 56q-3 11 -3 23q0 25 15 52q-39 38 -61 76q-31 51 -31 105q0 73 51.5 128.5t122.5 60.5q11 1 22 1q80 0 123 -44q10 -9 15 -18l-44 -24q-2 3 -6 7q-29 29 -87 29
q-9 0 -19 -1q-51 -4 -89.5 -44.5t-38.5 -94.5q0 -40 23 -79q26 -43 93 -101q25 -22 35 -32q29 -29 37 -56q3 -11 3 -23q0 -25 -15 -52q39 -38 61 -76q31 -51 31 -105q0 -73 -51.5 -128.5t-122.5 -60.5q-11 -1 -22 -1q-80 0 -123 44q-10 9 -15 18l44 24q2 -3 6 -7
q29 -29 87 -29zM148 434q0 -5 2 -10q4 -14 24 -34q9 -10 36 -33q4 9 4 17q0 5 -2 10q-4 14 -24 34q-9 10 -36 33q-4 -9 -4 -17z" />
    <glyph glyph-name="dieresis" unicode="&#xa8;" horiz-adv-x="325" 
d="M270 739h-56v-62h56v62zM116 739h-56v-62h56v62z" />
    <glyph glyph-name="copyright" unicode="&#xa9;" horiz-adv-x="785" 
d="M382 745q-31 0 -62 -3q-27 -3 -67 -21.5t-76 -54.5q-98 -98 -98 -278q0 -169 90 -259q37 -37 79.5 -55t71.5 -21q33 -4 66 -4h6h6q33 0 66 4q29 3 71.5 21t79.5 55q90 90 90 259q0 180 -98 278q-36 36 -76 54.5t-67 21.5q-31 3 -62 3h-10v0h-10zM413 143q-22 0 -44 2
q-91 7 -154 70q-73 74 -73 203q0 108 68 176q35 36 79 53.5t81 19.5h31q65 0 112 -10l1 -50q-45 10 -113 10h-29q-27 -1 -63 -15.5t-64 -42.5q-53 -54 -53 -141q0 -109 59 -168q49 -49 122 -56q20 -1 41 -1l99 11v-51q-37 -10 -100 -10zM386 -1q-36 0 -71 4
q-38 5 -87.5 25.5t-93.5 65.5q-105 105 -105 294q0 201 113 314q42 42 89.5 64t83.5 25q33 4 67 4h10h10q34 0 67 -4q36 -3 83.5 -25t89.5 -64q113 -113 113 -314q0 -189 -105 -294q-44 -45 -93.5 -65.5t-87.5 -25.5q-35 -4 -71 -4h-6h-6z" />
    <glyph glyph-name="ordfeminine" unicode="&#xaa;" horiz-adv-x="459" 
d="M424 277h-65l-20 47q-14 -10 -26.5 -19.5t-34.5 -18.5q-22 -10 -42 -15t-57 -5q-64 0 -108 42t-43 108q0 53 23 87t61 52q40 18 99.5 26t127.5 11v8q0 27 -9 43t-26 25q-16 10 -38 12.5t-46 1.5q-30 0 -85 -12l-41 -11l-26 77q39 11 68 16q46 8 84 8q109 0 156.5 -42.5
t47.5 -121.5v-319zM339 398v122q-35 -1 -80.5 -5.5t-72.5 -11.5q-32 -9 -51.5 -28t-19.5 -53q0 -38 23 -57.5t70 -18.5q40 0 73 16.5t58 35.5z" />
    <glyph glyph-name="guillemotleft" unicode="&#xab;" horiz-adv-x="349" 
d="M5 430v6v13l165 112l28 -42l-128 -86l128 -86l-28 -42l-165 112v13zM135 430v6v13l165 112l28 -42l-128 -86l128 -86l-28 -42l-165 112v13z" />
    <glyph glyph-name="logicalnot" unicode="&#xac;" horiz-adv-x="472" 
d="M391 439h-359v50h409v-127h-50v77z" />
    <glyph glyph-name="uni00AD" unicode="&#xad;" horiz-adv-x="393" 
d="M40 355v50h318v-50h-318z" />
    <glyph glyph-name="registered" unicode="&#xae;" horiz-adv-x="785" 
d="M386 -1q-36 0 -71 4q-38 5 -87.5 25.5t-93.5 65.5q-105 105 -105 294q0 201 113 314q42 42 89.5 64t83.5 25q33 4 67 4h10h10q34 0 67 -4q36 -3 83.5 -25t89.5 -64q113 -113 113 -314q0 -189 -105 -294q-44 -45 -93.5 -65.5t-87.5 -25.5q-35 -4 -71 -4h-6h-6zM382 745
q-31 0 -62 -3q-27 -3 -67 -21.5t-76 -54.5q-98 -98 -98 -278q0 -169 90 -259q37 -37 79.5 -55t71.5 -21q33 -4 66 -4h6h6q33 0 66 4q29 3 71.5 21t79.5 55q90 90 90 259q0 180 -98 278q-36 36 -76 54.5t-67 21.5q-31 3 -62 3h-10v0h-10zM482 533q0 31 -20 51q-39 39 -140 39
h-8v-189h2q104 6 145 47q21 21 21 52zM264 409v261l22 2q15 1 36 1q30 0 58 -3q78 -11 118 -50q34 -35 34 -87t-35 -87q-21 -21 -53 -35q24 -11 41 -28q19 -19 26 -45q21 -84 41 -174l-52 -1q-24 112 -37 163q-4 12 -13 22q-24 24 -82 32q-25 4 -51 4h-3v-221h-50v246z" />
    <glyph glyph-name="macron" unicode="&#xaf;" horiz-adv-x="204" 
d="M184 781v-50h-163v50h163z" />
    <glyph glyph-name="degree" unicode="&#xb0;" horiz-adv-x="236" 
d="M122 749q-19 0 -32 -15t-13 -36t13 -36t32 -15t32 15t13 36t-13 36t-32 15zM122 597q-40 0 -67.5 30t-27.5 71t27.5 71t67.5 30t67.5 -30t27.5 -71t-27.5 -71t-67.5 -30z" />
    <glyph glyph-name="plusminus" unicode="&#xb1;" horiz-adv-x="389" 
d="M36 355v50h134v134h50v-134h134v-50h-134v-134h-50v134h-134zM36 95v50h318v-50h-318z" />
    <glyph glyph-name="uni00B2" unicode="&#xb2;" horiz-adv-x="212" 
d="M216 492v-46h-214v37l8 8q19 16 44 41q52 52 81 94q30 44 30 70q0 29 -13 43q-12 11 -36 11q-41 0 -61 -19l-38 32q1 2 3 3q34 34 96 34q45 0 71 -26q28 -28 28 -78q0 -42 -39 -98q-31 -46 -87 -102h102l-5 -4h30z" />
    <glyph glyph-name="uni00B3" unicode="&#xb3;" horiz-adv-x="190" 
d="M147 629q44 -27 44 -79q0 -49 -28 -77q-26 -26 -71 -26q-62 0 -96 34q-2 1 -3 2l38 33q20 -19 61 -19q24 0 36 11q13 14 13 43q0 17 -10 28q-15 15 -50 21q-16 4 -34 4h-7h-7v50h7h7q18 1 34 4q35 6 50 21q10 11 10 29q0 22 -9 31q-11 11 -40 11q-41 0 -61 -19l-38 32
q1 2 3 3q34 34 96 34q50 0 75 -25q24 -24 24 -67q0 -51 -44 -79z" />
    <glyph glyph-name="acute" unicode="&#xb4;" horiz-adv-x="325" 
d="M234 751h-79l-106 -138h39z" />
    <glyph glyph-name="mu" unicode="&#xb5;" horiz-adv-x="496" 
d="M410 548h50v-550h-50v17q-55 -12 -115 -12q-28 0 -55 3q-31 3 -74 21.5t-79 54.5q-12 12 -22 25v-279h-50v720h50v-281q0 -92 57 -150q29 -28 65 -43.5t57 -17.5q26 -3 52 -3q61 0 114 14v481z" />
    <glyph glyph-name="paragraph" unicode="&#xb6;" horiz-adv-x="342" 
d="M309 -38h-50v769h-30v-769h-50v457q-49 10 -91 52q-55 55 -55 131q0 40 14.5 74t36.5 56t52 34t42.5 13.5t19.5 1.5h111v-819z" />
    <glyph glyph-name="periodcentered" unicode="&#xb7;" horiz-adv-x="230" 
d="M80 500h66v-82h-66v82z" />
    <glyph glyph-name="cedilla" unicode="&#xb8;" horiz-adv-x="338" 
d="M52 -190v57q11 -4 25 -8q23 -7 50 -7q56 0 84 22q29 23 29 72q0 20 -4 52h54q2 -25 2 -42q0 -77 -42 -116q-42 -40 -110 -40q-43 0 -88 10z" />
    <glyph glyph-name="uni00B9" unicode="&#xb9;" horiz-adv-x="150" 
d="M84 801h31v-330h-50v270l-24 -9l-17 47z" />
    <glyph glyph-name="ordmasculine" unicode="&#xba;" horiz-adv-x="567" 
d="M498 512q0 -117 -61 -182t-157 -64q-101 0 -160.5 66t-59.5 180q0 115 59.5 181.5t160.5 66.5q96 0 157 -65t61 -183zM407 512q0 86 -33.5 129.5t-93.5 42.5q-62 0 -95 -43t-33 -129q0 -85 33 -128t95 -43q60 0 93.5 42.5t33.5 128.5z" />
    <glyph glyph-name="guillemotright" unicode="&#xbb;" horiz-adv-x="349" 
d="M339 436v-6v-13l-165 -112l-28 42l128 86l-128 86l28 42l165 -112v-13zM209 436v-6v-13l-165 -112l-28 42l128 86l-128 86l28 42l165 -112v-13z" />
    <glyph glyph-name="onequarter" unicode="&#xbc;" horiz-adv-x="758" 
d="M132 0l438 731h72l-439 -731h-71zM168 293v283q0 18 0.5 34t1.5 31t2 29q-11 -9 -24 -20q-8 -6 -28 -20l-58 -42l-1 70l105 73h69v-438h-67zM614 0v102h-202v50l203 290h69v-282h64v-58h-64v-102h-70zM480 160h134v103v49.5t2 51.5q-6 -12 -21 -35.5t-27 -40.5z" />
    <glyph glyph-name="onehalf" unicode="&#xbd;" horiz-adv-x="786" 
d="M158 293v283v34t1 31t2 29q-11 -9 -23 -20q-9 -6 -28 -20l-58 -42l-2 70l106 73h68v-438h-66zM104 0l440 731h71l-439 -731h-72zM456 0v52l118 116q41 40 63 65.5t30.5 46t8.5 44.5q0 32 -20 50t-52 18t-57 -12q-12 -5 -41 -23.5t-43 -29.5l-1 65q30 26 65 41t77 15
q65 0 102.5 -32.5t37.5 -88.5q0 -34 -14 -62.5t-41 -57.5t-65 -65l-85 -82h205v-60h-288z" />
    <glyph glyph-name="threequarters" unicode="&#xbe;" horiz-adv-x="797" 
d="M178 0l440 731h71l-439 -731h-72zM150 285q-37 0 -70 6.5t-64 22.5v60q35 -17 69.5 -25.5t65.5 -8.5q54 0 80 21.5t25 59.5q0 38 -30 55.5t-84 17.5h-19v52h19q53 0 77 21t24 54t-21.5 49t-53.5 16q-31 0 -59 -11q-46 -18 -89 -47v62q31 23 66 36.5t82 13.5
q71 0 107.5 -31.5t36.5 -80.5q0 -42 -22 -68.5t-53 -35.5v-4q40 -7 64 -33t24 -68q0 -60 -43 -97t-132 -37zM653 0v102h-201v50l202 290h70v-282h64v-58h-64v-102h-71zM520 160h133v103q0 22 0.5 49.5t2.5 51.5q-6 -12 -21 -35.5t-27 -40.5z" />
    <glyph glyph-name="questiondown" unicode="&#xbf;" horiz-adv-x="483" 
d="M217 717h50v-88h-50v88zM217 515h50v-144l-14 -7q-65 -31 -117 -83q-54 -54 -59 -107q-1 -9 -1 -17q0 -55 35 -89q42 -43 119 -43q17 0 35 2q39 6 69 13t41 11l11 4l20 -45q-42 -20 -135 -32q-21 -3 -41 -3q-97 0 -155 57q-49 50 -49 125q0 11 1 22q7 70 74 137
q49 49 116 86v113z" />
    <glyph glyph-name="Agrave" unicode="&#xc0;" horiz-adv-x="574" 
d="M264 793h24h19l245 -793h-53l-101 328h-225l-101 -328h-52zM382 378l-96 314l-97 -314h193zM146 968h79l106 -138h-39z" />
    <glyph glyph-name="Aacute" unicode="&#xc1;" horiz-adv-x="574" 
d="M264 793h24h19l245 -793h-53l-101 328h-225l-101 -328h-52zM382 378l-96 314l-97 -314h193zM481 976h-79l-106 -138h39z" />
    <glyph glyph-name="Acircumflex" unicode="&#xc2;" horiz-adv-x="574" 
d="M264 793h24h19l245 -793h-53l-101 328h-225l-101 -328h-52zM382 378l-96 314l-97 -314h193zM315 948h1h11l123 -128h-69l-65 68l-66 -68l-71 -1l125 129h11z" />
    <glyph glyph-name="Atilde" unicode="&#xc3;" horiz-adv-x="574" 
d="M264 793h24h19l245 -793h-53l-101 328h-225l-101 -328h-52zM382 378l-96 314l-97 -314h193zM242 1007q38 0 64 -26q17 -17 36 -60q14 -32 22 -41q8 -7 18 -7q28 0 46 18q17 17 26 49q3 10 5 19.5t2 14.5v5l50 -2q-1 -23 -9 -51q-12 -44 -38 -70q-33 -33 -81 -33
q-32 0 -54 22q-15 15 -33 56q-15 35 -25 45q-11 11 -29 11q-25 0 -43 -18q-17 -17 -28 -50q-7 -23 -8 -41l-50 4q2 24 11 52q14 45 40 71q32 32 78 32z" />
    <glyph glyph-name="Adieresis" unicode="&#xc4;" horiz-adv-x="574" 
d="M264 793h24h19l245 -793h-53l-101 328h-225l-101 -328h-52zM382 378l-96 314l-97 -314h193zM415 902h-56v-62h56v62zM261 902h-56v-62h56v62z" />
    <glyph glyph-name="Aring" unicode="&#xc5;" horiz-adv-x="574" 
d="M264 793h24h19l245 -793h-53l-101 328h-225l-101 -328h-52zM382 378l-96 314l-97 -314h193zM314 949q-25 0 -43.5 -14.5t-18.5 -36.5t18.5 -36.5t43.5 -14.5t43.5 14.5t18.5 36.5t-18.5 36.5t-43.5 14.5zM314 797q-45 0 -78.5 29t-33.5 72t33.5 72t78.5 29t78.5 -29
t33.5 -72t-33.5 -72t-78.5 -29z" />
    <glyph glyph-name="AE" unicode="&#xc6;" horiz-adv-x="862" 
d="M827 743h-286v-292h146v-50h-146v-350h286v-50h-336v400h-177l-247 -401h-59l483 784v4v5h336v-50zM491 688l-146 -237h146v237z" />
    <glyph glyph-name="Ccedilla" unicode="&#xc7;" horiz-adv-x="518" 
d="M350 1q-29 0 -57 3q-98 11 -173 85q-111 111 -111 328q0 183 105 287q42 43 91 64.5t90 23.5q19 1 39 1q91 0 146 -15l-1 -51q-58 16 -144 16q-19 0 -38 -1q-30 -2 -71.5 -20t-76.5 -53q-90 -90 -90 -252q0 -196 97 -293q62 -62 143 -70q26 -3 52 -3q34 0 65.5 4.5
t46.5 8.5l15 5v-51q-50 -17 -128 -17zM141 -152v57q11 -4 25 -8q23 -7 50 -7q56 0 84 22q29 23 29 72q0 20 -4 52h54q2 -25 2 -42q0 -77 -42 -116q-42 -40 -110 -40q-43 0 -88 10z" />
    <glyph glyph-name="Egrave" unicode="&#xc8;" horiz-adv-x="407" 
d="M365 793v-50h-286v-292h146v-50h-146v-350h286v-50h-336v792h336zM82 966h79l106 -138h-39z" />
    <glyph glyph-name="Eacute" unicode="&#xc9;" horiz-adv-x="407" 
d="M365 793v-50h-286v-292h146v-50h-146v-350h286v-50h-336v792h336zM367 968h-79l-106 -138h39z" />
    <glyph glyph-name="Ecircumflex" unicode="&#xca;" horiz-adv-x="407" 
d="M365 793v-50h-286v-292h146v-50h-146v-350h286v-50h-336v792h336zM219 952h1h11l123 -128h-69l-65 68l-66 -68l-71 -1l125 129h11z" />
    <glyph glyph-name="Edieresis" unicode="&#xcb;" horiz-adv-x="407" 
d="M365 793v-50h-286v-292h146v-50h-146v-350h286v-50h-336v792h336zM336 890h-56v-62h56v62zM182 890h-56v-62h56v62z" />
    <glyph glyph-name="Igrave" unicode="&#xcc;" horiz-adv-x="195" 
d="M164 793v-50h-43v-693h43v-50h-138v50h45v693h-45v50h138zM-58 974h79l106 -138h-39z" />
    <glyph glyph-name="Iacute" unicode="&#xcd;" horiz-adv-x="195" 
d="M164 793v-50h-43v-693h43v-50h-138v50h45v693h-45v50h138zM267 968h-79l-106 -138h39z" />
    <glyph glyph-name="Icircumflex" unicode="&#xce;" horiz-adv-x="195" 
d="M164 793v-50h-43v-693h43v-50h-138v50h45v693h-45v50h138zM107 966h1h11l123 -128h-69l-65 68l-66 -68l-71 -1l125 129h11z" />
    <glyph glyph-name="Idieresis" unicode="&#xcf;" horiz-adv-x="195" 
d="M164 793v-50h-43v-693h43v-50h-138v50h45v693h-45v50h138zM213 904h-56v-62h56v62zM59 904h-56v-62h56v62z" />
    <glyph glyph-name="Ntilde" unicode="&#xd1;" horiz-adv-x="530" 
d="M54 793h3h14l368 -609v584h50v-768h-50v87l-360 596v-683h-50v793h25zM217 995q38 0 64 -26q17 -17 36 -60q14 -32 22 -41q8 -7 18 -7q28 0 46 18q17 17 26 49q3 10 5 19.5t2 14.5v5l50 -2q-1 -23 -9 -51q-12 -44 -38 -70q-33 -33 -81 -33q-32 0 -54 22q-15 15 -33 56
q-15 35 -25 45q-11 11 -29 11q-25 0 -43 -18q-17 -17 -28 -50q-7 -23 -8 -41l-50 4q2 24 11 52q14 45 40 71q32 32 78 32z" />
    <glyph glyph-name="Ograve" unicode="&#xd2;" horiz-adv-x="785" 
d="M382 745q-31 0 -62 -3q-27 -3 -67 -21.5t-76 -54.5q-98 -98 -98 -278q0 -169 90 -259q37 -37 79.5 -55t71.5 -21q33 -4 66 -4h6h6q33 0 66 4q29 3 71.5 21t79.5 55q90 90 90 259q0 180 -98 278q-36 36 -76 54.5t-67 21.5q-31 3 -62 3h-10v0h-10zM386 -1q-36 0 -71 4
q-38 5 -87.5 25.5t-93.5 65.5q-105 105 -105 294q0 201 113 314q42 42 89.5 64t83.5 25q33 4 67 4h10h10q34 0 67 -4q36 -3 83.5 -25t89.5 -64q113 -113 113 -314q0 -189 -105 -294q-44 -45 -93.5 -65.5t-87.5 -25.5q-35 -4 -71 -4h-6h-6zM247 974h79l106 -138h-39z" />
    <glyph glyph-name="Oacute" unicode="&#xd3;" horiz-adv-x="785" 
d="M382 745q-31 0 -62 -3q-27 -3 -67 -21.5t-76 -54.5q-98 -98 -98 -278q0 -169 90 -259q37 -37 79.5 -55t71.5 -21q33 -4 66 -4h6h6q33 0 66 4q29 3 71.5 21t79.5 55q90 90 90 259q0 180 -98 278q-36 36 -76 54.5t-67 21.5q-31 3 -62 3h-10v0h-10zM386 -1q-36 0 -71 4
q-38 5 -87.5 25.5t-93.5 65.5q-105 105 -105 294q0 201 113 314q42 42 89.5 64t83.5 25q33 4 67 4h10h10q34 0 67 -4q36 -3 83.5 -25t89.5 -64q113 -113 113 -314q0 -189 -105 -294q-44 -45 -93.5 -65.5t-87.5 -25.5q-35 -4 -71 -4h-6h-6zM577 970h-79l-106 -138h39z" />
    <glyph glyph-name="Ocircumflex" unicode="&#xd4;" horiz-adv-x="785" 
d="M382 745q-31 0 -62 -3q-27 -3 -67 -21.5t-76 -54.5q-98 -98 -98 -278q0 -169 90 -259q37 -37 79.5 -55t71.5 -21q33 -4 66 -4h6h6q33 0 66 4q29 3 71.5 21t79.5 55q90 90 90 259q0 180 -98 278q-36 36 -76 54.5t-67 21.5q-31 3 -62 3h-10v0h-10zM386 -1q-36 0 -71 4
q-38 5 -87.5 25.5t-93.5 65.5q-105 105 -105 294q0 201 113 314q42 42 89.5 64t83.5 25q33 4 67 4h10h10q34 0 67 -4q36 -3 83.5 -25t89.5 -64q113 -113 113 -314q0 -189 -105 -294q-44 -45 -93.5 -65.5t-87.5 -25.5q-35 -4 -71 -4h-6h-6zM423 956h1h11l123 -128h-69l-65 68
l-66 -68l-71 -1l125 129h11z" />
    <glyph glyph-name="Otilde" unicode="&#xd5;" horiz-adv-x="785" 
d="M382 745q-31 0 -62 -3q-27 -3 -67 -21.5t-76 -54.5q-98 -98 -98 -278q0 -169 90 -259q37 -37 79.5 -55t71.5 -21q33 -4 66 -4h6h6q33 0 66 4q29 3 71.5 21t79.5 55q90 90 90 259q0 180 -98 278q-36 36 -76 54.5t-67 21.5q-31 3 -62 3h-10v0h-10zM386 -1q-36 0 -71 4
q-38 5 -87.5 25.5t-93.5 65.5q-105 105 -105 294q0 201 113 314q42 42 89.5 64t83.5 25q33 4 67 4h10h10q34 0 67 -4q36 -3 83.5 -25t89.5 -64q113 -113 113 -314q0 -189 -105 -294q-44 -45 -93.5 -65.5t-87.5 -25.5q-35 -4 -71 -4h-6h-6zM344 1019q38 0 64 -26
q17 -17 36 -60q14 -32 22 -41q8 -7 18 -7q28 0 46 18q17 17 26 49q3 10 5 19.5t2 14.5v5l50 -2q-1 -23 -9 -51q-12 -44 -38 -70q-33 -33 -81 -33q-32 0 -54 22q-15 15 -33 56q-15 35 -25 45q-11 11 -29 11q-25 0 -43 -18q-17 -17 -28 -50q-7 -23 -8 -41l-50 4q2 24 11 52
q14 45 40 71q32 32 78 32z" />
    <glyph glyph-name="Odieresis" unicode="&#xd6;" horiz-adv-x="785" 
d="M382 745q-31 0 -62 -3q-27 -3 -67 -21.5t-76 -54.5q-98 -98 -98 -278q0 -169 90 -259q37 -37 79.5 -55t71.5 -21q33 -4 66 -4h6h6q33 0 66 4q29 3 71.5 21t79.5 55q90 90 90 259q0 180 -98 278q-36 36 -76 54.5t-67 21.5q-31 3 -62 3h-10v0h-10zM386 -1q-36 0 -71 4
q-38 5 -87.5 25.5t-93.5 65.5q-105 105 -105 294q0 201 113 314q42 42 89.5 64t83.5 25q33 4 67 4h10h10q34 0 67 -4q36 -3 83.5 -25t89.5 -64q113 -113 113 -314q0 -189 -105 -294q-44 -45 -93.5 -65.5t-87.5 -25.5q-35 -4 -71 -4h-6h-6zM516 908h-56v-62h56v62zM362 908
h-56v-62h56v62z" />
    <glyph glyph-name="multiply" unicode="&#xd7;" horiz-adv-x="389" 
d="M94 276l-35 36l95 95l-95 94l35 36l95 -95l95 95l35 -36l-94 -94l94 -95l-35 -36l-95 95z" />
    <glyph glyph-name="Ugrave" unicode="&#xd9;" horiz-adv-x="577" 
d="M285.5 0q-64.5 0 -120 20t-90.5 55q-42 42 -42 93v600h50v-600q0 -31 27 -58t73.5 -43.5t101.5 -16.5t102 16.5t73 43.5q28 27 28 58v600h50v-600q0 -51 -42 -93q-35 -35 -90.5 -55t-120 -20zM156 924h79l106 -138h-39z" />
    <glyph glyph-name="Uacute" unicode="&#xda;" horiz-adv-x="577" 
d="M285.5 0q-64.5 0 -120 20t-90.5 55q-42 42 -42 93v600h50v-600q0 -31 27 -58t73.5 -43.5t101.5 -16.5t102 16.5t73 43.5q28 27 28 58v600h50v-600q0 -51 -42 -93q-35 -35 -90.5 -55t-120 -20zM457 912h-79l-106 -138h39z" />
    <glyph glyph-name="Ucircumflex" unicode="&#xdb;" horiz-adv-x="577" 
d="M285.5 0q-64.5 0 -120 20t-90.5 55q-42 42 -42 93v600h50v-600q0 -31 27 -58t73.5 -43.5t101.5 -16.5t102 16.5t73 43.5q28 27 28 58v600h50v-600q0 -51 -42 -93q-35 -35 -90.5 -55t-120 -20zM305 900h1h11l123 -128h-69l-65 68l-66 -68l-71 -1l125 129h11z" />
    <glyph glyph-name="Udieresis" unicode="&#xdc;" horiz-adv-x="577" 
d="M285.5 0q-64.5 0 -120 20t-90.5 55q-42 42 -42 93v600h50v-600q0 -31 27 -58t73.5 -43.5t101.5 -16.5t102 16.5t73 43.5q28 27 28 58v600h50v-600q0 -51 -42 -93q-35 -35 -90.5 -55t-120 -20zM410 848h-56v-62h56v62zM256 848h-56v-62h56v62z" />
    <glyph glyph-name="Yacute" unicode="&#xdd;" horiz-adv-x="763" 
d="M408 0h-50v425l-339 360h68l296 -314l296 314h69l-340 -360v-425zM578 922h-79l-106 -138h39z" />
    <glyph glyph-name="germandbls" unicode="&#xdf;" horiz-adv-x="464" 
d="M29 493v50h43v55q0 80 49 128q41 42 95 47q16 1 32 1q54 0 92 -12l28 -9l-117 -221q78 -12 130 -64q28 -29 46 -68q33 -75 33 -155q0 -28 -4 -54q-16 -103 -83 -151q-54 -39 -137 -39q-49 0 -89 11l1 51q45 -12 88 -12q67 0 107 29q8 6 15 13q52 52 52 152q0 70 -29 135
q-14 31 -36 53t-52.5 35t-46.5 15t-29 2q-2 0 -29 -1v29v6l107 202q-22 3 -46 3q-14 0 -29 -1q-11 -1 -30 -9t-34 -23q-34 -34 -34 -93v-598h-50v493h-43z" />
    <glyph glyph-name="agrave" unicode="&#xe0;" horiz-adv-x="468" 
d="M245 540q70 0 131 -25q26 -10 43 -28q31 -30 31 -69v-418h-50v46q-101 -43 -186 -43q-98 0 -155 57q-51 51 -51 131q0 76 48 125q33 32 85 49q42 14 93 17h15q53 0 151 -12v48q0 5 -2 12q-9 26 -40 39q-52 21 -113 21q-55 0 -145 -25v53q79 22 145 22zM248 332h-12
q-44 -2 -80 -14q-40 -14 -64 -38q-34 -33 -34 -89q0 -59 36 -96q42 -42 121 -42q82 0 185 48v218q-104 13 -152 13zM110 723h79l106 -138h-39z" />
    <glyph glyph-name="aacute" unicode="&#xe1;" horiz-adv-x="468" 
d="M245 540q70 0 131 -25q26 -10 43 -28q31 -30 31 -69v-418h-50v46q-101 -43 -186 -43q-98 0 -155 57q-51 51 -51 131q0 76 48 125q33 32 85 49q42 14 93 17h15q53 0 151 -12v48q0 5 -2 12q-9 26 -40 39q-52 21 -113 21q-55 0 -145 -25v53q79 22 145 22zM248 332h-12
q-44 -2 -80 -14q-40 -14 -64 -38q-34 -33 -34 -89q0 -59 36 -96q42 -42 121 -42q82 0 185 48v218q-104 13 -152 13zM440 715h-79l-106 -138h39z" />
    <glyph glyph-name="acircumflex" unicode="&#xe2;" horiz-adv-x="468" 
d="M245 540q70 0 131 -25q26 -10 43 -28q31 -30 31 -69v-418h-50v46q-101 -43 -186 -43q-98 0 -155 57q-51 51 -51 131q0 76 48 125q33 32 85 49q42 14 93 17h15q53 0 151 -12v48q0 5 -2 12q-9 26 -40 39q-52 21 -113 21q-55 0 -145 -25v53q79 22 145 22zM248 332h-12
q-44 -2 -80 -14q-40 -14 -64 -38q-34 -33 -34 -89q0 -59 36 -96q42 -42 121 -42q82 0 185 48v218q-104 13 -152 13zM281 705h1h11l123 -128h-69l-65 68l-66 -68l-71 -1l125 129h11z" />
    <glyph glyph-name="atilde" unicode="&#xe3;" horiz-adv-x="468" 
d="M245 540q70 0 131 -25q26 -10 43 -28q31 -30 31 -69v-418h-50v46q-101 -43 -186 -43q-98 0 -155 57q-51 51 -51 131q0 76 48 125q33 32 85 49q42 14 93 17h15q53 0 151 -12v48q0 5 -2 12q-9 26 -40 39q-52 21 -113 21q-55 0 -145 -25v53q79 22 145 22zM248 332h-12
q-44 -2 -80 -14q-40 -14 -64 -38q-34 -33 -34 -89q0 -59 36 -96q42 -42 121 -42q82 0 185 48v218q-104 13 -152 13zM216 748q38 0 64 -26q17 -17 36 -60q14 -32 22 -41q8 -7 18 -7q28 0 46 18q17 17 26 49q3 10 5 19.5t2 14.5v5l50 -2q-1 -23 -9 -51q-12 -44 -38 -70
q-33 -33 -81 -33q-32 0 -54 22q-15 15 -33 56q-15 35 -25 45q-11 11 -29 11q-25 0 -43 -18q-17 -17 -28 -50q-7 -23 -8 -41l-50 4q2 24 11 52q14 45 40 71q32 32 78 32z" />
    <glyph glyph-name="adieresis" unicode="&#xe4;" horiz-adv-x="468" 
d="M245 540q70 0 131 -25q26 -10 43 -28q31 -30 31 -69v-418h-50v46q-101 -43 -186 -43q-98 0 -155 57q-51 51 -51 131q0 76 48 125q33 32 85 49q42 14 93 17h15q53 0 151 -12v48q0 5 -2 12q-9 26 -40 39q-52 21 -113 21q-55 0 -145 -25v53q79 22 145 22zM248 332h-12
q-44 -2 -80 -14q-40 -14 -64 -38q-34 -33 -34 -89q0 -59 36 -96q42 -42 121 -42q82 0 185 48v218q-104 13 -152 13zM368 659h-56v-62h56v62zM214 659h-56v-62h56v62z" />
    <glyph glyph-name="aring" unicode="&#xe5;" horiz-adv-x="468" 
d="M245 540q70 0 131 -25q26 -10 43 -28q31 -30 31 -69v-418h-50v46q-101 -43 -186 -43q-98 0 -155 57q-51 51 -51 131q0 76 48 125q33 32 85 49q42 14 93 17h15q53 0 151 -12v48q0 5 -2 12q-9 26 -40 39q-52 21 -113 21q-55 0 -145 -25v53q79 22 145 22zM248 332h-12
q-44 -2 -80 -14q-40 -14 -64 -38q-34 -33 -34 -89q0 -59 36 -96q42 -42 121 -42q82 0 185 48v218q-104 13 -152 13zM278 724q-25 0 -43.5 -14.5t-18.5 -36.5t18.5 -36.5t43.5 -14.5t43.5 14.5t18.5 36.5t-18.5 36.5t-43.5 14.5zM278 572q-45 0 -78.5 29t-33.5 72t33.5 72
t78.5 29t78.5 -29t33.5 -72t-33.5 -72t-78.5 -29z" />
    <glyph glyph-name="ae" unicode="&#xe6;" horiz-adv-x="897" 
d="M662 490q-96 0 -153 -57q-51 -51 -57 -143h382q-1 29 -7 57q-31 143 -165 143zM400 418q0 5 -2 12q-9 26 -40 39q-52 21 -113 21q-59 0 -145 -24v52q79 22 145 22q70 0 131 -25q26 -10 43 -28q22 -21 29 -50q11 17 26 32q71 71 188 71q93 0 150 -57q47 -47 64 -126
q8 -39 8 -79q0 -9 -2 -38h-430q6 -81 55 -130q29 -28 64 -42t59 -16q26 -3 52 -3q34 0 66 4.5t47 8.5l15 5v-52q-47 -16 -129 -16q-28 0 -55 3q-33 3 -75.5 19.5t-78.5 53.5q-12 12 -22 25v-100h-50v46q-101 -43 -186 -43q-98 0 -155 57q-51 51 -51 131q0 76 48 125
q33 32 85 49q42 14 93 17h15q53 0 151 -12v48zM248 332h-12q-44 -2 -80 -14q-40 -14 -64 -38q-34 -33 -34 -89q0 -59 36 -96q42 -42 121 -42q82 0 185 48v218q-104 13 -152 13z" />
    <glyph glyph-name="ccedilla" unicode="&#xe7;" horiz-adv-x="472" 
d="M289 1q-28 0 -55 3q-33 3 -75.5 19.5t-78.5 53.5q-71 71 -71 190q0 126 76 202q35 35 76 52.5t73 20.5q25 2 51 2q83 0 134 -16l-1 -51q-52 17 -132 17q-24 0 -48 -2q-23 -2 -56.5 -16.5t-61.5 -41.5q-61 -62 -61 -167q0 -99 56 -155q29 -28 64 -42t59 -16q26 -3 52 -3
q77 0 128 18l1 -51q-50 -17 -130 -17zM101 -146v57q11 -4 25 -8q23 -7 50 -7q56 0 84 22q29 23 29 72q0 20 -4 52h54q2 -25 2 -42q0 -77 -42 -116q-42 -40 -110 -40q-43 0 -88 10z" />
    <glyph glyph-name="egrave" unicode="&#xe8;" horiz-adv-x="531" 
d="M500 240h-430q6 -81 55 -130q29 -28 64 -42t59 -16q26 -3 52 -3q34 0 66 4.5t47 8.5l15 5v-51q-50 -17 -129 -17q-28 0 -55 3q-33 3 -75.5 19.5t-78.5 53.5q-71 71 -71 190q0 131 73 204q71 71 188 71q93 0 150 -57q47 -47 64 -126q8 -39 8 -79q0 -9 -2 -38zM280 490
q-96 0 -153 -57q-51 -51 -57 -143h382q-1 29 -7 57q-31 143 -165 143zM133 715h79l106 -138h-39z" />
    <glyph glyph-name="eacute" unicode="&#xe9;" horiz-adv-x="531" 
d="M500 240h-430q6 -81 55 -130q29 -28 64 -42t59 -16q26 -3 52 -3q34 0 66 4.5t47 8.5l15 5v-51q-50 -17 -129 -17q-28 0 -55 3q-33 3 -75.5 19.5t-78.5 53.5q-71 71 -71 190q0 131 73 204q71 71 188 71q93 0 150 -57q47 -47 64 -126q8 -39 8 -79q0 -9 -2 -38zM280 490
q-96 0 -153 -57q-51 -51 -57 -143h382q-1 29 -7 57q-31 143 -165 143zM466 717h-79l-106 -138h39z" />
    <glyph glyph-name="ecircumflex" unicode="&#xea;" horiz-adv-x="531" 
d="M500 240h-430q6 -81 55 -130q29 -28 64 -42t59 -16q26 -3 52 -3q34 0 66 4.5t47 8.5l15 5v-51q-50 -17 -129 -17q-28 0 -55 3q-33 3 -75.5 19.5t-78.5 53.5q-71 71 -71 190q0 131 73 204q71 71 188 71q93 0 150 -57q47 -47 64 -126q8 -39 8 -79q0 -9 -2 -38zM280 490
q-96 0 -153 -57q-51 -51 -57 -143h382q-1 29 -7 57q-31 143 -165 143zM296 697h1h11l123 -128h-69l-65 68l-66 -68l-71 -1l125 129h11z" />
    <glyph glyph-name="edieresis" unicode="&#xeb;" horiz-adv-x="531" 
d="M500 240h-430q6 -81 55 -130q29 -28 64 -42t59 -16q26 -3 52 -3q34 0 66 4.5t47 8.5l15 5v-51q-50 -17 -129 -17q-28 0 -55 3q-33 3 -75.5 19.5t-78.5 53.5q-71 71 -71 190q0 131 73 204q71 71 188 71q93 0 150 -57q47 -47 64 -126q8 -39 8 -79q0 -9 -2 -38zM280 490
q-96 0 -153 -57q-51 -51 -57 -143h382q-1 29 -7 57q-31 143 -165 143zM403 657h-56v-62h56v62zM249 657h-56v-62h56v62z" />
    <glyph glyph-name="igrave" unicode="&#xec;" horiz-adv-x="150" 
d="M50 518h50v-520h-50v520zM-76 707h79l106 -138h-39z" />
    <glyph glyph-name="iacute" unicode="&#xed;" horiz-adv-x="150" 
d="M50 518h50v-520h-50v520zM246 699h-79l-106 -138h39z" />
    <glyph glyph-name="icircumflex" unicode="&#xee;" horiz-adv-x="150" 
d="M50 518h50v-520h-50v520zM80 687h1h11l123 -128h-69l-65 68l-66 -68l-71 -1l125 129h11z" />
    <glyph glyph-name="idieresis" unicode="&#xef;" horiz-adv-x="150" 
d="M50 518h50v-520h-50v520zM185 641h-56v-62h56v62zM31 641h-56v-62h56v62z" />
    <glyph glyph-name="ntilde" unicode="&#xf1;" horiz-adv-x="490" 
d="M24 548h50v-17q55 12 115 12q28 0 55 -3q31 -3 74 -21.5t79 -54.5q72 -72 72 -185v-281h-50v281q0 92 -57 150q-29 28 -65 43.5t-57 17.5q-26 3 -52 3q-61 0 -114 -14v-481h-50v550zM181 752q38 0 64 -26q17 -17 36 -60q14 -32 22 -41q8 -7 18 -7q28 0 46 18q17 17 26 49
q3 10 5 19.5t2 14.5v5l50 -2q-1 -23 -9 -51q-12 -44 -38 -70q-33 -33 -81 -33q-32 0 -54 22q-15 15 -33 56q-15 35 -25 45q-11 11 -29 11q-25 0 -43 -18q-17 -17 -28 -50q-7 -23 -8 -41l-50 4q2 24 11 52q14 45 40 71q32 32 78 32z" />
    <glyph glyph-name="ograve" unicode="&#xf2;" horiz-adv-x="602" 
d="M294 492q-24 0 -47 -2t-56.5 -16.5t-61.5 -41.5q-61 -62 -61 -167q0 -99 56 -155q29 -28 64 -42t59.5 -16.5t49.5 -2.5h5h5q25 0 49.5 2.5t59.5 16.5t64 42q56 56 56 155q0 105 -61 167q-28 27 -61.5 41.5t-56.5 16.5t-47 2h-8h-8zM297 -1q-27 0 -54 3q-33 3 -75.5 19.5
t-78.5 53.5q-71 71 -71 190q0 126 76 202q35 35 76 52.5t73 20.5q25 2 51 2h8h8q26 0 51 -2q32 -3 73 -20.5t76 -52.5q76 -76 76 -202q0 -119 -71 -190q-36 -37 -78.5 -53.5t-75.5 -19.5q-27 -3 -54 -3h-5h-5zM160 717h79l106 -138h-39z" />
    <glyph glyph-name="oacute" unicode="&#xf3;" horiz-adv-x="602" 
d="M294 492q-24 0 -47 -2t-56.5 -16.5t-61.5 -41.5q-61 -62 -61 -167q0 -99 56 -155q29 -28 64 -42t59.5 -16.5t49.5 -2.5h5h5q25 0 49.5 2.5t59.5 16.5t64 42q56 56 56 155q0 105 -61 167q-28 27 -61.5 41.5t-56.5 16.5t-47 2h-8h-8zM297 -1q-27 0 -54 3q-33 3 -75.5 19.5
t-78.5 53.5q-71 71 -71 190q0 126 76 202q35 35 76 52.5t73 20.5q25 2 51 2h8h8q26 0 51 -2q32 -3 73 -20.5t76 -52.5q76 -76 76 -202q0 -119 -71 -190q-36 -37 -78.5 -53.5t-75.5 -19.5q-27 -3 -54 -3h-5h-5zM485 721h-79l-106 -138h39z" />
    <glyph glyph-name="ocircumflex" unicode="&#xf4;" horiz-adv-x="602" 
d="M294 492q-24 0 -47 -2t-56.5 -16.5t-61.5 -41.5q-61 -62 -61 -167q0 -99 56 -155q29 -28 64 -42t59.5 -16.5t49.5 -2.5h5h5q25 0 49.5 2.5t59.5 16.5t64 42q56 56 56 155q0 105 -61 167q-28 27 -61.5 41.5t-56.5 16.5t-47 2h-8h-8zM297 -1q-27 0 -54 3q-33 3 -75.5 19.5
t-78.5 53.5q-71 71 -71 190q0 126 76 202q35 35 76 52.5t73 20.5q25 2 51 2h8h8q26 0 51 -2q32 -3 73 -20.5t76 -52.5q76 -76 76 -202q0 -119 -71 -190q-36 -37 -78.5 -53.5t-75.5 -19.5q-27 -3 -54 -3h-5h-5zM329 699h1h11l123 -128h-69l-65 68l-66 -68l-71 -1l125 129h11z
" />
    <glyph glyph-name="otilde" unicode="&#xf5;" horiz-adv-x="602" 
d="M294 492q-24 0 -47 -2t-56.5 -16.5t-61.5 -41.5q-61 -62 -61 -167q0 -99 56 -155q29 -28 64 -42t59.5 -16.5t49.5 -2.5h5h5q25 0 49.5 2.5t59.5 16.5t64 42q56 56 56 155q0 105 -61 167q-28 27 -61.5 41.5t-56.5 16.5t-47 2h-8h-8zM297 -1q-27 0 -54 3q-33 3 -75.5 19.5
t-78.5 53.5q-71 71 -71 190q0 126 76 202q35 35 76 52.5t73 20.5q25 2 51 2h8h8q26 0 51 -2q32 -3 73 -20.5t76 -52.5q76 -76 76 -202q0 -119 -71 -190q-36 -37 -78.5 -53.5t-75.5 -19.5q-27 -3 -54 -3h-5h-5zM246 760q38 0 64 -26q17 -17 36 -60q14 -32 22 -41q8 -7 18 -7
q28 0 46 18q17 17 26 49q3 10 5 19.5t2 14.5v5l50 -2q-1 -23 -9 -51q-12 -44 -38 -70q-33 -33 -81 -33q-32 0 -54 22q-15 15 -33 56q-15 35 -25 45q-11 11 -29 11q-25 0 -43 -18q-17 -17 -28 -50q-7 -23 -8 -41l-50 4q2 24 11 52q14 45 40 71q32 32 78 32z" />
    <glyph glyph-name="odieresis" unicode="&#xf6;" horiz-adv-x="602" 
d="M294 492q-24 0 -47 -2t-56.5 -16.5t-61.5 -41.5q-61 -62 -61 -167q0 -99 56 -155q29 -28 64 -42t59.5 -16.5t49.5 -2.5h5h5q25 0 49.5 2.5t59.5 16.5t64 42q56 56 56 155q0 105 -61 167q-28 27 -61.5 41.5t-56.5 16.5t-47 2h-8h-8zM297 -1q-27 0 -54 3q-33 3 -75.5 19.5
t-78.5 53.5q-71 71 -71 190q0 126 76 202q35 35 76 52.5t73 20.5q25 2 51 2h8h8q26 0 51 -2q32 -3 73 -20.5t76 -52.5q76 -76 76 -202q0 -119 -71 -190q-36 -37 -78.5 -53.5t-75.5 -19.5q-27 -3 -54 -3h-5h-5zM430 669h-56v-62h56v62zM276 669h-56v-62h56v62z" />
    <glyph glyph-name="divide" unicode="&#xf7;" horiz-adv-x="390" 
d="M40 355v50h318v-50h-318zM225 106h-50v88h50v-88zM225 536h-50v88h50v-88z" />
    <glyph glyph-name="ugrave" unicode="&#xf9;" horiz-adv-x="473" 
d="M410 548h50v-550h-50v17q-55 -12 -115 -12q-28 0 -55 3q-31 3 -74 21.5t-79 54.5q-72 72 -72 185v281h50v-281q0 -92 57 -150q29 -28 65 -43.5t57 -17.5q26 -3 52 -3q61 0 114 14v481zM114 697h79l106 -138h-39z" />
    <glyph glyph-name="uacute" unicode="&#xfa;" horiz-adv-x="473" 
d="M410 548h50v-550h-50v17q-55 -12 -115 -12q-28 0 -55 3q-31 3 -74 21.5t-79 54.5q-72 72 -72 185v281h50v-281q0 -92 57 -150q29 -28 65 -43.5t57 -17.5q26 -3 52 -3q61 0 114 14v481zM396 679h-79l-106 -138h39z" />
    <glyph glyph-name="ucircumflex" unicode="&#xfb;" horiz-adv-x="473" 
d="M410 548h50v-550h-50v17q-55 -12 -115 -12q-28 0 -55 3q-31 3 -74 21.5t-79 54.5q-72 72 -72 185v281h50v-281q0 -92 57 -150q29 -28 65 -43.5t57 -17.5q26 -3 52 -3q61 0 114 14v481zM258 693h1h11l123 -128h-69l-65 68l-66 -68l-71 -1l125 129h11z" />
    <glyph glyph-name="udieresis" unicode="&#xfc;" horiz-adv-x="473" 
d="M410 548h50v-550h-50v17q-55 -12 -115 -12q-28 0 -55 3q-31 3 -74 21.5t-79 54.5q-72 72 -72 185v281h50v-281q0 -92 57 -150q29 -28 65 -43.5t57 -17.5q26 -3 52 -3q61 0 114 14v481zM359 631h-56v-62h56v62zM205 631h-56v-62h56v62z" />
    <glyph glyph-name="yacute" unicode="&#xfd;" horiz-adv-x="541" 
d="M226 -172l-54 1l72 169l-243 560h55l215 -497l211 497l54 -1zM434 689h-79l-106 -138h39z" />
    <glyph glyph-name="ydieresis" unicode="&#xff;" horiz-adv-x="541" 
d="M226 -172l-54 1l72 169l-243 560h55l215 -497l211 497l54 -1zM400 631h-56v-62h56v62zM246 631h-56v-62h56v62z" />
    <glyph glyph-name="Amacron" unicode="&#x100;" horiz-adv-x="670" 
d="M160 926v-62h344v62h-344zM98 8l71 208h320l73 -208h89l-261 728h-117l-260 -728h85zM330 680l135 -396h-273z" />
    <glyph glyph-name="amacron" unicode="&#x101;" horiz-adv-x="585" 
d="M120 744v-61h342v61h-342zM418 83v-68h78v372q0 54 -15.5 88.5t-45.5 54.5v1q-30 22 -74 32q-42 9 -90 9t-92 -8q-46 -8 -77 -17v-82q50 19 93 28q42 9 74 9q73 0 103 -20q20 -13 34 -38q12 -21 12 -57v-23q-83 -4 -149 -12t-115 -31q-51 -23 -76 -61q-26 -38 -26 -101
q0 -78 50 -126.5t119 -48.5q36 0 63 7q46 17 89 59q17 12 45 33zM341 85q-38 -21 -88 -21q-59 0 -87 26q-32 26 -32 78q0 46 27 72q26 26 65 38q37 11 88 16q8 0 104 7v-167q-39 -29 -77 -49z" />
    <glyph glyph-name="Abreve" unicode="&#x102;" horiz-adv-x="670" 
d="M224 1024h-66q6 -75 50.5 -125t123 -50t123.5 50.5t50 124.5h-66q-8 -64 -33 -94q-29 -32 -75 -32t-73 31.5t-34 94.5zM98 8l71 208h320l73 -208h89l-261 728h-117l-260 -728h85zM330 680l135 -396h-273z" />
    <glyph glyph-name="abreve" unicode="&#x103;" horiz-adv-x="585" 
d="M169 712q43 -50 119 -50t121 50q46 50 52 126h-67q-9 -64 -34 -94q-27 -32 -72 -32t-72 32q-25 30 -31 94h-68q6 -76 52 -126zM418 83v-68h78v372q0 54 -15.5 88.5t-45.5 54.5v1q-30 22 -74 32q-42 9 -90 9t-92 -8q-46 -8 -77 -17v-82q50 19 93 28q42 9 74 9
q73 0 103 -20q20 -13 34 -38q12 -21 12 -57v-23q-83 -4 -149 -12t-115 -31q-51 -23 -76 -61q-26 -38 -26 -101q0 -78 50 -126.5t119 -48.5q36 0 63 7q46 17 89 59q17 12 45 33zM341 85q-38 -21 -88 -21q-59 0 -87 26q-32 26 -32 78q0 46 27 72q26 26 65 38q37 11 88 16
q8 0 104 7v-167q-39 -29 -77 -49z" />
    <glyph glyph-name="Aogonek" unicode="&#x104;" horiz-adv-x="574" 
d="M264 793h24h19l245 -793h-53l-101 328h-225l-101 -328h-52zM382 378l-96 314l-97 -314h193zM542 -32q0 -31 14 -45q12 -12 39 -12h4q26 1 38 13q6 6 8 14l50 -4q-2 -25 -23 -46q-27 -27 -76 -27q-48 0 -75 27q-29 28 -29 80q0 29 8 55l48 -14q-6 -19 -6 -41z" />
    <glyph glyph-name="aogonek" unicode="&#x105;" horiz-adv-x="468" 
d="M245 540q70 0 131 -25q26 -10 43 -28q31 -30 31 -69v-418h-50v46q-101 -43 -186 -43q-98 0 -155 57q-51 51 -51 131q0 76 48 125q33 32 85 49q42 14 93 17h15q53 0 151 -12v48q0 5 -2 12q-9 26 -40 39q-52 21 -113 21q-55 0 -145 -25v53q79 22 145 22zM248 332h-12
q-44 -2 -80 -14q-40 -14 -64 -38q-34 -33 -34 -89q0 -59 36 -96q42 -42 121 -42q82 0 185 48v218q-104 13 -152 13zM444 -23q0 -31 14 -45q12 -12 39 -12h4q26 1 38 13q6 6 8 14l50 -4q-2 -25 -23 -46q-27 -27 -76 -27q-48 0 -75 27q-29 28 -29 80q0 29 8 55l48 -14
q-6 -19 -6 -41z" />
    <glyph glyph-name="Cacute" unicode="&#x106;" horiz-adv-x="518" 
d="M350 1q-29 0 -57 3q-98 11 -173 85q-111 111 -111 328q0 183 105 287q42 43 91 64.5t90 23.5q19 1 39 1q91 0 146 -15l-1 -51q-58 16 -144 16q-19 0 -38 -1q-30 -2 -71.5 -20t-76.5 -53q-90 -90 -90 -252q0 -196 97 -293q62 -62 143 -70q26 -3 52 -3q34 0 65.5 4.5
t46.5 8.5l15 5v-51q-50 -17 -128 -17zM501 975h-79l-106 -138h39z" />
    <glyph glyph-name="cacute" unicode="&#x107;" horiz-adv-x="472" 
d="M289 1q-28 0 -55 3q-33 3 -75.5 19.5t-78.5 53.5q-71 71 -71 190q0 126 76 202q35 35 76 52.5t73 20.5q25 2 51 2q83 0 134 -16l-1 -51q-52 17 -132 17q-24 0 -48 -2q-23 -2 -56.5 -16.5t-61.5 -41.5q-61 -62 -61 -167q0 -99 56 -155q29 -28 64 -42t59 -16q26 -3 52 -3
q77 0 128 18l1 -51q-50 -17 -130 -17zM458 723h-79l-106 -138h39z" />
    <glyph glyph-name="Ccircumflex" unicode="&#x108;" horiz-adv-x="685" 
d="M392 983l93 -133h60l-101 174h-100l-101 -174h57zM645 155q-108 -97 -245 -97q-52 0 -99.5 19.5t-80 57.5t-54.5 98q-21 60 -21 138t20 137q20 60 55 101q69 79 179 79q68 0 126 -25q61 -24 120 -74v105q-75 36 -128 50q-52 14 -112 14q-76 0 -139 -25.5t-110 -73.5
t-72.5 -122t-25.5 -170t25.5 -167t74.5 -120q48 -49 109.5 -71.5t137.5 -22.5q32 0 74 7q20 3 63 17q38 13 52.5 19.5l29 13t21.5 10.5v102z" />
    <glyph glyph-name="ccircumflex" unicode="&#x109;" horiz-adv-x="503" 
d="M300 796l92 -133h62l-104 175h-97l-98 -175h56zM394 559q-44 13 -87 13q-110 0 -182 -78q-73 -79 -73 -216q0 -143 75 -219q67 -71 180 -71q44 0 84 12q41 12 85 33v90q-59 -45 -117 -60q-27 -7 -55 -7q-79 0 -123 58q-46 58 -46 166.5t47 165.5q45 58 122 58
q43 0 88 -19q40 -16 84 -50v92q-38 19 -82 32z" />
    <glyph glyph-name="Cdotaccent" unicode="&#x10a;" horiz-adv-x="685" 
d="M341 850h100l101 174h-58l-92 -133l-93 133h-59zM645 53v102q-108 -97 -245 -97q-51 0 -98 19q-95 38 -135 155q-22 59 -22 138t20 138q21 62 54 100q36 40 80 60q45 20 100 20q67 0 125 -24q61 -24 121 -75v105q-70 34 -127 49t-113 15q-78 0 -140.5 -26t-108.5 -74
q-47 -49 -72.5 -121.5t-25.5 -168t26.5 -168.5t73.5 -120q45 -48 107.5 -71t139.5 -23q69 0 137 24q36 12 57 22t46 21z" />
    <glyph glyph-name="cdotaccent" unicode="&#x10b;" horiz-adv-x="503" 
d="M252 663h98l104 175h-61l-91 -133l-89 133h-59zM395 559q-44 13 -88 13q-111 0 -182 -78q-73 -79 -73 -216q0 -75 20 -129q40 -108 136 -143q45 -18 99 -18q44 0 84 12q41 13 85 33v90q-30 -23 -58 -37t-59 -22q-28 -8 -55 -8q-79 0 -123 58q-46 58 -46 166t47 166
q45 58 122 58q42 0 86 -19q45 -18 86 -50v92q-36 18 -81 32z" />
    <glyph glyph-name="Ccaron" unicode="&#x10c;" horiz-adv-x="518" 
d="M338 837h8h7l89 49l-25 44l-71 -40l-72 40l-24 -44zM350 1q-29 0 -57 3q-98 11 -173 85q-111 111 -111 328q0 183 105 287q42 43 91 64.5t90 23.5q19 1 39 1q91 0 146 -15l-1 -51q-58 16 -144 16q-19 0 -38 -1q-30 -2 -71.5 -20t-76.5 -53q-90 -90 -90 -252
q0 -196 97 -293q62 -62 143 -70q26 -3 52 -3q34 0 65.5 4.5t46.5 8.5l15 5v-51q-50 -17 -128 -17z" />
    <glyph glyph-name="ccaron" unicode="&#x10d;" horiz-adv-x="472" 
d="M286 573h8h7l89 49l-25 44l-71 -40l-72 40l-24 -44zM289 1q-28 0 -55 3q-33 3 -75.5 19.5t-78.5 53.5q-71 71 -71 190q0 126 76 202q35 35 76 52.5t73 20.5q25 2 51 2q83 0 134 -16l-1 -51q-52 17 -132 17q-24 0 -48 -2q-23 -2 -56.5 -16.5t-61.5 -41.5q-61 -62 -61 -167
q0 -99 56 -155q29 -28 64 -42t59 -16q26 -3 52 -3q77 0 128 18l1 -51q-50 -17 -130 -17z" />
    <glyph glyph-name="Dcaron" unicode="&#x10e;" horiz-adv-x="759" 
d="M281 850h101l100 174h-57l-92 -133l-93 133h-61zM432.5 21q59.5 13 109.5 45q69 43 113 124t44 183.5t-41.5 181t-114.5 125.5q-45 28 -104.5 42t-162.5 14h-176v-728h178q95 0 154.5 13zM394.5 658q51.5 -10 94.5 -36q60 -37 91 -99q31 -63 31 -149.5t-29 -148.5
q-26 -58 -83 -97q-44 -29 -97.5 -39.5t-119.5 -10.5h-98v590h98q61 0 112.5 -10z" />
    <glyph glyph-name="dcaron" unicode="&#x10f;" horiz-adv-x="633" 
d="M588 541h47l118 237h-95zM437 69v-69h79l4 778h-77v-247l-10 6q-36 20 -68.5 28.5t-75.5 8.5t-86 -19q-41 -18 -75 -57t-54 -93.5t-20 -129.5q0 -137 57.5 -214t148.5 -77q45 0 87 20t78 54zM360.5 85.5q-40.5 -19.5 -80.5 -19.5q-73 0 -109 56q-35 52 -35 155t45 161
q44 58 125 58q36 0 63.5 -6t73.5 -27l-6 -329q-36 -29 -76.5 -48.5z" />
    <glyph glyph-name="Dcroat" unicode="&#x110;" horiz-adv-x="764" 
d="M437 21q60 13 110 45q69 43 113 124t44 184.5t-40.5 180.5t-115.5 125q-43 27 -104 41.5t-165 14.5h-174v-302h-98v-56h98v-370h175q97 0 157 13zM584 524q31 -62 31 -151t-28 -148q-26 -59 -83 -97q-43 -28 -98 -39t-122 -11h-98v300h175v56h-175v234h98q63 0 114 -10
t95 -36q61 -37 91 -98z" />
    <glyph glyph-name="dcroat" unicode="&#x111;" horiz-adv-x="608" 
d="M437 0h79v649h92v52h-92v77h-77v-77h-173v-52h173v-123l-10 6q-36 19 -65 27.5t-75 8.5t-87 -18q-40 -18 -74 -57t-54 -94q-20 -51 -20 -127q0 -139 58 -213.5t148 -74.5q49 0 89 21q42 22 76 53l12 10v-68zM360.5 85.5q-40.5 -19.5 -80.5 -19.5q-75 0 -109 55
q-35 55 -35 153q0 105 46 161q44 55 122 55q35 0 63.5 -6t71.5 -25l-2 -325q-36 -29 -76.5 -48.5z" />
    <glyph glyph-name="Emacron" unicode="&#x112;" horiz-adv-x="617" 
d="M166 926v-62h340v62h-340zM560 8v72h-376v292h376v72h-376v220h376v72h-460v-728h460z" />
    <glyph glyph-name="emacron" unicode="&#x113;" horiz-adv-x="580" 
d="M136 744v-61h340v61h-340zM149 176q-16 43 -16 94v7h397v44q0 123 -59 188t-163 65q-112 0 -183 -80q-72 -81 -72 -219t76 -213q74 -75 202 -75q51 0 92 12q42 12 96 34v87q-23 -19 -80 -41q-54 -23 -109 -23q-42 0 -77.5 12.5t-60.5 38.5q-27 26 -43 69zM453 342v-8
h-321l1 9q6 67 52 114q44 47 118.5 47t110.5 -43q39 -44 39 -119z" />
    <glyph glyph-name="Ebreve" unicode="&#x114;" horiz-adv-x="617" 
d="M221 900q44 -51 120.5 -51t121.5 50q46 50 52 125h-69q-8 -65 -32 -93q-28 -33 -73 -33t-71.5 31.5t-32.5 94.5h-66q6 -76 50 -124zM560 8v72h-376v292h376v72h-376v220h376v72h-460v-728h460z" />
    <glyph glyph-name="ebreve" unicode="&#x115;" horiz-adv-x="580" 
d="M188 712q43 -50 120 -50t121 50q46 50 52 126h-67q-8 -64 -33 -94q-28 -32 -73.5 -32t-72.5 32q-25 30 -31 94h-67q6 -76 51 -126zM149 176q-16 43 -16 94v7h397v44q0 123 -59 188t-163 65q-112 0 -183 -80q-72 -81 -72 -219t76 -213q74 -75 202 -75q51 0 92 12
q42 12 96 34v87q-23 -19 -80 -41q-54 -23 -109 -23q-42 0 -77.5 12.5t-60.5 38.5q-27 26 -43 69zM453 342v-8h-321l1 9q6 67 52 114q44 47 118.5 47t110.5 -43q39 -44 39 -119z" />
    <glyph glyph-name="Edotaccent" unicode="&#x116;" horiz-adv-x="617" 
d="M306 936v-83h85v83h-85zM560 8v72h-376v292h376v72h-376v220h376v72h-460v-728h460z" />
    <glyph glyph-name="edotaccent" unicode="&#x117;" horiz-adv-x="580" 
d="M266 750v-83h86v83h-86zM149 176q-16 43 -16 94v7h397v44q0 123 -59 188t-163 65q-112 0 -183 -80q-72 -81 -72 -219t76 -213q74 -75 202 -75q51 0 92 12q42 12 96 34v87q-23 -19 -80 -41q-54 -23 -109 -23q-42 0 -77.5 12.5t-60.5 38.5q-27 26 -43 69zM453 342v-8h-321
l1 9q6 67 52 114q44 47 118.5 47t110.5 -43q39 -44 39 -119z" />
    <glyph glyph-name="Eogonek" unicode="&#x118;" horiz-adv-x="407" 
d="M365 793v-50h-286v-292h146v-50h-146v-350h286v-50h-336v792h336zM278 -20q0 -31 14 -45q12 -12 39 -12h4q26 1 38 13q6 6 8 14l50 -4q-2 -25 -23 -46q-27 -27 -76 -27q-48 0 -75 27q-29 28 -29 80q0 29 8 55l48 -14q-6 -19 -6 -41z" />
    <glyph glyph-name="eogonek" unicode="&#x119;" horiz-adv-x="531" 
d="M500 240h-430q6 -81 55 -130q29 -28 64 -42t59 -16q26 -3 52 -3q34 0 66 4.5t47 8.5l15 5v-51q-50 -17 -129 -17q-28 0 -55 3q-33 3 -75.5 19.5t-78.5 53.5q-71 71 -71 190q0 131 73 204q71 71 188 71q93 0 150 -57q47 -47 64 -126q8 -39 8 -79q0 -9 -2 -38zM280 490
q-96 0 -153 -57q-51 -51 -57 -143h382q-1 29 -7 57q-31 143 -165 143zM303 -15q0 -31 14 -45q12 -12 39 -12h4q26 1 38 13q6 6 8 14l50 -4q-2 -25 -23 -46q-27 -27 -76 -27q-48 0 -75 27q-29 28 -29 80q0 29 8 55l48 -14q-6 -19 -6 -41z" />
    <glyph glyph-name="Ecaron" unicode="&#x11a;" horiz-adv-x="617" 
d="M277 850h99l100 174h-59l-90 -133l-90 133h-61zM560 8v72h-376v292h376v72h-376v220h376v72h-460v-728h460z" />
    <glyph glyph-name="ecaron" unicode="&#x11b;" horiz-adv-x="580" 
d="M257 663h99l101 175h-59l-90 -133l-91 133h-59zM149 176q-16 43 -16 94v7h397v44q0 123 -59 188t-163 65q-112 0 -183 -80q-72 -81 -72 -219t76 -213q74 -75 202 -75q51 0 92 12q42 12 96 34v87q-23 -19 -80 -41q-54 -23 -109 -23q-42 0 -77.5 12.5t-60.5 38.5
q-27 26 -43 69zM453 342v-8h-321l1 9q6 67 52 114q44 47 118.5 47t110.5 -43q39 -44 39 -119z" />
    <glyph glyph-name="Gcircumflex" unicode="&#x11c;" horiz-adv-x="764" 
d="M412 983l93 -133h59l-101 174h-100l-101 -174h57zM551 744q-59 14 -120 14q-172 0 -271 -103q-102 -103 -102 -282q0 -99 28 -172q55 -143 193 -191q68 -24 152 -24q67 0 134 20q69 21 126 48v312h-276v-72h193v-199q-84 -38 -181 -38q-130 0 -206 84t-76 235
q0 141 73 226q72 86 196 86q52 0 97 -12q49 -12 78 -26q27 -13 59 -34t42 -29v105q-78 37 -139 52z" />
    <glyph glyph-name="gcircumflex" unicode="&#x11d;" horiz-adv-x="608" 
d="M306 796l89 -133h63l-102 175h-99l-99 -175h58zM190 -205q44 -7 78 -7q123 0 185 65q63 66 63 208v497h-75l-7 -28q-48 26 -74 34q-34 10 -74.5 10t-82.5 -19q-88 -38 -130 -145q-19 -50 -19 -125q0 -131 57 -203.5t148 -72.5q53 0 89.5 17t76.5 51l12 11v-69
q0 -34 -8 -65q-9 -31 -27 -51q-17 -21 -47 -33t-79.5 -12t-95.5 13q-48 14 -68 21v-82q31 -9 78 -15zM437 150q-77 -62 -158 -62q-75 0 -108 51q-35 51 -35 147q0 103 46 157q45 55 120 55q60 0 131 -33l4 -2v-313z" />
    <glyph glyph-name="Gbreve" unicode="&#x11e;" horiz-adv-x="518" 
d="M335 743q-19 0 -38 -1q-30 -2 -71.5 -20t-76.5 -53q-90 -90 -90 -252q0 -196 97 -293q62 -62 143 -70q26 -3 52 -3q59 0 110 13v326h-137v50h187v-413l-17 -6q-60 -20 -144 -20q-29 0 -57 3q-98 11 -173 85q-111 111 -111 328q0 183 105 287q42 43 91 64.5t90 23.5
q19 1 39 1q91 0 146 -15l-1 -51q-58 16 -144 16zM437 954h50q0 -42 -33 -75q-55 -54 -152.5 -54t-151.5 54q-34 33 -34 75h50q0 -21 19 -39q17 -18 48.5 -29t68 -11t68 11t48.5 29q19 18 19 39z" />
    <glyph glyph-name="gbreve" unicode="&#x11f;" horiz-adv-x="498" 
d="M207 -158q18 0 35 1q42 3 76 15q40 13 65 38q38 38 38 102v38q-85 -36 -158 -36q-99 0 -161 63q-76 75 -76 216q0 113 72 185q36 36 79 54.5t74 21.5q27 3 55 3q59 0 115 -12v17h50v-550q0 -85 -53 -137q-33 -33 -84 -51q-40 -14 -88 -17q-19 -1 -39 -1q-73 0 -129 14v51
q62 -15 129 -15zM307 493q-26 0 -52 -3q-21 -2 -57 -17.5t-65 -43.5q-57 -58 -57 -150q0 -120 61 -181q48 -48 126 -48q71 0 158 40v390q-53 13 -114 13zM428 712h50q0 -42 -33 -75q-55 -54 -152.5 -54t-151.5 54q-34 33 -34 75h50q0 -21 19 -39q17 -18 48.5 -29t68 -11
t68 11t48.5 29q19 18 19 39z" />
    <glyph glyph-name="Gdotaccent" unicode="&#x120;" horiz-adv-x="764" 
d="M369 936v-83h87v83h-87zM551 744q-59 14 -120 14q-172 0 -271 -103q-102 -103 -102 -282q0 -99 28 -172q55 -143 193 -191q68 -24 152 -24q67 0 134 20q69 21 126 48v312h-276v-72h193v-199q-84 -38 -181 -38q-130 0 -206 84t-76 235q0 141 73 226q72 86 196 86
q52 0 97 -12q49 -12 78 -26q27 -13 59 -34t42 -29v105q-78 37 -139 52z" />
    <glyph glyph-name="gdotaccent" unicode="&#x121;" horiz-adv-x="608" 
d="M261 750v-83h85v83h-85zM190 -205q44 -7 78 -7q123 0 185 65q63 66 63 208v497h-75l-7 -28q-48 26 -74 34q-34 10 -74.5 10t-82.5 -19q-88 -38 -130 -145q-19 -50 -19 -125q0 -131 57 -203.5t148 -72.5q53 0 89.5 17t76.5 51l12 11v-69q0 -34 -8 -65q-9 -31 -27 -51
q-17 -21 -47 -33t-79.5 -12t-95.5 13q-48 14 -68 21v-82q31 -9 78 -15zM437 150q-77 -62 -158 -62q-75 0 -108 51q-35 51 -35 147q0 103 46 157q45 55 120 55q60 0 131 -33l4 -2v-313z" />
    <glyph glyph-name="uni0122" unicode="&#x122;" horiz-adv-x="764" 
d="M435 -14q3 -17 3 -26l1 -22q0 -46 -27 -68q-24 -21 -77 -21q-36 0 -70 13l-6 3v-65q24 -6 42 -8h1q36 -4 44 -4q68 0 110 42t42 118l-2 36v7q54 9 107 28q53 18 88 35v312h-276v-72h193v-199q-84 -38 -181 -38q-130 0 -206 84t-76 235q0 141 73 226q72 86 196 86
q52 0 97 -12q49 -12 78 -26q27 -13 59 -34t42 -29v105q-78 37 -139 52q-59 14 -120 14q-172 0 -271 -103q-102 -103 -102 -282q0 -99 28 -172q55 -143 193 -191q68 -24 150 -24h6z" />
    <glyph glyph-name="uni0123" unicode="&#x123;" horiz-adv-x="608" 
d="M190 -205q44 -7 78 -7q123 0 185 65q63 66 63 208v497h-75l-7 -28q-48 26 -74 34q-34 10 -74.5 10t-82.5 -19q-88 -38 -130 -145q-19 -50 -19 -125q0 -131 57 -203.5t148 -72.5q53 0 89.5 17t76.5 51l12 11v-69q0 -34 -8 -65q-9 -31 -27 -51q-17 -21 -47 -33t-79.5 -12
t-95.5 13q-48 14 -68 21v-82q31 -9 78 -15zM437 150q-77 -62 -158 -62q-75 0 -108 51q-35 51 -35 147q0 103 46 157q45 55 120 55q60 0 131 -33l4 -2v-313zM235 666h96l78 172h-57z" />
    <glyph glyph-name="Hcircumflex" unicode="&#x124;" horiz-adv-x="739" 
d="M369 983l91 -133h60l-100 174h-100l-100 -174h58zM640 8v728h-85v-292h-371v292h-84v-728h84v364h371v-364h85z" />
    <glyph glyph-name="hcircumflex" unicode="&#x125;" horiz-adv-x="618" 
d="M326 983l89 -133h63l-102 174h-98l-100 -174h59zM530 15v355q0 101 -46 152.5t-128 51.5q-47 0 -89 -20.5t-84 -55.5l-12 -10v290h-79v-763h79v413q41 32 80.5 51.5t77.5 19.5q39 0 62 -11q24 -12 37 -34q14 -21 18 -56q5 -34 5 -67v-5v-311h79z" />
    <glyph glyph-name="Hbar" unicode="&#x126;" horiz-adv-x="739" 
d="M640 8v554h84v54h-84v120h-83v-120h-374v120h-83v-120h-84v-54h84v-554h83v364h374v-364h83zM557 562v-118h-374v118h374z" />
    <glyph glyph-name="hbar" unicode="&#x127;" horiz-adv-x="618" 
d="M530 15v355q0 101 -46 152.5t-130 51.5q-47 0 -89.5 -20.5t-83.5 -55.5l-12 -10v161h153v52h-153v77h-77v-77h-82v-52h82v-634h77v413q38 32 78.5 51.5t79.5 19.5q40 0 64 -11q24 -12 37 -34q14 -21 18 -56q5 -34 5 -67v-5v-311h79z" />
    <glyph glyph-name="Itilde" unicode="&#x128;" horiz-adv-x="401" 
d="M332 8v60h-94v608h94v60h-264v-60h95v-608h-95v-60h264zM271 859q46 0 75 34.5t33 102.5h-52q-2 -31 -14 -54q-14 -26 -42 -27q-17 0 -32 10.5t-36 32.5q-17 17 -34 25.5t-39 8.5q-48 0 -77 -39q-28 -38 -31 -97h53q3 37 13 56q14 27 42 27q18 0 32 -11q15 -12 33 -31
q34 -38 76 -38z" />
    <glyph glyph-name="itilde" unicode="&#x129;" horiz-adv-x="266" 
d="M173 15v543h-79v-543h79zM43 726q11 21 32 21q15 0 28 -10q10 -8 28 -26q15 -17 26 -21q17 -7 32 -7q37 0 60 30q22 28 24 85h-41q-1 -29 -9 -45q-11 -22 -33 -22q-14 0 -27 11q-19 17 -28 26q-19 17 -27.5 21.5t-31.5 4.5q-36 0 -59 -29q-23 -30 -24 -85h41q1 31 9 46z
" />
    <glyph glyph-name="Imacron" unicode="&#x12a;" horiz-adv-x="401" 
d="M332 8v60h-97v608h97v60h-264v-60h98v-608h-98v-60h264zM48 864h306v62h-306v-62z" />
    <glyph glyph-name="imacron" unicode="&#x12b;" horiz-adv-x="266" 
d="M-2 683h270v61h-270v-61zM173 15v543h-79v-543h79z" />
    <glyph glyph-name="Ibreve" unicode="&#x12c;" horiz-adv-x="416" 
d="M347 8v60h-97v608h97v60h-279v-60h98v-608h-98v-60h279zM128 1002h-64q2 -76 37 -124.5t108.5 -48.5t107.5 48.5t36 124.5h-65q-1 -66 -19 -94q-21 -30 -62 -30t-61 31q-17 28 -18 93z" />
    <glyph glyph-name="ibreve" unicode="&#x12d;" horiz-adv-x="266" 
d="M59 820h-59q2 -70 34.5 -114t98.5 -44t98 44.5t34 113.5h-58q-1 -61 -18 -87q-19 -27 -57 -27t-56 30q-16 26 -17 84zM173 15v543h-79v-543h79z" />
    <glyph glyph-name="Iogonek" unicode="&#x12e;" horiz-adv-x="416" 
d="M181 -32q-3 -13 -3 -34q0 -67 36.5 -104.5t99.5 -37.5q24 0 36.5 2t32.5 6v63q-7 -3 -23 -7.5t-32 -4.5q-48 0 -66.5 22t-18.5 65q0 25 2.5 34t6.5 28h95v61h-97v607h97v61h-279v-61h98v-607h-98v-61h120q-4 -19 -7 -32z" />
    <glyph glyph-name="iogonek" unicode="&#x12f;" horiz-adv-x="266" 
d="M88 750v-83h91v83h-91zM173 558h-79v-525q-6 -17 -15 -43q-8 -25 -8 -56q0 -68 37 -105t100 -37q23 0 35.5 2t32.5 6v64q-8 -4 -23.5 -8.5t-32.5 -4.5q-46 0 -65 22.5t-19 64.5q0 23 8 64h29v556z" />
    <glyph glyph-name="Idotaccent" unicode="&#x130;" horiz-adv-x="195" 
d="M164 793v-50h-43v-693h43v-50h-138v50h45v693h-45v50h138zM69 911h79v-85h-79v85z" />
    <glyph glyph-name="dotlessi" unicode="&#x131;" horiz-adv-x="150" 
d="M50 518h50v-520h-50v520z" />
    <glyph glyph-name="IJ" unicode="&#x132;" horiz-adv-x="392" 
d="M361 795v-624q0 -81 -49 -130q-25 -25 -58 -37q-22 -8 -39 -8v50q8 0 22 5q22 8 39 25q35 35 35 95v574h-85v50h135zM164 793v-50h-43v-693h43v-50h-138v50h45v693h-45v50h138z" />
    <glyph glyph-name="ij" unicode="&#x133;" horiz-adv-x="359" 
d="M306 635h-50v84h50v-84zM256 -22v515h-59v50h109v-565q0 -81 -49 -130q-25 -25 -58 -37q-22 -8 -39 -8v50q8 0 22 5q22 8 39 25q35 35 35 95zM50 518h50v-520h-50v520zM100 635h-50v84h50v-84z" />
    <glyph glyph-name="Jcircumflex" unicode="&#x134;" horiz-adv-x="435" 
d="M232 983l92 -133h62l-105 174h-95l-99 -174h59zM286 40q57 50 57 146v543h-227v-63h144v-442q0 -30 -3.5 -64.5t-17 -56.5t-39 -33t-68.5 -11q-30 0 -62.5 8t-47.5 13v-77q22 -5 60 -9q49 -4 63 -4q88 0 141 50z" />
    <glyph glyph-name="jcircumflex" unicode="&#x135;" horiz-adv-x="322" 
d="M16.5 -208q29.5 -4 51.5 -4q73 0 115 48q47 48 47 142v580h-180v-65h106v-469q0 -42 -3 -72q-2 -30 -12.5 -51.5t-31 -32.5t-59.5 -11q-21 0 -46.5 8t-34.5 11v-76q18 -4 47.5 -8zM155 796l90 -133h63l-105 175h-93l-102 -175h61z" />
    <glyph glyph-name="uni0136" unicode="&#x136;" horiz-adv-x="679" 
d="M414 -52q0 14 -2 32q0 8 -1 15h-59q4 -44 4 -57q0 -46 -27 -68q-24 -21 -78 -21q-26 0 -47 6l-30 10v-65q24 -5 45 -8q36 -4 45 -4q66 0 108 42t42 118zM544 736l-357 -399v399h-85v-728h85v247l80 88l284 -335h108l-332 386l316 342h-99z" />
    <glyph glyph-name="uni0137" unicode="&#x137;" horiz-adv-x="576" 
d="M350 -52q0 14 -2 32q0 8 -1 15h-57q1 -12 1 -23q2 -20 2 -26v-8q0 -47 -25 -68q-24 -21 -78 -21q-37 0 -72 13l-8 4v-66q24 -5 45 -8q38 -4 47 -4q66 0 107 42t41 118zM443 558l-268 -290v510h-79v-763h79v182l68 65l214 -247h103l-262 293l241 250h-96z" />
    <glyph glyph-name="kgreenlandic" unicode="&#x138;" horiz-adv-x="576" 
d="M443 558l-268 -290v290h-79v-543h79v182l68 65l214 -247h103l-262 293l241 250h-96z" />
    <glyph glyph-name="Lacute" unicode="&#x139;" horiz-adv-x="540" 
d="M114 853h60l120 171h-97zM541 8v72h-357v656h-84v-728h441z" />
    <glyph glyph-name="lacute" unicode="&#x13a;" horiz-adv-x="266" 
d="M86 853h58l125 171h-101zM169 15v763h-79v-763h79z" />
    <glyph glyph-name="uni013B" unicode="&#x13b;" horiz-adv-x="540" 
d="M342 -5q3 -7 3 -25q2 -17 2 -23.5v-8.5q0 -46 -26 -68q-24 -21 -76 -21q-26 0 -47 6l-30 10v-65q24 -5 45 -8q36 -4 44 -4q65 0 105.5 42t40.5 118q0 7 -2 23q0 14 -1 19l-3 10h144v73h-357v656h-84v-729h241z" />
    <glyph glyph-name="uni013C" unicode="&#x13c;" horiz-adv-x="266" 
d="M163 1q3 -32 3 -39v-24q0 -47 -22.5 -68t-73.5 -21q-25 0 -42 5.5t-26 8.5v-65q14 -3 43.5 -6.5t38.5 -3.5q62 0 103.5 41.5t41.5 118.5q0 22 -1 30t-1 17h-54v783h-79v-777h69z" />
    <glyph glyph-name="Lcaron" unicode="&#x13d;" horiz-adv-x="540" 
d="M541 8v72h-357v656h-84v-728h441zM283 541h45l111 237h-90z" />
    <glyph glyph-name="lcaron" unicode="&#x13e;" horiz-adv-x="288" 
d="M241 541h48l117 237h-94zM173 15v763h-79v-763h79z" />
    <glyph glyph-name="Ldot" unicode="&#x13f;" horiz-adv-x="540" 
d="M541 8v72h-357v656h-84v-728h441zM365 386v-118h98v118h-98z" />
    <glyph glyph-name="ldot" unicode="&#x140;" horiz-adv-x="439" 
d="M173 15v763h-79v-763h79zM303 384v-116h100v116h-100z" />
    <glyph glyph-name="Lslash" unicode="&#x141;" horiz-adv-x="407" 
d="M365 51v-50h-336v377l-12 -11l-34 36l46 43v322h50v-275l41 38l34 -36l-75 -70v-374h286z" />
    <glyph glyph-name="lslash" unicode="&#x142;" horiz-adv-x="137" 
d="M85 748v-249l35 32l34 -36l-69 -65v-432h-50v385l-18 -16l-34 36l52 49v296h50z" />
    <glyph glyph-name="Nacute" unicode="&#x143;" horiz-adv-x="530" 
d="M54 793h3h14l368 -609v584h50v-768h-50v87l-360 596v-683h-50v793h25zM419 949h-79l-106 -138h39z" />
    <glyph glyph-name="nacute" unicode="&#x144;" horiz-adv-x="490" 
d="M24 548h50v-17q55 12 115 12q28 0 55 -3q31 -3 74 -21.5t79 -54.5q72 -72 72 -185v-281h-50v281q0 92 -57 150q-29 28 -65 43.5t-57 17.5q-26 3 -52 3q-61 0 -114 -14v-481h-50v550zM400 694h-79l-106 -138h39z" />
    <glyph glyph-name="uni0145" unicode="&#x145;" horiz-adv-x="736" 
d="M372.5 -170q41.5 42 41.5 118q0 30 -2 47h-60q3 -17 3.5 -26t0.5 -31q0 -46 -26 -68q-24 -21 -77 -21q-35 0 -70 13l-7 3v-65q25 -6 44 -8v0q36 -4 44 -4q67 0 108.5 42zM528 8h110v728h-77v-630l-320 630h-141v-728h77v688z" />
    <glyph glyph-name="uni0146" unicode="&#x146;" horiz-adv-x="618" 
d="M356 -52q0 14 -2 32q0 8 -1 15h-58q4 -44 4 -57q0 -46 -25 -68q-24 -21 -78 -21q-27 0 -48 6l-30 10v-65q24 -5 45 -8q38 -4 47 -4q65 0 105.5 42t40.5 118zM530 15v355q0 101 -46 152.5t-128 51.5q-47 0 -89 -20.5t-84 -55.5l-12 -10v70h-79v-543h79v413
q41 32 80.5 51.5t77.5 19.5q39 0 62 -11q24 -12 37 -34q14 -21 18 -56q5 -34 5 -67v-5v-311h79z" />
    <glyph glyph-name="Ncaron" unicode="&#x147;" horiz-adv-x="736" 
d="M339 850h100l101 174h-59l-91 -133l-91 133h-60zM528 8h110v728h-77v-630l-320 630h-141v-728h77v688z" />
    <glyph glyph-name="ncaron" unicode="&#x148;" horiz-adv-x="618" 
d="M273 663h97l102 175h-60l-89 -133l-90 133h-60zM530 15v355q0 101 -46 152.5t-128 51.5q-47 0 -89 -20.5t-84 -55.5l-12 -10v70h-79v-543h79v413q41 32 80.5 51.5t77.5 19.5q39 0 62 -11q24 -12 37 -34q14 -21 18 -56q5 -34 5 -67v-5v-311h79z" />
    <glyph glyph-name="napostrophe" unicode="&#x149;" horiz-adv-x="718" 
d="M627 15v355q0 101 -45.5 152.5t-130.5 51.5q-48 0 -91.5 -20.5t-84.5 -55.5l-12 -10v70h-76v-543h76v413q39 32 80 51.5t81 19.5t64 -11.5t37 -33.5q14 -21 18 -56q6 -34 6 -67q0 -3 -1 -5v-311h79zM0 513h54l126 265h-102z" />
    <glyph glyph-name="Eng" unicode="&#x14a;" horiz-adv-x="736" 
d="M531 -113q-29 -30 -92 -30q-28 0 -51 7v-69q26 -5 30 -5v0q26 -2 38 -2q83 0 132.5 51.5t49.5 140.5v749h-77v-581l-320 581h-141v-729h77v687l384 -698v-1q0 -72 -30 -101z" />
    <glyph glyph-name="eng" unicode="&#x14b;" horiz-adv-x="618" 
d="M285 -137v-69q37 -6 65 -6q80 0 130 50t50 140v386q0 104 -46 157t-128 53q-47 0 -89 -20.5t-84 -55.5l-12 -10v70h-79v-557h79v424q41 32 80.5 52.5t77.5 20.5q39 0 62 -12q24 -12 37 -34q14 -22 18 -58q5 -35 5 -68v-6v-302q0 -34 -4 -71v0q-3 -26 -15 -48
q-13 -23 -38 -32q-24 -10 -61 -10q-17 0 -23.5 1.5t-14 3t-10.5 1.5z" />
    <glyph glyph-name="Omacron" unicode="&#x14c;" horiz-adv-x="776" 
d="M217 931v-62h342v62h-342zM719 373q0 92 -24 164q-45 141 -170 197q-58 26 -133 26t-137 -25q-124 -50 -173 -199q-24 -72 -24 -164.5t23.5 -165t68.5 -121.5q44 -50 103 -75q62 -26 136 -26t134 26q60 25 104 75q43 49 67.5 122.5t24.5 165.5zM388.5 682
q112.5 0 176.5 -81q66 -81 66 -229.5t-67 -228.5q-65 -81 -176 -81t-176 81q-67 80 -67 228.5t66 229.5q65 81 177.5 81z" />
    <glyph glyph-name="omacron" unicode="&#x14d;" horiz-adv-x="591" 
d="M126 744v-61h340v61h-340zM295 574q-108 0 -174 -78q-68 -81 -68 -216.5t67 -215.5t174.5 -80t175.5 79t68 216.5t-68 215.5q-67 79 -175 79zM135 281q0 110 43 164q42 55 117.5 55t117.5 -55q44 -56 44 -165t-44 -166q-41 -56 -117 -56t-117 57q-44 56 -44 166z" />
    <glyph glyph-name="Obreve" unicode="&#x14e;" horiz-adv-x="776" 
d="M264 900q45 -51 124 -51t123.5 50t50.5 125h-66q-9 -65 -33 -93q-28 -33 -75 -33t-74 31.5t-34 94.5h-65q7 -76 49 -124zM719 373q0 92 -24 164q-45 141 -170 197q-58 26 -133 26t-137 -25q-124 -50 -173 -199q-24 -72 -24 -164.5t23.5 -165t68.5 -121.5q44 -50 103 -75
q62 -26 136 -26t134 26q60 25 104 75q43 49 67.5 122.5t24.5 165.5zM388.5 682q112.5 0 176.5 -81q66 -81 66 -229.5t-67 -228.5q-65 -81 -176 -81t-176 81q-67 80 -67 228.5t66 229.5q65 81 177.5 81z" />
    <glyph glyph-name="obreve" unicode="&#x14f;" horiz-adv-x="591" 
d="M175 713q44 -51 121 -51t120 50q46 50 52 126h-67q-8 -65 -32 -93q-27 -33 -73 -33t-72.5 31.5t-32.5 94.5h-66q6 -77 50 -125zM295 574q-108 0 -174 -78q-68 -81 -68 -216.5t67 -215.5t174.5 -80t175.5 79t68 216.5t-68 215.5q-67 79 -175 79zM135 281q0 110 43 164
q42 55 117.5 55t117.5 -55q44 -56 44 -165t-44 -166q-41 -56 -117 -56t-117 57q-44 56 -44 166z" />
    <glyph glyph-name="Ohungarumlaut" unicode="&#x150;" horiz-adv-x="776" 
d="M438 853h51l116 171h-92zM243 853h51l116 171h-92zM719 373q0 92 -24 164q-45 141 -170 197q-58 26 -133 26t-137 -25q-124 -50 -173 -199q-24 -72 -24 -164.5t23.5 -165t68.5 -121.5q44 -50 103 -75q62 -26 136 -26t134 26q60 25 104 75q43 49 67.5 122.5t24.5 165.5z
M388.5 682q112.5 0 176.5 -81q66 -81 66 -229.5t-67 -228.5q-65 -81 -176 -81t-176 81q-67 80 -67 228.5t66 229.5q65 81 177.5 81z" />
    <glyph glyph-name="ohungarumlaut" unicode="&#x151;" horiz-adv-x="591" 
d="M347 666h50l118 172h-95zM155 666h52l112 172h-89zM295 574q-108 0 -174 -78q-68 -81 -68 -216.5t67 -215.5t174.5 -80t175.5 79t68 216.5t-68 215.5q-67 79 -175 79zM135 281q0 110 43 164q42 55 117.5 55t117.5 -55q44 -56 44 -165t-44 -166q-41 -56 -117 -56t-117 57
q-44 56 -44 166z" />
    <glyph glyph-name="OE" unicode="&#x152;" horiz-adv-x="795" 
d="M423 745q-150 0 -237 -87q-89 -89 -89 -262.5t89 -262.5q87 -87 237 -87q6 0 12 1v698h-12zM771 793v-50h-286v-292h146v-50h-146v-353h286v-50h-311q-17 -2 -37 -2q-46 0 -91 9q-111 22 -181 93q-104 103 -104 297.5t104 298.5q70 70 181 92q45 9 90 9q23 0 39 -2h310z
" />
    <glyph glyph-name="oe" unicode="&#x153;" horiz-adv-x="1026" 
d="M797 490q-96 0 -153 -57q-51 -51 -57 -143h382q-1 29 -7 57q-31 143 -165 143zM297 -1q-27 0 -54 3q-33 3 -75.5 19.5t-78.5 53.5q-71 71 -71 190q0 126 76 202q35 35 76 52.5t73 20.5q25 2 51 2h8h8q26 0 51 -2q32 -3 73 -20.5t76 -52.5q31 -31 50 -72q18 43 49 74
q71 71 188 71q93 0 150 -57q47 -47 64 -126q8 -39 8 -79q0 -9 -2 -38h-430q6 -81 55 -130q29 -28 64 -42t59 -16q26 -3 52 -3q34 0 66 4.5t47 8.5l15 5l1 -52q-47 -16 -130 -16q-28 0 -55 3q-33 3 -75.5 19.5t-78.5 53.5q-29 28 -46 66q-17 -38 -46 -66q-36 -37 -78.5 -53.5
t-75.5 -19.5q-27 -3 -54 -3h-5h-5zM294 492q-24 0 -47 -2t-56.5 -16.5t-61.5 -41.5q-61 -62 -61 -167q0 -99 56 -155q29 -28 64 -42t59.5 -16.5t49.5 -2.5h5h5q25 0 49.5 2.5t59.5 16.5t64 42q56 56 56 155q0 105 -61 167q-28 27 -61.5 41.5t-56.5 16.5t-47 2h-8h-8z" />
    <glyph glyph-name="Racute" unicode="&#x154;" horiz-adv-x="682" 
d="M268 853h56l120 171h-97zM521 411.5q37 51.5 37 130.5q0 56 -20.5 93.5t-58.5 62.5q-34 22 -73.5 30t-108.5 8h-197v-728h84v296h145l240 -296h108l-269 321l9 4q67 27 104 78.5zM369.5 379.5q-35.5 -9.5 -81.5 -9.5h-104v298h121q83 0 119 -28q24 -16 37 -45
q12 -23 12 -63.5t-10 -68t-35 -50.5q-23 -24 -58.5 -33.5z" />
    <glyph glyph-name="racute" unicode="&#x155;" horiz-adv-x="407" 
d="M174 666h56l115 172h-95zM411 472v81l-26 4v0q-7 1 -35 1q-44 0 -81 -17q-35 -18 -86 -63l-12 -10v90h-79v-543h79v392q42 34 77 54t78 20q28 0 50.5 -3.5t34.5 -5.5z" />
    <glyph glyph-name="uni0156" unicode="&#x156;" horiz-adv-x="682" 
d="M369.5 -170q41.5 42 41.5 118q0 30 -2 47h-60q3 -17 3.5 -26t0.5 -31q0 -46 -27 -68q-23 -21 -77 -21q-35 0 -70 13l-7 3v-65q25 -6 44 -8v0q36 -4 45 -4q67 0 108.5 42zM521 411.5q37 51.5 37 130.5q0 56 -20.5 93.5t-58.5 62.5q-34 22 -73.5 30t-108.5 8h-197v-728h84
v296h145l240 -296h108l-269 321l9 4q67 27 104 78.5zM369.5 379.5q-35.5 -9.5 -81.5 -9.5h-104v298h121q83 0 119 -28q24 -16 37 -45q12 -23 12 -63.5t-10 -68t-35 -50.5q-23 -24 -58.5 -33.5z" />
    <glyph glyph-name="uni0157" unicode="&#x157;" horiz-adv-x="407" 
d="M411 472v81l-26 4v0q-7 1 -35 1q-44 0 -83 -17q-38 -18 -88 -63l-11 -10v90h-76v-543h76v392q39 34 77 54t81 20q28 0 50.5 -3.5t34.5 -5.5zM172 -5q1 -14 1 -33v-24q0 -46 -21 -68q-21 -21 -70 -21q-25 0 -42.5 5.5t-25.5 8.5v-65q14 -4 37 -6v0q34 -4 43 -4
q61 0 99.5 42t38.5 118q0 13 -1.5 27t-2.5 20h-56z" />
    <glyph glyph-name="Rcaron" unicode="&#x158;" horiz-adv-x="682" 
d="M267 850h101l100 174h-58l-92 -133l-92 133h-62zM521 411.5q37 51.5 37 130.5q0 56 -20.5 93.5t-58.5 62.5q-34 22 -73.5 30t-108.5 8h-197v-728h84v296h145l240 -296h108l-269 321l9 4q67 27 104 78.5zM369.5 379.5q-35.5 -9.5 -81.5 -9.5h-104v298h121q83 0 119 -28
q24 -16 37 -45q12 -23 12 -63.5t-10 -68t-35 -50.5q-23 -24 -58.5 -33.5z" />
    <glyph glyph-name="rcaron" unicode="&#x159;" horiz-adv-x="407" 
d="M178 663h92l103 175h-60l-87 -133l-91 133h-62zM405 472v81l-26 4v0q-7 1 -35 1q-44 0 -81 -17q-36 -18 -85 -63l-13 -10v90h-79v-543h79v392q41 34 76.5 54t78.5 20q28 0 50.5 -3.5t34.5 -5.5z" />
    <glyph glyph-name="Sacute" unicode="&#x15a;" horiz-adv-x="548" 
d="M526 245q0 -111 -77.5 -177.5t-192.5 -66.5q-38 0 -77.5 7.5t-66 17t-52 21.5t-33 17t-12.5 8v58q5 -3 14 -8.5t36.5 -19t54.5 -24t64.5 -19t71.5 -8.5q105 0 167 62q53 52 53 131q0 8 -1 17q-3 39 -27 63q-21 21 -62 36q-34 13 -114 29t-116 29q-50 19 -79 47
q-42 42 -42 109q0 16 2 32q11 76 57 122q66 66 195 66h14q88 -3 166 -27v-52l-16 4q-70 22 -151 25h-13q-108 0 -159 -51q-35 -35 -43 -94q-2 -14 -2 -26q0 -45 27 -72q21 -21 62 -36q34 -12 114 -28.5t115 -29.5q51 -19 80 -47q43 -43 43 -115zM484 979h-79l-106 -138h39z
" />
    <glyph glyph-name="sacute" unicode="&#x15b;" horiz-adv-x="422" 
d="M364 469q-75 19 -139 19q-89 0 -126 -37q-26 -26 -26 -67q0 -21 14.5 -35.5t45.5 -24.5q28 -9 84.5 -18.5t99.5 -22.5t67 -37q29 -29 29 -77q0 -63 -44 -108q-61 -60 -170 -60q-47 0 -95.5 13t-65 20.5t-26.5 13.5v55q11 -6 29.5 -14.5t68 -23t89.5 -14.5q88 0 134 46
q30 30 30 72q0 27 -14 42q-15 14 -46 24q-28 10 -84.5 19t-99 21.5t-67.5 37.5q-28 29 -28 73q0 11 1 22q8 47 39 78q52 52 161 52h5q71 -1 135 -18zM377 713h-79l-106 -138h39z" />
    <glyph glyph-name="Scircumflex" unicode="&#x15c;" horiz-adv-x="670" 
d="M347 983l91 -133h60l-100 174h-101l-100 -174h58zM591.5 120.5q19.5 39.5 19.5 84.5q0 77 -40 119.5t-120 65.5q-24 6 -97 19.5t-84 16.5q-61 15 -85 44q-26 29 -26 77q0 56 51 92q47 33 123 33t140 -23q67 -24 108 -57v102q-48 26 -111 45q-60 19 -134 19
q-113 0 -189 -60q-75 -58 -75 -150q0 -80 45.5 -129.5t139.5 -70.5q53 -12 93 -18t73 -16q51 -15 74 -39q26 -26 26 -80q0 -64 -53 -101q-50 -36 -141 -36q-63 0 -133 26q-73 26 -129 72v-112q58 -26 126 -42q64 -16 134.5 -16t119 17t90.5 49q35 29 54.5 68.5z" />
    <glyph glyph-name="scircumflex" unicode="&#x15d;" horiz-adv-x="503" 
d="M268 796l89 -133h63l-103 175h-96l-101 -175h60zM400 34q62 48 62 120q0 57 -34 92q-34 34 -96 49q-2 0 -20 5q-15 4 -36.5 8.5t-46.5 10.5q-46 12 -67 31q-23 19 -23 56q0 45 39 66q33 20 81.5 20t96.5 -18q51 -18 84 -41v92q-32 21 -81 36q-47 11 -92.5 11t-85.5 -13
q-42 -14 -68 -37q-55 -48 -55 -117q0 -54 28 -90q29 -36 100 -56q30 -9 53 -14q42 -9 49 -11q48 -11 70 -31q23 -20 23 -57q0 -49 -40 -72q-33 -21 -91 -21q-47 0 -98 19q-53 20 -97 52v-92q32 -16 82 -31q49 -15 105 -15q97 0 158 48z" />
    <glyph glyph-name="Scedilla" unicode="&#x15e;" horiz-adv-x="548" 
d="M526 245q0 -111 -77.5 -177.5t-192.5 -66.5q-38 0 -77.5 7.5t-66 17t-52 21.5t-33 17t-12.5 8v58q5 -3 14 -8.5t36.5 -19t54.5 -24t64.5 -19t71.5 -8.5q105 0 167 62q53 52 53 131q0 8 -1 17q-3 39 -27 63q-21 21 -62 36q-34 13 -114 29t-116 29q-50 19 -79 47
q-42 42 -42 109q0 16 2 32q11 76 57 122q66 66 195 66h14q88 -3 166 -27v-52l-16 4q-70 22 -151 25h-13q-108 0 -159 -51q-35 -35 -43 -94q-2 -14 -2 -26q0 -45 27 -72q21 -21 62 -36q34 -12 114 -28.5t115 -29.5q51 -19 80 -47q43 -43 43 -115zM104 -150v57q11 -4 25 -8
q23 -7 50 -7q56 0 84 22q29 23 29 72q0 20 -4 52h54q2 -25 2 -42q0 -77 -42 -116q-42 -40 -110 -40q-43 0 -88 10z" />
    <glyph glyph-name="scedilla" unicode="&#x15f;" horiz-adv-x="422" 
d="M364 469q-75 19 -139 19q-89 0 -126 -37q-26 -26 -26 -67q0 -21 14.5 -35.5t45.5 -24.5q28 -9 84.5 -18.5t99.5 -22.5t67 -37q29 -29 29 -77q0 -63 -44 -108q-61 -60 -170 -60q-47 0 -95.5 13t-65 20.5t-26.5 13.5v55q11 -6 29.5 -14.5t68 -23t89.5 -14.5q88 0 134 46
q30 30 30 72q0 27 -14 42q-15 14 -46 24q-28 10 -84.5 19t-99 21.5t-67.5 37.5q-28 29 -28 73q0 11 1 22q8 47 39 78q52 52 161 52h5q71 -1 135 -18zM18 -146v57q11 -4 25 -8q23 -7 50 -7q56 0 84 22q29 23 29 72q0 20 -4 52h54q2 -25 2 -42q0 -77 -42 -116
q-42 -40 -110 -40q-43 0 -88 10z" />
    <glyph glyph-name="Scaron" unicode="&#x160;" horiz-adv-x="548" 
d="M306 831h8h7l89 49l-25 44l-71 -40l-72 40l-24 -44zM526 245q0 -111 -77.5 -177.5t-192.5 -66.5q-38 0 -77.5 7.5t-66 17t-52 21.5t-33 17t-12.5 8v58q5 -3 14 -8.5t36.5 -19t54.5 -24t64.5 -19t71.5 -8.5q105 0 167 62q53 52 53 131q0 8 -1 17q-3 39 -27 63
q-21 21 -62 36q-34 13 -114 29t-116 29q-50 19 -79 47q-42 42 -42 109q0 16 2 32q11 76 57 122q66 66 195 66h14q88 -3 166 -27v-52l-16 4q-70 22 -151 25h-13q-108 0 -159 -51q-35 -35 -43 -94q-2 -14 -2 -26q0 -45 27 -72q21 -21 62 -36q34 -12 114 -28.5t115 -29.5
q51 -19 80 -47q43 -43 43 -115z" />
    <glyph glyph-name="scaron" unicode="&#x161;" horiz-adv-x="422" 
d="M233 579h8h7l89 49l-25 44l-71 -40l-72 40l-24 -44zM364 469q-75 19 -139 19q-89 0 -126 -37q-26 -26 -26 -67q0 -21 14.5 -35.5t45.5 -24.5q28 -9 84.5 -18.5t99.5 -22.5t67 -37q29 -29 29 -77q0 -63 -44 -108q-61 -60 -170 -60q-47 0 -95.5 13t-65 20.5t-26.5 13.5v55
q11 -6 29.5 -14.5t68 -23t89.5 -14.5q88 0 134 46q30 30 30 72q0 27 -14 42q-15 14 -46 24q-28 10 -84.5 19t-99 21.5t-67.5 37.5q-28 29 -28 73q0 11 1 22q8 47 39 78q52 52 161 52h5q71 -1 135 -18z" />
    <glyph glyph-name="uni0162" unicode="&#x162;" horiz-adv-x="601" 
d="M151 -208q36 -4 44 -4q68 0 110 42t42 118q0 21 -2 33l-4 29v646h260v73h-601v-73h260v-656h23q3 -23 4 -32t1 -30q0 -46 -27 -68q-24 -21 -77 -21q-35 0 -69 13l-7 3v-65q24 -6 43 -8v0z" />
    <glyph glyph-name="uni0163" unicode="&#x163;" horiz-adv-x="373" 
d="M263 -10q3 -17 3 -28l1 -24q0 -46 -28 -68q-22 -21 -70 -21q-24 0 -45 6l-30 10v-65q24 -5 45 -8q34 -4 41 -4q60 0 104 42t44 118q0 8 -2 21v1q0 13 -2 18l-2 6l6 3q3 2 9 3t9 2l6 2v71q-39 -16 -81 -16q-41 0 -59 10t-28.5 33.5t-12.5 49.5v0q-1 33 -1 72v269h182v65
h-182v161h-76v-161h-63v-65h63v-313q0 -102 43 -146q38 -44 109 -44h17z" />
    <glyph glyph-name="Tcaron" unicode="&#x164;" horiz-adv-x="601" 
d="M249 850h102l100 174h-58l-92 -133l-92 133h-60zM341 8v656h260v72h-601v-72h260v-656h81z" />
    <glyph glyph-name="tcaron" unicode="&#x165;" horiz-adv-x="373" 
d="M31 558v-65h63v-313q0 -100 43 -146q40 -45 114 -45q18 0 49 5q32 4 52 10v71q-39 -16 -79 -16q-37 0 -56.5 10t-30.5 33.5t-13 49.5v0q-2 33 -2 72v269h181v65h-181v161h-77v-161h-63zM248 666h45l117 232h-95z" />
    <glyph glyph-name="Tbar" unicode="&#x166;" horiz-adv-x="601" 
d="M100 378h160v-370h81v370h160v56h-160v230h260v72h-601v-72h260v-230h-160v-56z" />
    <glyph glyph-name="tbar" unicode="&#x167;" horiz-adv-x="373" 
d="M31 328v-54h63v-94q0 -100 43 -146q38 -45 109 -45q21 0 53.5 4.5t52.5 10.5v71q-39 -16 -81 -16q-41 0 -59 10t-28.5 33.5t-12.5 49.5v0q-1 33 -1 72v50h139v54h-139v165h182v65h-182v161h-76v-161h-63v-65h63v-165h-63z" />
    <glyph glyph-name="Utilde" unicode="&#x168;" horiz-adv-x="719" 
d="M487 941q-16 -26 -44 -26q-18 0 -36 11q-20 11 -41 32q-22 19 -40 26q-24 10 -43 10q-47 0 -79 -37q-30 -33 -36 -101h49q2 34 16 57q14 26 42 26q20 0 38 -12q13 -9 39 -33q21 -18 40 -27q23 -9 45 -9q49 0 78 35t36 103h-48q-3 -33 -16 -55zM613 152.5
q17 56.5 17 139.5v437h-83v-445q0 -106 -37 -161q-22 -33 -59 -50.5t-91 -17.5q-105 0 -150 68q-19 28 -28 63t-9 100v443h-84v-437q0 -84 17.5 -141t55.5 -94.5t83 -53.5q51 -19 115 -19t110 18q47 17 86 54q40 40 57 96.5z" />
    <glyph glyph-name="utilde" unicode="&#x169;" horiz-adv-x="618" 
d="M391 671q48 0 78 35.5t37 103.5h-49q-3 -35 -16 -55q-18 -27 -46 -27q-16 0 -36 12q-19 11 -40 32q-19 18 -41 26.5t-40 8.5q-45 0 -79 -37q-30 -33 -36 -101h49q3 36 16 57q16 27 44 27q19 0 37 -12q5 -4 37 -34q39 -36 85 -36zM447 72v-72h79v558h-79v-412
q-40 -32 -81.5 -52t-80.5 -20q-40 0 -60 11q-43 23 -54 89q-4 28 -4 74v310h-79v-355q0 -100 48 -153q48 -66 126 -66q46 0 85.5 19.5t87.5 58.5z" />
    <glyph glyph-name="Umacron" unicode="&#x16a;" horiz-adv-x="719" 
d="M190 931v-62h340v62h-340zM613 152.5q17 56.5 17 139.5v437h-83v-445q0 -106 -37 -161q-22 -33 -59 -50.5t-91 -17.5q-105 0 -150 68q-19 28 -28 63t-9 100v443h-84v-437q0 -84 17.5 -141t55.5 -94.5t83 -53.5q51 -19 115 -19t110 18q47 17 86 54q40 40 57 96.5z" />
    <glyph glyph-name="umacron" unicode="&#x16b;" horiz-adv-x="618" 
d="M140 744v-61h342v61h-342zM447 72v-72h79v558h-79v-412q-40 -32 -81.5 -52t-80.5 -20q-40 0 -60 11q-43 23 -54 89q-4 28 -4 74v310h-79v-355q0 -100 48 -153q48 -66 126 -66q46 0 85.5 19.5t87.5 58.5z" />
    <glyph glyph-name="Ubreve" unicode="&#x16c;" horiz-adv-x="719" 
d="M253 1024h-66q6 -75 51 -125q44 -50 121.5 -50t121.5 50q45 50 51 125h-66q-8 -64 -33 -94q-28 -32 -73.5 -32t-72.5 31.5t-34 94.5zM613 152.5q17 56.5 17 139.5v437h-83v-445q0 -106 -37 -161q-22 -33 -59 -50.5t-91 -17.5q-105 0 -150 68q-19 28 -28 63t-9 100v443
h-84v-437q0 -84 17.5 -141t55.5 -94.5t83 -53.5q51 -19 115 -19t110 18q47 17 86 54q40 40 57 96.5z" />
    <glyph glyph-name="ubreve" unicode="&#x16d;" horiz-adv-x="618" 
d="M189 713q45 -51 121 -51t120 50q46 50 52 126h-68q-9 -65 -32 -93q-27 -33 -72 -33t-71.5 31.5t-32.5 94.5h-67q6 -77 50 -125zM447 72v-72h79v558h-79v-412q-40 -32 -81.5 -52t-80.5 -20q-40 0 -60 11q-43 23 -54 89q-4 28 -4 74v310h-79v-355q0 -100 48 -153
q48 -66 126 -66q46 0 85.5 19.5t87.5 58.5z" />
    <glyph glyph-name="Uring" unicode="&#x16e;" horiz-adv-x="719" 
d="M473 747q47 48 47 115.5t-46 114.5q-45 47 -114 47t-114 -47q-46 -47 -46 -114.5t48 -115.5q47 -48 112.5 -48t112.5 48zM434.5 941q30.5 -32 30.5 -78.5t-30.5 -78.5t-74.5 -32t-74.5 32t-30.5 78.5t30.5 78.5t74.5 32t74.5 -32zM613 152.5q17 56.5 17 139.5v437h-83
v-445q0 -106 -37 -161q-22 -33 -59 -50.5t-91 -17.5q-105 0 -150 68q-19 28 -28 63t-9 100v443h-84v-437q0 -84 17.5 -141t55.5 -94.5t83 -53.5q51 -19 115 -19t110 18q47 17 86 54q40 40 57 96.5z" />
    <glyph glyph-name="uring" unicode="&#x16f;" horiz-adv-x="618" 
d="M422 707q48 47 48 115.5t-47 115.5q-45 46 -112 46t-111 -46q-50 -48 -50 -115.5t50 -115.5q47 -48 111 -48t111 48zM383 901q30 -31 30 -78.5t-30 -78.5q-29 -32 -72.5 -32t-73 31.5t-29.5 79t29.5 79t73 31.5t72.5 -32zM447 72v-72h79v558h-79v-412q-40 -32 -81.5 -52
t-80.5 -20q-40 0 -60 11q-43 23 -54 89q-4 28 -4 74v310h-79v-355q0 -100 48 -153q48 -66 126 -66q46 0 85.5 19.5t87.5 58.5z" />
    <glyph glyph-name="Uhungarumlaut" unicode="&#x170;" horiz-adv-x="719" 
d="M426 853h51l118 171h-94zM234 853h51l114 171h-91zM613 152.5q17 56.5 17 139.5v437h-83v-445q0 -106 -37 -161q-22 -33 -59 -50.5t-91 -17.5q-105 0 -150 68q-19 28 -28 63t-9 100v443h-84v-437q0 -84 17.5 -141t55.5 -94.5t83 -53.5q51 -19 115 -19t110 18q47 17 86 54
q40 40 57 96.5z" />
    <glyph glyph-name="uhungarumlaut" unicode="&#x171;" horiz-adv-x="618" 
d="M371 666h51l117 172h-95zM180 666h53l110 172h-89zM447 72v-72h79v558h-79v-412q-39 -32 -80.5 -52t-81.5 -20q-39 0 -60 11q-43 23 -54 89q-4 28 -4 74v310h-79v-355q0 -100 48 -153q48 -66 127 -66q46 0 85.5 19.5t86.5 58.5z" />
    <glyph glyph-name="Uogonek" unicode="&#x172;" horiz-adv-x="719" 
d="M359 -15h13l11 1h9q-3 -13 -6 -30q-1 -5 -1 -22q0 -68 38 -105t103 -37q27 0 42.5 2.5t33.5 7.5v65q-11 -6 -29 -11t-33 -5q-92 0 -92 87q0 20 1 27.5t2.5 15t1.5 9.5v6l5 2q27 7 52 22q77 46 103 133q17 56 17 139v437h-83v-445q0 -106 -37 -161q-22 -33 -59 -50.5
t-91 -17.5q-105 0 -150 68q-19 28 -28 63t-9 100v443h-84v-437q0 -84 17.5 -141t55.5 -94.5t85 -54.5t112 -17z" />
    <glyph glyph-name="uogonek" unicode="&#x173;" horiz-adv-x="615" 
d="M631.5 -143.5q-18.5 -5.5 -33.5 -5.5q-92 0 -92 87q0 10 2 28q2 19 5 35h14v557h-76v-412q-38 -32 -80.5 -52t-83.5 -20t-62 11q-43 23 -54 89q-4 28 -4 74v310h-79v-355q0 -100 48 -153q48 -66 128 -66q47 0 87.5 19t87.5 57l12 10v-78q-3 -16 -6 -27.5t-3 -30.5
q0 -66 38 -104t104 -38q28 0 44 2.5t34 7.5v65q-12 -5 -30.5 -10.5z" />
    <glyph glyph-name="Wcircumflex" unicode="&#x174;" horiz-adv-x="982" 
d="M488 983l94 -133h61l-103 174h-102l-102 -174h58zM647 8h97l188 728h-81l-159 -647l-158 647h-86l-157 -641l-159 641h-86l191 -728h96l155 641z" />
    <glyph glyph-name="wcircumflex" unicode="&#x175;" horiz-adv-x="808" 
d="M401 796l93 -133h61l-102 175h-102l-102 -175h59zM546 15h74l141 543h-80l-98 -453l-147 453h-64l-141 -452l-106 452h-82l142 -543h73l144 446z" />
    <glyph glyph-name="Ycircumflex" unicode="&#x176;" horiz-adv-x="600" 
d="M295 983l92 -133h60l-100 174h-102l-100 -174h58zM335 8v320l250 408h-87l-203 -338l-201 338h-91l251 -418v-310h81z" />
    <glyph glyph-name="ycircumflex" unicode="&#x177;" horiz-adv-x="576" 
d="M288 796l92 -133h59l-100 175h-99l-100 -175h57zM149 -206h80l309 764h-82l-171 -426l-169 426h-86l215 -534z" />
    <glyph glyph-name="Ydieresis" unicode="&#x178;" horiz-adv-x="763" 
d="M408 0h-50v425l-339 360h68l296 -314l296 314h69l-340 -360v-425zM519 864h-56v-62h56v62zM365 864h-56v-62h56v62z" />
    <glyph glyph-name="Zacute" unicode="&#x179;" horiz-adv-x="530" 
d="M31 743v50h493v-35v-7l-457 -699h428v-50h-493v35v7l457 699h-428zM468 983h-79l-106 -138h39z" />
    <glyph glyph-name="zacute" unicode="&#x17a;" horiz-adv-x="442" 
d="M24 523v50h423v-35v-9l-383 -479h354v-50h-423v35v9l383 479h-354zM425 755h-79l-106 -138h39z" />
    <glyph glyph-name="Zdotaccent" unicode="&#x17b;" horiz-adv-x="530" 
d="M31 743v50h493v-35v-7l-457 -699h428v-50h-493v35v7l457 699h-428zM264 933h79v-85h-79v85z" />
    <glyph glyph-name="zdotaccent" unicode="&#x17c;" horiz-adv-x="442" 
d="M24 523v50h423v-35v-9l-383 -479h354v-50h-423v35v9l383 479h-354zM226 702h79v-85h-79v85z" />
    <glyph glyph-name="Zcaron" unicode="&#x17d;" horiz-adv-x="530" 
d="M292 855h8h7l89 49l-25 44l-71 -40l-72 40l-24 -44zM31 743v50h493v-35v-7l-457 -699h428v-50h-493v35v7l457 699h-428z" />
    <glyph glyph-name="zcaron" unicode="&#x17e;" horiz-adv-x="442" 
d="M250 633h8h7l89 49l-25 44l-71 -40l-72 40l-24 -44zM24 523v50h423v-35v-9l-383 -479h354v-50h-423v35v9l383 479h-354z" />
    <glyph glyph-name="longs" unicode="&#x17f;" horiz-adv-x="292" 
d="M92 15h79v571q0 70 28 101q28 29 91 29q17 0 43 -4.5t40 -8.5v72q-15 3 -39 5v0q-25 3 -56 3q-92 0 -139 -52.5t-47 -146.5v-569z" />
    <glyph glyph-name="circumflex" unicode="&#x2c6;" horiz-adv-x="234" 
d="M120 741h1h11l123 -128h-69l-65 68l-66 -68l-71 -1l125 129h11z" />
    <glyph glyph-name="caron" unicode="&#x2c7;" horiz-adv-x="234" 
d="M120 612h1h11l123 128h-69l-65 -68l-66 69h-71l125 -129h11z" />
    <glyph glyph-name="uni02C9" unicode="&#x2c9;" horiz-adv-x="204" 
d="M184 781v-50h-163v50h163z" />
    <glyph glyph-name="uni02CA" unicode="&#x2ca;" horiz-adv-x="325" 
d="M234 751h-79l-106 -138h39z" />
    <glyph glyph-name="uni02CB" unicode="&#x2cb;" horiz-adv-x="325" 
d="M49 751h79l106 -138h-39z" />
    <glyph glyph-name="breve" unicode="&#x2d8;" horiz-adv-x="415" 
d="M344 700h50q0 -42 -33 -75q-55 -54 -152.5 -54t-151.5 54q-34 33 -34 75h50q0 -21 19 -39q17 -18 48.5 -29t68 -11t68 11t48.5 29q19 18 19 39z" />
    <glyph glyph-name="dotaccent" unicode="&#x2d9;" horiz-adv-x="181" 
d="M49 751h79v-85h-79v85z" />
    <glyph glyph-name="ring" unicode="&#x2da;" horiz-adv-x="273" 
d="M136 732q-25 0 -43.5 -14.5t-18.5 -36.5t18.5 -36.5t43.5 -14.5t43.5 14.5t18.5 36.5t-18.5 36.5t-43.5 14.5zM136 580q-45 0 -78.5 29t-33.5 72t33.5 72t78.5 29t78.5 -29t33.5 -72t-33.5 -72t-78.5 -29z" />
    <glyph glyph-name="ogonek" unicode="&#x2db;" horiz-adv-x="268" 
d="M80 -48q0 -31 14 -45q12 -12 39 -12h4q26 1 38 13q6 6 8 14l50 -4q-2 -25 -23 -46q-27 -27 -76 -27q-48 0 -75 27q-29 28 -29 80q0 29 8 55l48 -14q-6 -19 -6 -41z" />
    <glyph glyph-name="tilde" unicode="&#x2dc;" horiz-adv-x="415" 
d="M137 772q38 0 64 -26q17 -17 36 -60q14 -32 22 -41q8 -7 18 -7q28 0 46 18q17 17 26 49q3 10 5 19.5t2 14.5v5l50 -2q-1 -23 -9 -51q-12 -44 -38 -70q-33 -33 -81 -33q-32 0 -54 22q-15 15 -33 56q-15 35 -25 45q-11 11 -29 11q-25 0 -43 -18q-17 -17 -28 -50
q-7 -23 -8 -41l-50 4q2 24 11 52q14 45 40 71q32 32 78 32z" />
    <glyph glyph-name="hungarumlaut" unicode="&#x2dd;" horiz-adv-x="415" 
d="M374 751h-79l-106 -138h39zM234 751h-79l-106 -138h39z" />
    <glyph glyph-name="uni037E" unicode="&#x37e;" horiz-adv-x="450" 
d="M171 550v-126h104v126h-104zM115 -178h58l135 312h-110z" />
    <glyph glyph-name="tonos" unicode="&#x384;" horiz-adv-x="636" 
d="M288 654h59l22 176h-104z" />
    <glyph glyph-name="dieresistonos" unicode="&#x385;" horiz-adv-x="621" 
d="M288 654h46l19 176h-84zM413 742v-82h81v82h-81zM128 742v-82h81v82h-81z" />
    <glyph glyph-name="Alphatonos" unicode="&#x386;" horiz-adv-x="670" 
d="M26 560h59l23 176h-104zM100 8l70 208h321l73 -208h89l-261 728h-117l-260 -728h85zM332 680l136 -396h-274z" />
    <glyph glyph-name="anoteleia" unicode="&#x387;" horiz-adv-x="450" 
d="M173 550v-126h104v126h-104z" />
    <glyph glyph-name="Epsilontonos" unicode="&#x388;" horiz-adv-x="739" 
d="M22 560h60l23 176h-105zM681 8v72h-383v292h383v72h-383v220h383v72h-463v-728h463z" />
    <glyph glyph-name="Etatonos" unicode="&#x389;" horiz-adv-x="861" 
d="M22 560h60l23 176h-105zM760 8v728h-84v-292h-377v292h-81v-728h81v364h377v-364h84z" />
    <glyph glyph-name="Iotatonos" unicode="&#x38a;" horiz-adv-x="522" 
d="M22 560h60l23 176h-105zM453 8v60h-98v608h98v60h-269v-60h92v-608h-92v-60h269z" />
    <glyph glyph-name="Omicrontonos" unicode="&#x38c;" horiz-adv-x="872" 
d="M22 560h60l23 176h-105zM722 658q-44 49 -104.5 75.5t-135.5 26.5t-137 -26q-125 -52 -171 -198q-23 -72 -23 -164.5t23 -164.5t66 -122q44 -49 104.5 -75t136.5 -26q150 0 240 102q43 47 68 120q24 73 24 166t-23.5 165.5t-67.5 120.5zM659 143q-66 -81 -178 -81
t-178 80.5t-66 229t65 229.5t179 81t179 -81q66 -81 66 -229.5t-67 -228.5z" />
    <glyph glyph-name="Upsilontonos" unicode="&#x38e;" horiz-adv-x="741" 
d="M22 560h60l23 176h-105zM479 8v320l252 408h-87l-204 -338l-202 338h-90l250 -418v-310h81z" />
    <glyph glyph-name="Omegatonos" unicode="&#x38f;" horiz-adv-x="899" 
d="M22 560h60l23 176h-105zM845 15v72h-204v74l4 2q74 44 125 121q49 76 49 170q0 135 -92 221q-89 85 -234.5 85t-235 -85.5t-89.5 -220.5q0 -94 48.5 -170.5t123.5 -120.5l3 -2v-74h-199v-72h267v182q-28 18 -57 40q-30 23 -51 51q-48 65 -48 166q0 107 63.5 171t174 64
t174.5 -64q65 -64 65 -171q0 -54 -14 -94q-13 -41 -35 -72q-23 -30 -51.5 -51t-55.5 -40v-182h269z" />
    <glyph glyph-name="iotadieresistonos" unicode="&#x390;" horiz-adv-x="266" 
d="M173 15v543h-79v-543h79zM119 661h29l26 177h-81zM222 750v-83h71v83h-71zM-26 750v-83h70v83h-70z" />
    <glyph glyph-name="Alpha" unicode="&#x391;" horiz-adv-x="670" 
d="M98 8l71 208h320l73 -208h89l-261 728h-117l-260 -728h85zM330 680l135 -396h-273z" />
    <glyph glyph-name="Beta" unicode="&#x392;" horiz-adv-x="672" 
d="M612 134q20 41 20 95q0 75 -42 123.5t-113 64.5l-6 1v15l4 2q42 21 67.5 56.5t25.5 86.5q0 44 -17.5 76t-55.5 53q-34 18 -72 23.5t-115 5.5h-208v-728h250q73 0 119 13t88 46q35 26 55 67zM385 664.5q33 -3.5 57 -18.5q21 -13 30.5 -33t9.5 -51t-10 -56.5t-35 -41.5
q-24 -17 -51 -21.5t-71 -4.5h-131v230h121q47 0 80 -3.5zM479 349q36 -19 50 -49q14 -28 14 -72.5t-14 -70.5t-42 -47q-26 -19 -66.5 -26.5t-103.5 -7.5h-133v294h156q48 0 81.5 -4.5t57.5 -16.5z" />
    <glyph glyph-name="Gamma" unicode="&#x393;" horiz-adv-x="550" 
d="M184 8v656h367v72h-451v-728h84z" />
    <glyph glyph-name="uni0394" unicode="&#x394;" horiz-adv-x="690" 
d="M283 736l-270 -728h657l-270 728h-117zM340 679l219 -603h-439z" />
    <glyph glyph-name="Epsilon" unicode="&#x395;" horiz-adv-x="617" 
d="M560 8v72h-376v292h376v72h-376v220h376v72h-460v-728h460z" />
    <glyph glyph-name="Zeta" unicode="&#x396;" horiz-adv-x="671" 
d="M63 89v-81h551v72h-465l454 578v78h-523v-72h433z" />
    <glyph glyph-name="Eta" unicode="&#x397;" horiz-adv-x="739" 
d="M640 8v728h-85v-292h-371v292h-84v-728h84v364h371v-364h85z" />
    <glyph glyph-name="Theta" unicode="&#x398;" horiz-adv-x="776" 
d="M628 658q-43 49 -103.5 75.5t-135 26.5t-135.5 -26q-125 -52 -172 -198q-24 -72 -24 -164.5t23.5 -164.5t67.5 -122q43 -49 104 -75t136 -26q149 0 238 102q44 47 68 120t24 166t-23.5 165.5t-67.5 120.5zM565 601q66 -81 66 -229.5t-66 -228.5q-65 -81 -176.5 -81
t-176.5 81q-67 80 -67 228.5t66 229.5q65 81 177.5 81t176.5 -81zM244 438v-74h288v74h-288z" />
    <glyph glyph-name="Iota" unicode="&#x399;" horiz-adv-x="416" 
d="M347 8v60h-97v608h97v60h-279v-60h98v-608h-98v-60h279z" />
    <glyph glyph-name="Kappa" unicode="&#x39a;" horiz-adv-x="679" 
d="M544 736l-357 -399v399h-85v-728h85v247l80 88l284 -335h108l-332 386l316 342h-99z" />
    <glyph glyph-name="Lambda" unicode="&#x39b;" horiz-adv-x="672" 
d="M330 664l231 -656h91l-266 728h-106l-267 -728h85z" />
    <glyph glyph-name="Mu" unicode="&#x39c;" horiz-adv-x="833" 
d="M733 8v728h-125l-189 -424l-196 424h-123v-728h77v668l212 -464h47l213 463v-667h84z" />
    <glyph glyph-name="Nu" unicode="&#x39d;" horiz-adv-x="736" 
d="M528 8h110v728h-77v-630l-320 630h-141v-728h77v688z" />
    <glyph glyph-name="Xi" unicode="&#x39e;" horiz-adv-x="634" 
d="M57 736v-72h521v72h-521zM83 444v-72h469v72h-469zM578 8v72h-521v-72h521z" />
    <glyph glyph-name="Omicron" unicode="&#x39f;" horiz-adv-x="776" 
d="M628 658q-43 49 -103.5 75.5t-135 26.5t-135.5 -26q-125 -52 -172 -198q-24 -72 -24 -164.5t23.5 -164.5t67.5 -122q43 -49 104 -75t136 -26q149 0 238 102q44 47 68 120t24 166t-23.5 165.5t-67.5 120.5zM565 601q66 -81 66 -229.5t-66 -228.5q-65 -81 -176.5 -81
t-176.5 81q-67 80 -67 228.5t66 229.5q65 81 177.5 81t176.5 -81z" />
    <glyph glyph-name="Pi" unicode="&#x3a0;" horiz-adv-x="739" 
d="M640 8v728h-540v-728h84v656h371v-656h85z" />
    <glyph glyph-name="Rho" unicode="&#x3a1;" horiz-adv-x="587" 
d="M540 431q17 41 17 89q0 63 -22.5 104t-63.5 68q-34 23 -76.5 33.5t-104.5 10.5h-190v-728h84v278h102q74 0 122 18q49 18 86 55q29 31 46 72zM365 365.5q-37 -11.5 -94 -11.5h-87v314h101q45 0 75 -7.5t53 -24.5q28 -19 42 -49q14 -29 14 -67v-3q0 -34 -10 -62t-34 -53
q-23 -25 -60 -36.5z" />
    <glyph glyph-name="Sigma" unicode="&#x3a3;" horiz-adv-x="658" 
d="M59 89v-81h551v72h-457l312 313v8l-292 263h414v72h-518v-78l295 -266z" />
    <glyph glyph-name="Tau" unicode="&#x3a4;" horiz-adv-x="601" 
d="M341 8v656h260v72h-601v-72h260v-656h81z" />
    <glyph glyph-name="Upsilon" unicode="&#x3a5;" horiz-adv-x="600" 
d="M335 8v320l250 408h-87l-203 -338l-201 338h-91l251 -418v-310h81z" />
    <glyph glyph-name="Phi" unicode="&#x3a6;" horiz-adv-x="808" 
d="M576 101q58 23 98 62q39 36 60.5 90.5t21.5 123.5t-21 120.5t-58 87.5q-38 38 -96.5 62t-129.5 26l-7 1v78h-80v-78l-7 -1q-71 -2 -128.5 -25t-95.5 -62t-59.5 -89.5t-21.5 -119.5t21.5 -123t60.5 -91q42 -39 100.5 -61.5t122.5 -24.5l7 -1v-84h80v85h7q67 1 125 24z
M452 145l-8 -1v462l8 -1q53 -2 88.5 -15t65.5 -43q30 -29 46 -71.5t16 -93.5q0 -118 -66 -182q-27 -25 -65.5 -39.5t-84.5 -15.5zM364 144h-7q-47 0 -86 17t-64 39q-32 30 -49 77.5t-17 100.5t16.5 96.5t45.5 72.5t65 44t89 15h7v-462z" />
    <glyph glyph-name="Chi" unicode="&#x3a7;" horiz-adv-x="671" 
d="M528 8h96l-246 368l246 360h-89l-203 -307l-196 307h-96l243 -364l-249 -364h90l204 311z" />
    <glyph glyph-name="Psi" unicode="&#x3a8;" horiz-adv-x="861" 
d="M471 8v160q79 5 132.5 23t92.5 51q37 32 56.5 84t19.5 129v281h-84v-292q0 -57 -14 -92.5t-43 -61.5q-26 -24 -65.5 -35.5t-94.5 -16.5v498h-81v-498q-55 5 -94 17t-65 35q-58 50 -58 154v292h-83v-281q0 -77 19.5 -129t56.5 -84q38 -34 91 -51t133 -23v-160h81z" />
    <glyph glyph-name="uni03A9" unicode="&#x3a9;" horiz-adv-x="808" 
d="M754 15v72h-202v74l3 2q75 44 124.5 120.5t49.5 170.5q0 135 -92 221q-89 85 -233.5 85t-233.5 -85q-91 -86 -91 -221q0 -94 50 -170.5t124 -120.5l3 -2v-74h-202v-72h268v182q-27 18 -56 40q-30 23 -51 51q-48 65 -48 166q0 107 64 171t173 64t173 -64t64 -171
q0 -54 -13 -94q-13 -41 -35 -72q-22 -30 -51 -51t-56 -40v-182h268z" />
    <glyph glyph-name="Iotadieresis" unicode="&#x3aa;" horiz-adv-x="416" 
d="M270 936v-83h84v83h-84zM63 936v-83h84v83h-84zM347 8v60h-97v608h97v60h-279v-60h98v-608h-98v-60h279z" />
    <glyph glyph-name="Upsilondieresis" unicode="&#x3ab;" horiz-adv-x="600" 
d="M354 936v-83h81v83h-81zM157 936v-83h80v83h-80zM335 8v320l250 408h-87l-203 -338l-201 338h-91l251 -418v-310h81z" />
    <glyph glyph-name="alphatonos" unicode="&#x3ac;" horiz-adv-x="608" 
d="M267 661h56l21 177h-98zM437 69v-69h79v558h-79v-31l-11 6q-37 20 -68 30.5t-73 10.5t-83 -19q-42 -20 -75.5 -58.5t-53 -94t-19.5 -127.5q0 -138 57 -214.5t148 -76.5q47 0 87 19.5t79 54.5zM357.5 85q-39.5 -19 -78.5 -19q-74 0 -107 55q-36 54 -36 157t45 160
q43 58 121 58q34 0 63 -8t72 -27v-327q-40 -30 -79.5 -49z" />
    <glyph glyph-name="epsilontonos" unicode="&#x3ad;" horiz-adv-x="495" 
d="M256 661h54l21 177h-96zM128 23q62 -36 145 -36q52 0 99 10q50 10 101 32v88q-36 -29 -93 -46q-54 -18 -102 -18q-27 0 -51 5t-42 16q-22 11 -36 31.5t-14 51t14 49.5q15 21 35 29q20 9 44 12h1q24 3 52 3h66v67h-44q-25 0 -49.5 1t-45.5 8q-25 8 -39 27q-16 20 -16 53
q0 24 14 42q13 19 31 27q21 11 40 14t40 3q47 0 92 -14q48 -13 80 -37v98q-41 16 -81 25q-37 8 -78 8q-83 0 -143 -32q-31 -18 -53.5 -46t-22.5 -71.5t25.5 -75t68.5 -43.5l6 -2v-15l-5 -2q-58 -19 -86 -54q-27 -35 -27 -81t21 -76.5t53 -50.5z" />
    <glyph glyph-name="etatonos" unicode="&#x3ae;" horiz-adv-x="618" 
d="M297 661h54l22 177h-97zM451 321v-527h79v571q0 102 -46 156q-46 53 -128 53q-84 0 -173 -76l-12 -10v70h-79v-554h79v422q42 32 83 52t77.5 20t59.5 -11q24 -11 37 -35q13 -20 18 -56t5 -75z" />
    <glyph glyph-name="iotatonos" unicode="&#x3af;" horiz-adv-x="266" 
d="M102 661h60l23 177h-105zM172 15v543h-79v-543h79z" />
    <glyph glyph-name="upsilondieresistonos" unicode="&#x3b0;" horiz-adv-x="616" 
d="M285 661h48l20 177h-89zM411 750v-83h81v83h-81zM126 750v-83h80v83h-80zM167 558h-79v-356q0 -111 59 -164t161.5 -53t161 54.5t58.5 162.5v356h-79v-312q0 -46 -6 -78t-20 -55q-31 -47 -114 -47q-44 0 -71 11t-44 34q-17 26 -22 57t-5 78v312z" />
    <glyph glyph-name="alpha" unicode="&#x3b1;" horiz-adv-x="608" 
d="M437 69v-69h79v558h-79v-31l-11 6q-37 20 -68 30.5t-73 10.5t-83 -19q-42 -20 -75.5 -58.5t-53 -94t-19.5 -127.5q0 -138 57 -214.5t148 -76.5q47 0 87 19.5t79 54.5zM357.5 85q-39.5 -19 -78.5 -19q-74 0 -107 55q-36 54 -36 157t45 160q43 58 121 58q34 0 63 -8t72 -27
v-327q-40 -30 -79.5 -49z" />
    <glyph glyph-name="beta" unicode="&#x3b2;" horiz-adv-x="605" 
d="M487 54q65 66 65 166q0 77 -44.5 125.5t-119.5 61.5l-6 1v22l5 1q58 19 91.5 65t33.5 110q0 44 -16 76.5t-43 53.5q-56 42 -138 42q-101 0 -162 -61q-61 -63 -61 -173v-750h79v244l12 -7q30 -21 70.5 -31.5t76.5 -10.5q93 0 157 65zM452.5 307.5q18.5 -29.5 18.5 -75.5
q0 -76 -43 -117q-40 -41 -113 -41q-34 0 -70 8q-36 7 -74 29v435q0 33 8.5 63t25.5 53q16 23 42 37.5t61 14.5q53 0 88 -31t35 -91q0 -44 -11 -70q-12 -27 -35 -45q-20 -14 -51 -22t-63 -8h-9v-65h9q36 0 70.5 -5.5t63.5 -22.5t47.5 -46.5z" />
    <glyph glyph-name="gamma" unicode="&#x3b3;" horiz-adv-x="576" 
d="M244 -206h75v233l219 531h-82l-171 -426l-169 426h-86l214 -531v-233z" />
    <glyph glyph-name="delta" unicode="&#x3b4;" horiz-adv-x="592" 
d="M473 62q67 77 67 214q0 83 -29 145.5t-102 131.5q-43 42 -96 80q-52 39 -87 65v16h268v64h-374v-79q48 -34 90 -67t90 -75l-15 -3q-41 -8 -83 -29q-43 -21 -76 -57q-32 -34 -52.5 -82.5t-20.5 -118.5q0 -132 67 -207q67 -76 176.5 -76t176.5 78zM348 506
q109 -87 109 -230q0 -107 -43 -162q-41 -56 -117 -56t-118 55q-44 54 -44 157q0 66 22 111q21 45 53 71.5t66.5 38.5t69.5 17z" />
    <glyph glyph-name="epsilon" unicode="&#x3b5;" horiz-adv-x="495" 
d="M128 23q62 -36 145 -36q52 0 99 10q50 10 101 32v88q-36 -29 -93 -46q-54 -18 -102 -18q-27 0 -51 5t-42 16q-22 11 -36 31.5t-14 51t14 49.5q15 21 35 29q20 9 44 12h1q24 3 52 3h66v67h-44q-25 0 -49.5 1t-45.5 8q-25 8 -39 27q-16 20 -16 53q0 24 14 42q13 19 31 27
q21 11 40 14t40 3q47 0 92 -14q48 -13 80 -37v98q-41 16 -81 25q-37 8 -78 8q-83 0 -143 -32q-31 -18 -53.5 -46t-22.5 -71.5t25.5 -75t68.5 -43.5l6 -2v-15l-5 -2q-58 -19 -86 -54q-27 -35 -27 -81t21 -76.5t53 -50.5z" />
    <glyph glyph-name="zeta" unicode="&#x3b6;" horiz-adv-x="438" 
d="M394.5 58.5q-23.5 12.5 -57.5 12.5h-40q-25 0 -53.5 1t-47.5 14t-32 33q-13 21 -19 42t-7 39.5t-1 35.5q0 76 29 148q27 73 68 133q42 62 94 115q56 51 113 89v57h-342v-64h217v-16q-51 -48 -96 -99q-45 -52 -82 -109q-39 -60 -61.5 -124.5t-22.5 -134.5q0 -114 54 -172
q54 -57 156 -57h66q27 0 44 -23q17 -22 17 -53q0 -36 -19 -65.5t-57 -66.5h72q31 30 52.5 70t21.5 80q0 19 -7 41q-6 22 -21 41.5t-38.5 32z" />
    <glyph glyph-name="eta" unicode="&#x3b7;" horiz-adv-x="618" 
d="M451 321v-527h79v571q0 102 -46 156q-46 53 -128 53q-84 0 -173 -76l-12 -10v70h-79v-554h79v422q42 32 83 52t77.5 20t59.5 -11q24 -11 37 -35q13 -20 18 -56t5 -75z" />
    <glyph glyph-name="theta" unicode="&#x3b8;" horiz-adv-x="609" 
d="M305 -16q140 0 196 134q39 95 39 263q0 93 -11.5 159t-28.5 108q-28 63 -79 97q-47 33 -116 33t-117 -33q-52 -34 -79 -96q-19 -44 -30 -109.5t-11 -158t12 -156.5t29 -107q28 -67 78 -100q49 -34 118 -34zM447 563.5q12 -54.5 14 -134.5h-313q2 79 14 133t30 83
q20 38 47 53t66 15t66 -15q27 -16 47 -53q17 -27 29 -81.5zM461 356v-8q0 -72 -11.5 -131t-31.5 -93q-19 -33 -46.5 -50.5t-67 -17.5t-67 17t-46.5 51q-20 34 -31.5 93t-11.5 131v8h313z" />
    <glyph glyph-name="iota" unicode="&#x3b9;" horiz-adv-x="266" 
d="M173 15v543h-79v-543h79z" />
    <glyph glyph-name="kappa" unicode="&#x3ba;" horiz-adv-x="576" 
d="M531 491v67q-29 2 -39 2q-31 0 -61 -13q-29 -14 -61 -53l-195 -222v286h-79v-543h79v186l62 61l216 -247h103l-263 294l121 142q15 16 35 29t47 13q19 0 35 -2z" />
    <glyph glyph-name="lambda" unicode="&#x3bb;" horiz-adv-x="576" 
d="M290 441l162 -426h86l-299 763h-83l98 -243l-224 -520h82z" />
    <glyph glyph-name="uni03BC" unicode="&#x3bc;" horiz-adv-x="625" 
d="M455 72v-72h77v558h-79v-411q-29 -34 -63 -51t-78 -17t-82 21q-40 22 -57 43l-2 2v413h-79v-764h79v272l13 -12q40 -39 66.5 -51.5t61 -12.5t65 15t65.5 53z" />
    <glyph glyph-name="nu" unicode="&#x3bd;" horiz-adv-x="576" 
d="M244 15h80l215 543h-83l-169 -457l-171 457h-86z" />
    <glyph glyph-name="xi" unicode="&#x3be;" horiz-adv-x="485" 
d="M468.5 -136q21.5 40 21.5 80q0 23 -8 46q-7 23 -22 40.5t-39.5 29t-56.5 11.5h-13q-42 0 -78 2t-67.5 15t-51 44.5t-19.5 85.5q0 33 12.5 61.5t35.5 48.5t49 31t58 11h133v70h-76q-76 0 -116 24q-26 13 -42 40t-16 70q0 35 14 63q14 29 36 45q23 16 49 24t58 8h118v64
h-382v-62h113v-15l-3 -2q-42 -28 -63 -60t-21 -71q0 -51 36 -91t92 -54l6 -1v-18q-87 -25 -127 -70q-47 -52 -47 -130q0 -43 17 -80.5t48 -67.5q31 -28 74 -41q42 -13 106 -13h65q25 0 42 -23q17 -22 17 -53q0 -36 -19 -65.5t-59 -66.5h73q31 30 52.5 70z" />
    <glyph glyph-name="omicron" unicode="&#x3bf;" horiz-adv-x="591" 
d="M470 63q68 79 68 216t-67 216t-175.5 79t-175.5 -79t-67 -216.5t68 -215.5q67 -79 174.5 -79t174.5 79zM412 445q45 -55 45 -165t-45 -166q-42 -56 -116.5 -56t-116.5 57q-44 56 -44 166t44 165q42 54 116.5 54t116.5 -55z" />
    <glyph glyph-name="pi" unicode="&#x3c0;" horiz-adv-x="622" 
d="M530 15v543h-438v-543h79v478h280v-478h79z" />
    <glyph glyph-name="rho" unicode="&#x3c1;" horiz-adv-x="610" 
d="M489 74q67 85 67 214q0 139 -62 212q-62 74 -173 74q-45 0 -88 -16q-44 -16 -75 -48q-66 -67 -66 -184v-532h79v240l11 -7q35 -21 72 -29q38 -9 67 -9q102 0 168 85zM432 448q42 -54 42 -166q0 -101 -45 -158q-44 -58 -123 -58q-36 0 -65 7.5t-70 26.5v206q0 94 37 145
q36 51 113 51q72 0 111 -54z" />
    <glyph glyph-name="sigma1" unicode="&#x3c2;" horiz-adv-x="490" 
d="M456.5 -137.5q22.5 39.5 22.5 81.5q0 54 -33.5 91t-87.5 37h-47q-36 0 -66.5 10t-54.5 35q-26 24 -40.5 61.5t-14.5 96.5q0 101 48 165q46 64 126 64q71 0 154 -55v93q-28 12 -67 21t-77 9q-118 0 -191 -81q-76 -82 -76 -217q0 -72 20 -125q41 -104 138 -132
q47 -15 98 -15h42q25 0 42 -24q17 -22 17 -52q0 -38 -21 -69q-18 -28 -55 -63h72q29 29 51.5 68.5z" />
    <glyph glyph-name="sigma" unicode="&#x3c3;" horiz-adv-x="615" 
d="M471 61q67 77 67 218q0 123 -61 197l-10 13h151v69h-229q-14 4 -40 11q-24 5 -50 5q-110 0 -178 -78t-68 -216.5t67 -216.5q67 -79 176.5 -79t174.5 77zM418 446q41 -56 41 -166t-42 -166t-119 -56t-119 57q-44 57 -44 163t43 165q41 59 120 59t120 -56z" />
    <glyph glyph-name="tau" unicode="&#x3c4;" horiz-adv-x="478" 
d="M276 15v476h197v67h-468v-67h197v-476h74z" />
    <glyph glyph-name="upsilon" unicode="&#x3c5;" horiz-adv-x="616" 
d="M167 558h-79v-356q0 -111 59 -164t161.5 -53t161 54.5t58.5 162.5v356h-79v-312q0 -46 -6 -78t-20 -55q-31 -47 -114 -47q-44 0 -71 11t-44 34q-17 26 -22 57t-5 78v312z" />
    <glyph glyph-name="phi" unicode="&#x3c6;" horiz-adv-x="779" 
d="M644 82q83 79 83 208q0 135 -85 209q-84 74 -228 74h-37q-14 0 -26 -1v-500h-8q-94 2 -151 62t-57 158q0 85 37 151q35 66 97 115h-95q-64 -67 -93 -135t-29 -148q0 -67 23.5 -115.5t62.5 -83.5q40 -36 92.5 -56t114.5 -23h7v-203h75v203h7q128 7 210 85zM587 445
q58 -57 58 -152q0 -103 -54 -163t-156 -65l-8 -1v438h7q97 0 153 -57z" />
    <glyph glyph-name="chi" unicode="&#x3c7;" horiz-adv-x="574" 
d="M280 112l170 -318h89l-213 389l207 375h-84l-166 -308l-164 308h-89l207 -379l-213 -385h85z" />
    <glyph glyph-name="psi" unicode="&#x3c8;" horiz-adv-x="811" 
d="M368 -206h76v208q62 2 109 16q45 14 86 42q39 26 62 67t23 97v334h-79v-298q0 -62 -18 -94.5t-48 -53.5q-28 -20 -61 -27.5t-74 -9.5v483h-76v-483q-41 2 -74 9.5t-61 27.5q-26 18 -46 54t-20 94v298h-79v-334q0 -56 23 -97t62 -67q40 -28 86 -42q47 -13 109 -16v-208z
" />
    <glyph glyph-name="omega" unicode="&#x3c9;" horiz-adv-x="803" 
d="M735 154.5q11 48.5 11 96.5q0 86 -27.5 154.5t-96.5 152.5h-96q63 -53 100 -131q39 -77 39 -169q0 -71 -24 -124q-14 -30 -38 -49t-61 -19q-30 0 -45 5q-29 11 -45 38q-8 12 -13 22v286h-75v-286q-12 -28 -30 -43q-11 -9 -29.5 -15.5t-44.5 -6.5q-38 0 -61 20
q-24 19 -37 48q-17 33 -21 61.5t-4 62.5q0 93 40 170q38 77 101 130h-96q-70 -84 -98 -152.5t-28 -154.5q0 -48 11.5 -96t37 -86t63.5 -61t88 -23t84 23.5t53 55.5l2 4h10l2 -4q17 -32 55 -56q38 -23 82 -23q54 0 91 22t64 62q25 37 36 85.5z" />
    <glyph glyph-name="iotadieresis" unicode="&#x3ca;" horiz-adv-x="266" 
d="M184 750v-83h79v83h-79zM2 750v-83h80v83h-80zM173 15v543h-79v-543h79z" />
    <glyph glyph-name="upsilondieresis" unicode="&#x3cb;" horiz-adv-x="616" 
d="M365 750v-83h81v83h-81zM170 750v-83h82v83h-82zM167 558h-79v-356q0 -111 59 -164t161.5 -53t161 54.5t58.5 162.5v356h-79v-312q0 -46 -6 -78t-20 -55q-31 -47 -114 -47q-44 0 -71 11t-44 34q-17 26 -22 57t-5 78v312z" />
    <glyph glyph-name="omicrontonos" unicode="&#x3cc;" horiz-adv-x="591" 
d="M267 661h57l21 177h-99zM470 63q68 79 68 216t-67 216t-175.5 79t-175.5 -79t-67 -216.5t68 -215.5q67 -79 174.5 -79t174.5 79zM412 445q45 -55 45 -165t-45 -166q-42 -56 -116.5 -56t-116.5 57q-44 56 -44 166t44 165q42 54 116.5 54t116.5 -55z" />
    <glyph glyph-name="upsilontonos" unicode="&#x3cd;" horiz-adv-x="616" 
d="M281 661h55l21 177h-98zM167 558h-79v-356q0 -111 59 -164t161.5 -53t161 54.5t58.5 162.5v356h-79v-312q0 -46 -6 -78t-20 -55q-31 -47 -114 -47q-44 0 -71 11t-44 34q-17 26 -22 57t-5 78v312z" />
    <glyph glyph-name="omegatonos" unicode="&#x3ce;" horiz-adv-x="803" 
d="M373 661h57l23 177h-102zM735 154.5q11 48.5 11 96.5q0 86 -27.5 154.5t-96.5 152.5h-96q63 -53 100 -131q39 -77 39 -169q0 -71 -24 -124q-14 -30 -38 -49t-61 -19q-30 0 -45 5q-29 11 -45 38q-8 12 -13 22v286h-75v-286q-12 -28 -30 -43q-11 -9 -29.5 -15.5t-44.5 -6.5
q-38 0 -61 20q-24 19 -37 48q-17 33 -21 61.5t-4 62.5q0 93 40 170q38 77 101 130h-96q-70 -84 -98 -152.5t-28 -154.5q0 -48 11.5 -96t37 -86t63.5 -61t88 -23t84 23.5t53 55.5l2 4h10l2 -4q17 -32 55 -56q38 -23 82 -23q54 0 91 22t64 62q25 37 36 85.5z" />
    <glyph glyph-name="omega1" unicode="&#x3d6;" horiz-adv-x="694" 
d="M465 15h77v480h100v63h-586v-63h102v-480h76v480h231v-480z" />
    <glyph glyph-name="uni0401" unicode="&#x401;" horiz-adv-x="617" 
d="M407 936v-83h82v83h-82zM213 936v-83h79v83h-79zM560 8v72h-376v292h376v72h-376v220h376v72h-460v-728h460z" />
    <glyph glyph-name="uni0402" unicode="&#x402;" horiz-adv-x="781" 
d="M667 64q34 29 54.5 71.5t20.5 95.5q0 108 -72 165q-42 31 -87 39.5t-118 8.5h-171v220h243v72h-537v-72h211v-656h83v366h141q65 0 102 -5t62 -23q28 -19 41 -48.5t13 -70t-14 -69.5t-42 -50q-25 -19 -55 -23.5t-75 -4.5h-38v-72h47q65 0 106.5 11.5t84.5 44.5z" />
    <glyph glyph-name="uni0403" unicode="&#x403;" horiz-adv-x="550" 
d="M296 843h55l120 171h-99zM184 8v656h367v72h-451v-728h84z" />
    <glyph glyph-name="uni0404" unicode="&#x404;" horiz-adv-x="687" 
d="M534 745q-57 13 -124 13q-79 0 -143 -27q-132 -55 -183 -198q-26 -72 -26 -161.5t26 -161.5q51 -146 183 -198q64 -26 143 -26q68 0 124 13q57 13 104 31v97q-40 -32 -101 -51q-60 -20 -127 -20q-55 0 -103 19.5t-85 57.5q-34 37 -56 93q-23 57 -23 130v7h399v73h-396
l1 8q16 118 87 183q36 31 79 45q41 16 92 16h3q69 0 129 -21q62 -21 101 -52v99q-46 18 -104 31z" />
    <glyph glyph-name="uni0405" unicode="&#x405;" horiz-adv-x="670" 
d="M591 122q20 40 20 83q0 77 -40 120t-119 64q-39 10 -95.5 20t-86.5 17q-61 15 -85 43q-26 29 -26 78q0 56 50 91q48 34 126 34q70 0 136 -23q68 -23 110 -57v102q-49 26 -111 45q-60 19 -134 19q-113 0 -187 -59q-77 -59 -77 -151q0 -79 45.5 -129t139.5 -71
q46 -10 87.5 -17t78.5 -17q49 -14 74 -39q26 -26 26 -80q0 -64 -53 -100q-51 -37 -141 -37q-64 0 -134 26q-73 26 -128 72v-111q64 -29 125 -44q60 -14 133.5 -14.5t122.5 17.5q103 35 143 118z" />
    <glyph glyph-name="uni0406" unicode="&#x406;" horiz-adv-x="416" 
d="M347 8v60h-97v608h97v60h-279v-60h98v-608h-98v-60h279z" />
    <glyph glyph-name="uni0407" unicode="&#x407;" horiz-adv-x="416" 
d="M270 936v-83h84v83h-84zM63 936v-83h84v83h-84zM347 8v60h-97v608h97v60h-279v-60h98v-608h-98v-60h279z" />
    <glyph glyph-name="uni0408" unicode="&#x408;" horiz-adv-x="435" 
d="M286 41q57 51 57 145v543h-227v-63h143v-442q0 -39 -3.5 -69t-18 -51.5t-39 -33t-66.5 -11.5q-32 0 -61.5 7.5t-48.5 13.5v-77q25 -6 60 -9q51 -4 63 -4q84 0 141 51z" />
    <glyph glyph-name="uni0409" unicode="&#x409;" horiz-adv-x="1115" 
d="M867 370q37 -5 65 -24q55 -38 55 -119q0 -41 -14 -68.5t-43 -48.5q-27 -19 -64 -26.5t-103 -7.5h-140v298h143q64 0 101 -4zM1000 67q34 26 54.5 68.5t20.5 95.5q0 108 -72 165q-41 32 -87 40t-120 8h-173v292h-434q-2 -73 -10 -270q-6 -151 -23 -234t-54 -120
q-11 -12 -28.5 -19t-37.5 -7q-8 0 -15.5 1t-11.5 1v-81q6 0 18 -0.5t21 -0.5q33 0 56.5 9t46.5 30.5t40 46.5q35 54 54 182q12 85 17 272v0q3 54 5 118h274v-656h252q74 0 120 13.5t87 45.5z" />
    <glyph glyph-name="uni040A" unicode="&#x40a;" horiz-adv-x="1099" 
d="M916 346q27 -19 42 -48q13 -29 13 -70.5t-14 -68.5q-14 -29 -43 -49q-27 -19 -63.5 -26.5t-102.5 -7.5h-139v298h142q66 0 101 -4q37 -5 64 -24zM898 21.5q46 13.5 87 45.5q35 27 55 69.5t20 94.5t-18 94t-54 71q-42 32 -87.5 40t-119.5 8h-172v292h-83v-292h-342v292
h-84v-728h84v366h342v-366h253q73 0 119 13.5z" />
    <glyph glyph-name="uni040B" unicode="&#x40b;" horiz-adv-x="807" 
d="M294 8v335q54 19 102 29t99 10t82 -14q33 -13 49 -38q15 -23 21 -58.5t6 -73.5v-190h83v240q0 56 -16.5 94.5t-44.5 63.5q-57 49 -158 50q-50 0 -108.5 -12t-114.5 -31v251h242v72h-536v-72h211v-656h83z" />
    <glyph glyph-name="uni040C" unicode="&#x40c;" horiz-adv-x="679" 
d="M301 843h56l121 171h-98zM535 657q21 7 57 7h34v72h-32q-87 0 -129.5 -32t-74.5 -113q-8 -22 -17 -42l-14 -34q-15 -33 -34 -55q-37 -42 -82 -52q-22 -6 -49 -6h-7v334h-85v-728h85v340h76l290 -340h106l-331 386l9 5q41 21 66 51t50 95q14 36 23 55.5t23 33.5
q16 17 36 23z" />
    <glyph glyph-name="uni040D" unicode="&#x40d;" horiz-adv-x="738" 
d="M251 1024l120 -171h55l-79 171h-96zM638 8v728h-92l-363 -605v605h-83v-728h88l367 614v-614h83z" />
    <glyph glyph-name="uni040E" unicode="&#x40e;" horiz-adv-x="600" 
d="M67 86v-78q47 -4 72 -4q51 0 95 21q24 13 45 36q22 23 38 60l271 615h-85l-193 -448l-215 448h-92l267 -543l-19 -42q-11 -28 -27 -42q-30 -26 -65 -27q-37 -3 -69 1q-15 2 -23 3zM178 855q46 -40 124 -40t124 41q43 38 47 112h-72q-3 -54 -26 -79q-24 -27 -73 -27
t-73 26.5t-26 79.5h-74q4 -75 49 -113z" />
    <glyph glyph-name="uni040F" unicode="&#x40f;" horiz-adv-x="739" 
d="M100 0h232v-168h76v168h232v729h-85v-658h-371v658h-84v-729z" />
    <glyph glyph-name="uni0410" unicode="&#x410;" horiz-adv-x="670" 
d="M98 8l71 208h320l73 -208h89l-261 728h-117l-260 -728h85zM330 680l135 -396h-273z" />
    <glyph glyph-name="uni0411" unicode="&#x411;" horiz-adv-x="672" 
d="M557 67q35 26 55 68.5t20 95.5q0 109 -71 165q-41 32 -86 40t-117 8h-174v220h384v72h-468v-728h256q71 0 115 13q43 13 86 46zM427 369.5q35 -4.5 63 -23.5q27 -19 40 -48.5t13 -70.5t-14 -68.5t-42 -48.5q-26 -19 -61.5 -26.5t-98.5 -7.5h-143v298h145q63 0 98 -4.5z
" />
    <glyph glyph-name="uni0412" unicode="&#x412;" horiz-adv-x="672" 
d="M612 134q20 41 20 95q0 75 -42 123.5t-113 64.5l-6 1v15l4 2q42 21 67.5 56.5t25.5 86.5q0 44 -17.5 76t-55.5 53q-34 18 -72 23.5t-115 5.5h-208v-728h250q73 0 119 13t88 46q35 26 55 67zM385 664.5q33 -3.5 57 -18.5q21 -13 30.5 -33t9.5 -51t-10 -56.5t-35 -41.5
q-24 -17 -51 -21.5t-71 -4.5h-131v230h121q47 0 80 -3.5zM479 349q36 -19 50 -49q14 -28 14 -72.5t-14 -70.5t-42 -47q-26 -19 -66.5 -26.5t-103.5 -7.5h-133v294h156q48 0 81.5 -4.5t57.5 -16.5z" />
    <glyph glyph-name="uni0413" unicode="&#x413;" horiz-adv-x="550" 
d="M184 8v656h367v72h-451v-728h84z" />
    <glyph glyph-name="uni0414" unicode="&#x414;" horiz-adv-x="733" 
d="M610 2v-170h79v241h-71v656h-413q0 -201 -38 -372.5t-103 -279.5l-2 -4h-57v-241h79v170h526zM536 666v-586h-397l6 12q58 95 93 242t42 332h256z" />
    <glyph glyph-name="uni0415" unicode="&#x415;" horiz-adv-x="617" 
d="M560 8v72h-376v292h376v72h-376v220h376v72h-460v-728h460z" />
    <glyph glyph-name="uni0416" unicode="&#x416;" horiz-adv-x="966" 
d="M838 657.5q20 6.5 54 6.5h22v72h-27q-81 0 -123 -30.5t-71 -113.5q-13 -41 -27 -77q-23 -58 -60.5 -84t-84.5 -29l-8 -1v335h-81v-334l-8 1q-43 4 -80 31t-59 81q-8 18 -15 40q-5 14 -13 37q-29 83 -70 114q-42 30 -123 30h-28v-72h23q31 0 52 -7q42 -13 61 -60
q11 -27 19 -53q15 -51 39.5 -89t66.5 -66l7 -4l-288 -377h96l257 340h63v-340h81v340h63l256 -340h102l-292 383l7 4q30 19 59.5 52t49.5 97q10 31 19 53q10 24 25 38q16 16 36 22.5z" />
    <glyph glyph-name="uni0417" unicode="&#x417;" horiz-adv-x="600" 
d="M378 3q54 17 93 51q34 29 55.5 71.5t21.5 93t-15 82t-37 51.5q-23 20 -52 32q-28 12 -52 16l-6 1v20l6 1q58 14 98 57q38 43 38 105q0 84 -76 132q-37 22 -77 32t-98.5 10t-114.5 -13q-59 -13 -96 -28v-97q11 6 34 18q42 22 109 39q32 9 69.5 9t64.5 -6t49 -19
q23 -13 37 -36q14 -22 14 -52q0 -66 -53 -99q-52 -34 -136 -34h-77v-72h88q88 0 138 -30q26 -18 42 -44q16 -27 16 -67t-13 -70q-14 -31 -41 -54q-26 -22 -66.5 -33t-75.5 -11q-54 0 -114 19q-61 19 -111 49v-100q37 -14 96 -27q57 -14 122.5 -14t119.5 17z" />
    <glyph glyph-name="uni0418" unicode="&#x418;" horiz-adv-x="738" 
d="M638 8v728h-92l-363 -605v605h-83v-728h88l367 614v-614h83z" />
    <glyph glyph-name="uni0419" unicode="&#x419;" horiz-adv-x="738" 
d="M638 8v728h-92l-363 -605v605h-83v-728h88l367 614v-614h83zM252 855q46 -40 123.5 -40t123.5 41q45 38 49 112h-74q-2 -54 -25 -79q-25 -27 -73 -27t-72 26.5t-27 79.5h-73q4 -75 48 -113z" />
    <glyph glyph-name="uni041A" unicode="&#x41a;" horiz-adv-x="679" 
d="M535 657q21 7 57 7h34v72h-32q-87 0 -129.5 -32t-74.5 -113q-8 -22 -17 -42l-14 -34q-15 -33 -34 -55q-37 -42 -82 -52q-22 -6 -49 -6h-7v334h-85v-728h85v340h76l290 -340h106l-331 386l9 5q41 21 66 51t50 95q14 36 23 55.5t23 33.5q16 17 36 23z" />
    <glyph glyph-name="uni041B" unicode="&#x41b;" horiz-adv-x="722" 
d="M622 8v728h-435q-2 -73 -9 -270q-6 -151 -22.5 -234t-53.5 -120q-11 -12 -28.5 -19t-37.5 -7q-8 0 -15.5 1t-11.5 1v-81q6 0 18 -0.5t21 -0.5q33 0 56.5 9t46 30.5t39.5 46.5q34 54 53 182q11 85 16 272v0q3 54 5 118h274v-656h84z" />
    <glyph glyph-name="uni041C" unicode="&#x41c;" horiz-adv-x="833" 
d="M733 8v728h-125l-189 -424l-196 424h-123v-728h77v668l212 -464h47l213 463v-667h84z" />
    <glyph glyph-name="uni041D" unicode="&#x41d;" horiz-adv-x="739" 
d="M640 8v728h-85v-292h-371v292h-84v-728h84v364h371v-364h85z" />
    <glyph glyph-name="uni041E" unicode="&#x41e;" horiz-adv-x="776" 
d="M628 658q-43 49 -103.5 75.5t-135 26.5t-135.5 -26q-125 -52 -172 -198q-24 -72 -24 -164.5t23.5 -164.5t67.5 -122q43 -49 104 -75t136 -26q149 0 238 102q44 47 68 120t24 166t-23.5 165.5t-67.5 120.5zM565 601q66 -81 66 -229.5t-66 -228.5q-65 -81 -176.5 -81
t-176.5 81q-67 80 -67 228.5t66 229.5q65 81 177.5 81t176.5 -81z" />
    <glyph glyph-name="uni041F" unicode="&#x41f;" horiz-adv-x="739" 
d="M640 8v728h-540v-728h84v656h371v-656h85z" />
    <glyph glyph-name="uni0420" unicode="&#x420;" horiz-adv-x="587" 
d="M540 431q17 41 17 89q0 63 -22.5 104t-63.5 68q-34 23 -76.5 33.5t-104.5 10.5h-190v-728h84v278h102q74 0 122 18q49 18 86 55q29 31 46 72zM365 365.5q-37 -11.5 -94 -11.5h-87v314h101q45 0 75 -7.5t53 -24.5q28 -19 42 -49q14 -29 14 -67v-3q0 -34 -10 -62t-34 -53
q-23 -25 -60 -36.5z" />
    <glyph glyph-name="uni0421" unicode="&#x421;" horiz-adv-x="685" 
d="M645 53v102q-108 -97 -245 -97q-51 0 -98 19q-95 38 -135 155q-22 59 -22 138t20 138q21 62 54 100q36 40 80 60q45 20 100 20q67 0 125 -24q61 -24 121 -75v105q-70 34 -127 49t-113 15q-78 0 -140.5 -26t-108.5 -74q-47 -49 -72.5 -121.5t-25.5 -168t26.5 -168.5
t73.5 -120q45 -48 107.5 -71t139.5 -23q69 0 137 24q36 12 57 22t46 21z" />
    <glyph glyph-name="uni0422" unicode="&#x422;" horiz-adv-x="601" 
d="M341 8v656h260v72h-601v-72h260v-656h81z" />
    <glyph glyph-name="uni0423" unicode="&#x423;" horiz-adv-x="600" 
d="M67 86v-78q47 -4 72 -4q51 0 95 21q24 13 45 36q22 23 38 60l271 615h-85l-193 -448l-215 448h-92l267 -543l-19 -42q-11 -28 -27 -42q-30 -26 -65 -27q-37 -3 -69 1q-15 2 -23 3z" />
    <glyph glyph-name="uni0424" unicode="&#x424;" horiz-adv-x="808" 
d="M576 101q58 23 98 62q39 36 60.5 90.5t21.5 123.5t-21 120.5t-58 87.5q-38 38 -96.5 62t-129.5 26l-7 1v78h-80v-78l-7 -1q-71 -2 -128.5 -25t-95.5 -62t-59.5 -89.5t-21.5 -119.5t21.5 -123t60.5 -91q42 -39 100.5 -61.5t122.5 -24.5l7 -1v-84h80v85h7q67 1 125 24z
M452 145l-8 -1v462l8 -1q53 -2 88.5 -15t65.5 -43q30 -29 46 -71.5t16 -93.5q0 -118 -66 -182q-27 -25 -65.5 -39.5t-84.5 -15.5zM364 144h-7q-47 0 -86 17t-64 39q-32 30 -49 77.5t-17 100.5t16.5 96.5t45.5 72.5t65 44t89 15h7v-462z" />
    <glyph glyph-name="uni0425" unicode="&#x425;" horiz-adv-x="671" 
d="M528 8h96l-246 368l246 360h-89l-203 -307l-196 307h-96l243 -364l-249 -364h90l204 311z" />
    <glyph glyph-name="uni0426" unicode="&#x426;" horiz-adv-x="749" 
d="M100 0h526v-168h79v240h-71v657h-82v-657h-368v657h-84v-729z" />
    <glyph glyph-name="uni0427" unicode="&#x427;" horiz-adv-x="699" 
d="M599 8v728h-84v-341q-46 -17 -97.5 -27t-105 -10t-81.5 12t-46 37q-20 26 -25 57t-5 76v196h-84v-246q0 -54 17 -94q16 -40 47 -65q59 -49 157 -49q88 0 213 40l10 3v-317h84z" />
    <glyph glyph-name="uni0428" unicode="&#x428;" horiz-adv-x="1025" 
d="M925 8v728h-84v-658h-288v658h-81v-658h-288v658h-84v-728h825z" />
    <glyph glyph-name="uni0429" unicode="&#x429;" horiz-adv-x="1040" 
d="M100 0h817v-168h79v239h-71v658h-83v-658h-288v658h-82v-658h-288v658h-84v-729z" />
    <glyph glyph-name="uni042A" unicode="&#x42a;" horiz-adv-x="772" 
d="M525.5 369.5q35.5 -4.5 63.5 -23.5t41 -48.5t13 -70.5t-14 -68.5t-42 -48.5q-27 -19 -63 -26.5t-101 -7.5h-139v298h141q65 0 100.5 -4.5zM657 67q35 26 55 68.5t20 95.5q0 109 -71 165q-41 32 -87 40t-119 8h-171v292h-284v-72h202v-656h250q73 0 118 13q44 13 87 46z
" />
    <glyph glyph-name="uni042B" unicode="&#x42b;" horiz-adv-x="912" 
d="M426 370q37 -5 64 -24q54 -38 54 -119q0 -41 -13.5 -68.5t-42.5 -48.5q-26 -19 -63 -26.5t-102 -7.5h-139v298h142q64 0 100 -4zM556 67q33 26 53 68.5t20 95.5q0 108 -70 165q-39 32 -84.5 40t-118.5 8h-172v292h-84v-728h253q73 0 118.5 13.5t84.5 45.5zM812 8v728h-83
v-728h83z" />
    <glyph glyph-name="uni042C" unicode="&#x42c;" horiz-adv-x="667" 
d="M422 370q36 -5 63 -24q54 -38 54 -119q0 -41 -14 -68.5t-42 -48.5q-26 -19 -62 -26.5t-100 -7.5h-137v298h140q62 0 98 -4zM552 67q34 26 54.5 68.5t20.5 95.5q0 108 -72 165q-41 32 -85 40q-45 8 -116 8h-170v292h-84v-728h251q71 0 115.5 13.5t85.5 45.5z" />
    <glyph glyph-name="uni042D" unicode="&#x42d;" horiz-adv-x="688" 
d="M532 662q-91 96 -254 96q-63 0 -122 -13q-62 -13 -106 -31v-99q43 34 104 53q58 20 125 20q50 0 94 -15t79.5 -44.5t57.5 -75.5q24 -46 31 -109l1 -8h-388v-73h392v-7q0 -67 -19 -119.5t-53.5 -93t-84 -64t-115 -23.5t-124.5 21q-62 20 -102 51v-98q42 -17 104 -30
q59 -14 126 -14q155 0 252 107q49 51 74.5 123.5t25.5 158.5q0 188 -98 287z" />
    <glyph glyph-name="uni042E" unicode="&#x42e;" horiz-adv-x="1029" 
d="M466 602.5q65 79.5 176 79.5t176 -80q65 -79 65 -229.5t-65 -230.5t-176 -80t-176 80.5t-65 230.5t65 229.5zM184 367h132v-7q4 -180 91.5 -278t236.5 -98t238 103q90 102 90 285t-89 285q-88 103 -241 103q-132 0 -218 -81.5t-103 -231.5l-1 -7h-136v304h-84v-744h84
v367z" />
    <glyph glyph-name="uni042F" unicode="&#x42f;" horiz-adv-x="693" 
d="M585 8v728h-232q-55 0 -98.5 -9t-77.5 -33q-36 -27 -58.5 -67t-22.5 -95q0 -87 40 -137q38 -52 108 -77l9 -3l-231 -307h100l214 296h165v-296h84zM501 668v-298h-149q-42 0 -75 8.5t-54.5 31t-30.5 50.5t-9 66t13 67q13 31 37 47q22 15 47.5 21.5t67.5 6.5h153z" />
    <glyph glyph-name="uni0430" unicode="&#x430;" horiz-adv-x="585" 
d="M418 82v-67h78v372q0 52 -15.5 87t-46 57t-71.5 31q-39 10 -89.5 10t-95.5 -8q-49 -9 -76 -17v-82q45 18 89 28q42 9 74.5 9t59.5 -3.5t47 -16.5q21 -14 33.5 -37t12.5 -58v-23q-86 -4 -152 -13t-113 -30q-50 -22 -75.5 -60.5t-25.5 -101.5q0 -77 50 -126t119 -49
q38 0 65 8q27 10 49 26h1q17 11 37 32q21 16 45 32zM340 85q-39 -21 -87 -21q-59 0 -87 26q-32 26 -32 78q0 46 28 72q27 27 65 38q32 9 86.5 14.5t104.5 8.5v-167q-39 -29 -78 -49z" />
    <glyph glyph-name="uni0431" unicode="&#x431;" horiz-adv-x="599" 
d="M471 66q73 83 73 208q0 131 -67 200q-33 33 -73 49q-40 15 -85 15t-85.5 -18t-76.5 -45l-14 -10l2 17q4 40 17 85q14 44 39 70.5t75 42.5t111 22q31 3 121 9v70q-25 -1 -56 -3t-68 -6v0q-91 -8 -145.5 -30t-88.5 -57q-25 -26 -44 -68q-18 -43 -29 -93.5t-16 -89.5
q-3 -39 -3 -78q0 -105 19.5 -177.5t58.5 -120.5q31 -37 73 -56q41 -18 90 -18q101 0 172 82zM301 460q73 0 116 -48q46 -48 46 -144t-44 -153q-41 -57 -116 -57q-31 0 -58 13q-27 12 -49 40q-26 33 -41.5 88t-15.5 143q0 24 3 64q40 27 78 40.5t81 13.5z" />
    <glyph glyph-name="uni0432" unicode="&#x432;" horiz-adv-x="579" 
d="M416 306l-6 2v14l4 2q35 17 57.5 45.5t22.5 68.5q0 70 -58 99q-27 13 -56 17t-86 4h-202v-543h217q56 0 90 10q35 9 66 32q27 21 43 52q16 29 16 67q0 54 -30 86.5t-78 43.5zM332.5 489.5q25.5 -2.5 46.5 -12.5q33 -17 33 -64q0 -23 -8 -41q-7 -18 -25.5 -30.5t-36.5 -16
t-53 -3.5h-118v170h101q35 0 60.5 -2.5zM350 263.5q21 -2.5 40 -11.5q31 -16 41 -35t10 -47.5t-11.5 -48.5t-34.5 -33q-22 -13 -51 -16.5t-81 -3.5h-92v198h121q37 0 58 -2.5z" />
    <glyph glyph-name="uni0433" unicode="&#x433;" horiz-adv-x="452" 
d="M171 15v476h277v67h-356v-543h79z" />
    <glyph glyph-name="uni0434" unicode="&#x434;" horiz-adv-x="606" 
d="M497 2v-136h73v203h-68v489h-324q0 -130 -27.5 -258t-88.5 -231h-58v-203h73v136h420zM424 488v-416h-288l7 12q40 66 70 169q31 102 37 235h174z" />
    <glyph glyph-name="uni0435" unicode="&#x435;" horiz-adv-x="580" 
d="M438 78q-53 -22 -108 -22q-42 0 -77 12.5t-61 38.5q-26 27 -42.5 67.5t-16.5 95.5v7h397v44q0 122 -59.5 187.5t-162.5 65.5q-112 0 -183 -80q-72 -81 -72 -218.5t76 -213.5q73 -75 200 -75q51 0 97 13q48 14 93 33v87q-25 -20 -81 -42zM453 342v-8h-321l1 9q6 68 53 114
q44 47 117.5 47t110.5 -43q39 -42 39 -119z" />
    <glyph glyph-name="uni0436" unicode="&#x436;" horiz-adv-x="787" 
d="M650.5 473.5q20.5 19.5 65.5 19.5h19v65h-27q-60 0 -95 -24q-34 -23 -55 -83q-11 -36 -22 -59q-17 -40 -44 -57t-60 -19h-8v242h-76v-242h-7q-33 2 -60 19t-44 58q-4 12 -11 28.5t-11 29.5q-22 60 -55 83q-35 24 -95 24h-27v-65h19q45 0 65 -18.5t34.5 -64t32 -69
t39.5 -35.5l8 -4l-210 -287h89l184 255h49v-255h76v255h51h4l175 -255h94l-208 291l7 4q20 11 38 35t31.5 66.5t34 62z" />
    <glyph glyph-name="uni0437" unicode="&#x437;" horiz-adv-x="507" 
d="M229 572q-82 0 -169 -34v-97q33 24 82 37q45 14 94 14q17 0 38 -4q23 -3 39 -12q18 -10 31.5 -26.5t13.5 -43.5q0 -37 -17 -54q-31 -32 -92 -34q-30 -1 -49 -1h-44v-67h68q22 0 50 -2q29 -1 48 -11q21 -11 34.5 -30.5t13.5 -51t-14 -50.5t-34 -30q-20 -12 -45 -17t-49 -5
q-51 0 -104 17q-56 18 -92 47v-88q49 -21 99 -31q48 -11 93.5 -11t82.5 9q38 8 70.5 28t53 51.5t20.5 77.5q0 54 -29 88t-78 46l-6 1v16l5 2q44 14 70 45.5t26 74t-20 70.5t-52 45q-57 31 -138 31z" />
    <glyph glyph-name="uni0438" unicode="&#x438;" horiz-adv-x="625" 
d="M533 15v543h-77l-285 -429v429h-79v-543h75l288 436v-436h78z" />
    <glyph glyph-name="uni0439" unicode="&#x439;" horiz-adv-x="625" 
d="M533 15v543h-77l-285 -429v429h-79v-543h75l288 436v-436h78zM203 676q40 -39 115.5 -39t116.5 39q41 37 45 102h-71q-1 -51 -23 -74q-24 -25 -67 -25q-88 0 -91 99h-70q4 -65 45 -102z" />
    <glyph glyph-name="uni043A" unicode="&#x43a;" horiz-adv-x="576" 
d="M432 475q23 18 66 18h33v65h-35q-70 0 -105 -26.5t-59 -81.5q-8 -19 -13 -31q-7 -16 -12 -27q-20 -39 -48.5 -56.5t-76.5 -17.5h-7v240h-79v-543h79v256h61l219 -256h102l-255 291l9 4q22 12 42 34.5t38 67t41 63.5z" />
    <glyph glyph-name="uni043B" unicode="&#x43b;" horiz-adv-x="605" 
d="M14 82v-67l38 -1q48 0 79 28q15 15 29 33q31 43 44 130q7 49 10 133v0q2 31 3 69.5t3 87.5h214v-480h79v543h-357q-1 -47 -2 -99v0q-1 -57 -3 -98q-6 -113 -20 -173q-16 -61 -43 -88q-18 -19 -52 -19z" />
    <glyph glyph-name="uni043C" unicode="&#x43c;" horiz-adv-x="683" 
d="M590 15v543h-103l-144 -322l-149 322h-102v-543h73v466l145 -312h57l146 312v-466h77z" />
    <glyph glyph-name="uni043D" unicode="&#x43d;" horiz-adv-x="622" 
d="M530 15v543h-79v-226h-280v226h-79v-543h79v252h280v-252h79z" />
    <glyph glyph-name="uni043E" unicode="&#x43e;" horiz-adv-x="591" 
d="M470 63q68 79 68 216t-67 216t-175.5 79t-175.5 -79t-67 -216.5t68 -215.5q67 -79 174.5 -79t174.5 79zM412 445q45 -55 45 -165t-45 -166q-42 -56 -116.5 -56t-116.5 57q-44 56 -44 166t44 165q42 54 116.5 54t116.5 -55z" />
    <glyph glyph-name="uni043F" unicode="&#x43f;" horiz-adv-x="622" 
d="M530 15v543h-438v-543h79v478h280v-478h79z" />
    <glyph glyph-name="uni0440" unicode="&#x440;" horiz-adv-x="608" 
d="M535 161q19 57 19 125q0 137 -54.5 212.5t-146.5 75.5q-47 0 -90 -20.5t-80 -51.5l-12 -11v67h-79v-764h79v239l11 -6q35 -19 67.5 -28.5t75 -9.5t83.5 20q42 20 75 58q33 37 52 94zM171 425q85 67 159 67q72 0 106 -53q36 -52 36 -157t-46 -160q-44 -56 -120 -56
q-34 0 -62 6.5t-73 26.5v326z" />
    <glyph glyph-name="uni0441" unicode="&#x441;" horiz-adv-x="517" 
d="M399 559q-44 13 -88 13q-115 0 -186 -80q-72 -80 -72 -214q0 -75 20 -129q40 -109 136 -143q47 -18 102 -18q37 0 75 10q39 10 94 35v90q-35 -25 -60 -38q-56 -29 -112 -29q-81 0 -126 58q-47 59 -47 164.5t47 165.5q45 60 126 60q40 0 84 -18q45 -17 88 -50v91
q-36 18 -81 32z" />
    <glyph glyph-name="uni0442" unicode="&#x442;" horiz-adv-x="478" 
d="M276 15v476h197v67h-468v-67h197v-476h74z" />
    <glyph glyph-name="uni0443" unicode="&#x443;" horiz-adv-x="576" 
d="M149 -206h80l309 764h-82l-171 -426l-169 426h-86l215 -534z" />
    <glyph glyph-name="uni0444" unicode="&#x444;" horiz-adv-x="831" 
d="M757.5 162q18.5 58 18.5 132q0 129 -54.5 203t-147.5 74q-30 0 -59 -9t-51 -23l-11 -7v246h-75v-246l-11 7q-23 14 -46.5 23t-50.5 9q-39 0 -77 -19q-40 -19 -70 -56t-48.5 -92t-18.5 -126q0 -135 58 -211q58 -75 148 -75q39 0 57.5 8t58.5 29v-235h75v235q24 -13 50 -25
t57 -12q41 0 79 19q39 20 69 56q31 37 49.5 95zM507 493q19 5 47 5q70 0 104 -58q36 -58 36 -159t-41 -159q-39 -58 -111 -58q-30 0 -45.5 7t-43.5 20v382q35 14 54 20zM330 72q-23 -8 -50 -8q-69 0 -105 59q-38 59 -38 159q0 108 42 162q40 54 110 54q24 0 44.5 -7
t44.5 -18v-382q-25 -11 -48 -19z" />
    <glyph glyph-name="uni0445" unicode="&#x445;" horiz-adv-x="576" 
d="M276 234l155 -219h99l-209 277l209 266h-91l-154 -215l-154 215h-99l205 -273l-207 -270h91z" />
    <glyph glyph-name="uni0446" unicode="&#x446;" horiz-adv-x="630" 
d="M92 3h429v-137h72v204h-67v488h-78v-477h-277v477h-79v-555z" />
    <glyph glyph-name="uni0447" unicode="&#x447;" horiz-adv-x="590" 
d="M498 15v543h-79v-268q-36 -11 -75 -17q-38 -7 -74 -7t-60 10q-47 18 -56 77q-4 26 -4 59v146h-79v-194q0 -81 45 -123t128 -42q45 0 83 8t92 25v-217h79z" />
    <glyph glyph-name="uni0448" unicode="&#x448;" horiz-adv-x="867" 
d="M774 15v543h-79v-477h-223v477h-76v-477h-225v477h-79v-543h682z" />
    <glyph glyph-name="uni0449" unicode="&#x449;" horiz-adv-x="879" 
d="M92 3h677v-137h73v204h-68v488h-78v-477h-223v477h-76v-477h-226v477h-79v-555z" />
    <glyph glyph-name="uni044A" unicode="&#x44a;" horiz-adv-x="626" 
d="M409 269.5q27 -2.5 48 -15.5q22 -13 31.5 -33.5t9.5 -49.5t-10 -48q-23 -41 -80 -51q-27 -4 -76 -4h-89v204h91q48 0 75 -2.5zM455 25q36 10 68 35q27 18 42 50t15 71t-14 70.5t-41 52.5q-33 24 -66 31q-33 6 -92 6h-124v217h-238v-67h162v-476h197q56 0 91 10z" />
    <glyph glyph-name="uni044B" unicode="&#x44b;" horiz-adv-x="783" 
d="M339.5 269.5q26.5 -2.5 48.5 -15.5q21 -13 30 -33.5t9 -49.5t-9 -48q-10 -20 -31 -33q-20 -13 -48 -17.5t-77 -4.5h-91v204h93q49 0 75.5 -2.5zM451 60q26 19 41 50.5t15 70.5t-13.5 70.5t-39.5 52.5q-31 24 -64 30.5t-93 6.5h-126v217h-79v-543h203q56 0 90.5 10
t65.5 35zM691 15v543h-79v-543h79z" />
    <glyph glyph-name="uni044C" unicode="&#x44c;" horiz-adv-x="554" 
d="M339.5 269.5q25.5 -2.5 45.5 -15.5q22 -13 32 -33.5t10 -49.5t-11 -48q-23 -41 -78 -51q-25 -4 -72 -4h-95v204h97q46 0 71.5 -2.5zM383 25q36 10 68 35q27 18 42 50t15 71t-14 70.5t-41 52.5q-33 24 -66 31q-31 6 -88 6h-128v217h-79v-543h204q54 0 87 10z" />
    <glyph glyph-name="uni044D" unicode="&#x44d;" horiz-adv-x="530" 
d="M52 532v-90q85 63 174 63q67 0 114 -43q49 -43 59 -127l1 -9h-268v-62h268l-1 -8q-6 -98 -56 -150q-48 -51 -123 -51q-51 0 -100 18q-48 18 -78 40v-89q32 -13 75 -24q47 -11 94 -12q117 0 191 81q75 82 75 222q0 72 -20 124q-39 105 -135 140q-46 17 -97.5 17t-96.5 -14
q-45 -15 -76 -26z" />
    <glyph glyph-name="uni044E" unicode="&#x44e;" horiz-adv-x="829" 
d="M651 445q43 -55 43 -165.5t-44 -165.5q-42 -56 -116 -56t-116.5 56t-42.5 163t40.5 165t117 58t118.5 -55zM171 260h128v-7q6 -125 69 -196.5t168 -72.5q110 0 174 79q66 79 66 216.5t-66 215.5q-66 79 -174 79q-94 0 -158.5 -61t-75.5 -174l-1 -7h-130v226h-79v-558h79
v260z" />
    <glyph glyph-name="uni044F" unicode="&#x44f;" horiz-adv-x="584" 
d="M484 15v543h-203q-42 0 -77.5 -6.5t-63.5 -24.5q-28 -19 -47 -48.5t-19 -70.5q0 -65 32 -104.5t99 -58.5l10 -3l-181 -227h91l163 222h117v-222h79zM405 492v-204h-118q-31 0 -57 6q-28 5 -45 20q-18 18 -24 36t-6 44q0 58 39 81q20 10 37 13.5t53 3.5h121z" />
    <glyph glyph-name="uni0451" unicode="&#x451;" horiz-adv-x="580" 
d="M364 750v-83h82v83h-82zM170 750v-83h79v83h-79zM438 78q-53 -22 -108 -22q-42 0 -77 12.5t-61 38.5q-26 27 -42.5 67.5t-16.5 95.5v7h397v44q0 122 -59.5 187.5t-162.5 65.5q-112 0 -183 -80q-72 -81 -72 -218.5t76 -213.5q73 -75 200 -75q51 0 97 13q48 14 93 33v87
q-25 -20 -81 -42zM453 342v-8h-321l1 9q6 68 53 114q44 47 117.5 47t110.5 -43q39 -42 39 -119z" />
    <glyph glyph-name="uni0452" unicode="&#x452;" horiz-adv-x="618" 
d="M507 -23q21 64 23 153l1 117q0 39 -0.5 65.5t-0.5 51.5q-2 100 -47 156q-45 54 -127 54q-45 0 -89.5 -20.5t-85.5 -55.5l-12 -10v161h153v52h-153v77h-77v-77h-82v-52h82v-647h77v422q39 32 81 52t79.5 20t60.5 -11t37 -36q14 -21 19 -55t5 -75v-152q-4 -173 -44 -239
q-39 -65 -132 -65h-25v-64q13 -1 17 -1h17q49 0 91 19q43 20 77 58q35 39 55 102z" />
    <glyph glyph-name="uni0453" unicode="&#x453;" horiz-adv-x="452" 
d="M223 661h52l118 172h-98zM171 15v476h277v67h-356v-543h79z" />
    <glyph glyph-name="uni0454" unicode="&#x454;" horiz-adv-x="530" 
d="M410 559q-44 13 -92 13q-122 0 -193 -82q-72 -82 -72 -212q0 -73 20 -128q39 -108 141 -144q48 -18 104 -18q57 0 95 10t74 24v90q-30 -23 -76 -40t-97 -17q-79 0 -127 53q-51 54 -56 148v8h273v62h-272l1 9q13 85 63 128q48 42 118 42q47 0 94 -20q48 -20 79 -43v88
q-33 15 -77 29z" />
    <glyph glyph-name="uni0455" unicode="&#x455;" horiz-adv-x="503" 
d="M401 34q61 47 61 120q0 57 -33.5 92t-96.5 49q-27 8 -53 13t-50 11q-45 11 -67 30q-23 20 -23 57q0 44 38 65q34 21 82.5 21t95.5 -18q50 -17 85 -41v92q-32 21 -81 36q-47 11 -93 11t-85 -13q-42 -14 -69 -37q-27 -24 -40.5 -53.5t-13.5 -63.5q0 -54 28.5 -90t99.5 -56
q27 -9 55 -15t47 -10q51 -12 71 -31q22 -20 22 -56v-1q0 -49 -38 -71q-34 -22 -93 -22q-47 0 -99 19q-54 20 -96 52v-92q33 -17 83 -31q49 -15 104 -15q99 0 159 48z" />
    <glyph glyph-name="uni0456" unicode="&#x456;" horiz-adv-x="266" 
d="M88 750v-83h91v83h-91zM173 15v543h-79v-543h79z" />
    <glyph glyph-name="uni0457" unicode="&#x457;" horiz-adv-x="266" 
d="M184 750v-83h79v83h-79zM2 750v-83h80v83h-80zM173 15v543h-79v-543h79z" />
    <glyph glyph-name="uni0458" unicode="&#x458;" horiz-adv-x="337" 
d="M160 750v-83h91v83h-91zM163 -48q-3 -30 -15 -51q-24 -44 -96 -44q-36 0 -83 18v-75q20 -5 50 -8.5t49 -3.5q81 0 129 48t48 142v580h-195v-65h116v-469q0 -41 -3 -72z" />
    <glyph glyph-name="uni0459" unicode="&#x459;" horiz-adv-x="906" 
d="M688 269.5q27 -2.5 49 -15.5t31.5 -33.5t9.5 -49.5t-10 -48q-23 -41 -81 -51q-28 -4 -77 -4h-92v204h94q49 0 76 -2.5zM14 82v-67l38 -1q48 0 79 28q16 15 30 33q32 43 45 130q7 49 11 133v0q2 31 3 69.5t3 87.5h218v-480h201q57 0 93 10t68 35q27 18 42 50t15 71
t-14 70.5t-41 52.5q-33 24 -66 31q-33 6 -94 6h-127v217h-361q-2 -47 -2 -99v0q-1 -57 -3 -98q-6 -113 -21 -173q-16 -61 -43 -88q-18 -19 -52 -19z" />
    <glyph glyph-name="uni045A" unicode="&#x45a;" horiz-adv-x="906" 
d="M688.5 269.5q27.5 -2.5 48.5 -15.5q22 -13 31.5 -33.5t9.5 -49.5t-10 -48q-23 -41 -81 -51q-28 -4 -77 -4h-91v204h93q49 0 76.5 -2.5zM735 25q36 10 68 35q27 18 42 50t15 71t-14 70.5t-41 52.5q-33 24 -66 31q-33 6 -94 6h-126v217h-77v-217h-271v217h-79v-543h79v264
h271v-264h200q58 0 93 10z" />
    <glyph glyph-name="uni045B" unicode="&#x45b;" horiz-adv-x="618" 
d="M530 15v355q0 99 -46 152q-46 52 -130 52q-85 0 -173 -76l-12 -10v161h153v52h-153v77h-77v-77h-82v-52h82v-634h77v413q39 32 81 51.5t79.5 19.5t61.5 -11t37 -34q13 -20 18 -55t5 -73v-311h79z" />
    <glyph glyph-name="uni045C" unicode="&#x45c;" horiz-adv-x="576" 
d="M268 661h55l118 172h-97zM432 475q23 18 66 18h33v65h-35q-70 0 -105 -26.5t-59 -81.5q-8 -19 -13 -31q-7 -16 -12 -27q-20 -39 -48.5 -56.5t-76.5 -17.5h-7v240h-79v-543h79v256h61l219 -256h102l-255 291l9 4q22 12 42 34.5t38 67t41 63.5z" />
    <glyph glyph-name="uni045D" unicode="&#x45d;" horiz-adv-x="625" 
d="M192 838l119 -172h54l-77 172h-96zM533 15v543h-77l-285 -429v429h-79v-543h75l288 436v-436h78z" />
    <glyph glyph-name="uni045E" unicode="&#x45e;" horiz-adv-x="576" 
d="M149 -206h80l309 764h-82l-171 -426l-169 426h-86l215 -534zM170 676q40 -39 117 -39t117 39q39 37 43 102h-68q-1 -51 -24 -74q-23 -25 -68 -25q-89 0 -92 99h-68q3 -65 43 -102z" />
    <glyph glyph-name="uni045F" unicode="&#x45f;" horiz-adv-x="622" 
d="M278 -134h67v137h185v555h-79v-478h-280v478h-79v-555h186v-137z" />
    <glyph glyph-name="uni0460" unicode="&#x460;" horiz-adv-x="985" 
 />
    <glyph glyph-name="uni0478" unicode="&#x478;" horiz-adv-x="1186" 
d="M548 660q-36 47 -88 73.5t-117.5 26.5t-118.5 -27q-107 -54 -146 -198q-20 -72 -20 -164.5t20.5 -164.5t57.5 -121.5t89.5 -75t117 -25.5t116.5 26q105 52 147 195q20 72 20 166t-20 166.5t-58 122.5zM526 502q14 -57 14 -130t-13.5 -131t-39 -97.5t-62 -60.5t-81.5 -21
t-83 21q-73 42 -102 158q-14 57 -14 130.5t14 131t39 97.5t62.5 61t83 21t81.5 -21q74 -43 101 -159zM818 -206h82l283 749h-82l-152 -429l-151 429h-84l192 -524z" />
    <glyph glyph-name="uni0479" unicode="&#x479;" horiz-adv-x="1035" 
d="M481 156q15 55 15 123.5t-15 123t-44 93t-70 58.5q-40 20 -90.5 20t-91.5 -20q-83 -40 -116 -151q-16 -55 -16 -123.5t16 -123.5q32 -109 116 -151q40 -20 91 -20.5t91.5 20.5t69.5 58.5t44 92.5zM173 445q37 55 103.5 55t103.5 -55.5t37 -164.5t-37 -165.5t-104 -56.5
t-104 57q-37 56 -37 165.5t38 164.5zM668 -206h82l282 764h-83l-151 -429l-150 429h-84l193 -534z" />
    <glyph glyph-name="uni047C" unicode="&#x47c;" horiz-adv-x="977" 
d="M792 733q-40 25 -94 25q-68 0 -122 -17v-93q27 20 51 30q27 11 66 11q31 0 56 -20q53 -42 73 -156q10 -57 10 -135.5t-15 -136.5t-38.5 -95.5t-55.5 -55.5t-67 -18q-94 0 -167 96q-73 -96 -167 -96h-1q-35 0 -67 18q-65 37 -94 151q-15 58 -15 136q0 152 39 232
q18 39 43.5 59.5t56.5 20.5q34 0 66 -11q23 -9 52 -30v93q-28 9 -56.5 13t-66.5 4q-52 0 -92 -25q-83 -52 -114 -197q-15 -72 -15 -167.5t18.5 -168.5t52.5 -120.5t80.5 -70.5t101.5 -23q80 0 139 44q18 13 39 32q22 -19 39 -32t38 -23q46 -21 101 -21t101 23q95 48 133 191
q19 73 19 168q0 188 -58 290q-28 49 -70 75zM407.5 1021q26.5 0 58.5 -18q13 -7 27.5 -16t30.5 -16q38 -17 84 -17h75v56h-71q-23 0 -39 5q-29 9 -60 30q-26 18 -58 26q-17 5 -39.5 5t-42.5 -8q-63 -27 -73 -117h50q4 30 16 48q15 22 41.5 22zM527 816q5 17 5 36v64h-78v-62
h46v-8q0 -47 -45 -57v-29q56 8 72 56z" />
    <glyph glyph-name="uni047D" unicode="&#x47d;" horiz-adv-x="803" 
d="M606 86q-24 -20 -63 -20q-51 0 -85 33q-16 15 -29.5 34.5t-26.5 39.5h-1q-12 -21 -25.5 -40t-30.5 -34q-35 -33 -85 -33q-38 0 -62 19q-45 36 -56 122q-5 38 -5 84.5t8 87.5t22 69t34.5 42.5t44.5 14.5q22 0 46 -7q11 -3 19 -7.5t15 -8.5v78q-20 5 -40 8.5t-49 3.5
q-39 0 -72 -19q-33 -20 -57.5 -57.5t-37.5 -92t-13 -125.5q0 -143 50 -217q25 -38 62 -57t90 -19q45 0 80 21q31 19 54 54l2 3h10q13 -20 27 -33t31 -23q37 -22 81 -22q103 0 153 76q49 73 49 217q0 218 -100 275q-34 19 -80 19q-29 0 -49 -3.5t-40 -8.5v-78l14 7
q30 16 67 16q24 0 44 -15q41 -29 56 -111q8 -41 8 -87.5t-5 -85.5q-10 -84 -55 -120zM406 801q52 -33 113 -33h75v56h-71q-22 0 -39 5q-28 9 -58 30q-26 17 -58 26q-17 5 -39.5 5t-42.5 -8q-41 -18 -60 -66q-9 -22 -12 -51h49q11 70 59 70q16 0 30 -5q25 -10 54 -29z
M439 630q6 17 6 36v64h-77v-62h45v-8q-1 -47 -45 -57v-29q54 7 71 56z" />
    <glyph glyph-name="uni0487" unicode="&#x487;" horiz-adv-x="621" 
d="M179 716q15 22 43 22q16 0 29 -5q23 -10 51 -29q48 -33 110 -33h77v56h-72q-40 0 -71 19q-13 7 -25 16q-25 18 -54 26q-16 5 -37 5q-23 0 -43 -8q-44 -18 -63 -66q-10 -22 -13 -51h52q5 29 16 48z" />
    <glyph glyph-name="uni0490" unicode="&#x490;" horiz-adv-x="550" 
d="M184 15v656h367v279h-78v-206h-373v-729h84z" />
    </font>
</defs>
</svg>
